<svg width="360" height="270" viewBox="0 0 360 270" fill="none" xmlns="http://www.w3.org/2000/svg">
<path d="M348.178 242.136H11.8205C11.7504 242.147 11.6783 242.144 11.6098 242.124C11.541 242.105 11.4774 242.072 11.4231 242.025C11.3689 241.979 11.3256 241.922 11.2955 241.857C11.2655 241.793 11.25 241.722 11.25 241.651C11.25 241.58 11.2655 241.51 11.2955 241.445C11.3256 241.381 11.3689 241.323 11.4231 241.277C11.4774 241.231 11.541 241.197 11.6098 241.178C11.6783 241.159 11.7504 241.155 11.8205 241.167H348.178C348.249 241.155 348.32 241.159 348.388 241.178C348.459 241.197 348.521 241.231 348.576 241.277C348.63 241.323 348.672 241.381 348.705 241.445C348.734 241.51 348.75 241.58 348.75 241.651C348.75 241.722 348.734 241.793 348.705 241.857C348.672 241.922 348.63 241.979 348.576 242.025C348.521 242.072 348.459 242.105 348.388 242.124C348.32 242.144 348.249 242.147 348.178 242.136Z" fill="#D0D5DD"/>
<path d="M98.8973 177.504C97.7441 196.598 99.3108 216.807 98.332 235.924L105.151 236.806L105.423 232.91L105.474 232.93C106.766 214.84 110.21 195.416 111.896 177.281L98.8973 177.504Z" fill="#FFC3BD"/>
<path d="M105.946 227.242H98.6131C98.5646 230.149 98.4806 233.056 98.332 235.925L101.507 236.335L105.206 236.012L105.423 232.901L105.474 232.92C105.61 231.04 105.775 229.144 105.952 227.238L105.946 227.242Z" fill="white"/>
<path d="M98.1915 233.364L98.1688 234.036C98.163 234.607 98.0603 235.174 97.8652 235.712L97.0285 238.06C96.7979 238.725 96.68 239.424 96.6797 240.128V240.244C96.6836 240.359 96.71 240.472 96.7578 240.576C96.8057 240.681 96.8738 240.775 96.9585 240.852C97.0428 240.93 97.1419 240.991 97.2498 241.03C97.358 241.069 97.4727 241.086 97.5874 241.081H105.934C106.165 241.088 106.39 241.004 106.559 240.848C106.729 240.691 106.831 240.474 106.842 240.244V239.944C106.842 239.335 106.748 238.73 106.561 238.151L105.841 235.757C105.683 235.269 105.604 234.758 105.608 234.245V233.364C105.604 232.808 105.388 232.276 105.004 231.874L104.888 231.736C104.122 230.955 103.078 230.51 101.984 230.496C100.89 230.483 99.836 230.903 99.0507 231.664L98.844 231.874C98.455 232.276 98.2234 232.805 98.1915 233.364Z" fill="#2970FF"/>
<path opacity="0.6" d="M96.6797 239.594H106.82C106.838 239.709 106.846 239.826 106.842 239.943V240.243C106.839 240.358 106.812 240.471 106.764 240.575C106.716 240.68 106.648 240.774 106.564 240.852C106.479 240.929 106.38 240.99 106.272 241.029C106.164 241.068 106.049 241.085 105.934 241.08H97.5874C97.3568 241.087 97.1326 241.003 96.9627 240.847C96.7931 240.69 96.6916 240.474 96.6797 240.243V239.597V239.594Z" fill="black"/>
<path d="M103.704 233.733C103.724 233.683 103.726 233.627 103.709 233.575C103.692 233.523 103.657 233.48 103.61 233.452C103.071 233.188 102.479 233.051 101.879 233.051C101.278 233.051 100.686 233.188 100.147 233.452C100.122 233.464 100.1 233.481 100.082 233.502C100.063 233.522 100.05 233.547 100.041 233.573C100.032 233.599 100.029 233.627 100.031 233.654C100.033 233.682 100.041 233.708 100.053 233.733C100.065 233.758 100.082 233.78 100.102 233.798C100.123 233.816 100.146 233.83 100.172 233.839C100.198 233.848 100.226 233.851 100.253 233.849C100.28 233.847 100.307 233.839 100.331 233.827C100.811 233.599 101.335 233.48 101.866 233.48C102.396 233.48 102.921 233.599 103.4 233.827C103.428 233.844 103.461 233.853 103.494 233.849C103.536 233.849 103.577 233.839 103.614 233.818C103.65 233.798 103.681 233.769 103.704 233.733Z" fill="white"/>
<path d="M103.704 234.807C103.725 234.757 103.727 234.701 103.709 234.65C103.692 234.599 103.657 234.556 103.61 234.529C103.072 234.263 102.479 234.125 101.879 234.125C101.278 234.125 100.686 234.263 100.147 234.529C100.098 234.553 100.061 234.596 100.043 234.648C100.026 234.7 100.029 234.757 100.054 234.807C100.078 234.856 100.121 234.893 100.173 234.911C100.225 234.928 100.282 234.925 100.332 234.9C100.811 234.671 101.335 234.552 101.866 234.552C102.397 234.552 102.921 234.671 103.4 234.9C103.428 234.918 103.461 234.926 103.494 234.923C103.536 234.923 103.577 234.912 103.614 234.892C103.651 234.871 103.682 234.842 103.704 234.807Z" fill="white"/>
<path d="M103.704 235.854C103.724 235.804 103.726 235.748 103.709 235.696C103.692 235.644 103.657 235.601 103.61 235.573C103.071 235.309 102.479 235.172 101.879 235.172C101.278 235.172 100.686 235.309 100.147 235.573C100.122 235.585 100.1 235.602 100.082 235.623C100.063 235.644 100.05 235.668 100.041 235.694C100.032 235.72 100.029 235.748 100.031 235.775C100.033 235.803 100.041 235.83 100.053 235.854C100.065 235.879 100.082 235.901 100.102 235.919C100.123 235.937 100.146 235.951 100.172 235.96C100.198 235.969 100.226 235.972 100.253 235.97C100.28 235.968 100.307 235.96 100.331 235.948C100.811 235.72 101.335 235.602 101.866 235.602C102.396 235.602 102.921 235.72 103.4 235.948C103.428 235.966 103.461 235.973 103.494 235.97C103.536 235.97 103.577 235.959 103.614 235.939C103.65 235.919 103.681 235.89 103.704 235.854Z" fill="white"/>
<path d="M138.101 236.594L132.61 232.469C132.171 232.13 131.81 231.701 131.549 231.212C131.288 230.722 131.135 230.183 131.098 229.629L131.964 190.924C131.964 190.714 131.964 190.507 131.945 190.297L130.975 177.195L117.408 178.714L119.912 193.767V194.09C119.614 200.463 120.08 206.85 121.301 213.113L121.507 214.185C122.221 217.929 123.055 222.933 123.614 227.543L124.334 236.248L138.101 236.594Z" fill="#FFC3BD"/>
<path d="M123.632 227.542L124.352 236.248L138.101 236.603L132.609 232.478C132.17 232.139 131.809 231.71 131.548 231.221C131.287 230.731 131.134 230.192 131.097 229.638L131.281 227.238L123.629 227.542" fill="white"/>
<path opacity="0.15" d="M124.857 231.306C124.99 232.847 127.147 233.832 128.598 234.414L130.672 235.237L124.356 235.929L123.71 228.253C123.155 223.45 122.273 218.12 121.52 214.179L121.313 213.107C120.093 206.844 119.626 200.457 119.924 194.083V193.76L118.396 183.175L120.981 182.852L122.273 193.512C122.273 193.512 121.304 205.787 123.397 215.358C123.397 215.358 124.237 223.111 124.689 228.253C124.76 229.08 124.818 229.839 124.864 230.486L124.857 231.306Z" fill="black"/>
<path d="M124.243 233.059L127.322 234.028C127.542 234.097 127.776 234.108 128.003 234.061C128.229 234.014 128.439 233.91 128.614 233.76L131.046 231.686C131.312 231.458 131.648 231.329 131.997 231.321C132.347 231.312 132.689 231.425 132.965 231.641L138.456 235.901L142.785 237.329C143.407 237.54 143.947 237.939 144.331 238.471C144.715 239.003 144.923 239.642 144.927 240.298C144.926 240.481 144.853 240.656 144.724 240.786C144.594 240.915 144.419 240.988 144.235 240.989H125.047C124.83 240.99 124.615 240.948 124.414 240.865C124.214 240.783 124.031 240.661 123.877 240.508C123.724 240.354 123.602 240.172 123.519 239.971C123.436 239.771 123.393 239.556 123.394 239.338V233.685C123.396 233.584 123.421 233.483 123.468 233.393C123.515 233.302 123.582 233.223 123.664 233.163C123.746 233.102 123.841 233.061 123.941 233.043C124.042 233.025 124.145 233.031 124.243 233.059Z" fill="#2970FF"/>
<path opacity="0.6" d="M123.418 239.59H144.838C144.903 239.814 144.933 240.047 144.929 240.281C144.928 240.464 144.855 240.639 144.725 240.769C144.595 240.898 144.42 240.971 144.237 240.972H125.049C124.658 240.971 124.279 240.833 123.981 240.579C123.682 240.326 123.483 239.976 123.418 239.59Z" fill="black"/>
<path d="M132.991 233.835L134.154 232.585C134.185 232.552 134.202 232.508 134.202 232.463C134.202 232.417 134.185 232.373 134.154 232.34C134.121 232.307 134.077 232.289 134.031 232.289C133.985 232.289 133.941 232.307 133.908 232.34L132.745 233.59C132.715 233.623 132.697 233.667 132.697 233.713C132.697 233.758 132.715 233.802 132.745 233.835C132.776 233.864 132.816 233.88 132.858 233.881C132.906 233.876 132.951 233.861 132.991 233.835Z" fill="white"/>
<path d="M133.9 234.536L135.06 233.286C135.092 233.253 135.111 233.209 135.111 233.163C135.111 233.117 135.092 233.073 135.06 233.04C135.027 233.009 134.983 232.992 134.937 232.992C134.892 232.992 134.848 233.009 134.815 233.04L133.655 234.29C133.623 234.323 133.604 234.367 133.604 234.413C133.604 234.459 133.623 234.503 133.655 234.536C133.685 234.564 133.724 234.58 133.765 234.581C133.813 234.576 133.859 234.561 133.9 234.536Z" fill="white"/>
<path d="M134.821 235.263L135.981 234.012C136.013 233.979 136.031 233.936 136.031 233.89C136.031 233.843 136.013 233.8 135.981 233.767C135.947 233.736 135.904 233.719 135.858 233.719C135.813 233.719 135.769 233.736 135.735 233.767L134.576 235.017C134.543 235.05 134.525 235.094 134.525 235.14C134.525 235.186 134.543 235.23 134.576 235.263C134.606 235.29 134.645 235.306 134.686 235.308C134.735 235.311 134.783 235.294 134.821 235.263Z" fill="white"/>
<path d="M112.442 183.819L97.7119 183.796L98.5615 164.198C98.6481 162.206 98.5844 160.21 98.3709 158.228C97.9413 154.206 98.0479 150.547 98.2708 146.179L98.6907 144.086L127.873 147.2L131.863 181.709L117.207 183.227L114.196 163.468L112.442 183.819Z" fill="#101828"/>
<g opacity="0.3">
<path opacity="0.3" d="M114.522 163.801L114.199 163.794L114.361 149.297H115.953V158.096L114.991 159.996L114.7 159.847L115.63 158.019V149.62H114.684L114.522 163.801Z" fill="black"/>
</g>
<path opacity="0.3" d="M100.353 183.82L101.083 170.059C101.195 168.096 101.195 166.127 101.083 164.164C100.786 159.19 100.958 154.198 101.597 149.256L98.0437 146.672V151.194C97.8984 153.375 98.1019 154.87 98.2214 157.054C98.6213 160.557 98.7292 164.087 98.5444 167.607L97.7207 183.82H100.353Z" fill="black"/>
<g opacity="0.3">
<path opacity="0.3" d="M127.792 154.707C124.727 151.896 123.874 147.923 123.864 147.901L124.187 147.836C124.187 147.875 125.03 151.712 128.018 154.468L127.792 154.707Z" fill="black"/>
</g>
<path opacity="0.3" d="M117.204 183.235L119.326 182.912L116.455 165.614C116.086 162.985 114.193 163.799 114.193 163.799L117.204 183.235Z" fill="black"/>
<path d="M93.7918 123.272L94.1148 120.196L96.8021 130.091L97.7711 149.453L106.412 150.038C113.884 150.588 121.389 149.607 128.469 147.156C127.861 134.103 125.561 116.646 125.561 116.646L124.757 111.268L135.094 106.099L130.895 96.3438L126.256 97.4033C124.105 97.6746 118.965 98.6567 118.965 98.6567L110.418 99.0346L99.6738 98.55L88.2062 102.649C84.443 104.529 84.4433 109.908 84.4433 109.908L83.4189 122.183L93.7918 123.272Z" fill="#2970FF"/>
<path d="M93.9948 156.854L92.8771 138.28L92.8286 138.302L92.4636 132.517L93.1484 123.278L84.0713 122.219L83.9421 131.851C83.8894 132.501 83.9398 133.156 84.0907 133.79L85.4765 141.891L89.6759 158.043L93.9948 156.854Z" fill="#FFC3BD"/>
<path d="M146.204 95.3993C142.347 89.4749 124.784 80.8242 124.784 80.8242L121.302 83.6863L135.105 95.3993L130.905 96.3684L135.105 106.124L143.365 102.002C147.961 99.7085 146.204 95.3993 146.204 95.3993Z" fill="#FFC3BD"/>
<path d="M98.3012 163.27L87.596 160.688C87.4451 160.651 87.2933 160.744 87.2571 160.895L86.0254 166.001C85.9892 166.152 86.0819 166.303 86.2328 166.34L96.938 168.922C97.0888 168.958 97.2407 168.865 97.2768 168.715L98.5086 163.608C98.5447 163.458 98.452 163.306 98.3012 163.27Z" fill="#101828"/>
<path opacity="0.3" d="M98.3012 163.27L87.596 160.688C87.4451 160.651 87.2933 160.744 87.2571 160.895L86.0254 166.001C85.9892 166.152 86.0819 166.303 86.2328 166.34L96.938 168.922C97.0888 168.958 97.2407 168.865 97.2768 168.715L98.5086 163.608C98.5447 163.458 98.452 163.306 98.3012 163.27Z" fill="black"/>
<path d="M97.935 163.18L87.2298 160.598C87.0789 160.561 86.9271 160.654 86.8909 160.805L85.6592 165.911C85.623 166.062 85.7157 166.214 85.8666 166.25L96.5718 168.832C96.7226 168.869 96.8744 168.776 96.9109 168.625L98.1423 163.519C98.1788 163.368 98.0858 163.216 97.935 163.18Z" fill="#101828"/>
<path opacity="0.4" d="M97.2072 164.183C97.2757 164.119 97.3187 164.032 97.328 163.939C97.3374 163.846 97.3128 163.752 97.2589 163.676C97.2314 163.641 97.1975 163.612 97.1584 163.59C97.1193 163.569 97.0764 163.556 97.0321 163.552C96.9879 163.548 96.9433 163.553 96.901 163.568C96.859 163.581 96.8202 163.604 96.7873 163.634C96.7178 163.698 96.6749 163.785 96.6658 163.878C96.6568 163.972 96.6829 164.065 96.7388 164.141C96.766 164.176 96.7999 164.205 96.8386 164.226C96.8774 164.247 96.92 164.259 96.964 164.263C97.0076 164.267 97.0518 164.262 97.0938 164.248C97.1355 164.235 97.1743 164.212 97.2072 164.183Z" fill="black"/>
<path d="M97.272 164.213C97.3424 164.15 97.3867 164.063 97.3964 163.969C97.4058 163.875 97.3799 163.781 97.3237 163.706C97.2966 163.671 97.2627 163.642 97.2239 163.621C97.1851 163.6 97.1425 163.587 97.0986 163.583C97.0546 163.579 97.0104 163.584 96.9687 163.598C96.9267 163.612 96.8883 163.634 96.8553 163.664C96.7868 163.728 96.7439 163.814 96.7345 163.907C96.7248 164 96.7493 164.094 96.8036 164.171C96.8308 164.205 96.865 164.234 96.9034 164.255C96.9422 164.276 96.9848 164.289 97.0288 164.293C97.0727 164.297 97.117 164.292 97.1586 164.278C97.2006 164.264 97.2391 164.242 97.272 164.213Z" fill="#182230"/>
<path opacity="0.5" d="M97.2033 164.126C97.2456 164.084 97.2715 164.029 97.277 163.969C97.2821 163.91 97.2663 163.851 97.2324 163.803C97.2149 163.777 97.192 163.756 97.1652 163.74C97.1387 163.724 97.1087 163.715 97.0776 163.712C97.047 163.709 97.016 163.713 96.9866 163.724C96.9575 163.735 96.9313 163.751 96.9094 163.774C96.8674 163.815 96.8412 163.871 96.836 163.93C96.8305 163.989 96.8464 164.048 96.8803 164.097C96.8977 164.122 96.9207 164.144 96.9475 164.159C96.9743 164.175 97.004 164.185 97.035 164.188C97.066 164.19 97.097 164.186 97.1261 164.176C97.1552 164.165 97.1817 164.148 97.2033 164.126Z" fill="black"/>
<path opacity="0.4" d="M97.204 163.937C97.207 163.886 97.1918 163.835 97.1611 163.794C97.1304 163.752 97.0861 163.723 97.0361 163.711H97.0748C97.1036 163.711 97.132 163.717 97.1585 163.728C97.185 163.739 97.2092 163.756 97.2289 163.777C97.2489 163.798 97.2644 163.822 97.2745 163.85C97.2848 163.876 97.2893 163.905 97.288 163.934C97.2867 163.993 97.2641 164.05 97.2244 164.094C97.1847 164.138 97.1304 164.166 97.0716 164.173H97.0264C97.0793 164.162 97.1262 164.132 97.1588 164.088C97.1914 164.045 97.2076 163.991 97.204 163.937Z" fill="black"/>
<path opacity="0.4" d="M97.2072 164.183C97.2757 164.119 97.3187 164.032 97.328 163.939C97.3374 163.846 97.3128 163.752 97.2589 163.676C97.2314 163.641 97.1975 163.612 97.1584 163.59C97.1193 163.569 97.0764 163.556 97.0321 163.552C96.9879 163.548 96.9433 163.553 96.901 163.568C96.859 163.581 96.8202 163.604 96.7873 163.634C96.7178 163.698 96.6749 163.785 96.6658 163.878C96.6568 163.972 96.6829 164.065 96.7388 164.141C96.766 164.176 96.7999 164.205 96.8386 164.226C96.8774 164.247 96.92 164.259 96.964 164.263C97.0076 164.267 97.0518 164.262 97.0938 164.248C97.1355 164.235 97.1743 164.212 97.2072 164.183Z" fill="black"/>
<path d="M97.272 164.213C97.3424 164.15 97.3867 164.063 97.3964 163.969C97.4058 163.875 97.3799 163.781 97.3237 163.706C97.2966 163.671 97.2627 163.642 97.2239 163.621C97.1851 163.6 97.1425 163.587 97.0986 163.583C97.0546 163.579 97.0104 163.584 96.9687 163.598C96.9267 163.612 96.8883 163.634 96.8553 163.664C96.7868 163.728 96.7439 163.814 96.7345 163.907C96.7248 164 96.7493 164.094 96.8036 164.171C96.8308 164.205 96.865 164.234 96.9034 164.255C96.9422 164.276 96.9848 164.289 97.0288 164.293C97.0727 164.297 97.117 164.292 97.1586 164.278C97.2006 164.264 97.2391 164.242 97.272 164.213Z" fill="#182230"/>
<path opacity="0.5" d="M97.2033 164.126C97.2456 164.084 97.2715 164.029 97.277 163.969C97.2821 163.91 97.2663 163.851 97.2324 163.803C97.2149 163.777 97.192 163.756 97.1652 163.74C97.1387 163.724 97.1087 163.715 97.0776 163.712C97.047 163.709 97.016 163.713 96.9866 163.724C96.9575 163.735 96.9313 163.751 96.9094 163.774C96.8674 163.815 96.8412 163.871 96.836 163.93C96.8305 163.989 96.8464 164.048 96.8803 164.097C96.8977 164.122 96.9207 164.144 96.9475 164.159C96.9743 164.175 97.004 164.185 97.035 164.188C97.066 164.19 97.097 164.186 97.1261 164.176C97.1552 164.165 97.1817 164.148 97.2033 164.126Z" fill="black"/>
<path opacity="0.4" d="M97.204 163.937C97.207 163.886 97.1918 163.835 97.1611 163.794C97.1304 163.752 97.0861 163.723 97.0361 163.711H97.0748C97.1036 163.711 97.132 163.717 97.1585 163.728C97.185 163.739 97.2092 163.756 97.2289 163.777C97.2489 163.798 97.2644 163.822 97.2745 163.85C97.2848 163.876 97.2893 163.905 97.288 163.934C97.2867 163.993 97.2641 164.05 97.2244 164.094C97.1847 164.138 97.1304 164.166 97.0716 164.173H97.0264C97.0793 164.162 97.1262 164.132 97.1588 164.088C97.1914 164.045 97.2076 163.991 97.204 163.937Z" fill="black"/>
<g opacity="0.3">
<path opacity="0.3" d="M93.4328 112.655C93.4005 112.657 93.3685 112.647 93.343 112.628C93.3175 112.608 93.3 112.58 93.2939 112.548C93.0148 111.104 92.4485 109.731 91.629 108.511C90.8094 107.29 89.7531 106.246 88.5227 105.441C88.5072 105.433 88.494 105.421 88.483 105.407C88.4723 105.394 88.4643 105.377 88.4597 105.361C88.4552 105.344 88.4539 105.326 88.4562 105.309C88.4581 105.291 88.4639 105.274 88.4726 105.259C88.481 105.244 88.4927 105.23 88.5066 105.219C88.5204 105.209 88.5366 105.201 88.5534 105.196C88.5702 105.192 88.588 105.19 88.6054 105.192C88.6229 105.195 88.6397 105.2 88.6552 105.209C89.9169 106.032 91.0007 107.1 91.8425 108.35C92.684 109.599 93.2667 111.005 93.5555 112.483C93.5591 112.501 93.5594 112.518 93.5562 112.535C93.5529 112.552 93.5465 112.569 93.5368 112.583C93.5271 112.597 93.5145 112.61 93.5 112.619C93.4854 112.629 93.4693 112.636 93.4521 112.638L93.4328 112.655Z" fill="black"/>
</g>
<path opacity="0.2" d="M97.7814 149.46L102.194 149.819V149.173L100.366 131.361C100.236 130.115 99.8973 128.899 99.3643 127.765L94.4898 114.634L93.4141 112.215L93.6563 113.064C94.1796 115.345 94.5027 118.575 94.3024 120.262L94.4704 121.172L96.835 130.098L97.7814 149.46Z" fill="black"/>
<path d="M121.159 78.5487L120.012 78.0028L117.066 76.5201L114.249 76.5039C114.176 76.5178 114.112 76.5592 114.069 76.6192C114.026 76.6793 114.007 76.7536 114.017 76.8269C114.042 77.15 114.185 77.6313 114.798 77.5247L112.747 77.3244C112.672 77.3183 112.596 77.3357 112.53 77.3745C112.465 77.4132 112.413 77.4714 112.382 77.5408L112.305 77.7185C112.179 78.0028 112.86 78.4162 113.164 78.4679L113.325 78.497L111.513 78.258C111.469 78.2638 111.426 78.279 111.388 78.3025C111.35 78.3258 111.317 78.3568 111.292 78.3936C111.266 78.4305 111.249 78.4721 111.24 78.5161C111.231 78.56 111.232 78.6049 111.242 78.6488C111.267 78.8588 111.341 79.0604 111.458 79.2367C111.575 79.3013 110.166 79.1851 109.627 79.1431C109.6 79.1398 109.573 79.1434 109.548 79.1524C109.524 79.1618 109.501 79.1767 109.483 79.196C109.464 79.2154 109.451 79.239 109.443 79.2645C109.436 79.29 109.434 79.3169 109.439 79.3433C109.494 79.6664 109.804 80.3124 111.268 80.5418C113.309 80.8648 114.139 80.6645 114.139 80.6645L115.687 81.3784L115.454 82.3314L113.251 81.9179L113.135 83.1745C113.435 83.3844 115.91 84.1016 115.91 84.1016C115.91 84.1016 119.314 84.7476 120.316 84.4601C121.317 84.1726 122.05 83.9304 122.05 83.9304L125.161 81.0748L121.159 78.5487Z" fill="#FFC3BD"/>
<path opacity="0.15" d="M116.023 81.0566C116.023 81.0566 117.962 80.3363 118.953 79.1992" stroke="black" stroke-width="0.193818" stroke-miterlimit="10" stroke-linecap="round"/>
<path opacity="0.15" d="M113.365 82.02L116.463 82.6144C116.463 82.6144 118.078 81.3578 119.474 81.9457" stroke="black" stroke-width="0.193818" stroke-miterlimit="10" stroke-linecap="round"/>
<path opacity="0.15" d="M111.609 79.4087C111.609 79.4087 113.748 79.7318 114.675 79.3086C114.675 79.3086 115.027 79.9547 116.18 80.1162" stroke="black" stroke-width="0.193818" stroke-miterlimit="10" stroke-linecap="round"/>
<path opacity="0.15" d="M113.326 78.4805C114.065 78.5457 114.809 78.5457 115.549 78.4805C115.965 78.9799 116.532 79.332 117.164 79.4851" stroke="black" stroke-width="0.193818" stroke-miterlimit="10" stroke-linecap="round"/>
<path opacity="0.15" d="M114.547 77.5664C115.196 77.705 115.866 77.7114 116.517 77.5858L117.777 78.458" stroke="black" stroke-width="0.193818" stroke-miterlimit="10" stroke-linecap="round"/>
<path opacity="0.15" d="M115.809 76.6055C115.799 77.9086 115.656 79.2075 115.383 80.4818L115.238 81.1537L114.143 80.6498L114.162 76.6378L115.809 76.6055Z" fill="black"/>
<path opacity="0.15" d="M115.488 82.3906V84.0058L113.824 83.4373L114.066 82.0547L115.488 82.3906Z" fill="black"/>
<path opacity="0.15" d="M146.175 95.418C146.556 99.0294 139.094 101.995 139.094 101.995L134.123 103.855L135.092 106.117L143.352 101.995C147.79 99.795 146.304 95.7313 146.175 95.418Z" fill="black"/>
<path opacity="0.2" d="M135.105 106.121L124.784 111.276L123.68 107.774L134.133 103.859L135.105 106.121Z" fill="black"/>
<g opacity="0.3">
<path opacity="0.3" d="M124.783 111.401C124.754 111.402 124.726 111.393 124.703 111.376C124.679 111.359 124.662 111.335 124.654 111.307C124.654 111.256 123.171 106.33 122.645 105.276C122.629 105.244 122.627 105.207 122.638 105.173C122.65 105.14 122.674 105.111 122.706 105.096C122.722 105.088 122.739 105.083 122.756 105.082C122.774 105.081 122.791 105.084 122.808 105.089C122.824 105.095 122.839 105.104 122.852 105.116C122.865 105.127 122.876 105.141 122.884 105.157C123.423 106.229 124.851 111.026 124.909 111.23C124.919 111.264 124.915 111.301 124.899 111.333C124.881 111.364 124.853 111.388 124.819 111.398L124.783 111.401Z" fill="black"/>
</g>
<g opacity="0.3">
<path opacity="0.3" d="M110.988 137.394C110.958 137.393 110.93 137.382 110.907 137.365C110.883 137.346 110.867 137.322 110.858 137.293C110.854 137.276 110.852 137.258 110.855 137.24C110.857 137.223 110.863 137.206 110.872 137.19C110.881 137.175 110.893 137.162 110.907 137.151C110.921 137.14 110.938 137.133 110.955 137.129C111.01 137.129 116.566 135.572 119.173 130.775C119.18 130.757 119.191 130.74 119.205 130.727C119.218 130.713 119.235 130.703 119.253 130.696C119.271 130.689 119.291 130.687 119.31 130.688C119.329 130.689 119.348 130.695 119.365 130.704C119.382 130.714 119.397 130.726 119.408 130.742C119.42 130.757 119.428 130.775 119.432 130.794C119.437 130.813 119.437 130.833 119.433 130.852C119.428 130.87 119.42 130.888 119.409 130.904C116.744 135.804 111.081 137.365 111.01 137.387L110.988 137.394Z" fill="black"/>
</g>
<g opacity="0.15">
<path opacity="0.15" d="M91.0046 132.651C90.9788 132.651 90.9529 132.619 90.9432 132.567C90.9345 132.537 90.9332 132.506 90.9393 132.476C90.9455 132.445 90.9591 132.417 90.9788 132.393C91.4665 131.979 92.455 132.367 92.497 132.393C92.539 132.419 92.5584 132.48 92.5519 132.551C92.5455 132.622 92.5099 132.671 92.4712 132.658C92.4324 132.645 91.4794 132.267 91.0304 132.658C91.0214 132.659 91.012 132.656 91.0046 132.651Z" fill="black"/>
</g>
<path d="M93.8926 156.73L95.876 160.116L97.1132 163.023L95.2429 162.555C95.2429 162.555 95.1363 166.056 94.1284 166.492C93.8248 166.625 92.9138 166.282 93.0075 165.546C92.8741 165.672 92.7139 165.767 92.5388 165.823C92.3637 165.879 92.1783 165.895 91.9964 165.869C91.4344 165.753 91.2987 165.388 91.3504 164.69C91.3504 164.69 91.0855 165.22 90.3037 164.89C89.8321 164.69 89.9517 163.979 89.9517 163.979C89.9517 163.979 89.0989 164.054 88.9826 163.611C88.8592 162.888 88.8437 162.151 88.9373 161.424L89.4477 158.976L89.6383 157.393L93.8926 156.73Z" fill="#FFC3BD"/>
<path opacity="0.15" d="M89.9668 163.994C90.1115 163.505 90.2049 163.001 90.2446 162.492" stroke="black" stroke-width="0.197048" stroke-miterlimit="10" stroke-linecap="round"/>
<path opacity="0.15" d="M91.3359 164.669C91.5188 164.095 91.638 163.503 91.6916 162.902" stroke="black" stroke-width="0.197048" stroke-miterlimit="10" stroke-linecap="round"/>
<path opacity="0.15" d="M93.0078 165.549C93.2104 164.826 93.3509 164.087 93.4278 163.34" stroke="black" stroke-width="0.197048" stroke-miterlimit="10" stroke-linecap="round"/>
<path opacity="0.15" d="M87.1239 141.511L85.3473 132.983L85.4248 122.43L84.0713 122.227L83.9421 131.859C83.8894 132.509 83.9398 133.163 84.0907 133.797L85.4765 141.899L89.5919 157.844L89.0007 161.216L88.8974 161.885L88.9329 163.158C88.9684 164.065 89.3302 163.943 89.3302 163.943V161.643L90.2412 157.663L87.1239 141.511Z" fill="black"/>
<path opacity="0.2" d="M83.4258 122.219L84.4498 109.944C84.4498 109.944 84.4498 104.566 88.2131 102.686L88.6589 102.547C86.5495 104.424 86.4655 107.66 86.4655 107.66L85.4253 122.439L83.4258 122.219Z" fill="black"/>
<path d="M98.7861 82.1199L100.363 90.6834L100.078 98.6397L104.546 100.319C106.02 100.871 107.566 101.211 109.136 101.327H109.372C109.591 101.341 109.811 101.307 110.016 101.226C110.221 101.145 110.405 101.02 110.555 100.859C110.706 100.698 110.819 100.506 110.886 100.297C110.953 100.087 110.973 99.8656 110.945 99.6475L110.318 94.4532L112.903 94.3724C112.991 94.3773 113.079 94.3773 113.167 94.3724C114.831 94.2788 115.768 93.9913 115.778 91.281L115.593 88.0281L116.524 87.4144C116.543 87.4044 116.56 87.3911 116.575 87.3756C116.694 87.2765 116.77 87.1356 116.787 86.9825C116.804 86.8291 116.762 86.6746 116.669 86.5519L114.76 84.2422L114.711 84.071L114.757 83.6802C114.934 82.0369 114.661 80.3769 113.969 78.8767L113.284 77.4102L98.7861 82.1199Z" fill="#FFC3BD"/>
<path d="M113.402 79.4879L109.587 80.2341C107.778 81.5263 110.598 83.4806 106.224 84.4141C106.143 84.9148 106.793 86.8789 105.953 86.9984C105.307 87.1567 105.242 86.278 105.148 85.8419L102.732 86.643C103.107 89.6763 102.021 90.4936 100.377 91.1655C97.948 87.1082 92.6729 78.1894 99.8118 76.6485C100.506 76.6873 100.749 75.9055 100.942 75.6439C101.589 73.9221 104.615 72.7915 106.679 73.5474C107.389 73.9997 108.198 74.271 109.037 74.3382C109.875 74.4051 110.717 74.2655 111.489 73.9318C115.404 72.4394 117.556 78.2604 113.402 79.4879Z" fill="black"/>
<path d="M106.039 89.995L105.202 85.9927C105.16 85.7827 105.078 85.5834 104.958 85.4057C104.839 85.2284 104.686 85.0762 104.507 84.9583C104.329 84.8404 104.128 84.7593 103.918 84.7196C103.708 84.6799 103.492 84.6821 103.283 84.7264C102.863 84.823 102.498 85.0798 102.265 85.4419C102.032 85.8037 101.95 86.2427 102.036 86.6646L102.201 87.456C102.284 87.8753 102.45 88.2739 102.689 88.6286C102.928 88.9833 103.234 89.2869 103.591 89.5221C103.948 89.7576 104.348 89.9194 104.768 89.9992C105.189 90.0787 105.62 90.0738 106.039 89.9853V89.995Z" fill="#FFC3BD"/>
<g opacity="0.3">
<path opacity="0.3" d="M104.778 86.9719L104.64 86.3065C104.581 86.0283 104.415 85.7848 104.178 85.6281C103.941 85.4714 103.652 85.4146 103.373 85.4698C103.219 85.4999 103.074 85.5638 102.947 85.6572C102.821 85.7505 102.717 85.871 102.643 86.0093V86.0384C102.629 86.0678 102.622 86.0994 102.62 86.1317C102.619 86.1637 102.624 86.196 102.635 86.2264C102.647 86.2564 102.665 86.2839 102.687 86.3071C102.709 86.3304 102.736 86.3488 102.766 86.3614C102.795 86.3762 102.827 86.385 102.859 86.3869C102.892 86.3885 102.924 86.3837 102.955 86.372C102.985 86.3604 103.013 86.3427 103.036 86.3197C103.059 86.2968 103.077 86.269 103.089 86.2386C103.125 86.1559 103.18 86.0829 103.251 86.0267C103.321 85.9705 103.404 85.9324 103.493 85.9156C103.572 85.8991 103.653 85.8985 103.732 85.9133C103.811 85.9282 103.886 85.9586 103.953 86.0028C104.021 86.0471 104.078 86.1039 104.123 86.1705C104.169 86.237 104.2 86.312 104.216 86.3905L104.355 87.0591C104.372 87.1211 104.411 87.1748 104.464 87.2097C104.518 87.2449 104.583 87.2591 104.646 87.2497C104.675 87.2433 104.702 87.23 104.725 87.2116C104.748 87.1929 104.766 87.1696 104.779 87.1428C104.792 87.116 104.798 87.0869 104.798 87.0572C104.798 87.0278 104.791 86.9987 104.778 86.9719Z" fill="#101828"/>
</g>
<path opacity="0.15" d="M110.672 96.6528L108.107 94.9343C108.056 94.8917 108.017 94.8371 107.993 94.7757C107.968 94.7143 107.96 94.6478 107.968 94.5822C107.979 94.4795 108.031 94.3855 108.111 94.3206C108.192 94.2559 108.295 94.2256 108.397 94.2366L110.307 94.4175L110.672 96.6528Z" fill="black"/>
<path d="M110.28 94.5108L108.397 94.2427C105.128 94.1361 105.202 85.9925 105.202 85.9925L106.336 85.5273C106.533 88.9935 107.738 90.4955 107.738 90.4955C109.192 92.4693 110.645 92.0364 111.579 91.3613C112.138 90.9542 112.564 90.0885 112.842 89.4489C113.675 87.5107 115.604 88.3345 115.604 88.3345L115.769 91.274C115.769 93.9843 114.822 94.2718 113.159 94.3654C113.07 94.3703 112.982 94.3703 112.894 94.3654" fill="black"/>
<path opacity="0.15" d="M101.654 90.5011L103.861 89.7065C103.477 89.4474 103.13 89.1389 102.827 88.7891C102.756 89.1386 102.616 89.4703 102.415 89.7643C102.213 90.0586 101.955 90.3092 101.654 90.5011Z" fill="black"/>
<path d="M115.732 90.1202C115.209 90.0992 114.686 90.158 114.181 90.2947C114.154 90.3034 114.124 90.3024 114.098 90.2918C114.071 90.2814 114.049 90.262 114.034 90.2375C114.02 90.2126 114.015 90.1835 114.019 90.1551C114.023 90.1267 114.038 90.1008 114.059 90.0815C114.508 89.6273 115.077 89.3091 115.7 89.1641L115.732 90.1202Z" fill="white"/>
<path opacity="0.15" d="M135.105 95.3984C135.105 95.3984 136.808 96.9296 138.1 97.5757" stroke="black" stroke-width="0.32303" stroke-miterlimit="10" stroke-linecap="round"/>
<path opacity="0.2" d="M103.724 192.52C103.724 192.52 105.953 192.478 106.844 191.703" stroke="black" stroke-width="0.32303" stroke-miterlimit="10"/>
<path opacity="0.2" d="M129.08 192.438C129.08 192.438 131.112 192.48 131.538 192.027" stroke="black" stroke-width="0.32303" stroke-miterlimit="10"/>
<path opacity="0.15" d="M98.4646 232.863L99.9537 230.996L100.031 194.933L100.354 183.824L98.6228 183.582C98.0834 199.824 99.0718 216.686 98.4646 232.863Z" fill="black"/>
<g opacity="0.3">
<path opacity="0.3" d="M99.4075 156.66L99.3105 156.337C103.096 155.164 104.04 150.267 104.046 150.219L104.369 150.277C104.356 150.341 103.381 155.426 99.4075 156.66Z" fill="black"/>
</g>
<path d="M237.389 235.804C237.389 235.804 237.115 228.093 241.382 225.751C245.649 223.409 276.915 222.172 276.915 222.172L292.185 232.777L291.377 240.953H237.383L237.389 235.804Z" fill="#182230"/>
<path d="M215.67 240.944C215.67 240.944 215.612 240.621 220.409 235.501C225.206 230.381 245.66 231.728 247.592 231.947C249.523 232.167 251.933 240.957 251.933 240.957L215.67 240.944Z" fill="#667085"/>
<path d="M186.389 77.5508H181.065V241.02H186.389V77.5508Z" fill="#98A2B3"/>
<path opacity="0.2" d="M181.065 101.067L186.392 94.2159V77.5508H181.065V101.067Z" fill="black"/>
<path d="M223.868 45.2461H146.825V80.6986H223.868V45.2461Z" fill="#2970FF"/>
<path opacity="0.2" d="M223.868 45.2461H146.825V80.6986H223.868V45.2461Z" fill="black"/>
<path d="M222.249 45.2461H147.054V78.544H222.249V45.2461Z" fill="#2970FF"/>
<path d="M171.674 68.3907H169.199V72.6483H164.958V68.3907H156.188V65.3704L165.194 52.1068H169.196V65.028H171.67L171.674 68.3907ZM164.958 65.0215V61.536C164.958 60.9546 164.981 60.1115 165.029 59.0067C165.074 57.902 165.113 57.2591 165.139 57.0685H165.029C164.673 57.8551 164.255 58.6113 163.775 59.3297L160.012 65.0215H164.958Z" fill="white"/>
<path d="M190.4 62.372C190.4 65.9577 189.812 68.613 188.636 70.3379C187.46 72.0629 185.65 72.9244 183.206 72.9222C180.837 72.9222 179.051 72.0329 177.847 70.254C176.643 68.4754 176.041 65.8478 176.041 62.372C176.041 58.7476 176.626 56.0762 177.795 54.3577C178.964 52.6392 180.768 51.778 183.206 51.7734C185.574 51.7734 187.366 52.6737 188.581 54.474C189.796 56.2745 190.402 58.9072 190.4 62.372ZM180.353 62.372C180.353 64.8917 180.569 66.6974 180.999 67.7892C181.43 68.8811 182.163 69.426 183.199 69.4238C184.211 69.4238 184.941 68.8714 185.389 67.7666C185.837 66.6619 186.062 64.8639 186.064 62.372C186.064 59.8524 185.837 58.0425 185.383 56.9419C184.931 55.8404 184.201 55.2912 183.199 55.2912C182.198 55.2912 181.448 55.8404 181.006 56.9419C180.563 58.0434 180.353 59.8589 180.353 62.372Z" fill="white"/>
<path d="M210.276 68.3907H207.804V72.6483H203.56V68.3907H194.793V65.3704L203.799 52.1068H207.804V65.028H210.276V68.3907ZM203.56 65.0215V61.536C203.56 60.9546 203.583 60.1115 203.631 59.0067C203.679 57.902 203.715 57.2591 203.744 57.0685H203.631C203.278 57.8558 202.86 58.6123 202.381 59.3297L198.614 65.0215H203.56Z" fill="white"/>
<path d="M204.321 42.3912L205.407 44.8171C205.421 44.841 205.442 44.8607 205.466 44.8743C205.491 44.8879 205.518 44.895 205.546 44.8946H207.019C207.532 44.8946 208.172 44.7848 208.227 45.5149C208.227 45.7184 208.55 45.7216 208.55 45.5149C208.453 44.2227 206.838 44.5781 205.946 44.5781H205.623C205.452 44.5781 205.71 44.7267 205.652 44.5942L205.291 43.7802C205.058 43.2634 204.826 42.7465 204.596 42.2297C204.512 42.0455 204.237 42.207 204.321 42.3912Z" fill="#101828"/>
<path d="M205.554 44.599C204.721 44.599 203.361 44.3341 203.293 45.5358C203.293 45.7425 203.616 45.7425 203.616 45.5358C203.639 45.0803 203.939 44.9156 204.34 44.9156H205.548C205.591 44.9156 205.632 44.8985 205.662 44.8681C205.692 44.8377 205.709 44.7967 205.709 44.7541C205.709 44.7111 205.692 44.6701 205.662 44.6397C205.632 44.6094 205.591 44.5926 205.548 44.5926" fill="#101828"/>
<path d="M196.158 38.2934C196.158 38.2934 201.905 33.0377 203.821 30.9251C205.736 28.8125 208.194 27.6334 210.604 28.3215C213.014 29.0095 214.581 31.6616 213.747 35.0017C212.914 38.3418 209.05 43.2519 203.824 43.0064C198.597 42.7609 196.891 39.2754 196.158 38.2934Z" fill="#EAECF0"/>
<path opacity="0.1" d="M196.158 38.2934C196.158 38.2934 201.905 33.0377 203.821 30.9251C205.736 28.8125 208.194 27.6334 210.604 28.3215C213.014 29.0095 214.581 31.6616 213.747 35.0017C212.914 38.3418 209.05 43.2519 203.824 43.0064C198.597 42.7609 196.891 39.2754 196.158 38.2934Z" fill="black"/>
<path d="M197.925 40.5806C198.287 40.8361 198.705 41.0005 199.145 41.0603C199.584 41.1197 200.031 41.0729 200.448 40.923C200.448 40.923 199.689 41.7629 201.036 41.9309C202.383 42.0988 205.157 41.0038 205.157 41.0038C205.157 41.0038 204.511 42.0084 205.506 41.9502C206.501 41.8921 208.585 40.7389 210.297 38.9848C212.009 37.2308 214.428 34.4204 212.907 31.1126C211.686 28.4605 207.81 26.7355 202.282 32.9248L197.925 40.5806Z" fill="#EAECF0"/>
<path d="M210.601 28.3215C208.194 27.6334 205.736 28.8125 203.817 30.9251C203.136 31.6777 201.963 32.831 200.742 34.0036L202.06 35.328L204.502 33.4899C204.502 33.4899 204.502 31.5291 206.117 31.3676C208.482 31.135 208.127 35.9934 213.948 33.4512C214.032 30.8669 212.601 28.8964 210.582 28.3215" fill="#2970FF"/>
<path opacity="0.2" d="M210.601 28.3215C208.194 27.6334 205.736 28.8125 203.817 30.9251C203.136 31.6777 201.963 32.831 200.742 34.0036L202.06 35.328L204.502 33.4899C204.502 33.4899 204.502 31.5291 206.117 31.3676C208.482 31.135 208.127 35.9934 213.948 33.4512C214.032 30.8669 212.601 28.8964 210.582 28.3215" fill="black"/>
<path d="M211.582 32.3507C211.582 32.5067 211.537 32.6592 211.45 32.7887C211.363 32.9186 211.24 33.0194 211.095 33.0791C210.949 33.1386 210.791 33.1541 210.639 33.1234C210.487 33.0927 210.345 33.0174 210.235 32.9066C210.125 32.7962 210.051 32.6553 210.022 32.5022C209.99 32.3494 210.006 32.1908 210.067 32.0467C210.125 31.9027 210.229 31.7799 210.358 31.6937C210.487 31.6074 210.642 31.5619 210.797 31.5625C210.901 31.5625 211.004 31.5829 211.098 31.6226C211.195 31.662 211.282 31.7201 211.353 31.7935C211.427 31.8668 211.485 31.9537 211.524 32.0493C211.563 32.1449 211.582 32.2473 211.582 32.3507Z" fill="black"/>
<path d="M213.792 31.7578C213.792 31.7578 215.426 32.5686 215.462 32.9013C215.497 33.2341 213.882 34.3065 213.882 34.3065C213.882 34.3065 213.152 32.7527 213.792 31.7578Z" fill="#182230"/>
<path d="M203.586 42.6589L204.671 45.0816C204.685 45.1065 204.705 45.1271 204.729 45.1414C204.754 45.1556 204.782 45.163 204.81 45.1624H206.283C206.8 45.1624 207.436 45.0525 207.491 45.7826C207.507 45.9861 207.814 45.9861 207.814 45.7826C207.717 44.4905 206.102 44.8426 205.23 44.8426H204.907C204.733 44.8426 204.991 44.9912 204.933 44.8619L204.568 44.0479L203.873 42.4974C203.789 42.31 203.515 42.4715 203.599 42.6589" fill="#101828"/>
<path d="M204.809 44.8294C203.976 44.8294 202.619 44.5645 202.548 45.7694C202.548 45.9761 202.871 45.9729 202.871 45.7694C202.893 45.3139 203.194 45.1492 203.594 45.1492H204.803C204.845 45.1492 204.887 45.1321 204.917 45.102C204.947 45.0717 204.964 45.0306 204.964 44.9877C204.964 44.9447 204.947 44.9037 204.917 44.8736C204.887 44.8433 204.845 44.8262 204.803 44.8262" fill="#101828"/>
<path d="M193.014 39.9124C193.014 39.9124 199.82 34.1495 201.551 33.2257C203.283 32.3018 206.103 32.5505 206.817 35.0023C207.602 37.7029 204.911 42.516 197.316 39.9124L195.026 43.5013L193.014 39.9124Z" fill="#2970FF"/>
<path opacity="0.2" d="M197.729 38.1406C197.729 38.1406 198.116 38.7867 200.106 37.2103C200.106 37.2103 199.26 38.328 199.948 38.5024C200.636 38.6768 202.487 37.3589 202.487 37.3589C202.487 37.3589 201.544 38.2957 202.335 38.567C203.126 38.8383 204.435 37.6851 204.732 37.0035C205.029 36.3219 205.678 34.7229 204.386 34.0058C203.094 33.2887 200.868 34.1318 199.331 35.3658C197.793 36.5998 197.357 37.4073 197.716 38.1406" fill="white"/>
<path d="M211.179 32.2897C211.179 32.323 211.169 32.356 211.153 32.3837C211.134 32.4118 211.108 32.4338 211.079 32.4471C211.046 32.4603 211.014 32.4642 210.982 32.458C210.946 32.4519 210.917 32.4361 210.894 32.4128C210.869 32.3896 210.852 32.3595 210.846 32.3269C210.84 32.2943 210.843 32.2603 210.856 32.2293C210.869 32.1987 210.888 32.1722 210.917 32.1534C210.946 32.135 210.978 32.125 211.011 32.125C211.056 32.125 211.098 32.1421 211.127 32.1731C211.159 32.2038 211.179 32.2458 211.179 32.2897Z" fill="white"/>
<path d="M233.878 228.461C233.555 229.288 233.255 230.118 232.941 230.949C232.928 230.974 232.909 230.995 232.886 231.01C232.864 231.025 232.838 231.034 232.809 231.036L231.339 231.126C230.825 231.159 230.179 231.088 230.17 231.821C230.17 232.024 229.847 232.047 229.847 231.84C229.847 230.548 231.494 230.797 232.386 230.742L232.709 230.723C232.883 230.723 232.634 230.874 232.683 230.742L233.006 229.905C233.203 229.375 233.403 228.846 233.604 228.316C233.675 228.125 233.959 228.271 233.888 228.461" fill="#101828"/>
<path d="M232.79 230.711C233.62 230.659 234.96 230.313 235.093 231.509C235.115 231.715 234.799 231.732 234.77 231.528C234.718 231.076 234.408 230.93 234.007 230.956L232.802 231.031C232.76 231.033 232.719 231.019 232.686 230.99C232.654 230.962 232.634 230.922 232.631 230.879C232.628 230.836 232.644 230.794 232.67 230.762C232.699 230.73 232.741 230.71 232.783 230.708" fill="#101828"/>
<path d="M241.793 223.851C241.793 223.851 235.729 218.96 233.688 216.97C231.646 214.981 229.12 213.957 226.762 214.793C224.404 215.63 222.983 218.385 224.026 221.654C225.07 224.923 229.227 229.598 234.424 229.032C239.622 228.467 241.108 224.878 241.783 223.864" fill="#EAECF0"/>
<path opacity="0.1" d="M241.793 223.851C241.793 223.851 235.729 218.96 233.688 216.97C231.646 214.981 229.12 213.957 226.762 214.793C224.404 215.63 222.983 218.385 224.026 221.654C225.07 224.923 229.227 229.598 234.424 229.032C239.622 228.467 241.108 224.878 241.783 223.864" fill="black"/>
<path d="M240.153 226.247C239.808 226.524 239.401 226.714 238.968 226.801C238.532 226.887 238.086 226.868 237.66 226.745C237.66 226.745 238.467 227.536 237.133 227.788C235.799 228.04 232.963 227.119 232.963 227.119C232.963 227.119 233.68 228.088 232.675 228.088C231.671 228.088 229.526 227.074 227.707 225.427C225.888 223.779 223.301 221.127 224.616 217.732C225.672 215.009 229.432 213.045 235.334 218.882L240.153 226.247Z" fill="#EAECF0"/>
<path d="M226.749 214.793C229.107 213.956 231.63 214.983 233.675 216.97C234.402 217.681 235.642 218.76 236.938 219.855L235.7 221.257L233.149 219.574C233.149 219.574 233.035 217.635 231.391 217.558C229.017 217.471 229.669 222.297 223.706 220.12C223.461 217.535 224.766 215.494 226.749 214.793Z" fill="#2970FF"/>
<path opacity="0.2" d="M226.749 214.793C229.107 213.956 231.63 214.983 233.675 216.97C234.402 217.681 235.642 218.76 236.938 219.855L235.7 221.257L233.149 219.574C233.149 219.574 233.035 217.635 231.391 217.558C229.017 217.471 229.669 222.297 223.706 220.12C223.461 217.535 224.766 215.494 226.749 214.793Z" fill="black"/>
<path d="M226.016 218.878C226.026 219.033 226.081 219.181 226.174 219.305C226.271 219.428 226.397 219.52 226.546 219.571C226.691 219.621 226.85 219.627 227.001 219.587C227.15 219.547 227.286 219.464 227.389 219.348C227.489 219.232 227.557 219.087 227.576 218.934C227.599 218.78 227.573 218.624 227.505 218.484C227.437 218.345 227.331 218.229 227.195 218.15C227.063 218.072 226.908 218.035 226.753 218.044C226.546 218.058 226.352 218.153 226.213 218.309C226.074 218.465 226.003 218.67 226.016 218.878Z" fill="black"/>
<path d="M223.774 218.422C223.774 218.422 222.194 219.333 222.178 219.666C222.162 219.999 223.841 220.958 223.841 220.958C223.841 220.958 224.487 219.343 223.774 218.406" fill="#182230"/>
<path d="M234.639 228.663L233.702 231.151C233.689 231.176 233.673 231.198 233.647 231.213C233.625 231.228 233.599 231.237 233.57 231.238L232.103 231.328C231.586 231.361 230.943 231.293 230.93 232.023C230.93 232.226 230.607 232.249 230.607 232.042C230.627 230.75 232.258 230.999 233.146 230.944L233.469 230.925C233.641 230.925 233.392 231.08 233.444 230.944L233.767 230.111L234.364 228.521C234.435 228.328 234.72 228.473 234.649 228.663" fill="#101828"/>
<path d="M233.547 230.918C234.381 230.866 235.718 230.52 235.851 231.719C235.873 231.922 235.557 231.942 235.528 231.738C235.476 231.283 235.166 231.137 234.765 231.163L233.56 231.237C233.518 231.24 233.476 231.225 233.444 231.197C233.412 231.168 233.392 231.128 233.389 231.086C233.386 231.043 233.402 231.001 233.431 230.968C233.457 230.936 233.499 230.917 233.541 230.914" fill="#101828"/>
<path d="M245.024 225.279C245.024 225.279 237.872 219.946 236.089 219.141C234.306 218.337 231.505 218.751 230.943 221.241C230.326 223.987 233.311 228.626 240.728 225.557L243.234 228.994L245.024 225.279Z" fill="#2970FF"/>
<path opacity="0.2" d="M240.202 223.799C240.202 223.799 239.857 224.477 237.77 223.017C237.77 223.017 238.684 224.08 238.009 224.309C237.334 224.538 235.402 223.34 235.402 223.34C235.402 223.34 236.404 224.215 235.628 224.535C234.853 224.855 233.48 223.786 233.141 223.12C232.802 222.455 232.056 220.904 233.303 220.11C234.549 219.315 236.82 220.016 238.429 221.153C240.038 222.29 240.529 223.068 240.202 223.824" fill="white"/>
<path d="M226.417 218.793C226.43 218.828 226.452 218.858 226.481 218.878C226.513 218.898 226.549 218.908 226.585 218.906C226.623 218.904 226.656 218.89 226.685 218.866C226.714 218.842 226.733 218.81 226.74 218.774C226.746 218.749 226.746 218.722 226.74 218.697C226.733 218.672 226.72 218.649 226.704 218.629C226.685 218.609 226.665 218.594 226.639 218.584C226.617 218.573 226.591 218.569 226.565 218.571C226.539 218.572 226.514 218.58 226.491 218.593C226.468 218.605 226.449 218.624 226.436 218.645C226.423 218.666 226.413 218.691 226.41 218.717C226.407 218.742 226.407 218.769 226.417 218.793Z" fill="white"/>
<path d="M175.265 227.605C173.921 225.99 172.394 224.407 171.224 222.672C170.966 222.288 169.625 219.826 170.733 220.127C171.841 220.427 172.817 222.288 173.285 223.192C173.754 224.097 174.254 224.998 174.684 225.922C174.903 226.317 175.086 226.731 175.23 227.159C175.23 227.214 175.359 227.712 175.265 227.605C175.433 227.802 174.254 226.4 175.265 227.605Z" fill="#2970FF"/>
<path d="M180.681 241C180.665 240.429 180.578 239.861 180.423 239.311C180.099 238.194 179.589 237.141 178.914 236.194C177.506 234.172 175.545 232.266 173.206 231.397C172.664 231.187 172.099 231.042 171.523 230.967C171.252 230.938 170.412 230.809 170.202 231.048C169.992 231.287 170.257 231.235 170.463 231.323C170.876 231.507 171.273 231.723 171.652 231.969C175.206 234.152 179.405 236.704 180.345 241.013L180.681 241Z" fill="#2970FF"/>
<path opacity="0.2" d="M180.681 241C180.665 240.429 180.578 239.861 180.423 239.311C180.099 238.194 179.589 237.141 178.914 236.194C177.506 234.172 175.545 232.266 173.206 231.397C172.664 231.187 172.099 231.042 171.523 230.967C171.252 230.938 170.412 230.809 170.202 231.048C169.992 231.287 170.257 231.235 170.463 231.323C170.876 231.507 171.273 231.723 171.652 231.969C175.206 234.152 179.405 236.704 180.345 241.013L180.681 241Z" fill="black"/>
<path d="M181.457 240.999C181.253 237.695 180.271 234.513 179.195 231.402C178.708 229.987 178.226 228.553 177.619 227.18C176.886 225.52 175.988 223.908 175.109 222.335C174.692 221.585 174.263 220.846 173.798 220.125C173.588 219.802 173.371 219.479 173.152 219.156C173.061 219.037 172.628 218.633 172.625 218.491C172.625 218.281 172.822 218.455 172.948 218.526C173.242 218.712 173.522 218.921 173.785 219.15C174.419 219.706 174.998 220.322 175.516 220.988C176.637 222.393 177.556 223.947 178.246 225.607C178.879 227.255 179.426 228.935 179.883 230.64C180.48 232.605 180.951 234.607 181.292 236.632C181.44 237.539 181.541 238.454 181.596 239.371C181.615 239.759 181.621 240.147 181.618 240.534C181.618 240.628 181.66 240.899 181.618 240.97C181.583 240.967 181.47 241.2 181.457 240.999Z" fill="#2970FF"/>
<path opacity="0.2" d="M181.457 240.999C181.253 237.695 180.271 234.513 179.195 231.402C178.708 229.987 178.226 228.553 177.619 227.18C176.886 225.52 175.988 223.908 175.109 222.335C174.692 221.585 174.263 220.846 173.798 220.125C173.588 219.802 173.371 219.479 173.152 219.156C173.061 219.037 172.628 218.633 172.625 218.491C172.625 218.281 172.822 218.455 172.948 218.526C173.242 218.712 173.522 218.921 173.785 219.15C174.419 219.706 174.998 220.322 175.516 220.988C176.637 222.393 177.556 223.947 178.246 225.607C178.879 227.255 179.426 228.935 179.883 230.64C180.48 232.605 180.951 234.607 181.292 236.632C181.44 237.539 181.541 238.454 181.596 239.371C181.615 239.759 181.621 240.147 181.618 240.534C181.618 240.628 181.66 240.899 181.618 240.97C181.583 240.967 181.47 241.2 181.457 240.999Z" fill="black"/>
<path d="M181.347 241.001H181.618C181.618 240.82 181.583 240.629 181.576 240.487C181.544 239.687 181.46 238.89 181.327 238.1C181.049 236.375 180.533 234.698 179.793 233.115C178.414 230.208 176.379 227.569 173.513 226.041C173.242 225.899 170.057 224.487 169.96 224.917C169.905 225.124 171.007 225.725 171.181 225.851C171.746 226.261 172.305 226.687 172.848 227.143C175.235 229.081 177.529 231.219 179.034 233.926C180.208 236.133 180.99 238.527 181.347 241.001Z" fill="#2970FF"/>
<path d="M182.849 240.998H182.978C182.978 240.791 182.978 240.581 182.978 240.374C182.978 239.79 182.978 239.205 182.952 238.62C182.92 237.306 182.855 235.988 182.732 234.679C182.513 232.266 182.254 229.86 181.418 227.573C181.23 227.046 181.014 226.53 180.772 226.026C180.726 225.939 180.394 225.173 180.29 225.325C180.255 225.379 180.335 225.667 180.345 225.732C180.381 225.951 180.419 226.171 180.455 226.378C180.545 226.911 180.639 227.44 180.739 227.97C181.182 230.344 181.763 232.69 182.131 235.077C182.429 237.051 182.652 239.021 182.849 240.998Z" fill="#2970FF"/>
<path opacity="0.2" d="M182.849 240.998H182.978C182.978 240.791 182.978 240.581 182.978 240.374C182.978 239.79 182.978 239.205 182.952 238.62C182.92 237.306 182.855 235.988 182.732 234.679C182.513 232.266 182.254 229.86 181.418 227.573C181.23 227.046 181.014 226.53 180.772 226.026C180.726 225.939 180.394 225.173 180.29 225.325C180.255 225.379 180.335 225.667 180.345 225.732C180.381 225.951 180.419 226.171 180.455 226.378C180.545 226.911 180.639 227.44 180.739 227.97C181.182 230.344 181.763 232.69 182.131 235.077C182.429 237.051 182.652 239.021 182.849 240.998Z" fill="white"/>
<path d="M184.92 234.188C184.754 232.813 184.804 231.42 185.068 230.06C185.186 229.255 185.38 228.463 185.65 227.695C185.945 226.978 186.321 226.296 186.771 225.663C186.945 225.405 187.12 225.147 187.287 224.885C187.336 224.807 187.61 224.239 187.678 224.239C187.972 224.207 187.636 225.531 187.578 225.734C187.34 226.461 187.023 227.158 186.632 227.815C186.241 228.518 185.94 229.268 185.737 230.047C185.503 230.855 185.313 231.676 185.168 232.505C185.107 232.877 185.059 233.248 185.033 233.623C185.05 233.77 185.05 233.918 185.033 234.065C185.039 234.004 184.939 234.418 184.92 234.188Z" fill="#2970FF"/>
<path opacity="0.2" d="M184.92 234.188C184.754 232.813 184.804 231.42 185.068 230.06C185.186 229.255 185.38 228.463 185.65 227.695C185.945 226.978 186.321 226.296 186.771 225.663C186.945 225.405 187.12 225.147 187.287 224.885C187.336 224.807 187.61 224.239 187.678 224.239C187.972 224.207 187.636 225.531 187.578 225.734C187.34 226.461 187.023 227.158 186.632 227.815C186.241 228.518 185.94 229.268 185.737 230.047C185.503 230.855 185.313 231.676 185.168 232.505C185.107 232.877 185.059 233.248 185.033 233.623C185.05 233.77 185.05 233.918 185.033 234.065C185.039 234.004 184.939 234.418 184.92 234.188Z" fill="black"/>
<path d="M184.141 223.234C184.202 223.851 184.247 224.471 184.296 225.091C184.509 227.873 184.619 230.664 184.586 233.448C184.554 235.709 184.49 238.646 184.557 241.01H184.774C184.774 240.568 184.774 240.074 184.774 239.883C184.813 239.192 184.838 238.242 184.89 237.554C185.013 235.997 185.162 234.446 185.268 232.889C185.452 230.189 185.617 227.479 185.032 224.814C184.907 224.22 184.744 223.635 184.545 223.063C184.448 222.785 184.338 222.514 184.221 222.246C184.192 222.181 184.105 221.864 184.012 221.971C183.918 222.078 184.031 222.323 184.041 222.404C184.079 222.672 184.115 222.947 184.141 223.234Z" fill="#2970FF"/>
<path d="M186.321 241.324C186.469 240.032 186.644 238.333 186.763 237.741C187.103 236.023 187.493 234.317 187.952 232.628C188.689 229.918 189.822 227.291 190.976 224.736C191.276 224.071 191.576 223.402 191.893 222.743C191.977 222.575 192.539 221.648 192.216 221.664C192.055 221.664 191.657 222.136 191.528 222.255C191.263 222.499 191.012 222.757 190.775 223.027C190.309 223.543 189.887 224.096 189.512 224.681C187.923 227.153 187.296 230.011 186.76 232.86C186.293 235.662 185.983 238.488 185.833 241.324H186.321Z" fill="#2970FF"/>
<path d="M199.477 219.525C199.154 219.499 198.595 219.8 198.314 219.916C197.926 220.074 197.546 220.252 197.177 220.449C196.47 220.83 195.797 221.27 195.164 221.764C192.063 224.167 190.254 227.72 188.765 231.267C187.608 234.023 186.252 238.051 186.181 241.323H186.526C186.526 241.126 186.526 240.971 186.526 240.948C186.559 240.527 186.617 240.109 186.701 239.695C186.906 238.683 187.187 237.687 187.541 236.717C188.278 234.707 189.149 232.748 190.147 230.854C191.924 227.472 194.259 224.414 197.054 221.809C197.726 221.163 198.436 220.581 199.166 220.016C199.396 219.848 199.964 219.564 199.477 219.525Z" fill="#2970FF"/>
<path opacity="0.2" d="M199.477 219.525C199.154 219.499 198.595 219.8 198.314 219.916C197.926 220.074 197.546 220.252 197.177 220.449C196.47 220.83 195.797 221.27 195.164 221.764C192.063 224.167 190.254 227.72 188.765 231.267C187.608 234.023 186.252 238.051 186.181 241.323H186.526C186.526 241.126 186.526 240.971 186.526 240.948C186.559 240.527 186.617 240.109 186.701 239.695C186.906 238.683 187.187 237.687 187.541 236.717C188.278 234.707 189.149 232.748 190.147 230.854C191.924 227.472 194.259 224.414 197.054 221.809C197.726 221.163 198.436 220.581 199.166 220.016C199.396 219.848 199.964 219.564 199.477 219.525Z" fill="white"/>
<path d="M199.561 229.126C199.357 228.855 198.14 228.993 197.855 229.019C197.341 229.073 196.835 229.182 196.344 229.342C193.608 230.211 191.553 232.379 189.815 234.572C188.433 236.316 186.937 238.969 186.323 241.327H186.74C186.808 241.028 186.892 240.732 186.992 240.442C187.294 239.754 187.656 239.093 188.074 238.468C188.922 237.189 189.896 235.999 190.981 234.915C192.895 233.006 195.086 231.397 197.481 230.144C197.986 229.874 198.511 229.643 199.051 229.452C199.193 229.401 199.723 229.346 199.561 229.126Z" fill="#2970FF"/>
<path opacity="0.2" d="M199.561 229.126C199.357 228.855 198.14 228.993 197.855 229.019C197.341 229.073 196.835 229.182 196.344 229.342C193.608 230.211 191.553 232.379 189.815 234.572C188.433 236.316 186.937 238.969 186.323 241.327H186.74C186.808 241.028 186.892 240.732 186.992 240.442C187.294 239.754 187.656 239.093 188.074 238.468C188.922 237.189 189.896 235.999 190.981 234.915C192.895 233.006 195.086 231.397 197.481 230.144C197.986 229.874 198.511 229.643 199.051 229.452C199.193 229.401 199.723 229.346 199.561 229.126Z" fill="black"/>
<path d="M71.3311 82.5046C70.2611 80.6936 69.9084 78.5476 70.3429 76.4894C70.7774 74.4315 71.9672 72.611 73.6781 71.3872C75.3889 70.1635 77.4963 69.6254 79.5843 69.8792C81.6723 70.1331 83.5895 71.1603 84.9574 72.758C86.3253 74.3561 87.0448 76.4086 86.9734 78.5105L86.97 78.6118L87.0597 78.6589L91.2363 80.8542L86.5072 81.2623L86.4083 81.2709L86.3713 81.363C85.5868 83.3147 84.0991 84.9013 82.2019 85.81C80.305 86.7184 78.1362 86.8832 76.1239 86.2711C74.1113 85.6591 72.4014 84.3153 71.3311 82.5046ZM71.3311 82.5046L71.1921 82.5868L71.3311 82.5046Z" fill="white" stroke="black" stroke-width="0.32303"/>
<path d="M77.3707 80.4536L77.3481 79.9787C77.3213 79.6043 77.3949 79.23 77.5613 78.8934C77.7942 78.497 78.1053 78.152 78.4755 77.879C78.7979 77.6458 79.085 77.367 79.3283 77.0521C79.4597 76.8489 79.5231 76.6089 79.5092 76.3673C79.5111 76.2452 79.4827 76.1243 79.4261 76.0161C79.3699 75.9079 79.2872 75.8152 79.1861 75.747C78.9209 75.5988 78.616 75.5368 78.314 75.5694C77.5439 75.6408 76.8015 75.8918 76.1464 76.3027L75.3809 74.933C76.2698 74.3706 77.289 74.0466 78.3398 73.993C79.0918 73.9171 79.8467 74.1057 80.475 74.526C80.7373 74.7163 80.9518 74.965 81.1007 75.2528C81.25 75.5406 81.3301 75.8591 81.3343 76.1831C81.3666 76.6121 81.2758 77.0411 81.0726 77.4203C80.7629 77.8933 80.3684 78.3048 79.9097 78.6349C79.628 78.8423 79.3767 79.0878 79.1635 79.365C79.054 79.5559 79.0069 79.7759 79.0279 79.9949L79.0472 80.3825L77.3707 80.4536ZM77.2706 82.6599C77.2531 82.5116 77.2667 82.3614 77.31 82.2186C77.3533 82.0755 77.4256 81.9434 77.5225 81.8297C77.7448 81.6175 78.042 81.5015 78.3495 81.5067C78.6502 81.4744 78.9519 81.5613 79.1894 81.7489C79.3903 81.966 79.5082 82.2474 79.5218 82.5429C79.5353 82.8385 79.4439 83.1296 79.2637 83.3641C79.1571 83.4697 79.0304 83.5524 78.8909 83.608C78.7517 83.6635 78.6027 83.6903 78.4529 83.6871C78.1492 83.7201 77.8452 83.6319 77.6065 83.4416C77.496 83.3418 77.4079 83.2203 77.3474 83.0847C77.2867 82.949 77.2551 82.802 77.2544 82.6534L77.2706 82.6599Z" fill="#2970FF"/>
</svg>
