<svg width="360" height="270" viewBox="0 0 360 270" fill="none" xmlns="http://www.w3.org/2000/svg">
<path d="M348.318 236.711H11.6831C11.5651 236.702 11.455 236.649 11.3748 236.56C11.2944 236.475 11.25 236.359 11.25 236.244C11.25 236.125 11.2944 236.01 11.3748 235.924C11.455 235.836 11.5651 235.782 11.6831 235.773H348.318C348.436 235.782 348.546 235.836 348.626 235.924C348.706 236.01 348.75 236.125 348.75 236.244C348.75 236.359 348.706 236.475 348.626 236.56C348.546 236.649 348.436 236.702 348.318 236.711Z" fill="#D0D5DD"/>
<path d="M268.523 123.14L269.484 91.0264L269.842 92.3222L281.484 89.5915L278.33 74.9177C278.005 73.4512 277.339 72.082 276.386 70.9217C275.434 69.7614 274.218 68.8428 272.842 68.2405L258.47 62.007H258.441L257.583 61.6343L256.452 61.8828L248.784 63.5927L246.166 60.1817L245.278 59.8858V59.9095L235.826 58.8385C232.38 58.4462 228.894 59.09 225.815 60.6876L212.987 67.279L221.454 76.2726L229.265 74.5863L229.705 78.0063C231.528 91.7453 232.019 109.265 231.386 123.14H268.523ZM258.464 62.0337C258.464 62.0484 258.464 62.0721 258.464 62.1017V62.0337Z" fill="#2970FF"/>
<path d="M231.416 120.938L233.735 221.457H242.975L248.134 136.884C248.164 136.404 248.377 135.955 248.729 135.628C249.081 135.3 249.542 135.12 250.025 135.124C250.504 135.128 250.965 135.315 251.312 135.648C251.658 135.981 251.862 136.434 251.885 136.913L256.575 221.457H265.817L268.657 120.938H231.416Z" fill="#101828"/>
<g opacity="0.5">
<path opacity="0.5" d="M231.417 120.938L231.121 123.86H268.554L268.664 120.938H231.417Z" fill="black"/>
</g>
<path d="M234.7 227.247L234.451 219.191H242.285L241.942 227.499L234.7 227.247Z" fill="#FFC3BD"/>
<path opacity="0.15" d="M242.203 221.457L241.954 227.498L240.079 227.442L240.135 223.892C240.135 223.614 240.043 223.344 239.874 223.124C239.706 222.904 239.466 222.748 239.197 222.679L234.508 221.466L242.203 221.457Z" fill="black"/>
<path d="M264.769 227.247L265.018 219.191H257.154L257.512 227.496L264.769 227.247Z" fill="#FFC3BD"/>
<path d="M245.294 49.29L245.377 60.6563C245.374 60.9332 245.46 61.2033 245.622 61.4285L245.735 61.6208C246.386 62.5897 247.229 63.4115 248.217 64.0331C249.205 64.655 250.309 65.0626 251.465 65.2298C252.619 65.3972 253.797 65.3203 254.918 65.0043C256.042 64.6887 257.086 64.1405 257.983 63.3958C258.172 63.2364 258.317 63.0305 258.406 62.7982C258.492 62.5663 258.518 62.3154 258.48 62.0705L256.409 48.3906L245.294 49.29Z" fill="#FFC3BD"/>
<path d="M257.623 43.6697C257.623 43.6697 259.883 58.6217 251.635 59.2282C243.579 59.8346 243.333 44.717 243.333 44.717L243.111 40.3858L253.484 38.5664L256.105 39.9184L257.623 43.6697Z" fill="#FFC3BD"/>
<path opacity="0.15" d="M257.818 57.9832L257.211 53.8828C256.466 56.5306 254.921 58.7376 252.217 59.1784H252.244L251.652 59.2613C249.499 59.4269 247.706 58.4359 246.354 56.3028C246.342 56.2806 246.327 56.2608 246.306 56.2451C246.289 56.2291 246.265 56.2176 246.241 56.2111C246.218 56.2046 246.191 56.2034 246.167 56.2073C246.144 56.2111 246.12 56.22 246.099 56.2336C246.079 56.2472 246.061 56.2652 246.046 56.2862C246.031 56.3073 246.022 56.3306 246.02 56.3555C246.017 56.38 246.017 56.4052 246.022 56.4294C246.031 56.4534 246.043 56.4759 246.058 56.4951C247.493 58.7583 249.395 59.8056 251.679 59.6399C252.158 59.6065 252.629 59.5142 253.084 59.3648C254.782 59.5367 256.481 59.0411 257.818 57.9832Z" fill="black"/>
<path d="M255.666 40.3291C255.666 40.3291 258.284 38.5895 259.512 41.5686C260.559 44.0804 258.796 46.811 258.796 46.811L257.278 46.6453C256.642 46.6187 256.201 46.314 256.145 45.7075L255.666 40.3291Z" fill="black"/>
<path d="M257.543 38.4947C257.762 41.3378 255.336 42.0833 254.342 42.1662L246.203 42.8555C245.884 42.8842 245.588 43.0348 245.378 43.2765C245.168 43.5179 245.058 43.8312 245.073 44.1513L245.212 46.7429C245.224 46.916 245.171 47.0875 245.061 47.2216C244.952 47.3556 244.792 47.4417 244.621 47.4618L244.124 47.518L243.57 48.2073C240.372 47.4352 239.047 38.3587 244.922 36.5363C245.239 36.4374 245.532 36.2768 245.786 36.0641C246.041 35.8514 246.248 35.5904 246.402 35.2967C247.257 33.5216 250.759 33.063 252.526 35.0482C252.697 35.2514 252.913 35.4121 253.156 35.5174C253.401 35.6227 253.665 35.6697 253.931 35.6546C256.052 35.6073 257.431 36.9327 257.543 38.4947Z" fill="black"/>
<path d="M244.161 48.4131C244.138 48.1723 244.049 47.9421 243.907 47.7474C243.762 47.5525 243.567 47.4004 243.345 47.3069C243.123 47.2134 242.877 47.1824 242.638 47.2167C242.398 47.251 242.173 47.3495 241.984 47.5019L241.954 47.5315C240.549 48.7444 241.457 52.5608 244.549 52.2206L244.161 48.4131Z" fill="#FFC3BD"/>
<path d="M259.527 46.397L259.5 46.3704C259.293 46.2491 259.056 46.186 258.814 46.1875C258.574 46.1893 258.34 46.2556 258.133 46.3795C257.926 46.5038 257.757 46.681 257.645 46.8928C257.53 47.1043 257.476 47.3431 257.485 47.5833L257.651 51.2252C260.769 51.1157 261.071 47.391 259.527 46.397Z" fill="#FFC3BD"/>
<path d="M244.549 48.8821C244.555 48.9771 244.522 49.0706 244.46 49.1428C244.401 49.2153 244.312 49.2605 244.217 49.2697C244.126 49.2827 244.034 49.262 243.957 49.2111C243.88 49.1605 243.827 49.0833 243.803 48.9946L243.445 46.5391L244.466 46.5657L244.549 48.8821Z" fill="black"/>
<path d="M258.119 47.8851C258.125 47.9795 258.095 48.0727 258.033 48.1446C257.971 48.2165 257.885 48.2614 257.791 48.2697C257.699 48.2836 257.607 48.2629 257.53 48.212C257.453 48.1614 257.4 48.0836 257.377 47.9946L257.016 45.5391L258.036 45.5657L258.119 47.8851Z" fill="black"/>
<path opacity="0.3" d="M243.39 50.3954C243.336 50.393 243.286 50.3726 243.248 50.3377C243.206 50.3025 243.18 50.2551 243.171 50.2031L243.114 49.7622C243.106 49.404 242.967 49.0605 242.727 48.7948C242.683 48.7555 242.629 48.7256 242.573 48.7067C242.517 48.688 242.458 48.6806 242.399 48.6854C242.342 48.6963 242.286 48.6851 242.239 48.654C242.194 48.623 242.162 48.5747 242.15 48.5197C242.138 48.4647 242.15 48.4079 242.183 48.3611C242.212 48.3147 242.259 48.2821 242.316 48.2712C242.549 48.2463 242.783 48.3052 242.975 48.4369C243.147 48.5948 243.286 48.7866 243.381 49.0004C243.475 49.2143 243.526 49.4454 243.529 49.6794L243.582 50.1202C243.585 50.1809 243.567 50.2412 243.532 50.2909C243.499 50.3409 243.449 50.3776 243.39 50.3954Z" fill="black"/>
<path opacity="0.3" d="M258.562 49.2688C258.616 49.2635 258.666 49.2377 258.704 49.1963C258.74 49.1549 258.758 49.1016 258.755 49.0469V48.6061C258.725 48.4321 258.734 48.2543 258.775 48.083C258.817 47.912 258.897 47.7517 259.003 47.612C259.042 47.562 259.092 47.5215 259.151 47.4931C259.207 47.465 259.269 47.4502 259.335 47.4493C259.391 47.4529 259.444 47.4345 259.485 47.3982C259.527 47.3618 259.551 47.3106 259.556 47.2556C259.559 47.2005 259.542 47.1467 259.503 47.1053C259.468 47.0639 259.417 47.0387 259.361 47.0352C259.246 47.0381 259.133 47.0638 259.03 47.1112C258.926 47.1582 258.832 47.226 258.755 47.3103C258.48 47.5854 258.367 48.0262 258.397 48.6327V49.0765C258.34 49.1859 258.423 49.2688 258.562 49.2688Z" fill="black"/>
<path d="M241.941 234.532V227.497C241.938 226.476 241.532 225.497 240.814 224.773C240.092 224.05 239.115 223.64 238.095 223.633H237.929C237.083 223.629 236.264 223.918 235.61 224.452C234.956 224.986 234.506 225.731 234.341 226.559C234.145 227.569 233.69 228.511 233.018 229.289L231.915 230.585C230.977 231.686 230.459 233.085 230.453 234.532H241.941Z" fill="#2970FF"/>
<path d="M235.281 227.385C235.251 227.385 235.225 227.378 235.201 227.363C235.174 227.349 235.157 227.328 235.142 227.302C235.115 227.22 235.115 227.137 235.198 227.107C235.846 226.74 236.577 226.547 237.322 226.547C238.068 226.547 238.798 226.74 239.446 227.107C239.5 227.163 239.529 227.246 239.473 227.302C239.417 227.359 239.337 227.385 239.281 227.329C238.68 226.987 238 226.808 237.307 226.808C236.615 226.808 235.935 226.987 235.334 227.329C235.334 227.385 235.307 227.385 235.281 227.385Z" fill="white"/>
<path d="M234.808 228.375C234.779 228.375 234.752 228.368 234.729 228.353C234.705 228.339 234.684 228.317 234.672 228.292C234.643 228.209 234.643 228.126 234.726 228.1C235.373 227.732 236.104 227.539 236.85 227.539C237.595 227.539 238.326 227.732 238.974 228.1C239.03 228.156 239.057 228.239 239.003 228.292C238.992 228.307 238.98 228.319 238.962 228.329C238.947 228.338 238.929 228.345 238.912 228.348C238.894 228.35 238.876 228.349 238.858 228.345C238.841 228.341 238.823 228.333 238.808 228.322C238.208 227.98 237.527 227.801 236.835 227.801C236.146 227.801 235.465 227.98 234.865 228.322C234.865 228.375 234.841 228.375 234.808 228.375Z" fill="white"/>
<path d="M234.312 229.432C234.283 229.432 234.256 229.424 234.232 229.41C234.209 229.395 234.188 229.374 234.176 229.35C234.149 229.267 234.149 229.184 234.229 229.154C234.877 228.787 235.608 228.594 236.353 228.594C237.099 228.594 237.83 228.787 238.478 229.154C238.492 229.165 238.504 229.179 238.513 229.195C238.525 229.21 238.531 229.228 238.534 229.246C238.537 229.264 238.534 229.282 238.531 229.3C238.525 229.318 238.519 229.335 238.507 229.35C238.451 229.403 238.368 229.432 238.315 229.376C237.714 229.035 237.034 228.856 236.342 228.856C235.649 228.856 234.969 229.035 234.368 229.376C234.342 229.432 234.312 229.432 234.312 229.432Z" fill="white"/>
<path d="M230.922 235.997H241.43C241.563 235.997 241.688 235.944 241.782 235.852C241.874 235.758 241.927 235.633 241.927 235.5V234.562H230.425V235.5C230.425 235.565 230.437 235.631 230.463 235.69C230.487 235.752 230.522 235.805 230.57 235.852C230.617 235.9 230.67 235.935 230.732 235.959C230.792 235.986 230.857 235.997 230.922 235.997Z" fill="#344054"/>
<path d="M233.54 221.455L233.457 218.254H243.389L243.196 221.455H233.54Z" fill="#2970FF"/>
<path d="M243.389 218.254L243.196 221.455H233.54L233.457 218.254H243.389Z" fill="#2970FF"/>
<path opacity="0.15" d="M273.76 72.8173L277.872 90.5265L281.594 89.639L278.369 74.9089C278.044 73.4421 277.378 72.0727 276.426 70.9124C275.47 69.7518 274.254 68.8335 272.879 68.2317L269.595 66.7969C271.713 68.1862 273.207 70.3452 273.76 72.8173Z" fill="black"/>
<path opacity="0.15" d="M266.314 81.624L264.131 123.146H268.672L269.583 91.1147L266.921 81.5708C266.915 81.4903 266.876 81.416 266.814 81.3643C266.752 81.3122 266.672 81.287 266.589 81.2941C266.509 81.3012 266.435 81.34 266.385 81.4018C266.332 81.4637 266.308 81.5435 266.314 81.624Z" fill="black"/>
<path d="M283.951 100.435L281.585 89.6484L269.946 92.3791L272.263 99.1835L252.787 103.515L251.71 103.737C251.352 103.819 251.021 103.846 250.772 103.597L250.358 103.183C249.968 102.869 249.518 102.635 249.036 102.494C247.888 102.157 246.918 101.385 246.332 100.343L245.394 98.6865C245.385 98.667 245.37 98.6495 245.353 98.6359C245.338 98.6223 245.317 98.6125 245.296 98.6075C245.273 98.6025 245.252 98.6022 245.231 98.6066C245.211 98.611 245.19 98.6202 245.172 98.6332L245.006 98.6865C244.681 98.8096 244.415 99.0521 244.261 99.3649C244.107 99.6776 244.078 100.037 244.181 100.37L244.897 102.633C244.933 102.751 244.921 102.877 244.864 102.987C244.811 103.097 244.717 103.182 244.601 103.225L234.995 107.171C234.028 107.529 234.359 108.855 235.244 108.633C235.711 108.523 240.85 106.423 240.85 106.423L239.942 106.893C238.921 107.39 239.388 108.769 240.273 108.577C241.158 108.384 242.314 108.08 242.314 108.08L241.181 108.52C240.992 108.615 240.844 108.777 240.77 108.976C240.696 109.174 240.699 109.393 240.779 109.588C240.862 109.784 241.013 109.942 241.205 110.03C241.397 110.119 241.616 110.131 241.817 110.065C242.477 109.899 243.527 109.568 243.527 109.568L242.838 109.899C241.95 110.177 242.246 111.556 243.086 111.378C243.802 111.239 250.533 109.585 254.009 108.949L279.801 106.136C280.463 106.071 281.105 105.867 281.685 105.536C282.262 105.206 282.765 104.757 283.156 104.218C283.549 103.679 283.821 103.064 283.96 102.411C284.096 101.759 284.093 101.086 283.951 100.435Z" fill="#FFC3BD"/>
<path d="M212.95 67.2812L200.042 74.0679C195.737 76.3282 197.338 82.8397 202.219 82.8397L218.671 84.4136L218.787 81.2865V77.1979L221.695 76.1921" fill="#FFC3BD"/>
<path opacity="0.15" d="M279.81 106.283L254.019 109.1C250.542 109.733 243.812 111.386 243.096 111.526C242.995 111.54 242.892 111.532 242.794 111.502C242.697 111.472 242.605 111.422 242.528 111.353C242.454 111.285 242.392 111.201 242.35 111.108C242.312 111.013 242.291 110.912 242.294 110.81C242.294 110.81 242.487 111.141 243.013 110.975C243.288 110.892 247.427 109.375 250.045 108.381C251.46 107.856 252.918 107.468 254.406 107.221C260.027 106.283 274.68 103.801 278.624 102.919C278.896 102.861 279.156 102.748 279.384 102.588C279.615 102.428 279.81 102.224 279.958 101.987C280.109 101.751 280.207 101.487 280.254 101.211C280.298 100.935 280.29 100.653 280.224 100.381L277.955 90.565L281.624 89.707L283.967 100.494C284.097 101.149 284.091 101.825 283.952 102.478C283.81 103.131 283.535 103.748 283.147 104.291C282.757 104.834 282.26 105.291 281.686 105.634C281.112 105.977 280.473 106.198 279.81 106.283Z" fill="black"/>
<path opacity="0.15" d="M218.701 73.1548L221.707 76.2168L229.266 74.5601L228.715 71.4152C228.683 71.2262 228.609 71.0466 228.5 70.8889C228.39 70.7313 228.248 70.5993 228.082 70.5023C227.917 70.4049 227.732 70.3452 227.541 70.3265C227.35 70.3079 227.157 70.3313 226.976 70.3946L218.701 73.1548Z" fill="black"/>
<path opacity="0.15" d="M221.707 76.2143L218.701 73.1523L213.542 74.8623L208.054 74.0635C207.971 74.034 207.888 74.1168 207.858 74.1996C207.859 74.2419 207.873 74.2834 207.898 74.3177C207.923 74.352 207.957 74.378 207.997 74.3919L217.538 77.8208L221.089 76.3415L221.707 76.2143Z" fill="black"/>
<path opacity="0.4" d="M250.01 135.106C249.534 135.102 249.075 135.281 248.726 135.606C248.377 135.93 248.164 136.376 248.135 136.851L243.17 218.256H240.212L241.395 140.505C241.425 139.057 242.022 137.679 243.061 136.669C244.099 135.658 245.493 135.097 246.939 135.106H250.01Z" fill="black"/>
<path opacity="0.2" d="M243.196 221.455L243.389 218.254H240.217L240.161 221.455H243.196Z" fill="black"/>
<path opacity="0.15" d="M264.935 221.452L264.769 227.245L261.486 227.354L261.542 223.438C261.542 223.255 261.485 223.076 261.379 222.927C261.275 222.779 261.125 222.667 260.95 222.609L257.252 221.426H264.923L264.935 221.452Z" fill="black"/>
<path opacity="0.4" d="M268.382 123.777L265.817 221.459H264.93L265.019 218.965H261.596L262.812 123.786L268.382 123.777Z" fill="black"/>
<path d="M257.512 234.532V227.497C257.515 226.473 257.923 225.492 258.648 224.768C259.37 224.044 260.352 223.636 261.375 223.633H261.541C262.384 223.629 263.204 223.919 263.858 224.453C264.511 224.987 264.961 225.731 265.127 226.559C265.322 227.569 265.778 228.51 266.449 229.289L267.553 230.585C268.496 231.686 269.02 233.082 269.032 234.532H257.512Z" fill="#2970FF"/>
<path d="M264.189 227.389C264.174 227.392 264.159 227.39 264.144 227.385C264.13 227.38 264.115 227.371 264.106 227.36C263.508 227.008 262.825 226.823 262.133 226.823C261.437 226.823 260.757 227.008 260.159 227.36C260.145 227.372 260.13 227.381 260.112 227.386C260.094 227.391 260.077 227.392 260.056 227.389C260.038 227.387 260.02 227.381 260.006 227.371C259.991 227.361 259.976 227.348 259.967 227.333C259.955 227.319 259.949 227.303 259.943 227.285C259.937 227.268 259.937 227.25 259.94 227.232C259.943 227.214 259.949 227.196 259.958 227.181C259.967 227.165 259.979 227.152 259.994 227.141C260.639 226.767 261.372 226.57 262.118 226.57C262.863 226.57 263.597 226.767 264.242 227.141C264.325 227.168 264.325 227.277 264.298 227.333C264.269 227.362 264.23 227.382 264.189 227.389Z" fill="white"/>
<path d="M264.629 228.377C264.614 228.379 264.6 228.377 264.585 228.373C264.57 228.368 264.558 228.36 264.546 228.35C263.949 227.999 263.268 227.813 262.573 227.813C261.881 227.813 261.2 227.999 260.603 228.35C260.588 228.363 260.57 228.373 260.553 228.379C260.535 228.385 260.514 228.387 260.496 228.385C260.476 228.383 260.458 228.377 260.44 228.368C260.425 228.359 260.411 228.346 260.399 228.33C260.387 228.315 260.378 228.297 260.375 228.278C260.369 228.259 260.369 228.24 260.372 228.221C260.378 228.202 260.384 228.184 260.396 228.168C260.408 228.152 260.419 228.138 260.437 228.128C261.082 227.755 261.816 227.559 262.561 227.559C263.307 227.559 264.041 227.755 264.685 228.128C264.768 228.158 264.768 228.267 264.739 228.324C264.709 228.38 264.685 228.377 264.629 228.377Z" fill="white"/>
<path d="M265.155 229.429C265.14 229.431 265.125 229.429 265.11 229.424C265.096 229.419 265.084 229.41 265.072 229.399C264.474 229.048 263.794 228.862 263.099 228.862C262.406 228.862 261.726 229.048 261.128 229.399C261.114 229.41 261.099 229.418 261.081 229.423C261.063 229.427 261.046 229.428 261.028 229.426C261.01 229.423 260.992 229.417 260.975 229.408C260.96 229.399 260.948 229.387 260.936 229.373C260.924 229.358 260.918 229.342 260.912 229.324C260.909 229.307 260.906 229.289 260.909 229.271C260.912 229.253 260.918 229.236 260.927 229.22C260.936 229.205 260.948 229.191 260.963 229.18C261.608 228.806 262.341 228.609 263.087 228.609C263.832 228.609 264.566 228.806 265.211 229.18C265.294 229.207 265.294 229.316 265.264 229.373C265.252 229.39 265.235 229.403 265.217 229.413C265.196 229.423 265.175 229.428 265.155 229.429Z" fill="white"/>
<path d="M268.52 235.997H258.009C257.879 235.997 257.751 235.944 257.657 235.852C257.565 235.758 257.512 235.633 257.512 235.5V234.562H269.05V235.5C269.044 235.636 268.985 235.764 268.887 235.855C268.786 235.95 268.656 236 268.52 235.997Z" fill="#344054"/>
<path d="M256.162 218.254L256.357 221.455H266.011L266.067 218.254H256.162Z" fill="#2970FF"/>
<path opacity="0.2" d="M261.596 218.254V221.455H266.01L266.066 218.254H261.596Z" fill="black"/>
<path d="M252.767 103.579L253.787 109.096L255.527 108.901L254.506 103.191L252.767 103.579Z" fill="#101828"/>
<path d="M254.232 108.186C254.575 108.186 254.912 108.084 255.199 107.893C255.483 107.702 255.708 107.43 255.838 107.112C255.971 106.794 256.004 106.445 255.939 106.107C255.871 105.77 255.705 105.46 255.462 105.216C255.22 104.973 254.909 104.808 254.572 104.74C254.235 104.673 253.883 104.708 253.566 104.84C253.25 104.971 252.977 105.194 252.785 105.48C252.596 105.766 252.492 106.103 252.492 106.447C252.492 106.675 252.537 106.902 252.622 107.113C252.711 107.324 252.838 107.516 253.001 107.678C253.164 107.839 253.353 107.967 253.566 108.054C253.776 108.142 254.004 108.186 254.232 108.186Z" fill="#2970FF"/>
<path d="M254.232 107.913C254.522 107.91 254.803 107.822 255.043 107.659C255.279 107.497 255.466 107.267 255.575 106.999C255.682 106.731 255.708 106.437 255.652 106.154C255.593 105.871 255.454 105.611 255.247 105.408C255.043 105.205 254.782 105.067 254.498 105.011C254.214 104.956 253.919 104.986 253.652 105.097C253.386 105.208 253.158 105.396 252.998 105.637C252.839 105.877 252.753 106.16 252.753 106.449C252.753 106.642 252.791 106.834 252.865 107.013C252.939 107.191 253.049 107.353 253.188 107.489C253.324 107.626 253.487 107.733 253.667 107.806C253.848 107.878 254.037 107.915 254.232 107.913Z" fill="white"/>
<path d="M255.196 106.592L254.202 106.535L253.48 106.012C253.454 105.985 253.424 105.929 253.454 105.902C253.483 105.876 253.537 105.846 253.563 105.876L254.226 106.37L255.164 106.426C255.176 106.424 255.187 106.426 255.196 106.429C255.208 106.433 255.217 106.439 255.226 106.447C255.235 106.455 255.241 106.465 255.244 106.475C255.247 106.486 255.249 106.497 255.247 106.509C255.279 106.544 255.255 106.592 255.196 106.592Z" fill="#101828"/>
<path d="M129.48 35.4492H206.592C208.172 35.4492 209.736 35.7604 211.196 36.3651C212.656 36.9699 213.982 37.8559 215.1 38.9733C216.217 40.0904 217.103 41.417 217.708 42.8767C218.312 44.3367 218.624 45.9011 218.624 47.4812V223.733C218.624 226.924 217.356 229.985 215.1 232.242C212.843 234.499 209.783 235.765 206.592 235.765H127.649C125.993 235.765 124.405 235.109 123.235 233.937C122.064 232.766 121.406 231.18 121.406 229.523V43.5258C121.406 41.3844 122.257 39.331 123.771 37.8169C125.285 36.3027 127.339 35.4522 129.48 35.4522V35.4492Z" fill="#344054"/>
<path opacity="0.3" d="M129.48 35.4492H206.592C208.172 35.4492 209.736 35.7604 211.196 36.3651C212.656 36.9699 213.982 37.8559 215.1 38.9733C216.217 40.0904 217.103 41.417 217.708 42.8767C218.312 44.3367 218.624 45.9011 218.624 47.4812V223.733C218.624 226.924 217.356 229.985 215.1 232.242C212.843 234.499 209.783 235.765 206.592 235.765H129.122C127.076 235.765 125.113 234.952 123.666 233.505C122.219 232.058 121.406 230.096 121.406 228.05V43.5258C121.406 41.3844 122.257 39.331 123.771 37.8169C125.285 36.3027 127.339 35.4522 129.48 35.4522V35.4492Z" fill="black"/>
<path d="M210.894 38.2227H119.664V230.82H210.894V38.2227Z" fill="#2970FF"/>
<path opacity="0.6" d="M210.894 38.2227H119.664V230.82H210.894V38.2227Z" fill="white"/>
<path d="M209.149 38.9883H120.799V61.4724H209.149V38.9883Z" fill="#2970FF"/>
<path d="M209.142 216.488H120.791V232.094H209.142V216.488Z" fill="#2970FF"/>
<path d="M202.3 229.999H127.644C123.884 229.999 120.839 227.094 120.839 223.509V47.2298C120.839 43.6472 123.889 40.742 127.644 40.742H141.081C141.867 40.7301 142.637 40.9665 143.281 41.4174C143.925 41.8682 144.411 42.5108 144.67 43.2537L145.282 45.1234C145.54 45.8657 146.025 46.5083 146.669 46.9594C147.312 47.4109 148.082 47.6482 148.868 47.6381H181.091C181.876 47.6487 182.646 47.4121 183.289 46.9612C183.933 46.5103 184.418 45.8683 184.677 45.1264L185.292 43.2537C185.55 42.5114 186.035 41.8691 186.679 41.4183C187.322 40.9674 188.091 40.7307 188.878 40.742H202.315C206.078 40.742 209.119 43.6472 209.119 47.2298V223.509C209.104 227.094 206.069 229.999 202.3 229.999ZM116.375 44.5317V226.455C116.375 228.894 117.344 231.233 119.068 232.958C120.792 234.683 123.131 235.653 125.57 235.653H204.389C205.596 235.653 206.792 235.416 207.908 234.955C209.023 234.493 210.037 233.816 210.891 232.961C211.745 232.106 212.422 231.094 212.884 229.977C213.346 228.862 213.584 227.666 213.584 226.458V44.5347C213.584 42.096 212.615 39.7574 210.89 38.0329C209.166 36.3087 206.827 35.3398 204.389 35.3398H125.561C123.124 35.3422 120.788 36.3117 119.066 38.035C117.344 39.7586 116.376 42.0952 116.375 44.5317Z" fill="#344054"/>
<path d="M201.084 54.3701H195.016C194.977 54.3701 194.939 54.3544 194.911 54.3269C194.884 54.2991 194.868 54.2615 194.868 54.2221C194.868 54.1831 194.884 54.1452 194.911 54.1177C194.939 54.0899 194.977 54.0742 195.016 54.0742H201.084C201.123 54.0742 201.161 54.0899 201.188 54.1177C201.216 54.1452 201.232 54.1831 201.232 54.2221C201.232 54.2615 201.216 54.2991 201.188 54.3269C201.161 54.3544 201.123 54.3701 201.084 54.3701Z" fill="white"/>
<path d="M201.083 56.3593H195.015C194.977 56.3593 194.94 56.3439 194.912 56.317C194.885 56.2898 194.87 56.2528 194.87 56.2143C194.87 56.1756 194.885 56.1386 194.912 56.1108C194.939 56.0833 194.976 56.0673 195.015 56.0664H201.083C201.122 56.0664 201.159 56.0821 201.187 56.1099C201.215 56.1374 201.231 56.1753 201.231 56.2143C201.231 56.2537 201.215 56.2912 201.187 56.319C201.159 56.3466 201.122 56.3623 201.083 56.3623V56.3593Z" fill="white"/>
<path d="M201.084 58.3583H195.016C194.977 58.3583 194.939 58.3427 194.911 58.3152C194.884 58.2873 194.868 58.2498 194.868 58.2104C194.868 58.1714 194.884 58.1335 194.911 58.106C194.939 58.0782 194.977 58.0625 195.016 58.0625H201.084C201.123 58.0625 201.161 58.0782 201.188 58.106C201.216 58.1335 201.232 58.1714 201.232 58.2104C201.232 58.2498 201.216 58.2873 201.188 58.3152C201.161 58.3427 201.123 58.3583 201.084 58.3583Z" fill="white"/>
<path d="M131.027 53.3177L128.732 55.3176C128.696 55.3493 128.668 55.3878 128.648 55.4313C128.629 55.4747 128.619 55.5215 128.619 55.5691V58.9684C128.619 58.9977 128.624 59.0267 128.635 59.0539C128.646 59.0808 128.663 59.1053 128.683 59.1261C128.704 59.1468 128.729 59.163 128.756 59.1743C128.783 59.1852 128.812 59.1906 128.841 59.1903H130.214C130.243 59.1906 130.272 59.1852 130.3 59.1743C130.327 59.1633 130.352 59.1471 130.373 59.1264C130.394 59.1056 130.41 59.0811 130.421 59.0539C130.433 59.027 130.439 58.9977 130.439 58.9684V57.1933C130.439 57.1347 130.463 57.0788 130.505 57.0374C130.546 56.9957 130.602 56.9723 130.66 56.9714H131.844C131.903 56.9714 131.96 56.9948 132.002 57.0362C132.044 57.0776 132.068 57.1341 132.069 57.1933V58.9684C132.068 58.9977 132.074 59.0269 132.085 59.0542C132.096 59.0814 132.112 59.1062 132.133 59.1272C132.153 59.1479 132.178 59.1648 132.205 59.1761C132.232 59.1873 132.261 59.1932 132.291 59.1932H133.663C133.723 59.1932 133.78 59.1695 133.822 59.1272C133.864 59.0852 133.888 59.0281 133.888 58.9684V55.5691C133.889 55.5212 133.879 55.4739 133.859 55.4304C133.839 55.3872 133.809 55.3484 133.773 55.3176L131.48 53.3177C131.418 53.2615 131.337 53.2305 131.254 53.2305C131.17 53.2305 131.089 53.2615 131.027 53.3177Z" stroke="white" stroke-width="0.485185" stroke-miterlimit="10"/>
<path d="M137.948 221.644H132.428C132.39 221.634 132.357 221.612 132.333 221.581C132.309 221.55 132.296 221.511 132.296 221.472C132.296 221.433 132.309 221.395 132.333 221.364C132.357 221.333 132.39 221.311 132.428 221.301H137.948C137.986 221.311 138.02 221.333 138.044 221.364C138.068 221.395 138.081 221.433 138.081 221.472C138.081 221.511 138.068 221.55 138.044 221.581C138.02 221.612 137.986 221.634 137.948 221.644Z" fill="white" stroke="white" stroke-width="0.118338" stroke-miterlimit="10"/>
<path d="M137.949 223.508H132.429C132.389 223.503 132.353 223.482 132.328 223.451C132.303 223.419 132.292 223.379 132.296 223.34C132.292 223.299 132.303 223.259 132.328 223.227C132.353 223.195 132.389 223.174 132.429 223.168H137.949C137.987 223.178 138.021 223.2 138.045 223.231C138.069 223.262 138.081 223.3 138.081 223.34C138.081 223.379 138.069 223.417 138.045 223.448C138.021 223.479 137.987 223.501 137.949 223.511V223.508Z" fill="white" stroke="white" stroke-width="0.118338" stroke-miterlimit="10"/>
<path d="M137.95 225.368H132.429C132.391 225.359 132.357 225.337 132.332 225.306C132.307 225.275 132.294 225.237 132.294 225.197C132.294 225.158 132.307 225.12 132.332 225.089C132.357 225.058 132.391 225.036 132.429 225.027H137.95C137.99 225.033 138.026 225.054 138.051 225.086C138.076 225.118 138.087 225.159 138.083 225.199C138.087 225.239 138.076 225.279 138.051 225.31C138.026 225.342 137.99 225.363 137.95 225.368Z" fill="white" stroke="white" stroke-width="0.118338" stroke-miterlimit="10"/>
<path d="M194.661 221.074L197.637 223.098L194.661 225.598" stroke="white" stroke-width="0.476309" stroke-miterlimit="10" stroke-linecap="round"/>
<path d="M167.11 222.383V225.954H162.35V222.383" stroke="white" stroke-width="0.476309" stroke-miterlimit="10" stroke-linecap="round"/>
<path d="M161.633 222.857L164.727 220.715L167.822 222.857" stroke="white" stroke-width="0.476309" stroke-miterlimit="10" stroke-linecap="round"/>
<path d="M192.791 44.4718L192.611 44.6523L192.507 44.7558C192.278 44.5251 192.005 44.342 191.705 44.2171C191.405 44.0923 191.083 44.0278 190.758 44.0278C190.432 44.0278 190.11 44.0923 189.81 44.2171C189.51 44.342 189.237 44.5251 189.008 44.7558L188.91 44.6553L188.729 44.4748L188.957 44.2736C189.121 44.1399 189.3 44.0257 189.49 43.9334C189.713 43.8236 189.95 43.7441 190.194 43.6967C190.309 43.676 190.428 43.6642 190.546 43.6523C190.584 43.6523 190.842 43.6523 190.842 43.6523L191.081 43.6701C191.302 43.6946 191.518 43.7464 191.726 43.8239C191.877 43.8804 192.024 43.9488 192.164 44.0281C192.311 44.1133 192.45 44.2124 192.578 44.3239C192.646 44.3801 192.709 44.4393 192.771 44.4955L192.791 44.4718Z" fill="white"/>
<path d="M189.577 45.3254C189.479 45.2308 189.385 45.1391 189.281 45.0296C189.669 44.6429 190.195 44.4258 190.743 44.4258C191.291 44.4258 191.816 44.6429 192.204 45.0296L191.908 45.3254C191.597 45.0145 191.175 44.84 190.735 44.84C190.295 44.84 189.874 45.0145 189.562 45.3254H189.577Z" fill="white"/>
<path d="M191.649 45.5971L191.353 45.8929C191.275 45.813 191.181 45.75 191.077 45.7068C190.974 45.6636 190.863 45.6411 190.751 45.6411C190.639 45.6411 190.528 45.6636 190.425 45.7068C190.322 45.75 190.228 45.813 190.149 45.8929L189.854 45.5971C189.969 45.4761 190.109 45.3799 190.263 45.3142C190.418 45.2486 190.584 45.2148 190.751 45.2148C190.919 45.2148 191.085 45.2486 191.239 45.3142C191.393 45.3799 191.533 45.4761 191.649 45.5971Z" fill="white"/>
<path d="M191.016 46.151C191.016 46.2028 191 46.2534 190.972 46.2963C190.943 46.3392 190.901 46.3726 190.854 46.3922C190.806 46.4117 190.753 46.4164 190.702 46.4058C190.652 46.3954 190.605 46.37 190.569 46.333C190.533 46.296 190.509 46.249 190.499 46.1981C190.49 46.1472 190.496 46.0948 190.517 46.0472C190.537 45.9999 190.572 45.9596 190.615 45.9315C190.659 45.9037 190.71 45.8895 190.762 45.8907C190.795 45.891 190.829 45.8981 190.86 45.9114C190.891 45.9247 190.919 45.9439 190.943 45.9682C190.966 45.9925 190.985 46.0209 190.997 46.0522C191.01 46.0836 191.016 46.1173 191.016 46.151Z" fill="white"/>
<path d="M127.473 45.0063C127.473 44.8583 127.517 44.7134 127.599 44.5903C127.681 44.4672 127.798 44.3714 127.935 44.3149C128.071 44.2581 128.222 44.2433 128.367 44.2723C128.513 44.301 128.646 44.3723 128.75 44.477C128.855 44.5817 128.926 44.7152 128.955 44.8601C128.984 45.0054 128.969 45.156 128.913 45.2926C128.856 45.4293 128.76 45.5465 128.637 45.6287C128.514 45.711 128.369 45.7547 128.221 45.7547C128.023 45.7547 127.832 45.6758 127.692 45.5355C127.552 45.395 127.473 45.2048 127.473 45.0063Z" fill="white"/>
<path d="M129.817 45.0063C129.817 44.8583 129.861 44.7134 129.943 44.5903C130.026 44.4672 130.143 44.3714 130.279 44.3149C130.416 44.2581 130.567 44.2433 130.712 44.2723C130.857 44.301 130.99 44.3723 131.095 44.477C131.2 44.5817 131.271 44.7152 131.3 44.8601C131.329 45.0054 131.314 45.156 131.257 45.2926C131.201 45.4293 131.105 45.5465 130.982 45.6287C130.859 45.711 130.714 45.7547 130.566 45.7547C130.367 45.7547 130.177 45.6758 130.037 45.5355C129.896 45.395 129.817 45.2048 129.817 45.0063Z" fill="white"/>
<path d="M132.185 45.0063C132.185 44.8583 132.228 44.7134 132.311 44.5903C132.393 44.4672 132.51 44.3714 132.647 44.3149C132.783 44.2581 132.934 44.2433 133.079 44.2723C133.224 44.301 133.358 44.3723 133.462 44.477C133.567 44.5817 133.638 44.7152 133.667 44.8601C133.696 45.0054 133.681 45.156 133.624 45.2926C133.568 45.4293 133.472 45.5465 133.349 45.6287C133.226 45.711 133.081 45.7547 132.933 45.7547C132.735 45.7547 132.544 45.6758 132.404 45.5355C132.264 45.395 132.185 45.2048 132.185 45.0063Z" fill="white"/>
<path d="M134.551 45.0063C134.551 44.8583 134.595 44.7134 134.677 44.5903C134.759 44.4672 134.876 44.3714 135.013 44.3149C135.15 44.2581 135.3 44.2433 135.445 44.2723C135.59 44.301 135.724 44.3723 135.829 44.477C135.933 44.5817 136.005 44.7152 136.033 44.8601C136.062 45.0054 136.047 45.156 135.991 45.2926C135.934 45.4293 135.838 45.5465 135.715 45.6287C135.592 45.711 135.447 45.7547 135.299 45.7547C135.101 45.7547 134.91 45.6758 134.77 45.5355C134.63 45.395 134.551 45.2048 134.551 45.0063Z" fill="white"/>
<path d="M204.37 46.3876H199.613V44.1836H204.37V46.3876ZM199.853 46.148H204.131V44.4173H199.853V46.148Z" fill="white"/>
<path d="M203.077 44.5508H200.006V46.0063H203.077V44.5508Z" fill="white"/>
<path d="M204.798 44.6953H204.375V45.8757H204.798V44.6953Z" fill="white"/>
<path d="M180.942 55.1875H149.005C148.474 55.1875 148.044 55.618 148.044 56.149V56.2762C148.044 56.8072 148.474 57.2377 149.005 57.2377H180.942C181.473 57.2377 181.903 56.8072 181.903 56.2762V56.149C181.903 55.618 181.473 55.1875 180.942 55.1875Z" fill="white"/>
<path d="M165.28 134.164C179.708 134.164 191.403 122.468 191.403 108.041C191.403 93.6136 179.708 81.918 165.28 81.918C150.853 81.918 139.157 93.6136 139.157 108.041C139.157 122.468 150.853 134.164 165.28 134.164Z" fill="white"/>
<path d="M186.445 123.251L172.896 119.151H172.866V119.169L172.008 118.793L170.878 119.041L163.739 119.231L160.585 118.601L159.698 118.305V118.328L148.456 121.541C148.16 121.621 147.882 121.686 147.592 121.748C146.37 122.042 145.208 122.542 144.154 123.228C146.574 126.568 149.75 129.287 153.424 131.163C157.097 133.039 161.162 134.018 165.287 134.02C169.412 134.022 173.478 133.047 177.153 131.175C180.828 129.302 184.007 126.586 186.43 123.248L186.445 123.251ZM172.866 119.18C172.866 119.18 172.866 119.219 172.866 119.245V119.18Z" fill="#2970FF"/>
<path d="M159.697 106.437L159.78 117.801C159.777 118.079 159.865 118.351 160.029 118.576L160.141 118.768C160.79 119.737 161.636 120.559 162.623 121.181C163.61 121.802 164.716 122.21 165.871 122.378C167.025 122.545 168.202 122.468 169.324 122.152C170.447 121.836 171.491 121.288 172.389 120.543C172.579 120.384 172.724 120.178 172.811 119.946C172.898 119.714 172.924 119.463 172.886 119.218L170.815 105.535L159.697 106.437Z" fill="#FFC3BD"/>
<path d="M172.037 100.806C172.037 100.806 174.3 115.755 166.052 116.365C157.996 116.957 157.747 101.854 157.747 101.854L157.528 97.5226L167.901 95.7031L170.522 97.0551L172.037 100.806Z" fill="#FFC3BD"/>
<path opacity="0.15" d="M172.234 115.121L171.642 111.012C170.896 113.674 169.352 115.867 166.648 116.307H166.675L166.083 116.39C163.932 116.556 162.139 115.562 160.787 113.432C160.758 113.402 160.719 113.383 160.677 113.378C160.636 113.374 160.594 113.384 160.559 113.407C160.523 113.43 160.498 113.465 160.485 113.505C160.473 113.545 160.475 113.588 160.492 113.627C161.923 115.887 163.829 116.935 166.113 116.769C166.591 116.737 167.063 116.645 167.518 116.494C169.208 116.663 170.898 116.171 172.234 115.121Z" fill="black"/>
<path d="M170.079 97.468C170.079 97.468 172.7 95.7314 173.943 98.7106C174.99 101.222 173.224 103.953 173.224 103.953L171.709 103.787C171.073 103.758 170.632 103.456 170.576 102.849L170.079 97.468Z" fill="black"/>
<path d="M171.957 95.654C172.176 98.4941 169.75 99.2396 168.756 99.3224L160.617 100.012C160.298 100.042 160.003 100.193 159.793 100.435C159.582 100.677 159.473 100.99 159.487 101.31L159.626 103.902C159.64 104.075 159.585 104.246 159.475 104.38C159.365 104.513 159.207 104.599 159.035 104.618L158.538 104.674L157.996 105.364C154.798 104.591 153.473 95.5149 159.348 93.6955C159.662 93.5949 159.952 93.4333 160.203 93.22C160.454 93.0067 160.66 92.7461 160.81 92.4529C161.668 90.6779 165.17 90.2193 166.934 92.2044C167.105 92.4086 167.321 92.5698 167.566 92.6757C167.81 92.7813 168.076 92.8286 168.342 92.8139C170.466 92.7576 171.845 94.083 171.957 95.654Z" fill="black"/>
<path d="M158.576 105.551C158.553 105.31 158.464 105.081 158.32 104.886C158.176 104.692 157.982 104.54 157.759 104.447C157.535 104.354 157.291 104.323 157.052 104.358C156.812 104.392 156.587 104.49 156.399 104.643L156.369 104.669C154.964 105.882 155.872 109.699 158.964 109.358L158.576 105.551Z" fill="#FFC3BD"/>
<path d="M173.943 103.538L173.916 103.509C173.708 103.388 173.472 103.326 173.231 103.328C172.991 103.33 172.755 103.397 172.549 103.521C172.344 103.646 172.175 103.823 172.061 104.034C171.947 104.246 171.892 104.484 171.901 104.725L172.067 108.366C175.182 108.254 175.487 104.529 173.943 103.538Z" fill="#FFC3BD"/>
<path d="M158.963 106.018C158.968 106.113 158.936 106.206 158.875 106.278C158.813 106.35 158.726 106.396 158.632 106.405C158.54 106.418 158.448 106.396 158.372 106.345C158.295 106.294 158.24 106.216 158.217 106.127L157.859 103.672L158.88 103.701L158.963 106.018Z" fill="black"/>
<path d="M172.534 105.031C172.542 105.126 172.511 105.22 172.449 105.293C172.387 105.365 172.298 105.41 172.203 105.418C172.113 105.431 172.02 105.41 171.945 105.36C171.869 105.309 171.814 105.231 171.792 105.143L171.431 102.688L172.451 102.714L172.534 105.031Z" fill="black"/>
<path opacity="0.3" d="M157.804 107.537C157.751 107.534 157.7 107.514 157.661 107.479C157.621 107.444 157.594 107.397 157.585 107.344L157.528 106.901C157.519 106.543 157.381 106.201 157.141 105.936C157.096 105.896 157.044 105.866 156.987 105.847C156.93 105.828 156.87 105.821 156.81 105.827C156.755 105.837 156.699 105.824 156.653 105.794C156.607 105.763 156.575 105.715 156.564 105.661C156.553 105.607 156.563 105.55 156.594 105.503C156.625 105.457 156.672 105.424 156.727 105.413C156.96 105.386 157.196 105.445 157.39 105.578C157.562 105.736 157.7 105.927 157.796 106.14C157.891 106.354 157.941 106.584 157.943 106.818L157.996 107.262C157.998 107.322 157.981 107.382 157.946 107.431C157.911 107.481 157.861 107.518 157.804 107.537Z" fill="black"/>
<path opacity="0.3" d="M172.978 106.408C173.033 106.403 173.082 106.376 173.118 106.335C173.154 106.294 173.172 106.241 173.171 106.187V105.746C173.14 105.572 173.146 105.393 173.188 105.222C173.231 105.051 173.31 104.89 173.419 104.752C173.458 104.701 173.509 104.66 173.566 104.631C173.623 104.602 173.686 104.587 173.751 104.586C173.803 104.583 173.854 104.563 173.893 104.528C173.933 104.493 173.96 104.446 173.969 104.394C173.967 104.341 173.947 104.29 173.912 104.249C173.877 104.209 173.83 104.182 173.777 104.172C173.663 104.175 173.55 104.201 173.446 104.248C173.342 104.295 173.248 104.363 173.171 104.447C172.896 104.725 172.783 105.166 172.813 105.772V106.213C172.757 106.326 172.839 106.408 172.978 106.408Z" fill="black"/>
<path d="M165.28 136.684C159.615 136.684 154.076 135.004 149.365 131.856C144.654 128.708 140.983 124.234 138.814 119C136.646 113.765 136.079 108.006 137.184 102.448C138.29 96.8916 141.018 91.7874 145.024 87.7811C149.031 83.7748 154.135 81.0465 159.692 79.9412C165.249 78.8356 171.009 79.4031 176.243 81.5713C181.478 83.7396 185.951 87.4113 189.099 92.122C192.247 96.833 193.927 102.372 193.927 108.037C193.918 115.632 190.898 122.913 185.527 128.284C180.157 133.654 172.875 136.675 165.28 136.684ZM165.28 80.0326C159.742 80.032 154.327 81.674 149.721 84.7507C145.115 87.8275 141.526 92.2013 139.406 97.3182C137.285 102.435 136.73 108.066 137.811 113.499C138.891 118.931 141.558 123.922 145.474 127.838C149.391 131.755 154.381 134.423 159.813 135.503C165.245 136.584 170.876 136.03 175.994 133.91C181.111 131.791 185.485 128.201 188.562 123.596C191.64 118.991 193.282 113.576 193.282 108.037C193.273 100.613 190.321 93.4956 185.071 88.2456C179.822 82.9955 172.705 80.0421 165.28 80.0326ZM165.28 134.432C160.06 134.432 154.957 132.884 150.616 129.984C146.275 127.084 142.892 122.961 140.895 118.138C138.897 113.315 138.374 108.008 139.392 102.888C140.411 97.7676 142.925 93.0646 146.616 89.373C150.308 85.6815 155.011 83.1677 160.131 82.1491C165.251 81.1308 170.558 81.6536 175.381 83.6511C180.205 85.6489 184.327 89.0322 187.227 93.3728C190.127 97.7135 191.676 102.817 191.676 108.037C191.667 115.035 188.883 121.744 183.935 126.692C178.987 131.64 172.278 134.424 165.28 134.432ZM165.28 82.2869C160.19 82.2869 155.214 83.7964 150.981 86.6246C146.748 89.4529 143.449 93.4725 141.501 98.1759C139.553 102.879 139.043 108.054 140.037 113.047C141.03 118.039 143.481 122.626 147.081 126.225C150.68 129.825 155.266 132.276 160.259 133.269C165.252 134.262 170.427 133.753 175.13 131.805C179.833 129.857 183.853 126.558 186.681 122.325C189.509 118.092 191.019 113.116 191.019 108.025C191.01 101.201 188.296 94.6589 183.471 89.833C178.646 85.0069 172.105 82.2911 165.28 82.281V82.2869Z" fill="#2970FF"/>
<path d="M196.234 151.065H134.326C134.172 151.057 134.025 150.993 133.916 150.883C133.806 150.774 133.742 150.628 133.734 150.473V146.627C133.742 146.472 133.806 146.326 133.916 146.217C134.025 146.107 134.172 146.042 134.326 146.035H196.234C196.389 146.042 196.536 146.107 196.645 146.217C196.754 146.326 196.819 146.472 196.826 146.627V150.473C196.826 150.63 196.764 150.78 196.653 150.891C196.542 151.002 196.392 151.065 196.234 151.065Z" fill="white"/>
<path d="M196.234 161.713H134.326C134.172 161.706 134.025 161.641 133.916 161.532C133.806 161.422 133.742 161.276 133.734 161.121V157.275C133.742 157.121 133.806 156.974 133.916 156.865C134.025 156.755 134.172 156.691 134.326 156.684H196.234C196.389 156.691 196.536 156.755 196.645 156.865C196.754 156.974 196.819 157.121 196.826 157.275V161.121C196.826 161.278 196.764 161.429 196.653 161.54C196.542 161.651 196.392 161.713 196.234 161.713Z" fill="white"/>
<path d="M181.294 177.977H149.275C148.791 177.976 148.327 177.783 147.985 177.441C147.642 177.099 147.45 176.636 147.449 176.152V170.927C147.449 170.443 147.642 169.978 147.984 169.636C148.326 169.294 148.79 169.102 149.275 169.102H181.294C181.778 169.102 182.242 169.294 182.584 169.636C182.927 169.978 183.119 170.443 183.119 170.927V176.152C183.122 176.392 183.077 176.63 182.986 176.853C182.895 177.076 182.761 177.278 182.59 177.449C182.421 177.619 182.218 177.753 181.996 177.843C181.773 177.934 181.534 177.98 181.294 177.977Z" fill="#2970FF"/>
<path d="M148.373 200.345C146.852 200.345 145.394 199.741 144.318 198.666C143.242 197.591 142.638 196.132 142.637 194.611C142.637 193.09 143.241 191.631 144.317 190.555C145.393 189.479 146.852 188.875 148.373 188.875C149.894 188.876 151.352 189.481 152.427 190.556C153.503 191.632 154.107 193.09 154.107 194.611C154.107 196.132 153.502 197.59 152.427 198.666C151.352 199.741 149.894 200.345 148.373 200.345Z" fill="white"/>
<path d="M147.498 198.082H148.895V194.588H149.868L149.974 193.405H148.895V192.739C148.895 192.464 148.951 192.354 149.217 192.354H149.974V191.156H149.007C147.969 191.156 147.498 191.615 147.498 192.491V193.422H146.773V194.606H147.498V198.082Z" fill="#2970FF"/>
<path d="M165.987 200.345C164.467 200.345 163.009 199.741 161.933 198.666C160.858 197.59 160.254 196.132 160.254 194.611C160.254 193.09 160.858 191.632 161.933 190.556C163.008 189.481 164.466 188.876 165.987 188.875C167.509 188.875 168.968 189.479 170.044 190.555C171.119 191.631 171.724 193.09 171.724 194.611C171.723 196.132 171.118 197.591 170.043 198.666C168.967 199.741 167.508 200.345 165.987 200.345Z" fill="white"/>
<path d="M165.988 192.194C166.775 192.194 166.875 192.194 167.171 192.211C167.358 192.214 167.543 192.249 167.718 192.315C167.846 192.363 167.962 192.437 168.058 192.534C168.155 192.63 168.229 192.746 168.277 192.874C168.343 193.049 168.378 193.234 168.381 193.421C168.381 193.732 168.399 193.827 168.399 194.605C168.399 195.383 168.399 195.492 168.381 195.788C168.378 195.975 168.343 196.16 168.277 196.335C168.229 196.462 168.153 196.578 168.057 196.674C167.961 196.77 167.845 196.845 167.718 196.895C167.543 196.96 167.358 196.994 167.171 196.995C166.875 197.01 166.766 197.013 165.988 197.013C165.209 197.013 165.1 197.013 164.804 196.995C164.617 196.994 164.432 196.96 164.257 196.895C164.128 196.847 164.013 196.771 163.917 196.673C163.821 196.577 163.746 196.462 163.698 196.335C163.632 196.16 163.598 195.975 163.597 195.788C163.597 195.475 163.579 195.383 163.579 194.605C163.579 193.827 163.579 193.717 163.597 193.421C163.598 193.234 163.632 193.049 163.698 192.874C163.745 192.745 163.821 192.629 163.92 192.534C164.015 192.436 164.13 192.36 164.257 192.312C164.433 192.249 164.618 192.215 164.804 192.211C165.1 192.197 165.209 192.194 165.988 192.194ZM165.988 191.664C165.186 191.664 165.1 191.664 164.772 191.682C164.527 191.685 164.285 191.731 164.056 191.818C163.863 191.893 163.688 192.009 163.544 192.158C163.392 192.305 163.276 192.484 163.204 192.682C163.116 192.911 163.069 193.153 163.065 193.398C163.05 193.711 163.047 193.812 163.047 194.614C163.047 195.415 163.047 195.501 163.065 195.83C163.071 196.074 163.117 196.316 163.201 196.545C163.276 196.743 163.394 196.921 163.544 197.069C163.691 197.22 163.87 197.336 164.068 197.409C164.297 197.496 164.539 197.543 164.783 197.548C165.097 197.548 165.198 197.566 165.999 197.566C166.801 197.566 166.887 197.566 167.215 197.548C167.46 197.543 167.703 197.496 167.931 197.409C168.129 197.336 168.308 197.22 168.455 197.069C168.604 196.922 168.72 196.744 168.795 196.548C168.879 196.319 168.925 196.077 168.931 195.833C168.946 195.516 168.949 195.418 168.949 194.617C168.949 193.815 168.949 193.714 168.931 193.401C168.927 193.156 168.881 192.914 168.795 192.685C168.72 192.488 168.604 192.309 168.455 192.161C168.307 192.012 168.128 191.896 167.931 191.821C167.702 191.735 167.46 191.689 167.215 191.685C166.902 191.685 166.801 191.667 165.999 191.667" fill="#2970FF"/>
<path d="M165.988 193.094C165.688 193.094 165.395 193.182 165.146 193.349C164.897 193.516 164.703 193.752 164.588 194.029C164.473 194.306 164.443 194.61 164.502 194.904C164.56 195.198 164.704 195.468 164.916 195.679C165.128 195.891 165.398 196.036 165.692 196.094C165.986 196.152 166.29 196.123 166.567 196.008C166.844 195.893 167.08 195.699 167.247 195.45C167.413 195.201 167.502 194.908 167.502 194.608C167.502 194.207 167.342 193.822 167.058 193.538C166.774 193.253 166.389 193.094 165.988 193.094ZM165.988 195.591C165.792 195.591 165.601 195.534 165.439 195.426C165.277 195.318 165.15 195.164 165.075 194.984C165 194.804 164.98 194.606 165.018 194.414C165.056 194.223 165.15 194.047 165.288 193.909C165.426 193.771 165.602 193.677 165.793 193.639C165.984 193.601 166.183 193.621 166.363 193.696C166.543 193.771 166.697 193.898 166.805 194.06C166.913 194.222 166.97 194.414 166.97 194.608C166.97 194.737 166.944 194.865 166.895 194.984C166.845 195.103 166.773 195.212 166.682 195.303C166.591 195.394 166.482 195.466 166.363 195.516C166.244 195.565 166.117 195.591 165.988 195.591Z" fill="#2970FF"/>
<path d="M167.915 193.043C167.915 193.113 167.894 193.181 167.855 193.24C167.816 193.298 167.761 193.344 167.696 193.371C167.631 193.397 167.56 193.404 167.491 193.391C167.422 193.377 167.359 193.343 167.309 193.293C167.259 193.244 167.226 193.181 167.212 193.112C167.198 193.043 167.205 192.972 167.232 192.907C167.259 192.842 167.304 192.786 167.363 192.747C167.421 192.708 167.49 192.688 167.56 192.688C167.607 192.687 167.653 192.696 167.696 192.714C167.74 192.731 167.779 192.758 167.812 192.79C167.845 192.824 167.871 192.863 167.889 192.906C167.907 192.949 167.915 192.996 167.915 193.043Z" fill="#2970FF"/>
<path d="M183.601 200.345C182.08 200.345 180.622 199.741 179.546 198.666C178.471 197.59 177.867 196.132 177.867 194.611C177.867 193.09 178.472 191.631 179.547 190.555C180.623 189.479 182.082 188.875 183.604 188.875C185.125 188.876 186.583 189.481 187.658 190.556C188.733 191.632 189.337 193.09 189.337 194.611C189.336 196.132 188.731 197.591 187.656 198.666C186.58 199.741 185.122 200.345 183.601 200.345Z" fill="white"/>
<path d="M180.183 196.775C180.799 197.169 181.513 197.387 182.245 197.403C182.977 197.42 183.7 197.234 184.334 196.868C184.968 196.502 185.489 195.968 185.84 195.325C186.191 194.683 186.358 193.956 186.324 193.224C186.6 193.026 186.837 192.78 187.025 192.497C186.769 192.611 186.497 192.686 186.218 192.719C186.512 192.545 186.732 192.269 186.836 191.943C186.562 192.106 186.262 192.221 185.949 192.284C185.737 192.058 185.457 191.909 185.152 191.859C184.847 191.808 184.533 191.86 184.261 192.006C183.988 192.152 183.771 192.384 183.643 192.666C183.516 192.948 183.485 193.264 183.555 193.565C182.996 193.535 182.45 193.388 181.951 193.133C181.453 192.878 181.014 192.521 180.662 192.085C180.483 192.394 180.428 192.76 180.509 193.108C180.59 193.456 180.8 193.76 181.097 193.958C180.874 193.951 180.656 193.892 180.461 193.784C180.457 194.111 180.567 194.429 180.773 194.684C180.978 194.938 181.267 195.113 181.588 195.177C181.38 195.233 181.163 195.241 180.952 195.201C181.042 195.48 181.217 195.724 181.452 195.899C181.688 196.074 181.972 196.171 182.265 196.177C181.975 196.409 181.641 196.581 181.284 196.683C180.926 196.786 180.552 196.817 180.183 196.775Z" fill="#2970FF"/>
</svg>
