<svg width="360" height="270" viewBox="0 0 360 270" fill="none" xmlns="http://www.w3.org/2000/svg">
<path d="M348.341 236.981H11.6586C11.5504 236.981 11.4464 236.938 11.3698 236.861C11.293 236.785 11.25 236.682 11.25 236.573C11.25 236.464 11.293 236.36 11.3698 236.284C11.4464 236.208 11.5504 236.164 11.6586 236.164H348.341C348.45 236.164 348.554 236.208 348.63 236.284C348.706 236.36 348.75 236.464 348.75 236.573C348.75 236.682 348.706 236.785 348.63 236.861C348.554 236.938 348.45 236.981 348.341 236.981Z" fill="#98A2B3"/>
<path d="M215.038 202.497C221.591 201.16 221.646 176.298 221.695 154.364C221.725 140.364 221.754 127.144 223.601 123.586C227.047 116.894 233.888 116.979 233.951 116.979L233.965 116.516C233.894 116.516 226.766 116.415 223.182 123.371C221.294 127.04 221.275 139.713 221.232 154.372C221.188 175.053 221.131 200.789 214.945 202.053L215.038 202.497Z" fill="#344054"/>
<path d="M214.529 199.075C218.588 199.075 221.2 193.461 222.521 181.916C223.656 171.996 223.7 159.138 223.735 147.793C223.776 135.398 223.812 124.691 225.203 120.799C227.72 113.75 233.734 114.559 233.987 114.597L234.055 114.137C233.99 114.137 227.412 113.227 224.765 120.641C223.349 124.609 223.313 135.349 223.272 147.793C223.196 170.435 223.103 198.612 214.529 198.612V199.075Z" fill="#344054"/>
<path d="M215.232 204.875C222.817 203.399 222.714 175.095 222.629 152.355C222.583 139.88 222.542 129.108 223.8 125.935C226.568 118.954 234.055 119.605 234.131 119.613L234.175 119.15C234.099 119.15 226.263 118.459 223.367 125.763C222.076 129.032 222.117 139.837 222.163 152.357C222.242 173.738 222.351 203.018 215.145 204.423L215.232 204.875Z" fill="#344054"/>
<path d="M215.232 203.687C222.828 202.224 222.714 173.898 222.629 151.163C222.583 138.692 222.542 127.917 223.8 124.744C226.568 117.76 234.055 118.414 234.131 118.422L234.175 117.959C234.099 117.959 226.263 117.267 223.367 124.572C222.076 127.84 222.117 138.645 222.163 151.166C222.242 172.547 222.351 201.827 215.145 203.232L215.232 203.687Z" fill="#344054"/>
<path d="M215.038 228.302C221.594 226.965 221.648 205.968 221.695 187.447C221.727 175.463 221.754 164.162 223.601 160.594C227.052 153.894 233.891 153.989 233.951 153.989L233.965 153.524C233.894 153.524 226.766 153.425 223.182 160.382C221.294 164.051 221.275 174.891 221.232 187.447C221.185 205.788 221.131 226.581 214.945 227.842L215.038 228.302Z" fill="#344054"/>
<path d="M214.529 224.872C223.569 224.872 223.659 201.892 223.735 181.62C223.779 170.932 223.814 161.704 225.203 157.812C227.72 150.766 233.734 151.575 233.987 151.613L234.055 151.153C233.99 151.153 227.412 150.24 224.765 157.657C223.349 161.623 223.313 170.889 223.272 181.625C223.199 200.691 223.106 224.414 214.529 224.414V224.872Z" fill="#344054"/>
<path d="M214.529 226.364C223.569 226.364 223.659 203.384 223.735 183.112C223.779 172.424 223.814 163.196 225.203 159.304C227.72 152.258 233.734 153.067 233.987 153.105L234.055 152.645C233.99 152.645 227.412 151.733 224.765 159.149C223.349 163.115 223.313 172.381 223.272 183.117C223.199 202.183 223.106 225.909 214.529 225.909V226.364Z" fill="#344054"/>
<path d="M214.529 228.79C223.569 228.79 223.659 205.81 223.735 185.535C223.779 174.85 223.814 165.622 225.203 161.73C227.72 154.681 233.734 155.493 233.987 155.528L234.055 155.071C233.99 155.071 227.412 154.158 224.765 161.572C223.349 165.541 223.313 174.807 223.272 185.541C223.199 204.606 223.106 228.329 214.529 228.329V228.79Z" fill="#344054"/>
<path d="M215.232 230.682C222.814 229.205 222.711 205.308 222.629 186.106C222.583 175.388 222.542 166.133 223.8 162.955C226.568 155.971 234.055 156.625 234.131 156.633L234.175 156.17C234.096 156.17 226.263 155.478 223.367 162.783C222.076 166.051 222.117 175.339 222.163 186.106C222.245 205.136 222.349 228.819 215.145 230.229L215.232 230.682Z" fill="#344054"/>
<path d="M301.043 76.8203H282.734V217.991H301.043V76.8203Z" fill="#2970FF"/>
<path opacity="0.15" d="M301.043 76.8203H282.734V217.991H301.043V76.8203Z" fill="black"/>
<path d="M282.862 76.8281H231.766V217.997H282.862V76.8281Z" fill="#2970FF"/>
<path opacity="0.3" d="M282.862 76.8281H231.766V217.997H282.862V76.8281Z" fill="white"/>
<path d="M279.395 97.2109H235.23V209.07H279.395V97.2109Z" fill="#2970FF"/>
<path opacity="0.2" d="M279.395 97.2109H235.23V209.07H279.395V97.2109Z" fill="black"/>
<path d="M277.976 114.664H236.652V128.271H277.976V114.664Z" fill="#2970FF"/>
<path d="M277.976 130.5H236.652V144.108H277.976V130.5Z" fill="#2970FF"/>
<path d="M277.976 146.336H236.652V159.943H277.976V146.336Z" fill="#2970FF"/>
<path d="M277.976 162.176H236.652V175.783H277.976V162.176Z" fill="#2970FF"/>
<path d="M277.976 178.004H236.652V191.611H277.976V178.004Z" fill="#2970FF"/>
<path d="M277.976 193.844H236.652V207.451H277.976V193.844Z" fill="#2970FF"/>
<path d="M277.976 98.8281H236.652V112.436H277.976V98.8281Z" fill="#2970FF"/>
<g opacity="0.3">
<path opacity="0.3" d="M277.972 114.664H236.648V128.272H277.972V114.664Z" fill="white"/>
<path opacity="0.3" d="M277.972 130.5H236.648V144.108H277.972V130.5Z" fill="white"/>
<path opacity="0.3" d="M277.972 146.336H236.648V159.943H277.972V146.336Z" fill="white"/>
<path opacity="0.3" d="M277.972 162.176H236.648V175.783H277.972V162.176Z" fill="white"/>
<path opacity="0.3" d="M277.972 178.004H236.648V191.611H277.972V178.004Z" fill="white"/>
<path opacity="0.3" d="M277.972 193.844H236.648V207.451H277.972V193.844Z" fill="white"/>
<path opacity="0.3" d="M277.972 98.8281H236.648V112.436H277.972V98.8281Z" fill="white"/>
</g>
<path d="M274.056 102.363H239.994V109.126H274.056V102.363Z" fill="#2970FF"/>
<path opacity="0.2" d="M274.056 102.363H239.994V109.126H274.056V102.363Z" fill="black"/>
<path d="M265.803 104.211H241.377V107.313H265.803V104.211Z" fill="#2970FF"/>
<path opacity="0.2" d="M267.491 106.592C267.925 106.592 268.276 106.222 268.276 105.767C268.276 105.311 267.925 104.941 267.491 104.941C267.058 104.941 266.707 105.311 266.707 105.767C266.707 106.222 267.058 106.592 267.491 106.592Z" fill="black"/>
<path d="M269.753 106.592C270.186 106.592 270.538 106.222 270.538 105.767C270.538 105.311 270.186 104.941 269.753 104.941C269.32 104.941 268.969 105.311 268.969 105.767C268.969 106.222 269.32 106.592 269.753 106.592Z" fill="#2970FF"/>
<path d="M272.019 106.592C272.452 106.592 272.803 106.222 272.803 105.767C272.803 105.311 272.452 104.941 272.019 104.941C271.586 104.941 271.234 105.311 271.234 105.767C271.234 106.222 271.586 106.592 272.019 106.592Z" fill="#98A2B3"/>
<path d="M274.056 118.375H239.994V125.138H274.056V118.375Z" fill="#2970FF"/>
<path opacity="0.2" d="M274.056 118.375H239.994V125.138H274.056V118.375Z" fill="black"/>
<path d="M265.803 120.223H241.377V123.325H265.803V120.223Z" fill="#2970FF"/>
<path d="M274.056 134.391H239.994V141.154H274.056V134.391Z" fill="#2970FF"/>
<path opacity="0.2" d="M274.056 134.391H239.994V141.154H274.056V134.391Z" fill="black"/>
<path d="M265.803 136.234H241.377V139.337H265.803V136.234Z" fill="#2970FF"/>
<path d="M274.056 150.402H239.994V157.165H274.056V150.402Z" fill="#2970FF"/>
<path opacity="0.2" d="M274.056 150.402H239.994V157.165H274.056V150.402Z" fill="black"/>
<path d="M265.803 152.254H241.377V155.356H265.803V152.254Z" fill="#2970FF"/>
<path d="M274.056 165.996H239.994V172.759H274.056V165.996Z" fill="#2970FF"/>
<path opacity="0.2" d="M274.056 165.996H239.994V172.759H274.056V165.996Z" fill="black"/>
<path d="M265.803 167.844H241.377V170.946H265.803V167.844Z" fill="#2970FF"/>
<path opacity="0.2" d="M267.491 170.283C267.925 170.283 268.276 169.914 268.276 169.458C268.276 169.002 267.925 168.633 267.491 168.633C267.058 168.633 266.707 169.002 266.707 169.458C266.707 169.914 267.058 170.283 267.491 170.283Z" fill="black"/>
<path d="M269.753 170.283C270.186 170.283 270.538 169.914 270.538 169.458C270.538 169.002 270.186 168.633 269.753 168.633C269.32 168.633 268.969 169.002 268.969 169.458C268.969 169.914 269.32 170.283 269.753 170.283Z" fill="#2970FF"/>
<path d="M272.019 170.283C272.452 170.283 272.803 169.914 272.803 169.458C272.803 169.002 272.452 168.633 272.019 168.633C271.586 168.633 271.234 169.002 271.234 169.458C271.234 169.914 271.586 170.283 272.019 170.283Z" fill="#98A2B3"/>
<path d="M274.056 182.07H239.994V188.833H274.056V182.07Z" fill="#2970FF"/>
<path opacity="0.2" d="M274.056 182.07H239.994V188.833H274.056V182.07Z" fill="black"/>
<path d="M265.803 183.914H241.377V187.016H265.803V183.914Z" fill="#2970FF"/>
<path d="M274.056 197.781H239.994V204.544H274.056V197.781Z" fill="#2970FF"/>
<path opacity="0.2" d="M274.056 197.781H239.994V204.544H274.056V197.781Z" fill="black"/>
<path d="M265.803 199.629H241.377V202.731H265.803V199.629Z" fill="#2970FF"/>
<path opacity="0.3" d="M265.803 104.211H241.377V107.313H265.803V104.211Z" fill="white"/>
<g opacity="0.3">
<path opacity="0.3" d="M265.801 120.227H241.375V123.329H265.801V120.227Z" fill="white"/>
</g>
<g opacity="0.3">
<path opacity="0.3" d="M265.801 136.242H241.375V139.344H265.801V136.242Z" fill="white"/>
</g>
<g opacity="0.3">
<path opacity="0.3" d="M265.801 152.25H241.375V155.352H265.801V152.25Z" fill="white"/>
</g>
<g opacity="0.3">
<path opacity="0.3" d="M265.801 167.844H241.375V170.946H265.801V167.844Z" fill="white"/>
</g>
<g opacity="0.3">
<path opacity="0.3" d="M265.801 183.918H241.375V187.02H265.801V183.918Z" fill="white"/>
</g>
<g opacity="0.3">
<path opacity="0.3" d="M265.801 199.633H241.375V202.735H265.801V199.633Z" fill="white"/>
</g>
<path opacity="0.2" d="M268.275 201.278C268.269 201.432 268.218 201.58 268.128 201.705C268.038 201.829 267.913 201.925 267.768 201.979C267.624 202.034 267.469 202.044 267.319 202.01C267.166 201.976 267.03 201.899 266.924 201.787C266.818 201.676 266.747 201.536 266.72 201.385C266.692 201.234 266.709 201.078 266.771 200.936C266.831 200.795 266.932 200.674 267.06 200.59C267.188 200.505 267.341 200.46 267.493 200.461C267.703 200.47 267.902 200.56 268.049 200.712C268.193 200.865 268.275 201.067 268.275 201.278Z" fill="black"/>
<path d="M270.541 201.278C270.535 201.431 270.483 201.58 270.394 201.705C270.304 201.829 270.178 201.925 270.034 201.979C269.892 202.033 269.734 202.044 269.585 202.01C269.435 201.976 269.299 201.899 269.192 201.788C269.086 201.678 269.013 201.538 268.985 201.387C268.958 201.236 268.975 201.079 269.034 200.938C269.097 200.796 269.195 200.676 269.323 200.591C269.454 200.506 269.604 200.461 269.756 200.461C269.969 200.469 270.167 200.559 270.315 200.712C270.459 200.864 270.541 201.067 270.541 201.278Z" fill="#2970FF"/>
<path d="M272.019 202.1C272.452 202.1 272.803 201.73 272.803 201.275C272.803 200.819 272.452 200.449 272.019 200.449C271.586 200.449 271.234 200.819 271.234 201.275C271.234 201.73 271.586 202.1 272.019 202.1Z" fill="#98A2B3"/>
<path opacity="0.2" d="M268.275 121.907C268.269 122.061 268.218 122.209 268.128 122.334C268.038 122.458 267.913 122.554 267.768 122.608C267.624 122.663 267.469 122.673 267.319 122.639C267.166 122.605 267.03 122.528 266.924 122.417C266.818 122.305 266.747 122.165 266.72 122.014C266.692 121.863 266.709 121.707 266.771 121.565C266.831 121.424 266.932 121.303 267.06 121.219C267.188 121.135 267.341 121.09 267.493 121.09C267.703 121.099 267.902 121.189 268.049 121.342C268.193 121.494 268.275 121.696 268.275 121.907Z" fill="black"/>
<path d="M270.541 121.907C270.535 122.061 270.483 122.209 270.394 122.333C270.304 122.458 270.178 122.554 270.034 122.608C269.892 122.662 269.734 122.673 269.585 122.64C269.435 122.606 269.299 122.528 269.192 122.418C269.086 122.307 269.013 122.167 268.985 122.016C268.958 121.864 268.975 121.709 269.034 121.567C269.097 121.426 269.195 121.305 269.323 121.22C269.454 121.135 269.604 121.09 269.756 121.09C269.969 121.098 270.167 121.188 270.315 121.34C270.459 121.493 270.541 121.696 270.541 121.907Z" fill="#2970FF"/>
<path d="M272.019 122.729C272.452 122.729 272.803 122.359 272.803 121.903C272.803 121.448 272.452 121.078 272.019 121.078C271.586 121.078 271.234 121.448 271.234 121.903C271.234 122.359 271.586 122.729 272.019 122.729Z" fill="#98A2B3"/>
<path opacity="0.2" d="M268.275 137.751C268.269 137.905 268.218 138.053 268.128 138.178C268.038 138.302 267.913 138.398 267.768 138.452C267.624 138.506 267.469 138.517 267.319 138.483C267.166 138.449 267.03 138.371 266.924 138.26C266.818 138.149 266.747 138.009 266.72 137.858C266.692 137.707 266.709 137.55 266.771 137.409C266.831 137.268 266.932 137.147 267.06 137.063C267.188 136.978 267.341 136.933 267.493 136.934C267.703 136.943 267.902 137.033 268.049 137.185C268.193 137.338 268.275 137.54 268.275 137.751Z" fill="black"/>
<path d="M270.541 137.751C270.535 137.904 270.483 138.053 270.394 138.177C270.304 138.302 270.178 138.397 270.034 138.452C269.892 138.506 269.734 138.517 269.585 138.483C269.435 138.449 269.299 138.372 269.192 138.261C269.086 138.151 269.013 138.011 268.985 137.859C268.958 137.708 268.975 137.552 269.034 137.411C269.097 137.269 269.195 137.149 269.323 137.064C269.454 136.979 269.604 136.934 269.756 136.934C269.969 136.942 270.167 137.032 270.315 137.184C270.459 137.337 270.541 137.54 270.541 137.751Z" fill="#2970FF"/>
<path d="M272.019 138.572C272.452 138.572 272.803 138.203 272.803 137.747C272.803 137.291 272.452 136.922 272.019 136.922C271.586 136.922 271.234 137.291 271.234 137.747C271.234 138.203 271.586 138.572 272.019 138.572Z" fill="#98A2B3"/>
<path opacity="0.2" d="M268.275 153.852C268.269 154.006 268.218 154.155 268.128 154.279C268.038 154.404 267.913 154.499 267.768 154.554C267.624 154.608 267.469 154.619 267.319 154.585C267.166 154.551 267.03 154.473 266.924 154.362C266.818 154.251 266.747 154.111 266.72 153.959C266.692 153.808 266.709 153.652 266.771 153.51C266.831 153.369 266.932 153.249 267.06 153.164C267.188 153.08 267.341 153.035 267.493 153.035C267.703 153.044 267.902 153.135 268.049 153.287C268.193 153.439 268.275 153.642 268.275 153.852Z" fill="black"/>
<path d="M270.541 153.852C270.535 154.006 270.483 154.154 270.394 154.279C270.304 154.404 270.178 154.499 270.034 154.553C269.892 154.608 269.734 154.619 269.585 154.585C269.435 154.551 269.299 154.474 269.192 154.363C269.086 154.252 269.013 154.112 268.985 153.961C268.958 153.81 268.975 153.654 269.034 153.512C269.097 153.371 269.195 153.25 269.323 153.166C269.454 153.081 269.604 153.035 269.756 153.035C269.969 153.044 270.167 153.133 270.315 153.286C270.459 153.438 270.541 153.641 270.541 153.852Z" fill="#2970FF"/>
<path d="M272.019 154.678C272.452 154.678 272.803 154.309 272.803 153.853C272.803 153.397 272.452 153.027 272.019 153.027C271.586 153.027 271.234 153.397 271.234 153.853C271.234 154.309 271.586 154.678 272.019 154.678Z" fill="#98A2B3"/>
<path opacity="0.2" d="M268.275 185.544C268.269 185.697 268.218 185.846 268.128 185.97C268.038 186.095 267.913 186.191 267.768 186.245C267.624 186.299 267.469 186.31 267.319 186.276C267.166 186.242 267.03 186.164 266.924 186.053C266.818 185.942 266.747 185.802 266.72 185.651C266.692 185.499 266.709 185.343 266.771 185.202C266.831 185.06 266.932 184.94 267.06 184.855C267.188 184.771 267.341 184.726 267.493 184.727C267.706 184.732 267.907 184.821 268.052 184.974C268.199 185.127 268.278 185.332 268.275 185.544Z" fill="black"/>
<path d="M270.541 185.544C270.535 185.697 270.483 185.845 270.394 185.97C270.304 186.095 270.178 186.19 270.034 186.244C269.892 186.299 269.734 186.31 269.585 186.276C269.435 186.242 269.299 186.165 269.192 186.054C269.086 185.943 269.013 185.804 268.985 185.652C268.958 185.501 268.975 185.345 269.034 185.203C269.097 185.062 269.195 184.941 269.323 184.857C269.454 184.772 269.604 184.727 269.756 184.727C269.969 184.735 270.167 184.825 270.315 184.977C270.459 185.129 270.541 185.332 270.541 185.544Z" fill="#2970FF"/>
<path d="M272.019 186.369C272.452 186.369 272.803 186 272.803 185.544C272.803 185.088 272.452 184.719 272.019 184.719C271.586 184.719 271.234 185.088 271.234 185.544C271.234 186 271.586 186.369 272.019 186.369Z" fill="#98A2B3"/>
<path d="M255.444 81.8585H236.667L235.213 80.4531H255.444V81.8585Z" fill="#2970FF"/>
<path d="M255.444 83.9835H236.667L235.213 82.5781H255.444V83.9835Z" fill="#2970FF"/>
<path d="M255.444 88.2269H236.667L235.213 86.8242H255.444V88.2269Z" fill="#2970FF"/>
<path d="M255.444 90.3429H236.667L235.213 88.9375H255.444V90.3429Z" fill="#2970FF"/>
<path d="M255.444 92.464H236.667L235.213 91.0586H255.444V92.464Z" fill="#2970FF"/>
<path d="M279.093 81.8585H260.316L258.861 80.4531H279.093V81.8585Z" fill="#2970FF"/>
<path d="M279.093 83.9835H260.316L258.861 82.5781H279.093V83.9835Z" fill="#2970FF"/>
<path d="M279.093 86.1046H260.316L258.861 84.6992H279.093V86.1046Z" fill="#2970FF"/>
<path d="M279.093 88.2269H260.316L258.861 86.8242H279.093V88.2269Z" fill="#2970FF"/>
<path d="M279.093 90.3429H260.316L258.861 88.9375H279.093V90.3429Z" fill="#2970FF"/>
<path d="M279.093 92.464H260.316L258.861 91.0586H279.093V92.464Z" fill="#2970FF"/>
<path d="M298.352 100.248H285.428V91.625H298.352V100.248ZM285.569 100.107H298.207V91.7693H285.569V100.107Z" fill="#2970FF"/>
<path d="M298.352 112.201H285.428V103.578H298.352V112.201ZM285.569 112.06H298.207V103.722H285.569V112.06Z" fill="#2970FF"/>
<path d="M298.352 124.767H285.428V116.152H298.352V124.767ZM285.569 124.623H298.207V116.286H285.569V124.623Z" fill="#2970FF"/>
<path d="M298.352 136.725H285.428V128.102H298.352V136.725ZM285.569 136.58H298.207V128.243H285.569V136.58Z" fill="#2970FF"/>
<path d="M298.352 203.178H285.428V141.312H298.352V203.178ZM285.569 203.034H298.207V141.454H285.569V203.034Z" fill="#2970FF"/>
<path d="M242.491 218.023H302.722C302.744 218.023 302.766 218.032 302.782 218.048C302.798 218.064 302.807 218.086 302.807 218.108V235.915C302.807 235.937 302.798 235.962 302.782 235.978C302.766 235.994 302.744 236.002 302.719 236.002H242.491C242.469 236.002 242.447 235.994 242.431 235.978C242.414 235.962 242.406 235.94 242.406 235.918V218.111C242.406 218.089 242.414 218.067 242.431 218.051C242.447 218.034 242.469 218.023 242.491 218.023Z" fill="#344054"/>
<g opacity="0.2">
<path opacity="0.2" d="M242.497 218.02H302.728C302.75 218.02 302.772 218.028 302.788 218.044C302.804 218.06 302.812 218.082 302.812 218.104V235.911C302.812 235.933 302.804 235.958 302.788 235.974C302.772 235.99 302.75 235.999 302.725 235.999H242.497C242.475 235.999 242.453 235.99 242.437 235.974C242.42 235.958 242.412 235.936 242.412 235.914V218.107C242.412 218.085 242.42 218.063 242.437 218.047C242.453 218.03 242.475 218.02 242.497 218.02Z" fill="black"/>
</g>
<path d="M285.598 218.023H229.313C229.302 218.023 229.292 218.026 229.281 218.032C229.272 218.034 229.262 218.042 229.256 218.051C229.248 218.059 229.243 218.067 229.24 218.078C229.234 218.089 229.234 218.1 229.234 218.111V235.915C229.234 235.926 229.237 235.937 229.24 235.948C229.243 235.959 229.251 235.967 229.256 235.975C229.264 235.983 229.275 235.992 229.283 235.994C229.294 236 229.305 236.002 229.316 236.002H285.601C285.612 236.002 285.623 236 285.631 235.994C285.642 235.992 285.65 235.983 285.658 235.978C285.666 235.97 285.672 235.959 285.674 235.951C285.68 235.94 285.68 235.929 285.68 235.918V218.111C285.68 218.1 285.677 218.089 285.674 218.078C285.672 218.067 285.664 218.059 285.658 218.051C285.65 218.042 285.642 218.034 285.631 218.032C285.62 218.026 285.609 218.023 285.598 218.023Z" fill="#344054"/>
<path d="M247.951 220.25H231.141V222.601H247.951V220.25Z" fill="#D0D5DD"/>
<path d="M159.759 163.43H122.172V165.336H159.759V163.43Z" fill="#344054"/>
<path d="M124.466 167.766H112.117V236.146H124.466V167.766Z" fill="#98A2B3"/>
<path opacity="0.2" d="M124.466 167.766H112.117V236.146H124.466V167.766Z" fill="black"/>
<path d="M114.231 167.766H76.7695V236.146H114.231V167.766Z" fill="#98A2B3"/>
<g opacity="0.2">
<path opacity="0.2" d="M111.382 183.912H79.4219V172.031H111.382V183.912ZM79.8495 183.487H110.957V172.459H79.8495V183.487Z" fill="black"/>
</g>
<path opacity="0.2" d="M100.303 177.426H90.498V178.515H100.303V177.426Z" fill="black"/>
<g opacity="0.2">
<path opacity="0.2" d="M111.382 198.623H79.4219V186.742H111.382V198.623ZM79.8495 198.198H110.957V187.17H79.8495V198.198Z" fill="black"/>
</g>
<path opacity="0.2" d="M100.303 192.133H90.498V193.222H100.303V192.133Z" fill="black"/>
<g opacity="0.2">
<path opacity="0.2" d="M111.382 213.326H79.4219V201.445H111.382V213.326ZM79.8495 212.901H110.957V201.873H79.8495V212.901Z" fill="black"/>
</g>
<path opacity="0.2" d="M100.303 206.836H90.498V207.925H100.303V206.836Z" fill="black"/>
<g opacity="0.2">
<path opacity="0.2" d="M111.382 228.037H79.4219V216.156H111.382V228.037ZM79.8495 227.612H110.957V216.584H79.8495V227.612Z" fill="black"/>
</g>
<path opacity="0.2" d="M100.303 221.547H90.498V222.636H100.303V221.547Z" fill="black"/>
<path d="M215.337 166.426H202.988V236.144H215.337V166.426Z" fill="#98A2B3"/>
<path opacity="0.2" d="M215.337 166.426H202.988V236.144H215.337V166.426Z" fill="black"/>
<path d="M205.102 167.766H167.641V236.146H205.102V167.766Z" fill="#98A2B3"/>
<path d="M217.773 165.23H74.2656V168.006H217.773V165.23Z" fill="#98A2B3"/>
<path opacity="0.2" d="M114.274 168.062H76.6875V169.152H114.274V168.062Z" fill="black"/>
<path opacity="0.2" d="M205.109 168.062H167.658V169.152H205.109V168.062Z" fill="black"/>
<g opacity="0.2">
<path opacity="0.2" d="M202.352 183.912H170.393V172.031H202.352V183.912ZM170.82 183.487H201.927V172.459H170.82V183.487Z" fill="black"/>
</g>
<path opacity="0.2" d="M191.274 177.426H181.469V178.515H191.274V177.426Z" fill="black"/>
<g opacity="0.2">
<path opacity="0.2" d="M202.352 198.623H170.393V186.742H202.352V198.623ZM170.82 198.198H201.927V187.17H170.82V198.198Z" fill="black"/>
</g>
<path opacity="0.2" d="M191.274 192.133H181.469V193.222H191.274V192.133Z" fill="black"/>
<g opacity="0.2">
<path opacity="0.2" d="M202.352 213.326H170.393V201.445H202.352V213.326ZM170.82 212.901H201.927V201.873H170.82V212.901Z" fill="black"/>
</g>
<path opacity="0.2" d="M191.274 206.836H181.469V207.925H191.274V206.836Z" fill="black"/>
<g opacity="0.2">
<path opacity="0.2" d="M202.352 228.037H170.393V216.156H202.352V228.037ZM170.82 227.612H201.927V216.584H170.82V227.612Z" fill="black"/>
</g>
<path opacity="0.2" d="M191.274 221.547H181.469V222.636H191.274V221.547Z" fill="black"/>
<path opacity="0.2" d="M119.501 155.672H109.505L109.086 153.988H119.082L119.501 155.672Z" fill="black"/>
<path d="M129.798 164.18H103.801V165.405H129.798V164.18Z" fill="#344054"/>
<path d="M186.371 164.967H177.037L169.07 133.023H178.404L186.371 164.967Z" fill="#344054"/>
<path opacity="0.2" d="M186.371 164.967H177.037L169.07 133.023H178.404L186.371 164.967Z" fill="black"/>
<path d="M185.729 164.967H176.395L168.428 133.023H177.762L185.729 164.967Z" fill="#344054"/>
<path opacity="0.2" d="M184.05 155.672H174.054L173.635 153.988H183.631L184.05 155.672Z" fill="black"/>
<path d="M202.889 121.391H149.701V153.982H202.889V121.391Z" fill="#344054"/>
<path d="M201.025 122.895H151.561V152.479H201.025V122.895Z" fill="#101828"/>
<path d="M170.629 124.945H154.543V126.206H170.629V124.945Z" fill="#2970FF"/>
<path d="M166.838 127.102H154.543V128.363H166.838V127.102Z" fill="#2970FF"/>
<path d="M169.248 129.25H154.543V130.511H169.248V129.25Z" fill="#2970FF"/>
<path d="M166.437 131.406H154.543V132.667H166.437V131.406Z" fill="#2970FF"/>
<path d="M171.827 133.559H158.383V134.82H171.827V133.559Z" fill="#2970FF"/>
<path d="M170.628 136.148H158.383V137.41H170.628V136.148Z" fill="#2970FF"/>
<path d="M166.838 138.301H154.543V139.562H166.838V138.301Z" fill="#2970FF"/>
<path d="M169.248 140.453H154.543V141.714H169.248V140.453Z" fill="#2970FF"/>
<path d="M166.437 142.602H154.543V143.863H166.437V142.602Z" fill="#2970FF"/>
<path d="M171.827 144.758H154.543V146.019H171.827V144.758Z" fill="#2970FF"/>
<path d="M174.52 147.227H159.814V148.488H174.52V147.227Z" fill="#2970FF"/>
<path d="M171.827 149.695H154.543V150.956H171.827V149.695Z" fill="#2970FF"/>
<g opacity="0.2">
<path opacity="0.2" d="M170.629 124.941H154.543V126.202H170.629V124.941Z" fill="black"/>
<path opacity="0.2" d="M166.838 127.094H154.543V128.355H166.838V127.094Z" fill="black"/>
<path opacity="0.2" d="M169.248 129.242H154.543V130.503H169.248V129.242Z" fill="black"/>
<path opacity="0.2" d="M166.437 131.402H154.543V132.663H166.437V131.402Z" fill="black"/>
<path opacity="0.2" d="M171.827 133.555H158.383V134.816H171.827V133.555Z" fill="black"/>
<path opacity="0.2" d="M170.628 136.145H158.383V137.406H170.628V136.145Z" fill="black"/>
<path opacity="0.2" d="M166.838 138.293H154.543V139.554H166.838V138.293Z" fill="black"/>
<path opacity="0.2" d="M169.248 140.449H154.543V141.71H169.248V140.449Z" fill="black"/>
<path opacity="0.2" d="M166.437 142.602H154.543V143.863H166.437V142.602Z" fill="black"/>
<path opacity="0.2" d="M171.827 144.758H154.543V146.019H171.827V144.758Z" fill="black"/>
<path opacity="0.2" d="M174.52 147.223H159.814V148.484H174.52V147.223Z" fill="black"/>
<path opacity="0.2" d="M171.827 149.688H154.543V150.949H171.827V149.688Z" fill="black"/>
</g>
<path d="M194.793 124.945H178.707V126.206H194.793V124.945Z" fill="#2970FF"/>
<path d="M191.002 127.102H178.707V128.363H191.002V127.102Z" fill="#2970FF"/>
<path d="M193.412 129.25H178.707V130.511H193.412V129.25Z" fill="#2970FF"/>
<path d="M190.601 131.406H178.707V132.667H190.601V131.406Z" fill="#2970FF"/>
<path d="M195.989 133.559H182.545V134.82H195.989V133.559Z" fill="#2970FF"/>
<path d="M194.791 136.148H182.545V137.41H194.791V136.148Z" fill="#2970FF"/>
<path d="M191.002 138.301H178.707V139.562H191.002V138.301Z" fill="#2970FF"/>
<path d="M193.412 140.453H178.707V141.714H193.412V140.453Z" fill="#2970FF"/>
<path d="M190.601 142.602H178.707V143.863H190.601V142.602Z" fill="#2970FF"/>
<path d="M195.991 144.758H178.707V146.019H195.991V144.758Z" fill="#2970FF"/>
<path d="M198.686 147.227H183.98V148.488H198.686V147.227Z" fill="#2970FF"/>
<path d="M195.991 149.695H178.707V150.956H195.991V149.695Z" fill="#2970FF"/>
<g opacity="0.2">
<path opacity="0.2" d="M194.795 124.941H178.709V126.202H194.795V124.941Z" fill="white"/>
<path opacity="0.2" d="M191.004 127.094H178.709V128.355H191.004V127.094Z" fill="white"/>
<path opacity="0.2" d="M193.414 129.242H178.709V130.503H193.414V129.242Z" fill="white"/>
<path opacity="0.2" d="M190.603 131.402H178.709V132.663H190.603V131.402Z" fill="white"/>
<path opacity="0.2" d="M195.991 133.555H182.547V134.816H195.991V133.555Z" fill="white"/>
<path opacity="0.2" d="M194.793 136.145H182.547V137.406H194.793V136.145Z" fill="white"/>
<path opacity="0.2" d="M191.004 138.293H178.709V139.554H191.004V138.293Z" fill="white"/>
<path opacity="0.2" d="M193.414 140.449H178.709V141.71H193.414V140.449Z" fill="white"/>
<path opacity="0.2" d="M190.603 142.602H178.709V143.863H190.603V142.602Z" fill="white"/>
<path opacity="0.2" d="M195.993 144.758H178.709V146.019H195.993V144.758Z" fill="white"/>
<path opacity="0.2" d="M198.686 147.223H183.98V148.484H198.686V147.223Z" fill="white"/>
<path opacity="0.2" d="M195.993 149.688H178.709V150.949H195.993V149.688Z" fill="white"/>
</g>
<path d="M203.615 121.375H202.883V153.975H203.615V121.375Z" fill="#344054"/>
<path opacity="0.2" d="M203.615 121.375H202.883V153.975H203.615V121.375Z" fill="black"/>
<path d="M194.349 164.18H168.352V165.405H194.349V164.18Z" fill="#344054"/>
<path d="M116.194 128.82C116.904 129.346 117.438 130.075 117.724 130.911L119.255 135.4C119.296 135.522 119.368 135.631 119.463 135.716C119.559 135.803 119.675 135.862 119.8 135.89L120.432 136.013C120.643 136.052 120.836 136.157 120.983 136.313C121.13 136.47 121.223 136.669 121.249 136.882V136.901C121.274 137.122 121.226 137.345 121.112 137.536C120.999 137.727 120.826 137.876 120.62 137.96C120.287 138.091 119.969 138.233 119.969 138.233L119.849 141.18C119.819 141.905 119.513 142.592 118.992 143.098C118.472 143.605 117.778 143.893 117.052 143.903L115.551 143.922L114.813 150.092L104.463 146.006L106.171 139.287C106.318 138.933 106.342 138.539 106.239 138.17L105.422 135.267C105.146 134.276 105.163 133.227 105.471 132.246C106.062 130.339 108.396 128.406 110.322 127.923L110.888 127.782C112.479 127.384 114.862 127.855 116.18 128.83L116.194 128.82Z" fill="#FFC3BD"/>
<path d="M131.041 225.561L143.842 232.506L140.549 226.166C140.279 225.643 140.131 225.065 140.117 224.477C140.103 223.891 140.223 223.306 140.468 222.772L143.464 216.445L135.859 214.23L131.041 225.561Z" fill="#FFC3BD"/>
<path opacity="0.15" d="M135.984 218.841L136.025 218.762C136.115 218.536 136.289 218.354 136.51 218.253C136.732 218.149 136.984 218.139 137.215 218.218L141.238 221.184L142.327 218.844L135.472 215.426L132.23 222.551L138.206 224.822L136.725 223.131C136.217 222.554 135.879 221.848 135.749 221.091C135.618 220.334 135.699 219.555 135.984 218.841Z" fill="black"/>
<path d="M121.081 178.945L153.119 180.547C154.066 180.548 154.996 180.793 155.821 181.258C156.645 181.723 157.336 182.393 157.827 183.202C158.317 184.011 158.591 184.934 158.622 185.88C158.653 186.826 158.44 187.764 158.003 188.603L142.315 219.537L134.879 215.473L141.748 193.855H119.746L121.081 178.945Z" fill="#101828"/>
<path opacity="0.3" d="M119.991 178.945L150.442 180.547C150.833 180.549 151.216 180.647 151.56 180.833C151.903 181.018 152.196 181.286 152.411 181.611C152.627 181.937 152.758 182.31 152.795 182.699C152.832 183.088 152.772 183.48 152.621 183.84L152.133 184.989L152.321 185.262C153.223 186.569 153.621 188.614 153.917 190.295L154.705 194.705C154.712 194.75 154.701 194.796 154.675 194.834C154.648 194.871 154.608 194.897 154.563 194.906H154.533C154.492 194.906 154.453 194.892 154.422 194.866C154.39 194.84 154.369 194.804 154.361 194.764L153.577 190.352C153.28 188.685 152.882 186.656 151.975 185.37L137.957 217.352L134.879 215.467L141.748 193.849H119.746L119.991 178.945Z" fill="black"/>
<path d="M152.477 231.384L167.305 231.749L161.389 227.522C160.408 226.814 159.787 225.913 159.338 224.567L158.434 220.07L149.23 220.095L152.477 231.384Z" fill="#FFC3BD"/>
<path opacity="0.15" d="M154.122 225.97V225.878C154.098 225.63 154.169 225.385 154.321 225.189C154.473 224.993 154.694 224.865 154.939 224.826L159.259 224.143L159.06 223.203H150.121L152.425 231.066L158.891 230.358L156.767 229.511C156.043 229.222 155.412 228.738 154.946 228.114C154.479 227.487 154.194 226.747 154.122 225.97Z" fill="black"/>
<path d="M151.449 228.757V234.539C151.448 234.762 151.492 234.98 151.576 235.187C151.661 235.391 151.786 235.579 151.943 235.737C152.1 235.893 152.287 236.018 152.492 236.102C152.698 236.187 152.918 236.23 153.141 236.23H172.789C172.977 236.23 173.156 236.154 173.289 236.021C173.422 235.89 173.497 235.71 173.497 235.522C173.496 234.852 173.285 234.198 172.894 233.654C172.504 233.106 171.953 232.698 171.318 232.48L166.887 231.017L161.265 226.659C160.982 226.439 160.632 226.324 160.274 226.332C159.916 226.341 159.571 226.471 159.299 226.706L156.807 228.83C156.627 228.983 156.411 229.089 156.18 229.135C155.948 229.184 155.709 229.173 155.483 229.102L152.329 228.119C152.228 228.087 152.122 228.081 152.018 228.097C151.913 228.114 151.815 228.155 151.729 228.217C151.644 228.28 151.574 228.359 151.526 228.454C151.477 228.547 151.451 228.65 151.449 228.757Z" fill="#101828"/>
<path d="M153.141 236.225H172.79C172.977 236.225 173.157 236.149 173.29 236.018C173.422 235.884 173.497 235.705 173.498 235.517C173.504 235.277 173.473 235.037 173.405 234.809H151.469C151.537 235.204 151.742 235.56 152.048 235.822C152.353 236.081 152.74 236.222 153.141 236.225Z" fill="#101828"/>
<path d="M153.141 236.225H172.79C172.977 236.225 173.157 236.149 173.29 236.018C173.422 235.884 173.497 235.705 173.498 235.517C173.504 235.277 173.473 235.037 173.405 234.809H151.469C151.537 235.204 151.742 235.56 152.048 235.822C152.353 236.081 152.74 236.222 153.141 236.225Z" fill="black"/>
<path d="M161.137 228.954C161.094 228.954 161.053 228.938 161.02 228.911C160.987 228.878 160.969 228.832 160.969 228.785C160.969 228.739 160.987 228.693 161.02 228.66L162.21 227.38C162.243 227.347 162.288 227.328 162.335 227.328C162.382 227.328 162.427 227.347 162.46 227.38C162.493 227.413 162.512 227.459 162.512 227.505C162.512 227.551 162.493 227.598 162.46 227.63L161.273 228.913C161.231 228.938 161.184 228.951 161.137 228.954Z" fill="white"/>
<path d="M162.074 229.687C162.031 229.685 161.991 229.668 161.959 229.641C161.926 229.608 161.908 229.562 161.908 229.516C161.908 229.469 161.926 229.423 161.959 229.39L163.149 228.11C163.183 228.078 163.228 228.059 163.275 228.059C163.322 228.059 163.367 228.078 163.4 228.11C163.433 228.143 163.452 228.189 163.452 228.236C163.452 228.282 163.433 228.328 163.4 228.361L162.21 229.641C162.169 229.668 162.122 229.685 162.074 229.687Z" fill="white"/>
<path d="M163.01 230.425C162.967 230.422 162.925 230.406 162.892 230.379C162.86 230.346 162.842 230.3 162.842 230.253C162.842 230.207 162.86 230.161 162.892 230.128L164.083 228.851C164.098 228.831 164.118 228.815 164.14 228.804C164.162 228.793 164.186 228.788 164.21 228.785C164.235 228.785 164.26 228.788 164.283 228.796C164.306 228.807 164.327 228.821 164.344 228.837C164.362 228.853 164.376 228.875 164.385 228.897C164.394 228.921 164.398 228.946 164.397 228.97C164.396 228.995 164.39 229.019 164.379 229.041C164.368 229.063 164.352 229.082 164.333 229.098L163.146 230.379C163.127 230.395 163.106 230.408 163.082 230.417C163.059 230.422 163.034 230.428 163.01 230.425Z" fill="white"/>
<path d="M132.999 219.182L130.251 224.283C130.144 224.479 130.077 224.692 130.054 224.912C130.031 225.136 130.052 225.359 130.115 225.571C130.179 225.784 130.284 225.983 130.424 226.154C130.565 226.326 130.738 226.47 130.934 226.574L148.224 235.916C148.39 236.003 148.583 236.022 148.763 235.968C148.942 235.913 149.093 235.791 149.183 235.627C149.499 235.034 149.623 234.358 149.536 233.691C149.449 233.023 149.156 232.402 148.698 231.909L145.495 228.516L142.624 222.003C142.48 221.677 142.227 221.407 141.908 221.246C141.589 221.083 141.223 221.034 140.873 221.11L137.67 221.794C137.439 221.845 137.198 221.835 136.972 221.766C136.745 221.701 136.539 221.576 136.373 221.407L134.066 219.046C133.993 218.972 133.904 218.915 133.806 218.882C133.707 218.847 133.602 218.836 133.499 218.849C133.396 218.863 133.297 218.901 133.21 218.958C133.124 219.016 133.051 219.092 132.999 219.182Z" fill="#101828"/>
<path d="M130.933 226.56L148.223 235.902C148.389 235.989 148.582 236.008 148.761 235.954C148.941 235.899 149.092 235.776 149.181 235.613C149.299 235.406 149.385 235.183 149.435 234.949L130.138 224.52C130.008 224.898 130.017 225.312 130.163 225.685C130.309 226.058 130.581 226.369 130.933 226.56Z" fill="#101828"/>
<path d="M130.933 226.56L148.223 235.902C148.389 235.989 148.582 236.008 148.761 235.954C148.941 235.899 149.092 235.776 149.181 235.613C149.299 235.406 149.385 235.183 149.435 234.949L130.138 224.52C130.008 224.898 130.017 225.312 130.163 225.685C130.309 226.058 130.581 226.369 130.933 226.56Z" fill="black"/>
<path d="M141.424 223.971C141.386 223.949 141.358 223.916 141.343 223.875C141.33 223.832 141.335 223.783 141.358 223.742C141.38 223.701 141.418 223.671 141.462 223.657L143.118 223.096C143.141 223.091 143.164 223.088 143.188 223.091C143.211 223.094 143.233 223.099 143.253 223.11C143.274 223.121 143.292 223.137 143.307 223.156C143.322 223.173 143.332 223.194 143.339 223.216C143.346 223.238 143.348 223.262 143.345 223.284C143.343 223.309 143.336 223.331 143.325 223.352C143.314 223.371 143.299 223.391 143.28 223.404C143.262 223.42 143.241 223.431 143.219 223.437L141.566 223.998C141.517 223.998 141.469 223.99 141.424 223.971Z" fill="white"/>
<path d="M141.904 225.062C141.868 225.04 141.84 225.007 141.825 224.966C141.812 224.92 141.818 224.874 141.84 224.833C141.863 224.789 141.9 224.759 141.945 224.746L143.598 224.201C143.621 224.193 143.646 224.188 143.67 224.188C143.695 224.19 143.719 224.196 143.742 224.207C143.764 224.217 143.783 224.231 143.8 224.25C143.816 224.269 143.828 224.291 143.835 224.316C143.842 224.337 143.844 224.365 143.841 224.386C143.837 224.411 143.829 224.435 143.816 224.457C143.804 224.479 143.787 224.495 143.767 224.512C143.746 224.525 143.723 224.533 143.699 224.539L142.046 225.1C141.996 225.1 141.948 225.086 141.904 225.062Z" fill="white"/>
<path d="M142.38 226.149C142.35 226.133 142.325 226.108 142.31 226.079C142.294 226.046 142.288 226.013 142.292 225.978C142.296 225.945 142.31 225.912 142.333 225.888C142.355 225.861 142.385 225.842 142.418 225.833L144.071 225.289C144.116 225.275 144.164 225.28 144.205 225.302C144.246 225.324 144.278 225.362 144.292 225.406C144.306 225.449 144.301 225.498 144.279 225.539C144.257 225.583 144.22 225.613 144.175 225.626L142.522 226.187C142.497 226.19 142.471 226.19 142.447 226.182C142.422 226.177 142.4 226.166 142.38 226.149Z" fill="white"/>
<path d="M95.207 186.032L97.3615 189.486C98.6751 190.87 100.252 191.976 102 192.741C103.749 193.505 105.632 193.912 107.54 193.936L141.085 194.301L149.681 223.347H159.336L153.102 188.064C152.839 186.625 152.12 185.308 151.052 184.309C149.984 183.309 148.623 182.678 147.169 182.511L121.485 179.539L95.207 186.032Z" fill="#101828"/>
<path d="M130.738 160.848L133.363 162.754C133.443 162.81 133.507 162.887 133.547 162.977C133.587 163.066 133.602 163.165 133.591 163.262C133.58 163.359 133.543 163.452 133.484 163.53C133.424 163.607 133.345 163.668 133.254 163.705L132.467 164.042C132.164 164.168 131.823 164.168 131.519 164.042L127.357 162.321L131.097 160.82" fill="#FFC3BD"/>
<path opacity="0.15" d="M130.738 160.848L133.363 162.754C133.443 162.81 133.507 162.887 133.547 162.977C133.587 163.066 133.602 163.164 133.591 163.262C133.58 163.359 133.543 163.451 133.484 163.529C133.424 163.608 133.345 163.668 133.254 163.705L132.467 164.043C132.164 164.168 131.823 164.168 131.519 164.043L127.357 162.321" fill="black"/>
<path d="M125.096 160.997L129.048 159.818C129.585 159.656 130.164 159.702 130.669 159.946L134.152 161.61C134.258 161.661 134.341 161.75 134.384 161.86C134.428 161.969 134.428 162.09 134.386 162.2C134.344 162.31 134.262 162.4 134.157 162.452C134.051 162.504 133.93 162.515 133.817 162.482L130.587 161.534L127.771 162.555C127.721 162.574 127.676 162.605 127.641 162.645C127.607 162.686 127.583 162.735 127.572 162.787C127.564 162.829 127.564 162.873 127.574 162.915C127.583 162.957 127.602 162.997 127.627 163.031C127.653 163.066 127.685 163.095 127.723 163.117C127.76 163.139 127.801 163.152 127.844 163.157L129.547 163.351C129.814 163.382 130.06 163.513 130.234 163.719C130.408 163.924 130.498 164.187 130.486 164.456C130.482 164.519 130.456 164.578 130.414 164.623C130.371 164.669 130.314 164.698 130.252 164.707L121.362 165.875L120.545 162.607L125.096 160.997Z" fill="#FFC3BD"/>
<path d="M100.066 147.203L89.9888 163.643C89.6562 164.181 89.4737 164.797 89.4598 165.429C89.4459 166.061 89.6017 166.685 89.9103 167.236C90.2192 167.788 90.67 168.246 91.2158 168.565C91.7616 168.883 92.3829 169.05 93.0148 169.047H103.482L100.066 147.203Z" fill="#2970FF"/>
<path d="M119.294 134.086L111.371 136.104L111.472 136.505L119.395 134.484L119.294 134.086Z" fill="black"/>
<path d="M132.127 167.389L133.838 166.981C134.79 166.751 135.676 166.306 136.428 165.679L137.354 164.913C137.467 164.821 137.598 164.755 137.74 164.717C137.88 164.68 138.028 164.674 138.171 164.698L141.184 165.186C141.26 165.197 141.338 165.189 141.41 165.162C141.482 165.135 141.546 165.09 141.595 165.03C141.642 164.978 141.674 164.914 141.691 164.846C141.709 164.778 141.709 164.706 141.692 164.638C141.676 164.569 141.644 164.506 141.598 164.452C141.552 164.398 141.494 164.357 141.429 164.33L139.024 163.309L142.565 164.799C142.683 164.843 142.814 164.842 142.932 164.796C143.05 164.751 143.147 164.663 143.204 164.55C143.262 164.437 143.275 164.307 143.242 164.184C143.21 164.062 143.134 163.956 143.028 163.886L140.367 162.285L143.866 164.388C143.956 164.437 144.057 164.461 144.16 164.457C144.262 164.453 144.361 164.422 144.447 164.366C144.52 164.317 144.581 164.251 144.624 164.174C144.667 164.096 144.69 164.009 144.692 163.921C144.693 163.832 144.673 163.745 144.633 163.666C144.594 163.587 144.535 163.518 144.463 163.467L141.739 161.468L145.569 163.083C145.703 163.14 145.853 163.144 145.99 163.093C146.126 163.043 146.238 162.942 146.301 162.811C146.366 162.681 146.378 162.531 146.334 162.393C146.291 162.254 146.195 162.139 146.067 162.07L141.892 159.817C141.468 159.553 140.958 159.465 140.47 159.572L135.009 161.4L132.313 161.672C132.313 161.672 129.676 167.972 132.127 167.389Z" fill="#FFC3BD"/>
<path opacity="0.15" d="M141.519 164.363C141.547 164.317 141.519 164.268 141.47 164.238L139.264 163.306C139.253 163.301 139.241 163.298 139.229 163.297C139.216 163.296 139.203 163.298 139.192 163.303C139.18 163.307 139.169 163.314 139.16 163.322C139.151 163.331 139.144 163.341 139.139 163.353C139.109 163.399 139.139 163.451 139.188 163.478L141.394 164.412C141.403 164.417 141.413 164.419 141.423 164.419C141.433 164.419 141.443 164.417 141.451 164.412C141.478 164.403 141.502 164.386 141.519 164.363Z" fill="black"/>
<path opacity="0.15" d="M143.108 163.938C143.115 163.928 143.12 163.916 143.122 163.904C143.124 163.891 143.123 163.879 143.12 163.867C143.117 163.855 143.112 163.844 143.104 163.834C143.097 163.824 143.087 163.816 143.076 163.81L140.573 162.304C140.552 162.295 140.529 162.295 140.507 162.302C140.485 162.308 140.467 162.323 140.455 162.343C140.444 162.362 140.439 162.385 140.443 162.407C140.446 162.429 140.458 162.45 140.475 162.465L142.975 163.968C142.975 163.987 143.019 163.968 143.035 163.968C143.051 163.968 143.095 163.96 143.108 163.938Z" fill="black"/>
<path opacity="0.15" d="M137.785 164.472L137.324 164.911C137.437 164.819 137.569 164.752 137.71 164.715C137.85 164.677 137.998 164.671 138.141 164.695L141.165 165.183C141.241 165.194 141.319 165.186 141.39 165.159C141.462 165.132 141.526 165.087 141.576 165.028C141.632 164.958 141.667 164.874 141.676 164.785C141.686 164.696 141.67 164.607 141.63 164.527C141.63 164.527 141.576 164.949 140.99 164.777C140.576 164.663 139.397 164.379 138.697 164.216C138.535 164.183 138.368 164.189 138.21 164.234C138.051 164.278 137.905 164.36 137.785 164.472Z" fill="black"/>
<path opacity="0.15" d="M137.508 164.789L136.397 165.679C135.647 166.306 134.761 166.751 133.81 166.978L133.551 167.038L134.112 161.477L134.523 164.998C134.538 165.102 134.574 165.201 134.629 165.29C134.683 165.379 134.755 165.455 134.841 165.515C134.927 165.575 135.023 165.617 135.126 165.638C135.228 165.659 135.333 165.659 135.436 165.638C136.157 165.437 136.853 165.152 137.508 164.789Z" fill="black"/>
<path d="M119.855 136.404C119.816 136.399 119.78 136.383 119.75 136.357C119.72 136.332 119.698 136.299 119.686 136.262L118.523 132.672C118.514 132.647 118.51 132.619 118.512 132.592C118.514 132.565 118.521 132.539 118.533 132.515C118.546 132.491 118.563 132.469 118.583 132.452C118.604 132.434 118.628 132.421 118.654 132.414C118.68 132.403 118.708 132.398 118.737 132.399C118.765 132.399 118.793 132.406 118.819 132.419C118.844 132.431 118.867 132.448 118.886 132.47C118.904 132.492 118.918 132.517 118.926 132.544L120.089 136.137C120.105 136.188 120.1 136.244 120.076 136.292C120.051 136.341 120.009 136.378 119.958 136.396C119.925 136.405 119.889 136.408 119.855 136.404Z" fill="black"/>
<path d="M95.2458 185.965L123.806 178.946L121.355 171.048L122.976 155.392L122.597 154.226C121.959 152.309 120.65 150.686 118.912 149.656L116.91 148.465L116.333 146.254L104.743 143.258L103.109 145.164C101.227 145.728 95.3493 147.071 94.1727 148.539C92.9634 150.035 92.2378 151.864 92.0918 153.782L93.0179 174.316C93.2276 177.443 93.5953 179.453 93.8622 181.684C94.0463 183.186 94.5159 184.639 95.2458 185.965Z" fill="#2970FF"/>
<path opacity="0.2" d="M112.639 167.234L114.545 181.67L123.806 178.946L121.899 172.954L112.639 167.234Z" fill="black"/>
<path opacity="0.15" d="M115.553 143.908L114.442 143.884C114.376 143.878 114.311 143.895 114.255 143.93C114.199 143.966 114.157 144.019 114.135 144.081C114.113 144.143 114.111 144.211 114.131 144.274C114.151 144.337 114.192 144.391 114.246 144.429L115.363 145.189L115.553 143.908Z" fill="black"/>
<path d="M111.523 164.184L114.876 174.711C115.28 175.401 115.844 175.983 116.521 176.408C117.198 176.833 117.967 177.089 118.764 177.154C119.56 177.219 120.361 177.091 121.097 176.781C121.834 176.471 122.485 175.988 122.996 175.373L137.431 165.6L134.707 160.97L122.178 165.873L122.982 155.395L111.523 164.184Z" fill="#2970FF"/>
<path opacity="0.2" d="M122.195 165.841L122.225 167.426C122.23 167.519 122.261 167.608 122.315 167.683C122.37 167.758 122.445 167.816 122.531 167.85C122.617 167.883 122.712 167.891 122.803 167.871C122.893 167.852 122.976 167.807 123.042 167.742L126.412 164.098L122.195 165.841Z" fill="black"/>
<path opacity="0.15" d="M111.026 135.379C111.026 135.379 110.228 134.499 109.076 135.477C107.755 136.594 109.098 139.723 111.59 139.481C112.952 139.209 112.875 138.811 112.366 137.817L111.026 135.379Z" fill="black"/>
<path d="M111.277 135.651C111.173 135.498 111.037 135.37 110.878 135.275C110.719 135.181 110.541 135.122 110.357 135.104C110.173 135.086 109.987 135.108 109.813 135.169C109.638 135.23 109.479 135.328 109.346 135.458C108.047 136.523 109.281 139.816 111.852 139.306C113.214 139.034 112.718 138.358 112.212 137.4L111.277 135.651Z" fill="#FFC3BD"/>
<path opacity="0.15" d="M109.522 136.35C109.601 136.242 109.701 136.152 109.817 136.085C109.933 136.018 110.061 135.976 110.194 135.961C110.326 135.96 110.457 135.987 110.578 136.04C110.698 136.092 110.807 136.169 110.897 136.266C111.137 136.5 111.311 136.793 111.401 137.116L111.507 137.404C111.516 137.425 111.521 137.448 111.521 137.471C111.521 137.494 111.516 137.516 111.507 137.537C111.497 137.558 111.483 137.576 111.466 137.591C111.449 137.606 111.429 137.617 111.407 137.624C111.385 137.631 111.362 137.632 111.34 137.629C111.317 137.627 111.295 137.619 111.276 137.607C111.257 137.595 111.24 137.579 111.227 137.56C111.214 137.541 111.206 137.519 111.202 137.497L111.096 137.208C111.01 136.944 110.867 136.702 110.676 136.5C110.617 136.435 110.545 136.381 110.466 136.343C110.386 136.305 110.299 136.284 110.211 136.28C110.122 136.292 110.036 136.323 109.959 136.37C109.882 136.417 109.816 136.478 109.764 136.552C109.751 136.571 109.735 136.587 109.716 136.6C109.696 136.612 109.675 136.62 109.652 136.623C109.63 136.626 109.607 136.625 109.585 136.618C109.563 136.612 109.542 136.601 109.525 136.586C109.508 136.571 109.494 136.553 109.484 136.532C109.474 136.512 109.469 136.489 109.469 136.466C109.468 136.444 109.473 136.421 109.482 136.4C109.491 136.379 109.504 136.36 109.522 136.345V136.35Z" fill="black"/>
<path opacity="0.2" d="M103.652 145.445L115.909 148.441" stroke="black" stroke-width="0.272368" stroke-miterlimit="10" stroke-linecap="round"/>
<path opacity="0.3" d="M143.142 194.202L144.992 193.461C145.037 193.442 145.074 193.408 145.098 193.365C145.121 193.322 145.13 193.273 145.122 193.225C145.115 193.176 145.092 193.132 145.056 193.098C145.021 193.064 144.975 193.044 144.926 193.039L120.808 191.206C108.824 190.661 102.731 185.805 102.731 185.805L96.6055 188.692L97.3599 189.484C98.6736 190.868 100.251 191.975 101.999 192.739C103.747 193.504 105.631 193.91 107.538 193.935L141.083 194.3L149.668 223.31L152.648 223.201L143.142 194.202Z" fill="black"/>
<path opacity="0.2" d="M114.88 174.715C115.284 175.405 115.848 175.987 116.525 176.412C117.202 176.838 117.971 177.094 118.767 177.159C119.564 177.224 120.365 177.095 121.101 176.786C121.838 176.475 122.489 175.992 122.999 175.377L137.435 165.605L136.713 164.379L121.093 174.048C116.735 176.499 115.101 170.78 115.101 170.78L113.654 170.848L114.88 174.715Z" fill="black"/>
<path d="M52.6543 73.2786C52.6624 65.0877 55.686 57.1867 61.1489 51.0839C66.6125 44.9812 74.1317 41.1041 82.2714 40.1937V40H85.9267C94.6731 40.1193 103.021 43.6784 109.163 49.9055C115.306 56.1326 118.75 64.5285 118.75 73.2755C118.75 82.0225 115.306 90.4178 109.163 96.6449C103.021 102.873 94.6731 106.431 85.9267 106.551H82.2714V106.357C74.1323 105.448 66.6131 101.572 61.1495 95.4702C55.6866 89.3687 52.6624 81.4683 52.6543 73.2786Z" fill="#98A2B3"/>
<path d="M82.2724 106.544C88.8531 106.544 95.2858 104.593 100.757 100.937C106.229 97.2813 110.494 92.0846 113.012 86.005C115.53 79.9253 116.189 73.2352 114.906 66.7813C113.621 60.3268 110.452 54.3984 105.799 49.7452C101.146 45.0921 95.2177 41.923 88.7631 40.6396C82.3092 39.3555 75.6191 40.0141 69.5395 42.5328C63.4599 45.0509 58.2632 49.3154 54.6073 54.787C50.9514 60.2587 49 66.6914 49 73.2721C49 82.0966 52.5053 90.5594 58.7449 96.7996C64.9851 103.039 73.4479 106.544 82.2724 106.544Z" fill="#475467"/>
<path d="M82.2714 102.907C88.1311 102.908 93.8596 101.172 98.732 97.9172C103.604 94.6625 107.402 90.0362 109.645 84.6226C111.888 79.2097 112.475 73.2532 111.332 67.5059C110.19 61.7587 107.368 56.4801 103.225 52.3369C99.0813 48.1936 93.8027 45.3719 88.0555 44.229C82.3089 43.0862 76.3517 43.6736 70.9388 45.9161C65.5252 48.1592 60.899 51.957 57.6442 56.8294C54.3901 61.7019 52.653 67.4303 52.6543 73.29C52.6543 81.1448 55.7747 88.6778 61.3295 94.2326C66.8836 99.7867 74.4166 102.907 82.2714 102.907Z" fill="white"/>
<path d="M82.2714 102.907C88.1311 102.908 93.8596 101.172 98.732 97.9172C103.604 94.6625 107.402 90.0362 109.645 84.6226C111.888 79.2097 112.475 73.2532 111.332 67.5059C110.19 61.7587 107.368 56.4801 103.225 52.3369C99.0813 48.1936 93.8027 45.3719 88.0555 44.229C82.3089 43.0862 76.3517 43.6736 70.9388 45.9161C65.5252 48.1592 60.899 51.957 57.6442 56.8294C54.3901 61.7019 52.653 67.4303 52.6543 73.29C52.6543 81.1448 55.7747 88.6778 61.3295 94.2326C66.8836 99.7867 74.4166 102.907 82.2714 102.907Z" fill="#475467"/>
<path d="M82.2714 102.907C88.1311 102.908 93.8596 101.172 98.732 97.9172C103.604 94.6625 107.402 90.0362 109.645 84.6226C111.888 79.2097 112.475 73.2532 111.332 67.5059C110.19 61.7587 107.368 56.4801 103.225 52.3369C99.0813 48.1936 93.8027 45.3719 88.0555 44.229C82.3089 43.0862 76.3517 43.6736 70.9388 45.9161C65.5252 48.1592 60.899 51.957 57.6442 56.8294C54.3901 61.7019 52.653 67.4303 52.6543 73.29C52.6543 81.1448 55.7747 88.6778 61.3295 94.2326C66.8836 99.7867 74.4166 102.907 82.2714 102.907Z" fill="white"/>
<path d="M82.2755 43.6512C82.8091 43.64 83.3439 43.6625 83.8751 43.72C76.3146 44.1311 69.1996 47.4246 63.9929 52.9219C58.7867 58.4192 55.885 65.7029 55.885 73.2746C55.885 80.8457 58.7867 88.1294 63.9929 93.6273C69.1996 99.1246 76.3146 102.417 83.8751 102.829C83.3627 102.829 82.8503 102.892 82.2755 102.892C74.4938 102.779 67.0695 99.6082 61.6072 94.0653C56.1443 88.523 53.082 81.0531 53.082 73.2715C53.082 65.4892 56.1443 58.0199 61.6072 52.477C67.0695 46.9347 74.4938 43.7643 82.2755 43.6512Z" fill="#98A2B3"/>
<path d="M82.0181 75.5836L91.828 56.0513C91.9318 55.8688 91.9974 55.667 92.0199 55.4583C92.043 55.2496 92.023 55.0391 91.9611 54.8385C91.8993 54.6379 91.7968 54.4517 91.6606 54.2924C91.5244 54.1331 91.3569 54.0031 91.1682 53.9106C90.9801 53.8181 90.7745 53.7656 90.5646 53.7556C90.3553 53.7457 90.146 53.7788 89.9491 53.8531C89.7529 53.9269 89.5743 54.0406 89.423 54.1868C89.2725 54.3324 89.1531 54.508 89.0725 54.7017L80.606 71.4847L69.3215 65.9674C68.956 65.7893 68.5349 65.7637 68.1506 65.8962C67.7663 66.0286 67.4502 66.3079 67.2721 66.6735C67.094 67.039 67.0684 67.4601 67.2009 67.8444C67.3333 68.2287 67.6126 68.5448 67.9782 68.7229L82.0181 75.5836Z" fill="#2970FF"/>
<path d="M91.6139 236.147L98.5865 199.669C98.7227 198.753 98.2897 198.171 99.2157 198.171H114.52C114.99 198.187 115.44 198.363 115.796 198.67C116.153 198.976 116.394 199.395 116.481 199.856L121.83 236.354H123.797L118.75 199.66C118.518 198.102 116.478 196.836 114.904 196.836H98.8344C98.0475 196.859 97.2928 197.152 96.6974 197.666C96.102 198.181 95.7022 198.885 95.566 199.66L88.3945 236.157L91.6139 236.147Z" fill="#475467"/>
<g opacity="0.5">
<g opacity="0.5">
<g opacity="0.5">
<path opacity="0.5" d="M96.68 197.672H100.221V198.165H99.2131C98.3197 198.165 98.6928 198.71 98.5975 199.573H95.5742C95.7186 198.833 96.1081 198.163 96.68 197.672Z" fill="black"/>
</g>
</g>
</g>
<path d="M91.6144 236.148H90.416L97.5384 199.267C97.6842 198.625 98.0385 198.049 98.5462 197.63C99.0536 197.211 99.6858 196.971 100.344 196.949H116.789C117.446 196.967 118.075 197.212 118.572 197.641C119.068 198.071 119.401 198.658 119.513 199.305L124.96 236.347H123.795L118.429 199.466C118.358 199.08 118.157 198.73 117.86 198.474C117.563 198.218 117.187 198.071 116.795 198.058H100.357C99.9557 198.075 99.5706 198.222 99.2606 198.478C98.9504 198.733 98.732 199.083 98.6388 199.474L91.6144 236.148Z" fill="#475467"/>
<g opacity="0.5">
<g opacity="0.5">
<path opacity="0.5" d="M91.6183 236.156H90.4199L97.5424 199.275C97.6881 198.633 98.0424 198.057 98.5501 197.638C99.0575 197.219 99.6897 196.979 100.348 196.957H116.793C117.449 196.975 118.079 197.219 118.575 197.649C119.072 198.078 119.405 198.666 119.517 199.313L124.964 236.355H123.799L118.433 199.474C118.362 199.088 118.161 198.738 117.864 198.482C117.567 198.226 117.191 198.079 116.799 198.066H100.361C99.9596 198.082 99.5745 198.23 99.2645 198.486C98.9543 198.741 98.7359 199.091 98.6427 199.482L91.6183 236.156Z" fill="black"/>
</g>
</g>
<path d="M93.6518 198.012C90.623 197.81 92.9766 191.015 92.5217 188.294L92.4316 187.749L93.521 187.566L93.6112 188.111C94.2839 192.148 92.2711 196.903 93.6466 196.903C94.2894 196.903 95.2233 196.873 96.5171 196.832C99.9108 196.723 105.59 196.541 115.814 196.541H116.359V197.649H115.814C105.606 197.649 99.938 197.829 96.5525 197.938C95.2506 197.982 94.3109 198.012 93.6518 198.012Z" fill="#475467"/>
<path d="M117.023 197.643H94.7133C92.9429 197.643 92.9704 196.156 93.4416 193.536C93.7976 191.742 93.8464 189.9 93.5857 188.089L94.6752 187.906C95.3316 191.858 93.3133 196.524 94.7106 196.524H117.021V197.635L117.023 197.643Z" fill="#344054"/>
<path d="M144.151 198.85C142.363 199.902 140.328 200.46 138.254 200.467H108.784C102.223 200.467 95.1873 199.991 94.1387 197.33C93.0901 194.669 139.183 195.63 139.183 195.63C139.183 195.63 142.816 196.281 143.198 196.567C143.579 196.853 144.151 198.85 144.151 198.85Z" fill="#344054"/>
<path d="M94.1446 187.435L90.2306 158.866C90.1571 158.37 87.7003 158.163 87.7957 157.722C88.1498 156.137 89.6614 153.637 93.6216 153.637H113.586C114.74 153.669 115.847 154.098 116.72 154.852C117.594 155.606 118.181 156.638 118.383 157.774C118.383 157.774 122.634 185.88 122.468 186.498C122.302 187.116 121.738 188.404 120.695 188.404C119.652 188.404 94.3107 188.592 94.3107 188.592L94.1446 187.435Z" fill="#475467"/>
<path d="M119.058 197.891H95.5394C95.0099 197.891 94.5022 197.681 94.1277 197.307C93.7535 196.932 93.543 196.425 93.543 195.895C93.543 195.365 93.7535 194.858 94.1277 194.483C94.5022 194.109 95.0099 193.898 95.5394 193.898H119.058C119.588 193.898 120.096 194.109 120.47 194.483C120.845 194.858 121.055 195.365 121.055 195.895C121.055 196.425 120.845 196.932 120.47 197.307C120.096 197.681 119.588 197.891 119.058 197.891Z" fill="#475467"/>
<path d="M145.675 200.908C145.275 200.904 144.888 200.755 144.588 200.49C144.288 200.224 144.094 199.859 144.041 199.461C144.006 199.304 143.54 197.555 139.683 197.555H119.329C118.9 197.561 118.485 197.404 118.166 197.116C117.848 196.828 117.65 196.43 117.613 196.002C117.598 195.775 117.629 195.547 117.705 195.332C117.781 195.117 117.901 194.92 118.057 194.754C118.212 194.587 118.4 194.455 118.609 194.364C118.819 194.273 119.044 194.226 119.272 194.227H139.7C145.833 194.227 147.326 197.906 147.356 199.192C147.368 199.625 147.211 200.045 146.918 200.364C146.625 200.683 146.219 200.875 145.787 200.9L145.675 200.908ZM144.011 199.241C144.01 199.314 144.016 199.387 144.028 199.459C144.028 199.429 144.028 199.399 144.028 199.369C144.028 199.339 144.011 199.282 144.011 199.241Z" fill="#475467"/>
<path opacity="0.1" d="M145.675 200.908C145.275 200.904 144.888 200.755 144.588 200.49C144.288 200.224 144.094 199.859 144.041 199.461C144.006 199.304 143.54 197.555 139.683 197.555H119.329C118.9 197.561 118.485 197.404 118.166 197.116C117.848 196.828 117.65 196.43 117.613 196.002C117.598 195.775 117.629 195.547 117.705 195.332C117.781 195.117 117.901 194.92 118.057 194.754C118.212 194.587 118.4 194.455 118.609 194.364C118.819 194.273 119.044 194.226 119.272 194.227H139.7C145.833 194.227 147.326 197.906 147.356 199.192C147.368 199.625 147.211 200.045 146.918 200.364C146.625 200.683 146.219 200.875 145.787 200.9L145.675 200.908ZM144.011 199.241C144.01 199.314 144.016 199.387 144.028 199.459C144.028 199.429 144.028 199.399 144.028 199.369C144.028 199.339 144.011 199.282 144.011 199.241Z" fill="white"/>
<path d="M142.42 197.649H120.284C120.111 197.645 119.94 197.607 119.782 197.536C119.624 197.465 119.481 197.363 119.363 197.236C119.245 197.109 119.154 196.959 119.095 196.796C119.036 196.633 119.011 196.46 119.021 196.287C119.048 193.895 119.909 192.643 119.13 187.971L118.816 187.737L120.11 187.555L120.2 188.099C120.974 192.743 119.059 196.543 120.279 196.543H142.42V197.649Z" fill="#475467"/>
<path d="M143.072 197.823H121.075C118.352 197.823 120.871 193.021 119.921 188.118L121.04 187.914C121.713 191.956 120.073 196.714 121.443 196.714H143.072V197.823Z" fill="#344054"/>
<path d="M148.103 236.147L142.764 198.193C142.698 197.807 142.5 197.455 142.205 197.197C141.91 196.939 141.535 196.791 141.144 196.777H124.698C124.306 196.789 123.93 196.935 123.633 197.191C123.335 197.446 123.135 197.796 123.064 198.182L117.739 236.136H116.549L121.969 198.027C122.078 197.378 122.41 196.788 122.907 196.358C123.404 195.927 124.035 195.683 124.693 195.668H141.144C141.801 195.683 142.432 195.927 142.929 196.358C143.426 196.788 143.758 197.378 143.867 198.027L149.287 236.147H148.103Z" fill="#475467"/>
<path d="M117.723 236.357L122.928 198.411C123.064 197.493 122.631 196.575 123.557 196.575L138.862 196.91C139.332 196.927 139.782 197.104 140.138 197.411C140.495 197.718 140.736 198.136 140.823 198.599L146.145 236.156H148.101L143.089 198.403C142.857 196.845 140.76 195.635 139.183 195.635L123.176 195.578C122.39 195.601 121.635 195.895 121.04 196.409C120.444 196.924 120.044 197.628 119.908 198.403L114.518 236.365L117.723 236.357Z" fill="#475467"/>
<g opacity="0.5">
<g opacity="0.5">
<path opacity="0.5" d="M148.106 236.147L142.768 198.193C142.701 197.807 142.503 197.455 142.208 197.197C141.913 196.939 141.539 196.791 141.147 196.777H124.701C124.309 196.789 123.933 196.935 123.636 197.191C123.339 197.446 123.138 197.796 123.067 198.182L117.713 236.346H116.52L121.967 198.027C122.076 197.378 122.408 196.788 122.905 196.358C123.402 195.927 124.033 195.683 124.691 195.668H141.133C141.791 195.683 142.422 195.927 142.919 196.358C143.416 196.788 143.748 197.378 143.857 198.027L149.291 236.147H148.106Z" fill="black"/>
</g>
</g>
<path d="M92.8626 187.433L88.9487 158.867C88.8751 158.371 87.1756 158.164 87.2736 157.723C87.6277 156.137 90.7191 154.727 92.5167 154.727H112.481C113.635 154.759 114.743 155.188 115.617 155.942C116.491 156.697 117.077 157.73 117.278 158.867L121.129 188.31L119.988 188.582H93.0369L92.8626 187.433Z" fill="#344054"/>
<path d="M92.5198 154.727H112.484C113.256 154.746 114.012 154.943 114.694 155.305C115.376 155.665 115.965 156.18 116.415 156.807C116.315 156.774 116.227 156.713 116.161 156.63C115.592 155.996 115.072 157.325 115.072 157.834C115.072 158.235 97.1092 159.942 89.1969 160.607L88.9409 158.867C88.8673 158.371 87.1677 158.164 87.2658 157.723C87.6281 156.137 90.7303 154.727 92.5198 154.727Z" fill="#344054"/>
<path d="M90.7049 188.58L86.791 160.009C86.6973 159.493 86.7202 158.963 86.858 158.457C86.9955 157.951 87.2447 157.483 87.5874 157.086C87.9297 156.689 88.3565 156.374 88.8364 156.163C89.3166 155.952 89.8377 155.852 90.3617 155.869H111.28C112.433 155.901 113.541 156.331 114.415 157.085C115.288 157.84 115.875 158.872 116.076 160.009L119.99 188.575C119.99 188.575 113.777 190.16 103.89 190.16C94.0033 190.16 90.7049 188.58 90.7049 188.58Z" fill="#475467"/>
<g opacity="0.5">
<g opacity="0.5">
<g opacity="0.5">
<path opacity="0.5" d="M120.048 197.82H94.4453L94.8375 198.232H119.947L120.048 197.82Z" fill="black"/>
</g>
</g>
</g>
</svg>
