<svg width="360" height="270" viewBox="0 0 360 270" fill="none" xmlns="http://www.w3.org/2000/svg">
<path d="M308.121 235.703H52.1474C52.0985 235.712 52.0483 235.708 52.0006 235.694C51.9527 235.683 51.9084 235.658 51.8706 235.627C51.8328 235.595 51.8024 235.555 51.7817 235.51C51.7608 235.465 51.75 235.415 51.75 235.366C51.75 235.316 51.7608 235.267 51.7817 235.222C51.8024 235.177 51.8328 235.136 51.8706 235.105C51.9084 235.073 51.9527 235.048 52.0006 235.037C52.0483 235.024 52.0985 235.019 52.1474 235.028H308.121C308.17 235.019 308.22 235.024 308.267 235.037C308.316 235.048 308.359 235.073 308.397 235.105C308.436 235.136 308.465 235.177 308.487 235.222C308.508 235.267 308.519 235.316 308.519 235.366C308.519 235.415 308.508 235.465 308.487 235.51C308.465 235.555 308.436 235.595 308.397 235.627C308.359 235.658 308.316 235.683 308.267 235.694C308.22 235.708 308.17 235.712 308.121 235.703Z" fill="#D0D5DD"/>
<path opacity="0.2" fill-rule="evenodd" clip-rule="evenodd" d="M165.127 71.3203L137.076 144.245L220.027 144.895L192.577 71.3203H165.127Z" fill="#2970FF"/>
<path d="M178.516 75.1453C180.815 75.1453 182.679 73.2816 182.679 70.9828C182.679 68.684 180.815 66.8203 178.516 66.8203C176.217 66.8203 174.354 68.684 174.354 70.9828C174.354 73.2816 176.217 75.1453 178.516 75.1453Z" fill="white"/>
<path fill-rule="evenodd" clip-rule="evenodd" d="M183.249 63.1128C181.377 62.3591 181.143 59.6523 181.143 59.6523H176.418C176.418 59.6523 176.193 62.3523 174.312 63.1128C173.399 63.4796 171.351 63.9183 169.407 64.7216C168.122 65.2528 167.022 66.1535 166.249 67.31C165.476 68.4663 165.062 69.8262 165.062 71.2173V71.2421H192.499V71.2173C192.499 69.8262 192.086 68.4663 191.313 67.31C190.539 66.1535 189.44 65.2528 188.154 64.7216C186.21 63.9183 184.163 63.4818 183.249 63.1128Z" fill="#667085"/>
<path d="M180.641 59.0039H176.924V59.6474H180.641V59.0039Z" fill="#475467"/>
<path d="M180.053 57.7109H177.513V59.0092H180.053V57.7109Z" fill="#475467"/>
<path d="M180.641 59.0039H176.924V59.6474H180.641V59.0039Z" fill="#475467"/>
<path d="M180.053 57.7109H177.513V59.0092H180.053V57.7109Z" fill="#475467"/>
<path fill-rule="evenodd" clip-rule="evenodd" d="M179.005 57.708H178.555V34.875L179.005 34.9087V57.708Z" fill="#475467"/>
<path opacity="0.2" fill-rule="evenodd" clip-rule="evenodd" d="M192.497 71.2173C192.497 69.8262 192.084 68.4663 191.31 67.31C190.537 66.1535 189.438 65.2528 188.152 64.7216C186.208 63.9183 184.161 63.4818 183.247 63.1128C181.375 62.3591 181.141 59.6523 181.141 59.6523H180.133L180.048 59.6681C180.048 59.6681 179.751 62.9958 182.676 64.3841C183.954 64.9893 186.453 66.1076 187.344 67.2056C188.159 68.2113 188.258 69.5343 188.258 71.2421H192.508L192.497 71.2173Z" fill="black"/>
<path d="M101.732 235.119H219.816L235.956 147.738C236.026 147.352 236.012 146.954 235.913 146.574C235.814 146.194 235.632 145.841 235.38 145.539C235.13 145.237 234.815 144.994 234.46 144.828C234.104 144.661 233.715 144.574 233.323 144.574H115.238L99.0991 231.969C99.0296 232.353 99.0456 232.749 99.1459 233.127C99.246 233.508 99.4281 233.859 99.6792 234.158C99.9303 234.459 100.244 234.7 100.599 234.867C100.953 235.033 101.34 235.119 101.732 235.119Z" fill="#2970FF"/>
<path opacity="0.2" d="M101.732 235.119H219.816L235.956 147.738C236.026 147.352 236.012 146.954 235.913 146.574C235.814 146.194 235.632 145.841 235.38 145.539C235.13 145.237 234.815 144.994 234.46 144.828C234.104 144.661 233.715 144.574 233.323 144.574H115.238L99.0991 231.969C99.0296 232.353 99.0456 232.749 99.1459 233.127C99.246 233.508 99.4281 233.859 99.6792 234.158C99.9303 234.459 100.244 234.7 100.599 234.867C100.953 235.033 101.34 235.119 101.732 235.119Z" fill="black"/>
<path d="M219.817 235.118H100.893C100.238 235.118 99.6051 234.879 99.1153 234.443C98.6255 234.009 98.3123 233.408 98.2358 232.758L88.419 150.313C88.3745 149.938 88.41 149.557 88.5232 149.196C88.6364 148.835 88.8247 148.503 89.0758 148.22C89.3269 147.937 89.6349 147.711 89.9796 147.556C90.3243 147.401 90.6981 147.321 91.0763 147.32H206.987C207.642 147.32 208.275 147.56 208.764 147.995C209.254 148.43 209.567 149.03 209.645 149.681L219.817 235.118Z" fill="#2970FF"/>
<path d="M115.15 145.08L117.007 136.345C117.138 135.727 117.478 135.171 117.969 134.773C118.461 134.374 119.074 134.157 119.707 134.156H137.729C138.342 134.156 138.937 134.36 139.422 134.735C139.906 135.11 140.253 135.635 140.407 136.228L142.681 145.026L115.15 145.08Z" fill="#2970FF"/>
<path opacity="0.2" d="M115.15 145.08L117.007 136.345C117.138 135.727 117.478 135.171 117.969 134.773C118.461 134.374 119.074 134.157 119.707 134.156H137.729C138.342 134.156 138.937 134.36 139.422 134.735C139.906 135.11 140.253 135.635 140.407 136.228L142.681 145.026L115.15 145.08Z" fill="black"/>
<g opacity="0.4">
<path opacity="0.4" d="M167.557 181.994L162.465 176.902L152.277 187.09L142.094 176.902L137.004 181.994L147.188 192.18L137.002 202.363L142.094 207.455L152.279 197.272L162.465 207.46L167.557 202.375L157.369 192.182L167.557 181.994Z" fill="#344054"/>
</g>
<path d="M253.019 231.154L240.959 231.455L245.772 228.006C246.172 227.725 246.501 227.354 246.735 226.926C246.969 226.496 247.101 226.019 247.122 225.531L247.284 221.758L253.858 221.78L253.019 231.154Z" fill="#FFC3BD"/>
<path opacity="0.15" d="M251.675 226.753V226.684C251.689 226.582 251.682 226.481 251.655 226.382C251.628 226.285 251.581 226.193 251.518 226.114C251.455 226.033 251.376 225.968 251.288 225.919C251.198 225.869 251.101 225.84 251 225.829L247.157 225.273L247.202 224.508H253.637L253.059 230.898L247.805 230.317L249.54 229.624C250.125 229.39 250.636 228.997 251.011 228.49C251.389 227.984 251.619 227.383 251.675 226.753Z" fill="black"/>
<path d="M274.754 230.919H269.339L268.319 221.73L274.754 221.753V230.919Z" fill="#FFC3BD"/>
<path opacity="0.15" d="M273.413 229.391L273.273 226.567C273.262 226.387 273.19 226.216 273.066 226.085C272.943 225.955 272.776 225.872 272.598 225.849L268.688 225.246L268.596 224.461L274.707 224.483L274.729 230.988L273.413 229.391Z" fill="black"/>
<path d="M275.124 149.371V224.487H268.063L261.93 163.236C261.912 163.041 261.82 162.861 261.673 162.732C261.527 162.603 261.338 162.535 261.142 162.543C260.951 162.544 260.769 162.616 260.627 162.744C260.488 162.871 260.398 163.046 260.377 163.236L253.852 224.487H246.801L249.231 149.787L275.124 149.371Z" fill="#2970FF"/>
<path d="M274.36 227.695L274.198 227.533C273.57 226.921 272.726 226.583 271.851 226.59C270.976 226.599 270.139 226.954 269.522 227.578L269.43 227.695C269.12 228.01 268.944 228.433 268.944 228.876V229.569C268.953 229.978 268.89 230.386 268.76 230.773L268.179 232.694C268.037 233.16 267.961 233.644 267.954 234.13V234.355C267.961 234.539 268.04 234.712 268.172 234.841C268.307 234.967 268.485 235.034 268.67 235.03H275.336C275.429 235.036 275.521 235.023 275.609 234.991C275.694 234.96 275.775 234.91 275.843 234.847C275.91 234.784 275.962 234.708 276 234.622C276.036 234.539 276.054 234.447 276.054 234.355V234.262C276.052 233.695 275.96 233.133 275.777 232.595L275.102 230.721C274.958 230.284 274.882 229.83 274.877 229.371L274.853 228.838C274.841 228.408 274.666 227.998 274.36 227.695Z" fill="#344054"/>
<path d="M275.31 224.485H267.786L267.648 222.957H275.287L275.31 224.485Z" fill="#2970FF"/>
<path opacity="0.2" d="M275.31 224.485H272.16L272.09 222.957H275.285L275.31 224.485Z" fill="black"/>
<path d="M276.099 234.3V234.392C276.094 234.577 276.013 234.752 275.881 234.878C275.746 235.004 275.566 235.072 275.381 235.067H268.714C268.622 235.074 268.53 235.061 268.444 235.029C268.357 234.998 268.278 234.948 268.21 234.885C268.143 234.822 268.089 234.746 268.053 234.66C268.015 234.577 267.997 234.485 267.997 234.392V234.167C267.994 234.075 268.001 233.981 268.019 233.891H276.119C276.101 234.026 276.094 234.163 276.099 234.3Z" fill="black"/>
<path d="M253.851 229.021V233.721C253.854 233.901 253.82 234.079 253.752 234.245C253.685 234.412 253.584 234.565 253.455 234.691C253.329 234.819 253.179 234.918 253.012 234.988C252.846 235.055 252.666 235.089 252.486 235.087H236.49C236.414 235.087 236.34 235.073 236.268 235.044C236.198 235.015 236.133 234.972 236.081 234.92C236.027 234.866 235.984 234.801 235.955 234.731C235.926 234.659 235.912 234.585 235.912 234.508C235.912 233.962 236.085 233.428 236.405 232.983C236.724 232.54 237.177 232.207 237.694 232.033L241.294 230.852L245.877 227.311C246.109 227.133 246.393 227.038 246.685 227.047C246.975 227.056 247.257 227.167 247.475 227.358L249.5 229.093C249.651 229.214 249.828 229.297 250.017 229.336C250.206 229.376 250.402 229.369 250.589 229.318L253.158 228.508C253.239 228.476 253.325 228.465 253.41 228.476C253.496 228.487 253.579 228.521 253.647 228.573C253.716 228.622 253.773 228.692 253.809 228.771C253.842 228.847 253.858 228.935 253.851 229.021Z" fill="#344054"/>
<path d="M252.486 235.085H236.49C236.414 235.085 236.34 235.071 236.268 235.042C236.198 235.013 236.135 234.97 236.081 234.918C236.027 234.864 235.984 234.799 235.955 234.729C235.926 234.657 235.912 234.583 235.912 234.506C235.912 234.311 235.935 234.115 235.982 233.926H253.829C253.788 234.25 253.626 234.549 253.379 234.763C253.131 234.977 252.814 235.091 252.486 235.085Z" fill="black"/>
<path d="M245.982 229.181C246 229.181 246.018 229.177 246.034 229.17C246.05 229.161 246.063 229.15 246.074 229.136C246.097 229.107 246.11 229.069 246.11 229.031C246.11 228.995 246.097 228.956 246.074 228.927L245.102 227.885C245.071 227.863 245.035 227.852 244.999 227.852C244.961 227.852 244.925 227.863 244.895 227.885C244.873 227.915 244.859 227.953 244.859 227.989C244.859 228.027 244.873 228.065 244.895 228.095L245.867 229.136C245.899 229.163 245.939 229.181 245.982 229.181Z" fill="white"/>
<path d="M245.229 229.785C245.247 229.785 245.265 229.781 245.28 229.772C245.296 229.765 245.31 229.751 245.321 229.738C245.343 229.709 245.355 229.673 245.355 229.634C245.355 229.596 245.343 229.56 245.321 229.531L244.349 228.489C244.32 228.467 244.281 228.453 244.245 228.453C244.207 228.453 244.169 228.467 244.14 228.489C244.117 228.518 244.104 228.554 244.104 228.593C244.104 228.631 244.117 228.667 244.14 228.696L245.112 229.738C245.143 229.767 245.186 229.785 245.229 229.785Z" fill="white"/>
<path d="M244.455 230.362C244.473 230.362 244.491 230.358 244.506 230.351C244.522 230.342 244.536 230.331 244.547 230.315C244.569 230.286 244.583 230.25 244.583 230.211C244.583 230.173 244.569 230.137 244.547 230.108L243.575 229.066C243.548 229.039 243.51 229.023 243.471 229.023C243.433 229.023 243.395 229.039 243.368 229.066C243.341 229.093 243.325 229.131 243.325 229.17C243.325 229.208 243.341 229.246 243.368 229.273L244.34 230.315C244.362 230.362 244.385 230.362 244.455 230.362Z" fill="white"/>
<path d="M270.634 229.268C270.648 229.271 270.659 229.268 270.673 229.264C270.684 229.262 270.695 229.255 270.704 229.246C271.087 229.066 271.507 228.972 271.93 228.972C272.353 228.972 272.774 229.066 273.157 229.246C273.177 229.257 273.197 229.264 273.22 229.266C273.242 229.268 273.265 229.266 273.287 229.259C273.307 229.253 273.328 229.241 273.346 229.228C273.364 229.214 273.377 229.196 273.388 229.176C273.4 229.156 273.406 229.136 273.409 229.113C273.411 229.091 273.409 229.068 273.402 229.046C273.395 229.025 273.384 229.005 273.37 228.987C273.357 228.969 273.339 228.956 273.319 228.945C272.887 228.733 272.412 228.625 271.93 228.625C271.449 228.625 270.974 228.733 270.542 228.945C270.506 228.967 270.479 229.003 270.466 229.043C270.452 229.086 270.454 229.129 270.472 229.17C270.488 229.199 270.513 229.223 270.54 229.241C270.569 229.257 270.601 229.268 270.634 229.268Z" fill="white"/>
<path d="M270.634 230.131C270.646 230.133 270.659 230.131 270.67 230.127C270.684 230.124 270.695 230.118 270.704 230.109C271.087 229.929 271.505 229.834 271.93 229.834C272.353 229.834 272.772 229.929 273.157 230.109C273.175 230.12 273.197 230.124 273.22 230.127C273.24 230.129 273.262 230.127 273.283 230.12C273.305 230.113 273.323 230.104 273.341 230.088C273.357 230.075 273.37 230.059 273.382 230.039C273.393 230.019 273.397 229.998 273.4 229.976C273.402 229.956 273.4 229.933 273.395 229.911C273.388 229.89 273.377 229.87 273.364 229.854C273.348 229.839 273.332 229.823 273.312 229.814C272.88 229.602 272.405 229.492 271.924 229.492C271.442 229.492 270.967 229.602 270.535 229.814C270.499 229.836 270.47 229.872 270.459 229.913C270.445 229.956 270.448 229.998 270.466 230.039C270.484 230.068 270.508 230.091 270.538 230.109C270.567 230.124 270.601 230.131 270.634 230.131Z" fill="white"/>
<path d="M270.634 230.966C270.648 230.968 270.659 230.966 270.673 230.962C270.684 230.957 270.695 230.95 270.704 230.941C271.087 230.761 271.507 230.667 271.93 230.667C272.353 230.667 272.774 230.761 273.157 230.941C273.177 230.953 273.197 230.959 273.22 230.962C273.242 230.964 273.265 230.962 273.287 230.955C273.307 230.948 273.328 230.937 273.346 230.923C273.364 230.91 273.377 230.892 273.388 230.872C273.4 230.851 273.406 230.831 273.409 230.809C273.411 230.786 273.409 230.764 273.402 230.741C273.395 230.719 273.384 230.701 273.37 230.683C273.357 230.665 273.339 230.651 273.319 230.64C272.887 230.428 272.412 230.32 271.93 230.32C271.449 230.32 270.974 230.428 270.542 230.64C270.506 230.662 270.479 230.698 270.466 230.739C270.452 230.782 270.454 230.824 270.472 230.865C270.488 230.894 270.511 230.919 270.54 230.937C270.569 230.955 270.601 230.964 270.634 230.966Z" fill="white"/>
<path opacity="0.2" d="M249.754 223.645L256.605 165.798C256.715 164.903 257.147 164.078 257.82 163.478C258.493 162.878 259.361 162.543 260.264 162.535H261.143C260.954 162.537 260.77 162.609 260.63 162.737C260.489 162.864 260.399 163.039 260.378 163.228L253.898 224.133L249.754 223.645Z" fill="black"/>
<path d="M254.036 224.485H246.56L246.652 222.957H254.198L254.036 224.485Z" fill="#2970FF"/>
<path opacity="0.2" d="M254.037 224.485H249.641L249.848 222.957H254.199L254.037 224.485Z" fill="black"/>
<path opacity="0.2" d="M275.124 149.922V222.907L272.091 222.932L269.301 149.922H275.124Z" fill="black"/>
<path d="M248.643 133.787L249.246 149.921H275.121L275.629 139.504L273.962 125.592L256.232 120.66L247.702 138.593" fill="#101828"/>
<path d="M245.84 139.853L244.915 140.132C241.72 140.942 238.84 137.909 239.798 134.761L245.239 115.987C245.498 115.125 245.995 114.353 246.677 113.763C247.356 113.173 248.191 112.789 249.082 112.655L258.941 111.035L268.225 111.08C268.225 111.08 268.803 111.035 277.391 113.65C278.557 114.003 279.563 114.75 280.238 115.764C280.913 116.777 281.216 117.993 281.095 119.205L279.425 136.15C279.367 136.71 279.196 137.253 278.924 137.747C278.651 138.24 278.285 138.675 277.841 139.024C277.4 139.373 276.892 139.631 276.35 139.782C275.807 139.932 275.238 139.972 274.68 139.9L267.901 139.045V132.77H269.73L270.077 123.464L269.915 128.002L246.74 132.401L245.84 139.853Z" fill="#101828"/>
<path d="M246.353 132.298L249.766 131.643L251.012 127.265L242.658 124.902L239.801 134.773C238.851 137.923 241.722 140.954 244.917 140.144L245.745 139.894L246.353 132.298Z" fill="#FFC3BD"/>
<path opacity="0.3" d="M271.553 131.979L272.133 122.282C272.136 122.248 272.127 122.214 272.104 122.188C272.082 122.161 272.052 122.145 272.016 122.141C271.983 122.138 271.949 122.148 271.924 122.17C271.897 122.192 271.879 122.223 271.877 122.257L269.701 132.814L271.474 133.251" fill="black"/>
<path d="M271.861 127.262L271.492 133.211L268.043 132.817L267.764 128.209L268.828 128.002L269.339 127.631C269.663 127.376 270.587 127.376 270.866 127.329L271.861 127.262Z" fill="#FFC3BD"/>
<path opacity="0.3" d="M249.706 131.844L252.669 121.426C252.681 121.385 252.708 121.349 252.744 121.326C252.78 121.302 252.822 121.293 252.865 121.298C252.906 121.304 252.946 121.325 252.973 121.357C253.002 121.389 253.018 121.431 253.018 121.473L252.901 131.196L249.706 131.844Z" fill="black"/>
<path d="M259.476 104.736C259.478 105.227 259.532 105.717 259.638 106.197L259.104 111.034C259.086 111.185 259.104 111.339 259.161 111.481C259.219 111.623 259.309 111.748 259.428 111.844L262.902 114.83C262.963 114.884 263.04 114.919 263.121 114.927C263.202 114.936 263.283 114.918 263.352 114.877L267.821 111.844C267.947 111.765 268.05 111.656 268.122 111.527C268.197 111.398 268.235 111.252 268.237 111.104L267.681 102.954L267.567 101.334C267.288 95.1086 259.163 100.209 259.163 100.209C259.163 100.209 259.383 102.354 259.476 104.736Z" fill="#FFC3BD"/>
<path d="M258.459 100.547C259.004 100.547 259.537 100.386 259.989 100.083C260.441 99.7803 260.795 99.3503 261.004 98.847C261.211 98.3437 261.267 97.7899 261.159 97.2558C261.053 96.7216 260.792 96.2309 260.405 95.8457C260.021 95.4605 259.53 95.1982 258.997 95.092C258.461 94.9858 257.908 95.0402 257.404 95.2488C256.902 95.4571 256.472 95.8102 256.169 96.2631C255.867 96.716 255.705 97.2484 255.705 97.7931C255.703 98.1549 255.775 98.5135 255.912 98.8481C256.052 99.1825 256.254 99.4864 256.508 99.7425C256.765 99.9983 257.069 100.201 257.404 100.339C257.739 100.477 258.097 100.548 258.459 100.547Z" fill="#101828"/>
<path d="M267.298 95.6211L267.523 101.037C267.523 101.037 266.923 109.393 261.552 108.676C255.371 107.866 258.242 95.7831 258.242 95.7831L267.298 95.6211Z" fill="#FFC3BD"/>
<path d="M257.765 92.0506C258.103 91.8357 258.49 91.7084 258.89 91.6802C259.289 91.6519 259.691 91.7234 260.056 91.8886C260.238 91.9709 260.445 91.9835 260.639 91.9239C260.83 91.8643 260.994 91.7365 261.098 91.5646C261.359 91.1546 261.716 90.8164 262.142 90.5806C262.565 90.3448 263.041 90.2189 263.527 90.2146C265.264 90.1448 266.03 91.0943 266.354 91.6253C266.414 91.7353 266.5 91.8287 266.603 91.8974C266.709 91.966 266.828 92.0078 266.954 92.0191C267.764 92.1361 269.409 92.7368 269.987 94.4041C271.007 97.3291 268.898 100.538 268.898 100.538L267.602 99.7276L267.377 100.099L267.152 101.224C267.152 101.339 266.99 101.431 266.875 101.431C266.81 101.422 266.75 101.388 266.709 101.337C266.666 101.285 266.646 101.22 266.65 101.154L266.72 99.9503C266.727 99.9042 266.723 99.8572 266.709 99.8126C266.696 99.7679 266.673 99.7267 266.642 99.6916C266.612 99.6565 266.574 99.6283 266.531 99.6088C266.489 99.5894 266.443 99.5793 266.396 99.5791C266.232 99.5663 266.075 99.5208 265.928 99.4454C265.782 99.3703 265.654 99.2668 265.55 99.141C265.444 99.0152 265.366 98.8697 265.319 98.7131C265.271 98.5565 265.253 98.392 265.271 98.2291C265.289 98.066 265.276 97.9006 265.229 97.7433C265.181 97.5858 265.103 97.4398 264.997 97.3136C264.891 97.1873 264.763 97.0838 264.617 97.0091C264.47 96.9344 264.31 96.8901 264.146 96.8791L258.62 96.5191C256.724 96.2176 256.006 93.1441 257.765 92.0506Z" fill="#101828"/>
<path opacity="0.15" d="M267.786 104.459L266.908 103.109C267.151 103.26 267.432 103.333 267.718 103.319L267.786 104.459Z" fill="black"/>
<path d="M267.022 101.801C266.812 102.725 266.583 103.421 267.784 103.328C270.077 103.166 270.331 100.086 268.988 99.4853C268.849 99.4045 268.693 99.3561 268.531 99.3433C268.372 99.3305 268.21 99.3536 268.059 99.4112C267.908 99.4686 267.771 99.5591 267.661 99.6758C267.548 99.7926 267.465 99.9326 267.413 100.086L267.022 101.801Z" fill="#FFC3BD"/>
<path opacity="0.15" d="M247.439 126.302L246.917 126.252C246.814 126.243 246.71 126.262 246.618 126.306C246.526 126.35 246.445 126.419 246.388 126.504C246.314 126.615 246.283 126.748 246.294 126.88C246.307 127.012 246.366 127.135 246.46 127.229C246.535 127.304 246.577 127.405 246.577 127.51C246.577 127.593 246.55 127.674 246.503 127.741C246.454 127.809 246.386 127.859 246.307 127.886L246.195 127.924C246.105 127.954 246.022 128.005 245.954 128.072C245.887 128.14 245.835 128.223 245.806 128.313V128.334C245.77 128.442 245.763 128.559 245.79 128.671C245.815 128.783 245.873 128.885 245.954 128.966C246.069 129.081 246.226 129.146 246.388 129.146H246.71C246.721 129.146 246.73 129.149 246.739 129.154C246.748 129.159 246.755 129.166 246.762 129.175C246.766 129.184 246.771 129.194 246.771 129.204C246.771 129.214 246.769 129.224 246.764 129.234C246.712 129.339 246.694 129.458 246.712 129.575C246.733 129.691 246.787 129.798 246.87 129.882C246.922 129.934 246.982 129.975 247.052 130.003C247.12 130.032 247.192 130.046 247.266 130.046H248.391L248.224 130.212C248.186 130.251 248.152 130.296 248.13 130.345L248.105 130.395C248.058 130.49 248.04 130.598 248.058 130.703C248.074 130.808 248.123 130.905 248.2 130.98C248.258 131.037 248.33 131.08 248.407 131.104C248.485 131.128 248.569 131.132 248.65 131.117L250.627 130.721L250.542 127.121L247.439 126.302Z" fill="black"/>
<path opacity="0.15" d="M269.128 100.55C269.083 100.62 269.013 100.62 268.921 100.597C268.86 100.542 268.788 100.503 268.709 100.483C268.633 100.462 268.549 100.461 268.471 100.48C268.356 100.48 268.264 100.597 268.147 100.759C268.018 100.968 267.946 101.207 267.94 101.452L267.892 101.731C267.892 101.801 267.823 101.846 267.73 101.846C267.638 101.846 267.613 101.776 267.613 101.684L267.661 101.407C267.672 101.108 267.748 100.816 267.886 100.55C267.944 100.452 268.021 100.367 268.113 100.299C268.205 100.232 268.309 100.183 268.419 100.156C268.648 100.126 268.88 100.184 269.067 100.318C269.128 100.347 269.15 100.41 269.128 100.55Z" fill="black"/>
<path opacity="0.15" d="M262.58 108.973C263.687 108.822 264.704 108.28 265.448 107.445C265.469 107.423 265.478 107.395 265.478 107.365C265.475 107.336 265.464 107.308 265.444 107.287C265.424 107.267 265.394 107.255 265.365 107.254C265.336 107.253 265.309 107.263 265.286 107.283C264.704 107.929 263.948 108.397 263.111 108.633C261.446 109.002 259.961 108.239 259.43 107.706L259.223 109.65C259.799 109.763 260.393 109.762 260.969 109.645C261.545 109.529 262.091 109.301 262.58 108.973Z" fill="black"/>
<path d="M243.067 123.5L251.406 125.991L250.96 127.336L242.662 124.897L243.067 123.5Z" fill="#2970FF"/>
<path d="M256.421 130.106L255.194 133.834L254.36 133.416C251.072 133.463 250.586 130.776 250.586 130.776L248.62 130.963C248.541 130.963 248.465 130.935 248.406 130.884C248.345 130.833 248.307 130.762 248.296 130.684C248.285 130.603 248.3 130.52 248.343 130.449C248.384 130.378 248.444 130.322 248.521 130.29L250.096 129.804L247.526 129.737C247.416 129.741 247.306 129.703 247.223 129.63C247.139 129.556 247.085 129.454 247.076 129.343C247.072 129.287 247.079 129.231 247.094 129.178C247.112 129.125 247.139 129.076 247.178 129.034C247.214 128.992 247.259 128.958 247.308 128.934C247.36 128.909 247.414 128.895 247.47 128.893L246.521 128.963H246.498C246.419 128.963 246.341 128.943 246.271 128.903C246.201 128.864 246.145 128.807 246.104 128.738C246.066 128.673 246.046 128.599 246.044 128.524C246.039 128.45 246.055 128.375 246.086 128.307C246.118 128.239 246.165 128.18 246.226 128.134C246.284 128.089 246.354 128.058 246.428 128.045L250.386 127.512L247.099 127.327C246.984 127.313 246.881 127.258 246.804 127.173C246.728 127.088 246.685 126.978 246.683 126.864V126.816C246.687 126.757 246.703 126.699 246.73 126.646C246.757 126.593 246.793 126.545 246.838 126.507C246.883 126.468 246.937 126.438 246.993 126.42C247.049 126.402 247.11 126.395 247.169 126.4H250.456C250.953 126.402 251.435 126.573 251.822 126.886L255.503 129.897L256.421 130.106Z" fill="#FFC3BD"/>
<path d="M279.964 131.011L279.131 139.646C279.075 140.238 278.877 140.808 278.557 141.309C278.238 141.81 277.804 142.228 277.291 142.528C276.778 142.829 276.199 143.003 275.605 143.037C275.014 143.071 274.42 142.964 273.875 142.724L254.408 134.228L255.889 129.953L271.515 133.24L271.816 128.473L279.964 131.011Z" fill="#FFC3BD"/>
<path opacity="0.2" d="M267.743 127.945L267.79 128.2L249.952 131.617V131.246L267.743 127.945Z" fill="black"/>
<path opacity="0.3" d="M258.133 135.918L258.527 136.174L248.827 139.057L248.852 138.802L258.133 135.918Z" fill="black"/>
<path opacity="0.15" d="M250.262 128.674L247.438 128.976V128.751L250.24 128.449L250.262 128.674Z" fill="black"/>
<path d="M268.227 111.033V111.078C268.22 111.226 268.18 111.37 268.108 111.499C268.036 111.628 267.934 111.738 267.811 111.82L263.342 114.851C263.279 114.889 263.207 114.905 263.135 114.898C263.092 114.9 263.052 114.893 263.014 114.877C262.973 114.861 262.939 114.837 262.91 114.806L259.429 111.818C259.315 111.718 259.227 111.593 259.168 111.451C259.112 111.31 259.092 111.157 259.105 111.006V110.961L258.181 111.123C258.181 111.388 258.237 111.65 258.349 111.89C258.462 112.13 258.626 112.342 258.829 112.511L262.278 115.474C262.474 115.651 262.719 115.762 262.98 115.791C263.243 115.82 263.506 115.766 263.736 115.636L263.783 115.614L263.828 115.589L268.297 112.558C268.517 112.409 268.704 112.213 268.843 111.985C268.983 111.758 269.073 111.503 269.107 111.238L268.227 111.033Z" fill="#2970FF"/>
<path d="M268.065 132.814L268.515 132.605L244.777 140.167L246.352 132.292L267.786 128.184L268.065 132.814Z" fill="#FFC3BD"/>
<path d="M271.778 127.344L280.213 128.185L279.237 138.472L271.492 133.21L271.778 127.344Z" fill="#FFC3BD"/>
<path opacity="0.15" d="M271.48 133.252L273.087 133.648H273.134C273.274 133.648 273.388 133.463 273.204 133.301L271.559 131.98" fill="black"/>
<path d="M271.861 127.262L280.233 128.036L280.073 129.442L271.791 128.704L271.861 127.262Z" fill="#2970FF"/>
<path opacity="0.3" d="M280.101 129.442L281.105 119.227C281.202 118.35 281.076 117.463 280.736 116.649C280.396 115.835 279.854 115.121 279.161 114.574C279.568 115.44 279.735 116.399 279.647 117.351L278.481 129.368L280.101 129.442Z" fill="black"/>
<path opacity="0.15" d="M278.483 129.371L277.162 139.633C277.086 140.395 276.778 141.114 276.283 141.697C275.785 142.28 275.124 142.698 274.386 142.896C274.912 143.038 275.466 143.063 276.004 142.971C276.541 142.878 277.054 142.669 277.504 142.359C277.954 142.048 278.33 141.644 278.607 141.173C278.886 140.703 279.057 140.177 279.111 139.633L279.946 131.02L280.098 129.445L278.483 129.371Z" fill="black"/>
<path opacity="0.3" d="M275.449 143.026C275.091 143.024 274.734 142.977 274.385 142.886L271.327 141.59L258.131 135.918L267.581 142.193C268.006 142.447 268.359 142.802 268.614 143.226C268.868 143.649 269.014 144.13 269.039 144.623L269.293 149.899H275.127L275.449 143.026Z" fill="black"/>
<path opacity="0.15" d="M249.954 130.984C249.954 130.984 247.929 131.394 246.354 132.294L249.767 131.639L249.954 130.984Z" fill="black"/>
<path opacity="0.15" d="M271.778 127.344L271.004 130.37C270.893 130.8 270.628 131.173 270.261 131.419C269.892 131.666 269.444 131.767 269.006 131.704L268.403 131.619L249.503 137.244C239.996 140.117 239.636 135.907 239.625 135.761C239.765 140.679 244.89 140.281 244.89 140.281L268.515 132.607L271.503 133.21L271.553 132.294L271.778 127.344Z" fill="black"/>
<path d="M252.652 89.0961C252.652 84.6231 248.269 80.9961 242.865 80.9961C237.46 80.9961 233.077 84.6231 233.077 89.0961C233.077 93.5691 237.46 97.1961 242.865 97.1961C243.906 97.1974 244.944 97.0582 245.949 96.7821L250.177 98.5461L248.762 95.5603C251.124 94.0798 252.652 91.7353 252.652 89.0961Z" fill="white" stroke="#98A2B3" stroke-width="0.45" stroke-miterlimit="10"/>
<path d="M243.527 91.4674L244.631 90.8917C244.726 90.8474 244.801 90.7693 244.841 90.6729C244.882 90.576 244.884 90.4677 244.849 90.3693L241.98 83.7345C241.956 83.6909 241.925 83.6524 241.886 83.6211C241.848 83.5901 241.803 83.5673 241.756 83.5536C241.708 83.54 241.658 83.5364 241.609 83.5424C241.56 83.5484 241.513 83.5642 241.47 83.5893L239.377 84.6731C239.289 84.7131 239.22 84.7863 239.186 84.8767C239.151 84.9669 239.154 85.0674 239.193 85.1559L242.992 91.3611C243.053 91.4405 243.141 91.495 243.24 91.5147C243.338 91.5341 243.441 91.5173 243.527 91.4674Z" fill="#2970FF"/>
<path d="M245.687 94.286C245.911 94.1711 246.094 93.992 246.216 93.7723C246.337 93.5526 246.391 93.3016 246.369 93.0513C246.348 92.8012 246.253 92.5628 246.096 92.3668C245.94 92.1703 245.728 92.025 245.489 91.949C245.25 91.873 244.994 91.8695 244.752 91.9394C244.511 92.0089 244.296 92.1487 244.134 92.3409C243.972 92.5327 243.871 92.7685 243.843 93.0179C243.815 93.2676 243.862 93.5197 243.978 93.7425C244.054 93.8913 244.158 94.0234 244.286 94.1313C244.413 94.2393 244.56 94.3205 244.719 94.3714C244.878 94.4219 245.046 94.4403 245.212 94.4256C245.378 94.411 245.54 94.3639 245.687 94.286Z" fill="#2970FF"/>
<path d="M271.118 90.6397C271.077 90.6399 271.037 90.6291 271.003 90.6084C270.967 90.5875 270.938 90.5578 270.92 90.522C270.9 90.4863 270.891 90.4458 270.893 90.405C270.893 90.3645 270.906 90.3249 270.929 90.291L275.19 83.7975C275.224 83.7473 275.274 83.7124 275.332 83.7C275.393 83.6879 275.454 83.6994 275.503 83.7322C275.553 83.7651 275.589 83.8164 275.6 83.8751C275.613 83.9338 275.602 83.9948 275.568 84.045L271.305 90.5385C271.284 90.5695 271.257 90.5949 271.224 90.6125C271.192 90.6303 271.154 90.6395 271.118 90.6397Z" fill="#667085"/>
<path d="M281.679 98.3212H281.648L273.386 97.1602C273.357 97.1559 273.327 97.146 273.303 97.131C273.276 97.1159 273.253 97.0959 273.235 97.072C273.217 97.0482 273.206 97.0212 273.197 96.9921C273.19 96.9633 273.188 96.9332 273.192 96.9037C273.197 96.8742 273.206 96.8457 273.222 96.82C273.237 96.7944 273.258 96.7719 273.28 96.7539C273.305 96.7359 273.332 96.7228 273.361 96.7152C273.388 96.7077 273.42 96.7059 273.449 96.7102L281.711 97.8712C281.769 97.8753 281.826 97.9032 281.866 97.9482C281.904 97.9934 281.925 98.0523 281.92 98.112C281.916 98.1716 281.889 98.2272 281.844 98.2663C281.799 98.3057 281.738 98.3253 281.679 98.3212Z" fill="#667085"/>
<path d="M274.029 93.0405C273.98 93.0429 273.93 93.029 273.89 93.0009C273.849 92.9727 273.82 92.9322 273.804 92.8852C273.786 92.8287 273.791 92.7673 273.816 92.7142C273.843 92.6611 273.89 92.6206 273.946 92.6017L283.846 89.3325C283.875 89.3219 283.905 89.3174 283.934 89.3187C283.965 89.3203 283.995 89.328 284.022 89.341C284.049 89.3543 284.073 89.3727 284.094 89.3957C284.114 89.4184 284.127 89.445 284.139 89.4738C284.148 89.5026 284.15 89.5329 284.148 89.5631C284.145 89.5932 284.136 89.6225 284.123 89.6493C284.107 89.6758 284.089 89.6994 284.064 89.7186C284.042 89.7375 284.015 89.7516 283.986 89.76L274.086 93.0292C274.068 93.0351 274.047 93.0389 274.029 93.0405Z" fill="#667085"/>
</svg>
