<svg width="360" height="270" viewBox="0 0 360 270" fill="none" xmlns="http://www.w3.org/2000/svg">
<path d="M347.964 229.987H11.2163C11.1082 229.987 11 229.906 11 229.771C11 229.636 11.1082 229.555 11.2163 229.555H347.988C348.096 229.555 348.204 229.636 348.204 229.771C348.204 229.906 348.099 229.987 347.964 229.987Z" fill="#ABAFB4"/>
<path d="M129.615 73.2503C131.122 73.6503 132.32 74.1852 133.422 74.7356C134.518 75.29 135.505 75.8748 136.448 76.469C138.321 77.667 140.008 78.9168 141.642 80.1356C143.273 81.3457 144.839 82.5713 146.328 83.6282C147.064 84.151 147.795 84.6325 148.385 84.9657L148.949 85.2578C148.929 85.2517 148.939 85.2598 148.891 85.2592C148.799 85.241 148.705 85.2302 148.611 85.2275C148.528 85.2234 148.475 85.2194 148.406 85.2241C148.18 85.2302 148.079 85.2767 148.091 85.2747C148.082 85.2983 148.33 85.2254 148.594 85.106C148.868 84.986 149.194 84.8174 149.532 84.6224C150.213 84.2272 150.943 83.7375 151.672 83.2053C153.135 82.1382 154.608 80.9208 156.056 79.6554C157.521 78.4042 158.969 77.0963 160.411 75.7716L162.579 73.7805L163.657 72.7775L164.19 72.2737C164.348 72.0915 164.584 71.9715 165.193 72.2156L165.724 72.4295C167.467 73.1309 168.778 74.4766 169.485 76.0677C169.757 76.6849 169.656 76.9345 169.475 77.122L168.988 77.7236L168.009 78.9155C167.356 79.7094 166.679 80.481 166.004 81.2567C164.636 82.7939 163.225 84.2993 161.753 85.7806C160.264 87.2449 158.727 88.6843 157.029 90.0859C156.177 90.7867 155.284 91.4774 154.27 92.1539C153.758 92.4918 153.216 92.8271 152.592 93.1542C151.96 93.478 151.28 93.8058 150.298 94.0715C149.825 94.201 149.224 94.3157 148.497 94.3339C148.303 94.3353 148.124 94.3359 147.916 94.3218C147.698 94.3036 147.479 94.2779 147.262 94.2435C146.97 94.1889 146.737 94.1343 146.473 94.0702C145.547 93.8159 144.881 93.5225 144.254 93.2358C143.056 92.6605 142.082 92.0791 141.143 91.501C139.287 90.3449 137.618 89.1976 135.98 88.0846C134.348 86.9764 132.749 85.9235 131.204 85.0217C130.437 84.5685 129.681 84.1577 128.977 83.8292C128.279 83.5014 127.614 83.2626 127.176 83.1669C124.42 82.5652 122.674 79.8429 123.276 77.0869C123.877 74.3309 126.6 72.5846 129.356 73.1863C129.424 73.2011 129.491 73.2173 129.557 73.2348L129.615 73.2503Z" fill="#101828"/>
<path d="M129.615 73.2503C131.122 73.6503 132.32 74.1852 133.422 74.7356C134.518 75.29 135.505 75.8748 136.448 76.469C138.321 77.667 140.008 78.9168 141.642 80.1356C143.273 81.3457 144.839 82.5713 146.328 83.6282C147.064 84.151 147.795 84.6325 148.385 84.9657L148.949 85.2578C148.929 85.2517 148.939 85.2598 148.891 85.2592C148.799 85.241 148.705 85.2302 148.611 85.2275C148.528 85.2234 148.475 85.2194 148.406 85.2241C148.18 85.2302 148.079 85.2767 148.091 85.2747C148.082 85.2983 148.33 85.2254 148.594 85.106C148.868 84.986 149.194 84.8174 149.532 84.6224C150.213 84.2272 150.943 83.7375 151.672 83.2053C153.135 82.1382 154.608 80.9208 156.056 79.6554C157.521 78.4042 158.969 77.0963 160.411 75.7716L162.579 73.7805L163.657 72.7775L164.19 72.2737C164.348 72.0915 164.584 71.9715 165.193 72.2156L165.724 72.4295C167.467 73.1309 168.778 74.4766 169.485 76.0677C169.757 76.6849 169.656 76.9345 169.475 77.122L168.988 77.7236L168.009 78.9155C167.356 79.7094 166.679 80.481 166.004 81.2567C164.636 82.7939 163.225 84.2993 161.753 85.7806C160.264 87.2449 158.727 88.6843 157.029 90.0859C156.177 90.7867 155.284 91.4774 154.27 92.1539C153.758 92.4918 153.216 92.8271 152.592 93.1542C151.96 93.478 151.28 93.8058 150.298 94.0715C149.825 94.201 149.224 94.3157 148.497 94.3339C148.303 94.3353 148.124 94.3359 147.916 94.3218C147.698 94.3036 147.479 94.2779 147.262 94.2435C146.97 94.1889 146.737 94.1343 146.473 94.0702C145.547 93.8159 144.881 93.5225 144.254 93.2358C143.056 92.6605 142.082 92.0791 141.143 91.501C139.287 90.3449 137.618 89.1976 135.98 88.0846C134.348 86.9764 132.749 85.9235 131.204 85.0217C130.437 84.5685 129.681 84.1577 128.977 83.8292C128.279 83.5014 127.614 83.2626 127.176 83.1669C124.42 82.5652 122.674 79.8429 123.276 77.0869C123.877 74.3309 126.6 72.5846 129.356 73.1863C129.424 73.2011 129.491 73.2173 129.557 73.2348L129.615 73.2503Z" fill="#344054"/>
<path opacity="0.2" d="M140.046 90.8082C138.616 89.8841 137.288 88.9736 135.979 88.0832C135.48 87.746 134.988 87.4155 134.495 87.0917C134.502 85.7697 134.697 84.3532 135.17 82.8828C135.17 82.8828 138.846 85.7697 140.046 90.8082Z" fill="black"/>
<path d="M144.665 228.139C144.665 228.139 136.485 225.727 135.886 222.507C135.827 222.19 135.562 221.98 135.225 222.036L129.284 223.031C129.007 223.077 128.764 223.29 128.679 223.56L126.866 229.341L128.546 229.393L129.168 228.564L129.873 229.435C138.993 229.72 142.937 229.746 144.76 229.234C145.046 228.436 144.665 228.139 144.665 228.139Z" fill="black"/>
<path d="M136.96 170.149C135.827 186.978 136.498 222.522 136.498 222.522L128.395 224.458C128.395 224.458 123.591 198.229 122.977 180.031C122.923 178.324 122.896 176.618 122.903 174.911C120.913 162.366 118.519 152.97 116.401 145.247C114.418 138.003 112.671 132.242 111.727 126.732L135.334 119.062C136.649 123.184 138.922 140.937 136.96 170.149Z" fill="#101828"/>
<path opacity="0.4" d="M122.979 180.025C122.925 178.318 122.898 176.612 122.905 174.905C120.915 162.359 118.52 152.963 116.402 145.24C118.945 137.996 122.183 132.56 125.677 131.926C125.677 131.926 131.882 163.405 122.979 180.025Z" fill="black"/>
<path d="M136.108 121.814C136.238 119.093 135.678 116.223 135.678 116.223C135.633 115.639 108.396 116.611 106.145 116.873C103.324 117.2 106.726 129.931 109.283 134.155C129.06 133.934 135.751 125.256 136.108 121.814Z" fill="#101828"/>
<path d="M117.67 228.131C117.67 228.131 109.489 225.719 108.891 222.499C108.832 222.182 108.567 221.973 108.23 222.029L102.289 223.023C102.012 223.069 101.769 223.282 101.684 223.552L99.8711 229.333L101.551 229.385L102.173 228.556L102.877 229.427C111.997 229.712 115.941 229.738 117.764 229.226C118.051 228.428 117.67 228.131 117.67 228.131Z" fill="black"/>
<path d="M105.09 174.519C106.111 149.939 105.145 134.524 105.478 122.975L128.308 122.223C128.781 126.523 127.503 144.375 119.809 172.624C115.377 188.899 109.465 222.704 109.465 222.704L101.109 223.786C101.109 223.786 101.061 194.015 105.09 174.519Z" fill="#101828"/>
<path d="M105.85 75.5735C111.517 74.1193 119.27 73.0502 125.563 72.8978C131.224 72.7609 136.082 76.9576 136.79 82.5755C138.062 92.6708 135.839 96.2531 136.158 111.969C137.243 117.459 137.187 124.242 137.187 124.242C136.674 126.712 131.274 129.489 131.274 129.489L128.31 122.223L125.566 129.489C125.566 129.489 106.684 128.604 104.584 126.84C104.584 126.84 105.589 110.764 104.472 104.332C102.774 98.0547 102.835 93.1605 100.488 84.8365C99.3481 80.7969 101.784 76.6163 105.85 75.5735Z" fill="#101828"/>
<path d="M137.187 124.241C136.675 126.716 131.279 129.495 131.279 129.495L128.311 122.224L125.566 129.495C125.566 129.495 106.686 128.605 104.582 126.844C104.582 126.844 105.587 110.764 104.474 104.336C103.698 101.47 103.287 98.8998 102.855 96.1545C102.592 94.5492 102.329 92.8764 101.972 91.062C101.601 89.1802 101.135 87.1432 100.488 84.8364C99.3477 80.7961 101.789 76.6209 105.85 75.5755C111.516 74.1253 119.272 73.0528 125.566 72.8977C131.225 72.7628 136.081 76.9582 136.789 82.5768C138.064 92.6741 135.838 96.2557 136.162 111.972C137.241 117.462 137.187 124.241 137.187 124.241Z" fill="#344054"/>
<path d="M104.007 119.98L109.008 122.761L104.126 127.583C104.126 127.583 99.9039 124.517 101.171 122.009L104.007 119.98Z" fill="#FFC3BD"/>
<path d="M110.684 128.46L108.688 129.862C107.893 130.419 106.811 130.32 106.132 129.627L104.127 127.58L109.008 122.758L111.142 125.664C111.8 126.559 111.594 127.821 110.684 128.46Z" fill="#FFC3BD"/>
<path opacity="0.2" d="M102.854 96.1499C102.591 94.5446 102.328 92.8718 101.971 91.0574C103.664 88.4876 105.33 86.2617 105.33 86.2617C105.33 86.2617 105.944 92.339 102.854 96.1499Z" fill="black"/>
<path d="M109.103 85.2061C106.325 88.1961 103.532 91.2894 100.838 94.357C99.4999 95.9003 98.1752 97.449 96.9301 98.9848C96.3109 99.7517 95.7092 100.523 95.1825 101.257L94.8054 101.794L94.4837 102.285C94.4048 102.419 94.2948 102.589 94.2651 102.651C94.2435 102.688 94.1997 102.761 94.2226 102.714C94.2253 102.704 94.2267 102.693 94.226 102.682L94.2233 102.665C94.2382 102.62 94.2523 102.572 94.2631 102.524C94.3508 102.134 94.3164 101.934 94.313 101.883C94.3009 101.816 94.2908 101.846 94.3049 101.927C94.3272 102.085 94.4122 102.393 94.537 102.728C94.7899 103.413 95.1831 104.222 95.6195 105.028C96.5065 106.656 97.5837 108.33 98.7148 109.979C99.8433 111.635 101.013 113.3 102.225 114.944L104.035 117.424L104.95 118.659L105.41 119.27C105.581 119.455 105.699 119.696 105.375 120.298L105.107 120.796C104.215 122.453 102.731 123.607 101.069 124.134C100.397 124.345 100.172 124.193 99.9984 123.983L99.4318 123.409L98.3108 122.254C97.5661 121.484 96.8444 120.692 96.12 119.899C94.6955 118.293 93.2898 116.659 91.9435 114.941C90.6046 113.214 89.2981 111.442 88.0597 109.465C87.4425 108.465 86.8395 107.428 86.2797 106.184C86.0018 105.554 85.7313 104.875 85.5087 104.015C85.3988 103.588 85.301 103.101 85.2511 102.512C85.2032 101.94 85.1971 101.21 85.4082 100.313L85.4946 99.9817L85.5614 99.7807L85.703 99.3814C85.8082 99.086 85.8878 98.9275 85.9769 98.7278C86.161 98.3117 86.3188 98.0317 86.4888 97.7053L86.9771 96.8527L87.4581 96.0757C88.0968 95.072 88.7356 94.1567 89.3811 93.2576C90.6673 91.4614 91.9826 89.7617 93.3229 88.0909C95.9946 84.736 98.7202 81.5341 101.559 78.3221C103.428 76.2089 106.654 76.0106 108.768 77.8783C110.881 79.7467 111.079 82.9735 109.211 85.0867C109.188 85.1123 109.166 85.1373 109.143 85.1622L109.103 85.2061Z" fill="#101828"/>
<path opacity="0.9" d="M110.06 76.3104L118.657 87.435L126.635 100.314L129.703 86.9723L127.257 77.9003L123.082 73L115.599 74.1642L108.935 75.752L110.06 76.3104Z" fill="white"/>
<path d="M109.103 85.2061C106.325 88.1961 103.532 91.2894 100.838 94.357C99.4999 95.9003 98.1752 97.449 96.9301 98.9848C96.3109 99.7517 95.7092 100.523 95.1825 101.257L94.8054 101.794L94.4837 102.285C94.4048 102.419 94.2948 102.589 94.2651 102.651C94.2435 102.688 94.1997 102.761 94.2226 102.714C94.2253 102.704 94.2267 102.693 94.226 102.682L94.2233 102.665C94.2382 102.62 94.2523 102.572 94.2631 102.524C94.3508 102.134 94.3164 101.934 94.313 101.883C94.3009 101.816 94.2908 101.846 94.3049 101.927C94.3272 102.085 94.4122 102.393 94.537 102.728C94.7899 103.413 95.1831 104.222 95.6195 105.028C96.5065 106.656 97.5837 108.33 98.7148 109.979C99.8433 111.635 101.013 113.3 102.225 114.944L104.035 117.424L104.95 118.659L105.41 119.27C105.581 119.455 105.699 119.696 105.375 120.298L105.107 120.796C104.215 122.453 102.731 123.607 101.069 124.134C100.397 124.345 100.172 124.193 99.9984 123.983L99.4318 123.409L98.3108 122.254C97.5661 121.484 96.8444 120.692 96.12 119.899C94.6955 118.293 93.2898 116.659 91.9435 114.941C90.6046 113.214 89.2981 111.442 88.0597 109.465C87.4425 108.465 86.8395 107.428 86.2797 106.184C86.0018 105.554 85.7313 104.875 85.5087 104.015C85.3988 103.588 85.301 103.101 85.2511 102.512C85.2032 101.94 85.1971 101.21 85.4082 100.313L85.4946 99.9817L85.5614 99.7807L85.703 99.3814C85.8082 99.086 85.8878 98.9275 85.9769 98.7278C86.161 98.3117 86.3188 98.0317 86.4888 97.7053L86.9771 96.8527L87.4581 96.0757C88.0968 95.072 88.7356 94.1567 89.3811 93.2576C90.6673 91.4614 91.9826 89.7617 93.3229 88.0909C95.9946 84.736 98.7202 81.5341 101.559 78.3221C103.428 76.2089 106.654 76.0106 108.768 77.8783C110.881 79.7467 111.079 82.9735 109.211 85.0867C109.188 85.1123 109.166 85.1373 109.143 85.1622L109.103 85.2061Z" fill="#344054"/>
<path d="M118.026 78.4286L121.716 80.3947L123.922 96.3062L126.634 100.309L127.701 97.0179C127.701 97.0179 124.508 84.8323 123.08 79.9401L123.922 77.5349L120.604 76.3828L118.026 78.4286Z" fill="#2970FF"/>
<path d="M108.598 74.9354C108.598 74.9354 117.575 80.3011 126.455 99.6809C126.455 99.6809 129.844 79.4863 123.08 73.0016C123.08 73.0016 127.149 72.5072 131.97 77.5423L128.396 80.3928L133.927 84.8398L126.989 101.885C126.989 101.885 118.616 91.9909 110.439 87.4366L113.271 83.0611L105.504 78.7915C105.504 78.7915 106.476 76.3917 108.598 74.9354Z" fill="#101828"/>
<path d="M111.203 62.9258C111.897 68.2469 111.287 71.44 110.467 74.4712C110.388 74.7626 110.492 75.0763 110.741 75.2483C113.01 76.8178 116.309 77.9132 120.533 77.4255C124.707 76.944 124.3 75.6712 123.124 74.3336C122.957 74.1434 122.745 73.9977 122.512 73.8972C119.442 72.5739 119.048 70.323 119.668 68.854L111.203 62.9258Z" fill="#FFC3BD"/>
<path opacity="0.2" d="M111.202 62.9336L119.668 68.8611C119.317 69.6833 119.289 70.7578 119.882 71.7763C118.395 72.0171 116.805 71.7385 115.321 70.776C113.156 69.369 112.237 67.4946 111.394 64.7905C111.353 64.201 111.285 63.5865 111.202 62.9336Z" fill="black"/>
<path d="M110.7 73.5692L120.604 76.3961C120.604 76.3961 120.89 74.3071 120.604 72.6836L123.08 73.008C123.08 73.008 125.134 74.7955 124.728 78.2644L121.085 77.3579L118.026 79.954C118.026 79.954 112.71 79.3571 108.598 74.9418L110.7 73.5692Z" fill="#2970FF"/>
<path opacity="0.7" d="M110.7 73.5692L120.604 76.3961C120.604 76.3961 120.89 74.3071 120.604 72.6836L123.08 73.008C123.08 73.008 125.134 74.7955 124.728 78.2644L121.085 77.3579L118.026 79.954C118.026 79.954 112.71 79.3571 108.598 74.9418L110.7 73.5692Z" fill="white"/>
<path d="M121.677 52.0892C123.095 53.5596 121.702 55.6519 121.864 57.1722C122.026 58.6926 122.42 60.6607 120.327 58.6892C118.234 56.7183 119.479 50.067 121.677 52.0892Z" fill="#101828"/>
<path d="M108.483 59.6517C109.476 64.6943 108.858 65.6029 111.776 67.8469C116.167 71.2222 122.592 71.1459 122.821 65.8727C123.028 61.1262 122.388 52.6599 117.138 51.3473C111.965 50.0543 107.49 54.6092 108.483 59.6517Z" fill="#FFC3BD"/>
<path d="M109.458 63.0239C111.846 64.2596 112.378 60.9782 112.203 60.7387C111.436 59.6892 111.411 58.7557 112.103 56.6115C112.794 54.4665 107.934 51.4306 105.456 53.4298C104.175 54.4625 104.505 56.8313 105.176 58.9317C106.187 62.0999 107.534 62.0277 109.458 63.0239Z" fill="#101828"/>
<path d="M106.614 63.3557C107.276 64.5105 108.328 65.2545 109.284 65.527C110.722 65.9371 111.299 64.5065 110.78 63.0226C110.313 61.687 109.002 59.8645 107.616 60.1127C106.251 60.3569 105.858 62.0357 106.614 63.3557Z" fill="#FFC3BD"/>
<path d="M121.118 53.5276C121.118 53.5276 121.785 50.7257 120.718 49.0584C119.651 47.3903 111.712 46.9236 108.043 49.7255C104.375 52.5273 105.642 56.0631 106.042 55.9963C106.442 55.9295 109.645 56.7302 109.645 56.7302C109.645 56.7302 111.179 53.3947 112.246 52.7277C113.313 52.0606 116.382 53.328 117.516 53.7947C118.65 54.2615 119.117 52.5941 119.117 52.5941C119.117 52.5941 120.517 53.127 121.118 53.5276Z" fill="#101828"/>
<path d="M168.651 75.3483L173.97 73.2398L169.756 67.8242C169.756 67.8242 165.171 70.3179 166.102 72.968L168.651 75.3483Z" fill="#FFC3BD"/>
<path d="M176.37 67.7991L174.574 66.1506C173.858 65.4943 172.773 65.4525 172.008 66.0521L169.755 67.8207L173.969 73.2362L176.462 70.6313C177.231 69.828 177.189 68.5505 176.37 67.7991Z" fill="#FFC3BD"/>
<path d="M164.657 72.3726L165.642 71.5234L169.816 75.6865L168.644 77.0584C168.644 77.0584 165.173 74.6288 164.657 72.3726Z" fill="#2970FF"/>
<path opacity="0.7" d="M164.657 72.3726L165.642 71.5234L169.816 75.6865L168.644 77.0584C168.644 77.0584 165.173 74.6288 164.657 72.3726Z" fill="white"/>
<path d="M173.192 43.9414H170.908V82.8824H173.192V43.9414Z" fill="#101828"/>
<path d="M189.607 39.8619C191.899 30.1558 185.889 20.4295 176.183 18.1376C166.477 15.8457 156.75 21.8561 154.458 31.5622C152.167 41.2684 158.177 50.9947 167.883 53.2865C177.589 55.5784 187.315 49.568 189.607 39.8619Z" fill="#2970FF"/>
<path fill-rule="evenodd" clip-rule="evenodd" d="M155.436 35.7075C155.436 44.8598 162.881 52.3057 172.034 52.3057C181.186 52.3057 188.633 44.8592 188.632 35.7075C188.632 26.5552 181.186 19.1094 172.034 19.1094C162.881 19.1094 155.436 26.5552 155.436 35.7075ZM158.289 30.856C160.292 25.1969 165.697 21.1322 172.034 21.1322C178.37 21.1322 183.776 25.1969 185.779 30.856H158.289ZM158.29 40.5607H185.777C183.774 46.2182 178.369 50.2815 172.034 50.2815C165.698 50.2815 160.294 46.2182 158.29 40.5607Z" fill="white"/>
<path d="M159.454 38.2839L159.959 37.1649C160.5 37.5595 161.306 37.834 162.077 37.834C162.957 37.834 163.315 37.5406 163.315 37.146C163.315 35.9447 159.582 36.7703 159.582 34.3859C159.582 33.2946 160.462 32.3867 162.288 32.3867C163.095 32.3867 163.92 32.5796 164.516 32.9553L164.058 34.0831C163.461 33.7438 162.848 33.5786 162.279 33.5786C161.398 33.5786 161.059 33.9084 161.059 34.3117C161.059 35.4948 164.791 34.6787 164.791 37.0354C164.791 38.1085 163.902 39.0252 162.068 39.0252C161.049 39.0265 160.023 38.7237 159.454 38.2839Z" fill="#2970FF"/>
<path d="M167.049 33.7107H164.995V32.5H170.589V33.7107H168.535V38.9192H167.049V33.7107Z" fill="#2970FF"/>
<path d="M170.895 35.7066C170.895 33.7991 172.381 32.3867 174.408 32.3867C176.425 32.3867 177.92 33.7897 177.92 35.7066C177.92 37.6229 176.425 39.0258 174.408 39.0258C172.381 39.0265 170.895 37.6141 170.895 35.7066ZM176.416 35.7066C176.416 34.4864 175.554 33.6528 174.407 33.6528C173.261 33.6528 172.398 34.4871 172.398 35.7066C172.398 36.9261 173.26 37.7605 174.407 37.7605C175.554 37.7611 176.416 36.9261 176.416 35.7066Z" fill="#2970FF"/>
<path d="M184.609 34.8297C184.609 36.2604 183.536 37.1493 181.821 37.1493H180.528V38.9192H179.042V32.5H181.821C183.536 32.5007 184.609 33.3904 184.609 34.8297ZM183.105 34.8297C183.105 34.1235 182.647 33.7107 181.739 33.7107H180.528V35.9393H181.739C182.647 35.9393 183.105 35.5265 183.105 34.8297Z" fill="#2970FF"/>
<path d="M197.308 225.226L189.834 188.004H186.97L179.495 225.226L174.002 228.588V229.584H202.622V228.588L197.308 225.226Z" fill="#2970FF"/>
<path opacity="0.2" d="M202.622 228.586H174.002V229.839H202.622V228.586Z" fill="black"/>
<path opacity="0.05" d="M189.831 188.004H186.967L179.402 225.116H197.216L189.831 188.004Z" fill="black"/>
<path opacity="0.8" d="M194.822 213.073L193.122 204.527H183.603L181.861 213.073H194.822Z" fill="white"/>
<path d="M261.52 81.9922H223.725L197 108.717V146.512L223.725 173.237H261.52L288.245 146.512V108.717L261.52 81.9922Z" fill="#2970FF"/>
<path d="M260.544 170.345H224.701L199.355 145.001V109.157L224.701 83.8125H260.543L285.889 109.157V145.001L260.544 170.345ZM225.372 168.725H259.873L284.269 144.33V109.828L259.873 85.4325H225.372L200.975 109.828V144.33L225.372 168.725Z" fill="white"/>
<path d="M215.946 109.348H220.073C223.045 109.348 225.082 111.139 225.082 113.89C225.082 116.642 223.044 118.432 220.073 118.432H215.946V109.348ZM219.969 116.707C221.773 116.707 222.954 115.63 222.954 113.89C222.954 112.151 221.773 111.074 219.969 111.074H218.048V116.707H219.969Z" fill="white"/>
<path d="M226.091 113.89C226.091 111.19 228.193 109.192 231.061 109.192C233.916 109.192 236.031 111.177 236.031 113.89C236.031 116.602 233.916 118.588 231.061 118.588C228.193 118.588 226.091 116.589 226.091 113.89ZM233.903 113.89C233.903 112.164 232.683 110.983 231.061 110.983C229.439 110.983 228.219 112.164 228.219 113.89C228.219 115.616 229.439 116.797 231.061 116.797C232.683 116.797 233.903 115.616 233.903 113.89Z" fill="white"/>
<path d="M249.616 109.348V118.433H247.889L243.36 112.917V118.433H241.284V109.348H243.023L247.539 114.864V109.348H249.616Z" fill="white"/>
<path d="M251.196 113.89C251.196 111.19 253.298 109.192 256.166 109.192C259.021 109.192 261.137 111.177 261.137 113.89C261.137 116.602 259.022 118.588 256.166 118.588C253.298 118.588 251.196 116.589 251.196 113.89ZM259.008 113.89C259.008 112.164 257.788 110.983 256.166 110.983C254.544 110.983 253.324 112.164 253.324 113.89C253.324 115.616 254.544 116.797 256.166 116.797C257.788 116.797 259.008 115.616 259.008 113.89Z" fill="white"/>
<path d="M264.468 111.061H261.561V109.348H269.478V111.061H266.571V118.432H264.469L264.468 111.061Z" fill="white"/>
<path d="M224.353 145.071V147.13H215.769V136.044H224.146V138.103H218.319V140.511H223.466V142.506H218.319V145.072L224.353 145.071Z" fill="white"/>
<path d="M236.565 136.044V147.13H234.459L228.932 140.4V147.13H226.398V136.044H228.52L234.031 142.775V136.044H236.565Z" fill="white"/>
<path d="M241.492 138.135H237.945V136.044H247.605V138.135H244.058V147.13H241.492L241.492 138.135Z" fill="white"/>
<path d="M257.569 145.071V147.13H248.986V136.044H257.363V138.103H251.535V140.511H256.682V142.506H251.535V145.072L257.569 145.071Z" fill="white"/>
<path d="M266.677 147.13L264.54 144.042H262.18V147.13H259.614V136.044H264.413C267.374 136.044 269.227 137.581 269.227 140.067C269.227 141.73 268.388 142.949 266.946 143.567L269.433 147.13H266.677ZM264.27 138.135H262.18V141.999H264.27C265.838 141.999 266.63 141.27 266.63 140.067C266.63 138.848 265.838 138.135 264.27 138.135Z" fill="white"/>
<path d="M274.667 122.382H210.579V131.776H274.667V122.382Z" fill="white"/>
</svg>
