<svg width="360" height="270" viewBox="0 0 360 270" fill="none" xmlns="http://www.w3.org/2000/svg">
<path d="M348.553 241.298H11.4186C11.3736 241.298 11.3309 241.281 11.2992 241.248C11.2677 241.217 11.25 241.175 11.25 241.13C11.25 241.085 11.2677 241.042 11.2992 241.012C11.3309 240.978 11.3736 240.961 11.4186 240.961H348.581C348.626 240.961 348.669 240.978 348.699 241.012C348.733 241.042 348.75 241.085 348.75 241.13C348.75 241.242 348.666 241.298 348.553 241.298Z" fill="#D0D5DD"/>
<path d="M209.9 155.756L235.585 135.664C237.215 134.368 238.528 132.718 239.424 130.838C240.321 128.958 240.776 126.899 240.756 124.817V85.5586H203.605L203.549 86.5984V85.5586H166.371V124.817C166.351 126.899 166.806 128.958 167.702 130.838C168.598 132.718 169.911 134.368 171.541 135.664L197.254 155.756C197.793 156.188 198.226 156.736 198.523 157.359C198.82 157.981 198.972 158.663 198.969 159.353C198.97 160.039 198.817 160.716 198.52 161.334C198.223 161.952 197.79 162.495 197.254 162.922L171.541 183.015C169.911 184.31 168.598 185.961 167.702 187.84C166.806 189.72 166.351 191.78 166.371 193.862V233.12H203.549V232.108L203.605 233.148H240.756V193.862C240.756 189.591 238.845 185.544 235.585 183.015L209.9 162.922C209.359 162.499 208.923 161.957 208.626 161.338C208.329 160.719 208.178 160.04 208.186 159.353C208.176 158.662 208.326 157.978 208.623 157.354C208.92 156.731 209.357 156.184 209.9 155.756Z" fill="#2970FF"/>
<path opacity="0.6" d="M209.9 155.756L235.585 135.664C237.215 134.368 238.528 132.718 239.424 130.838C240.321 128.958 240.776 126.899 240.756 124.817V85.5586H203.605L203.549 86.5984V85.5586H166.371V124.817C166.351 126.899 166.806 128.958 167.702 130.838C168.598 132.718 169.911 134.368 171.541 135.664L197.254 155.756C197.793 156.188 198.226 156.736 198.523 157.359C198.82 157.981 198.972 158.663 198.969 159.353C198.97 160.039 198.817 160.716 198.52 161.334C198.223 161.952 197.79 162.495 197.254 162.922L171.541 183.015C169.911 184.31 168.598 185.961 167.702 187.84C166.806 189.72 166.351 191.78 166.371 193.862V233.12H203.549V232.108L203.605 233.148H240.756V193.862C240.756 189.591 238.845 185.544 235.585 183.015L209.9 162.922C209.359 162.499 208.923 161.957 208.626 161.338C208.329 160.719 208.178 160.04 208.186 159.353C208.176 158.662 208.326 157.978 208.623 157.354C208.92 156.731 209.357 156.184 209.9 155.756Z" fill="white"/>
<path opacity="0.4" d="M208.636 157.33C208.915 156.714 209.339 156.174 209.872 155.756L226.902 142.464C228.424 140.164 229.235 137.466 229.234 134.708V85.5586H203.605L203.549 86.5984V85.5586H166.371V124.817C166.351 126.899 166.806 128.958 167.702 130.838C168.598 132.718 169.911 134.368 171.541 135.664L197.254 155.756C197.793 156.188 198.226 156.736 198.523 157.359C198.82 157.981 198.972 158.663 198.969 159.353C198.967 160.047 198.804 160.73 198.491 161.349C198.211 161.965 197.787 162.505 197.254 162.922L171.541 183.015C170.431 183.89 169.464 184.933 168.675 186.106C167.163 188.41 166.362 191.107 166.371 193.862V233.12H203.549V232.108L203.605 233.148H229.234L229.178 189.759C229.178 182.593 228.56 177.563 224.344 174.275L209.9 162.922C207.287 160.758 208.467 157.752 208.467 157.752C208.498 157.602 208.555 157.46 208.636 157.33Z" fill="white"/>
<path opacity="0.5" d="M240.784 233.145H167.017V235.581H240.784V233.145Z" fill="black"/>
<path d="M230.781 102.027C223.98 102.027 217.685 109.587 203.522 112.903C196.131 114.87 186.914 114.589 175.673 112.397C175.041 112.277 174.389 112.298 173.765 112.459C173.142 112.619 172.561 112.916 172.065 113.326C171.568 113.736 171.168 114.251 170.894 114.834C170.619 115.416 170.476 116.052 170.475 116.696V124.537C170.473 126.103 170.83 127.648 171.516 129.056C172.203 130.463 173.202 131.695 174.437 132.658C192.731 147.074 194.052 147.383 200.178 152.413C200.669 152.834 201.064 153.355 201.336 153.942C201.608 154.529 201.749 155.167 201.752 155.814V209.994C201.758 213.532 200.376 216.933 197.902 219.464L190.033 229.524L187.223 233.121H219.962L208.608 218.958C206.654 216.916 205.566 214.197 205.573 211.371V156.235C205.576 155.591 205.715 154.955 205.982 154.369C206.248 153.783 206.636 153.26 207.119 152.835C213.245 147.664 206.557 153.678 232.692 132.77C233.901 131.796 234.878 130.564 235.549 129.164C236.22 127.763 236.569 126.23 236.57 124.677V108.519C236.598 105.4 235.333 102.027 230.781 102.027Z" fill="#2970FF"/>
<path d="M248.089 240.986H169.489C167.437 240.986 165.779 239.243 165.779 237.051C165.779 234.888 167.437 233.117 169.489 233.117H248.089C250.141 233.117 251.827 234.888 251.827 237.051C251.827 239.243 250.141 240.986 248.089 240.986Z" fill="#101828"/>
<path d="M247.844 90.4778H164.647C162.476 90.4778 160.721 88.7074 160.721 86.5436C160.721 84.3798 162.476 82.6094 164.647 82.6094H247.844C250.015 82.6094 251.77 84.3798 251.77 86.5436C251.77 88.7074 250.015 90.4778 247.844 90.4778Z" fill="#101828"/>
<path d="M118.485 111.915V72.0948C118.316 70.2401 115.618 62.4279 117.642 59.1681L129.922 56.0769L146.474 55.543C146.558 55.6273 155.663 69.2846 155.663 69.2846L156.787 111.718L118.485 111.915Z" fill="#2970FF"/>
<path d="M149.987 220.812H159.739L159.963 226.405C159.997 227.129 160.193 227.837 160.539 228.474C160.885 229.111 161.37 229.663 161.959 230.086L169.096 235.201L151.224 234.751L149.987 220.812Z" fill="#FFC3BD"/>
<path opacity="0.15" d="M157.378 232.977L160.61 229.043C160.089 227.71 159.85 226.285 159.907 224.855H150.353V226.12L155.72 226.289C156.155 226.296 156.569 226.474 156.874 226.784C157.179 227.094 157.35 227.512 157.35 227.947L157.378 232.977Z" fill="black"/>
<path d="M118.993 220.782L128.52 220.754L127.03 234.383H118.993V220.782Z" fill="#FFC3BD"/>
<path opacity="0.15" d="M127 234.326L128.068 224.828H119.02L119.16 226.008L124.162 226.093C124.406 226.096 124.641 226.185 124.826 226.344C125.011 226.504 125.134 226.723 125.174 226.964L126.157 232.106L127 234.326Z" fill="black"/>
<path d="M118.627 114.307L156.846 114.082L160.443 224.83H149.989L140.294 134.006C140.266 133.728 140.135 133.47 139.927 133.283C139.719 133.096 139.449 132.993 139.17 132.994C138.882 132.985 138.602 133.084 138.383 133.271C138.165 133.458 138.024 133.721 137.989 134.006L128.913 224.83H118.431L118.627 114.307Z" fill="#182230"/>
<path d="M118.206 222.578H129.531L129.306 224.826H118.149L118.206 222.578Z" fill="#101828"/>
<path opacity="0.15" d="M125.258 222.578H129.53L129.305 224.826L124.949 224.798L125.258 222.578Z" fill="black"/>
<path d="M149.454 222.578H160.667L160.779 224.826H149.707L149.454 222.578Z" fill="#101828"/>
<path opacity="0.15" d="M160.665 222.579L157.377 222.551V224.827H160.777L160.665 222.579Z" fill="black"/>
<path d="M125.26 222.581L132.791 137.826C133.128 135.072 135.601 132.993 138.468 132.993H139.254C138.962 132.984 138.678 133.087 138.459 133.28C138.24 133.473 138.102 133.742 138.074 134.032L129.082 222.581H125.26Z" fill="black"/>
<path d="M155.131 114.188L157.407 222.491L160.667 222.575L156.901 114.188H155.131Z" fill="black"/>
<path d="M118.147 239.636H127.898C128.12 239.642 128.337 239.577 128.519 239.451C128.701 239.324 128.838 239.144 128.91 238.934C128.91 239.13 128.938 239.327 128.938 239.524V239.861C128.924 240.125 128.807 240.372 128.612 240.549C128.418 240.729 128.162 240.825 127.898 240.816H118.147C118.016 240.825 117.884 240.805 117.76 240.76C117.636 240.715 117.522 240.648 117.425 240.558C117.328 240.471 117.25 240.361 117.195 240.243C117.141 240.122 117.111 239.993 117.107 239.861V239.72C117.112 239.468 117.131 239.215 117.164 238.962C117.231 239.167 117.364 239.344 117.542 239.465C117.719 239.586 117.932 239.647 118.147 239.636Z" fill="#2970FF"/>
<path opacity="0.4" d="M118.147 239.636H127.898C128.12 239.642 128.337 239.577 128.519 239.451C128.701 239.324 128.838 239.144 128.91 238.934C128.91 239.13 128.938 239.327 128.938 239.524V239.861C128.924 240.125 128.807 240.372 128.612 240.549C128.418 240.729 128.162 240.825 127.898 240.816H118.147C118.016 240.825 117.884 240.805 117.76 240.76C117.636 240.715 117.522 240.648 117.425 240.558C117.328 240.471 117.25 240.361 117.195 240.243C117.141 240.122 117.111 239.993 117.107 239.861V239.72C117.112 239.468 117.131 239.215 117.164 238.962C117.231 239.167 117.364 239.344 117.542 239.465C117.719 239.586 117.932 239.647 118.147 239.636Z" fill="black"/>
<path d="M119.58 229.319L119.805 229.067C120.729 228.187 121.961 227.703 123.237 227.719C124.512 227.735 125.732 228.249 126.634 229.151L126.774 229.319C126.999 229.539 127.177 229.801 127.298 230.091C127.418 230.381 127.479 230.692 127.477 231.006V232.017C127.472 232.602 127.567 233.181 127.758 233.731L128.601 236.514C128.813 237.177 128.926 237.868 128.938 238.565V238.902C128.924 239.166 128.807 239.414 128.612 239.591C128.418 239.77 128.162 239.866 127.898 239.858H118.147C118.016 239.866 117.884 239.846 117.76 239.801C117.636 239.756 117.522 239.689 117.425 239.599C117.328 239.512 117.25 239.402 117.195 239.284C117.141 239.163 117.111 239.034 117.107 238.902V238.762C117.114 237.949 117.247 237.143 117.501 236.373L118.484 233.675C118.694 233.049 118.808 232.397 118.822 231.736V230.977C118.832 230.664 118.904 230.357 119.034 230.072C119.165 229.788 119.35 229.532 119.58 229.319Z" fill="#2970FF"/>
<path opacity="0.4" d="M125.933 231.512C126.134 231.512 126.298 231.348 126.298 231.147C126.298 230.945 126.134 230.781 125.933 230.781C125.731 230.781 125.567 230.945 125.567 231.147C125.567 231.348 125.731 231.512 125.933 231.512Z" fill="#101828"/>
<path opacity="0.4" d="M125.734 232.981C125.936 232.981 126.1 232.818 126.1 232.615C126.1 232.413 125.936 232.25 125.734 232.25C125.533 232.25 125.369 232.413 125.369 232.615C125.369 232.818 125.533 232.981 125.734 232.981Z" fill="#101828"/>
<path opacity="0.4" d="M125.623 234.043C125.825 234.043 125.988 233.88 125.988 233.678C125.988 233.475 125.825 233.312 125.623 233.312C125.421 233.312 125.258 233.475 125.258 233.678C125.258 233.88 125.421 234.043 125.623 234.043Z" fill="#101828"/>
<path opacity="0.4" d="M125.792 235.758C125.994 235.758 126.157 235.595 126.157 235.393C126.157 235.19 125.994 235.027 125.792 235.027C125.59 235.027 125.427 235.19 125.427 235.393C125.427 235.595 125.59 235.758 125.792 235.758Z" fill="#101828"/>
<path opacity="0.4" d="M125.82 237.278C126.022 237.278 126.186 237.115 126.186 236.912C126.186 236.71 126.022 236.547 125.82 236.547C125.619 236.547 125.455 236.71 125.455 236.912C125.455 237.115 125.619 237.278 125.82 237.278Z" fill="#101828"/>
<path opacity="0.4" d="M121.211 237.582C121.413 237.582 121.576 237.419 121.576 237.217C121.576 237.015 121.413 236.852 121.211 236.852C121.009 236.852 120.846 237.015 120.846 237.217C120.846 237.419 121.009 237.582 121.211 237.582Z" fill="#101828"/>
<path opacity="0.4" d="M121.155 236.18C121.357 236.18 121.521 236.017 121.521 235.815C121.521 235.612 121.357 235.449 121.155 235.449C120.954 235.449 120.79 235.612 120.79 235.815C120.79 236.017 120.954 236.18 121.155 236.18Z" fill="#101828"/>
<path opacity="0.4" d="M121.099 234.352C121.301 234.352 121.464 234.189 121.464 233.986C121.464 233.784 121.301 233.621 121.099 233.621C120.897 233.621 120.733 233.784 120.733 233.986C120.733 234.189 120.897 234.352 121.099 234.352Z" fill="#101828"/>
<path opacity="0.4" d="M121.211 232.614C121.413 232.614 121.576 232.451 121.576 232.248C121.576 232.046 121.413 231.883 121.211 231.883C121.009 231.883 120.846 232.046 120.846 232.248C120.846 232.451 121.009 232.614 121.211 232.614Z" fill="#101828"/>
<path opacity="0.4" d="M121.268 231.231C121.469 231.231 121.633 231.067 121.633 230.865C121.633 230.664 121.469 230.5 121.268 230.5C121.066 230.5 120.902 230.664 120.902 230.865C120.902 231.067 121.066 231.231 121.268 231.231Z" fill="#101828"/>
<path d="M125.792 231.067C125.792 231.067 124.134 229.296 121.268 230.758" stroke="white" stroke-width="0.281016" stroke-miterlimit="10" stroke-linecap="round"/>
<path d="M125.734 232.498C125.734 232.498 124.076 230.728 121.21 232.217" stroke="white" stroke-width="0.281016" stroke-miterlimit="10" stroke-linecap="round"/>
<path d="M125.624 233.626C125.202 233.289 123.039 232.614 121.1 233.963" stroke="white" stroke-width="0.281016" stroke-miterlimit="10" stroke-linecap="round"/>
<path d="M125.68 235.393C125.68 235.393 123.797 233.847 121.155 235.702" stroke="white" stroke-width="0.281016" stroke-miterlimit="10" stroke-linecap="round"/>
<path d="M125.82 236.831C125.82 236.831 123.937 235.313 121.296 237.168" stroke="white" stroke-width="0.281016" stroke-miterlimit="10" stroke-linecap="round"/>
<path d="M150.1 239.47L176.234 239.526C176.294 239.4 176.341 239.268 176.375 239.133C176.401 239.442 176.41 239.751 176.403 240.06C176.39 240.293 176.291 240.515 176.125 240.681C175.959 240.847 175.738 240.945 175.504 240.959L150.943 240.903C150.826 240.903 150.71 240.881 150.603 240.833C150.495 240.788 150.398 240.723 150.317 240.639C150.236 240.555 150.172 240.454 150.13 240.347C150.088 240.237 150.068 240.122 150.072 240.004L150.1 239.47Z" fill="#2970FF"/>
<path opacity="0.4" d="M150.1 239.47L176.234 239.526C176.294 239.4 176.341 239.268 176.375 239.133C176.401 239.442 176.41 239.751 176.403 240.06C176.39 240.293 176.291 240.515 176.125 240.681C175.959 240.847 175.738 240.945 175.504 240.959L150.943 240.903C150.826 240.903 150.71 240.881 150.603 240.833C150.495 240.788 150.398 240.723 150.317 240.639C150.236 240.555 150.172 240.454 150.13 240.347C150.088 240.237 150.068 240.122 150.072 240.004L150.1 239.47Z" fill="black"/>
<path d="M174.803 236.524C170.138 234.444 166.372 232.702 162.888 229.611C162.101 228.88 161.483 228.374 160.443 228.262L156.537 230.707C156.297 230.862 156.017 230.942 155.732 230.937C155.446 230.932 155.169 230.842 154.935 230.678L150.72 228.458C150.017 228.402 149.455 229.301 149.483 230.032L150.102 239.474L176.236 239.53C176.798 238.378 175.646 236.889 174.803 236.524Z" fill="#2970FF"/>
<path opacity="0.4" d="M170.249 236.998C170.513 236.998 170.727 236.785 170.727 236.521C170.727 236.257 170.513 236.043 170.249 236.043C169.985 236.043 169.771 236.257 169.771 236.521C169.771 236.785 169.985 236.998 170.249 236.998Z" fill="#101828"/>
<path opacity="0.4" d="M167.382 236.209C167.646 236.209 167.86 235.996 167.86 235.732C167.86 235.467 167.646 235.254 167.382 235.254C167.118 235.254 166.904 235.467 166.904 235.732C166.904 235.996 167.118 236.209 167.382 236.209Z" fill="#101828"/>
<path opacity="0.4" d="M164.993 234.549C165.257 234.549 165.471 234.336 165.471 234.071C165.471 233.807 165.257 233.594 164.993 233.594C164.729 233.594 164.516 233.807 164.516 234.071C164.516 234.336 164.729 234.549 164.993 234.549Z" fill="#101828"/>
<path opacity="0.4" d="M162.691 232.862C162.954 232.862 163.168 232.648 163.168 232.384C163.168 232.12 162.954 231.906 162.691 231.906C162.427 231.906 162.213 232.12 162.213 232.384C162.213 232.648 162.427 232.862 162.691 232.862Z" fill="#101828"/>
<path opacity="0.4" d="M160.639 230.811C160.903 230.811 161.117 230.597 161.117 230.333C161.117 230.069 160.903 229.855 160.639 229.855C160.375 229.855 160.161 230.069 160.161 230.333C160.161 230.597 160.375 230.811 160.639 230.811Z" fill="#101828"/>
<path d="M171.148 235.395L170.839 236.266C170.817 236.325 170.784 236.379 170.741 236.426C170.698 236.471 170.646 236.511 170.588 236.536C170.531 236.561 170.469 236.575 170.406 236.578C170.343 236.581 170.28 236.57 170.221 236.547C170.161 236.528 170.106 236.494 170.061 236.449C170.016 236.404 169.981 236.351 169.96 236.292C169.938 236.232 169.93 236.168 169.937 236.106C169.943 236.044 169.963 235.982 169.996 235.929L170.446 235.086L171.148 235.395Z" fill="white"/>
<path d="M168.591 234.185L168.001 235.506C167.971 235.562 167.931 235.61 167.883 235.649C167.834 235.691 167.778 235.719 167.718 235.739C167.658 235.756 167.596 235.761 167.533 235.756C167.47 235.75 167.41 235.733 167.354 235.702C167.301 235.68 167.253 235.643 167.214 235.601C167.175 235.556 167.145 235.506 167.126 235.449C167.108 235.396 167.101 235.337 167.106 235.278C167.112 235.219 167.129 235.163 167.158 235.112L167.86 233.848L168.591 234.185Z" fill="white"/>
<path d="M166.455 232.864L165.64 233.988C165.599 234.036 165.549 234.075 165.493 234.103C165.438 234.134 165.377 234.151 165.314 234.156C165.251 234.162 165.188 234.154 165.128 234.134C165.069 234.114 165.013 234.083 164.965 234.044H164.937C164.896 234.01 164.861 233.971 164.836 233.923C164.811 233.878 164.795 233.828 164.79 233.774C164.785 233.724 164.79 233.67 164.806 233.62C164.821 233.569 164.847 233.521 164.881 233.482L165.668 232.414L166.455 232.864Z" fill="white"/>
<path d="M164.375 231.458L163.335 232.442C163.247 232.523 163.132 232.568 163.012 232.568C162.893 232.568 162.777 232.523 162.689 232.442C162.644 232.397 162.61 232.341 162.589 232.282C162.567 232.22 162.559 232.155 162.564 232.092C162.569 232.028 162.589 231.966 162.62 231.91C162.651 231.854 162.694 231.805 162.745 231.767L163.785 230.98L164.375 231.458Z" fill="white"/>
<path d="M162.324 229.63L161.312 230.417C161.269 230.456 161.218 230.486 161.162 230.505C161.107 230.523 161.049 230.53 160.99 230.525C160.932 230.519 160.876 230.502 160.825 230.474C160.774 230.446 160.729 230.407 160.694 230.361C160.653 230.314 160.624 230.258 160.609 230.199C160.594 230.139 160.594 230.076 160.607 230.016C160.621 229.956 160.649 229.9 160.688 229.852C160.728 229.805 160.778 229.767 160.834 229.742L162.071 229.152L162.324 229.63Z" fill="white"/>
<path d="M118.598 110.316H156.816L156.9 114.194L118.598 114.307V110.316Z" fill="black"/>
<path d="M142.625 110.316H135.178V114.298H142.625V110.316Z" fill="#344054"/>
<path d="M142.231 110.316H135.571V114.298H142.231V110.316Z" fill="#DADDDF"/>
<path d="M141.81 77.9722L137.623 78.3657C137.651 78.3938 137.651 78.45 137.651 78.5343L137.735 78.8715C137.763 78.8996 137.763 78.9558 137.791 79.012C137.791 79.0269 137.797 79.0412 137.808 79.0519C137.818 79.0623 137.833 79.0682 137.847 79.0682L138.381 79.6864L138.438 79.7707C138.438 79.7988 138.466 79.7988 138.466 79.827C138.495 79.9281 138.495 80.0352 138.466 80.1361C138.467 80.1515 138.465 80.1667 138.46 80.1813C138.456 80.1956 138.448 80.2091 138.438 80.2204C138.436 80.242 138.426 80.2622 138.409 80.2766L138.213 80.4452H138.128C138.1 80.4452 138.1 80.8105 138.072 80.8105C138.225 80.7433 138.385 80.6961 138.55 80.67C138.664 80.7447 138.754 80.8507 138.809 80.9755C138.864 81.1002 138.881 81.2382 138.859 81.3725L138.775 81.7098C138.743 81.859 138.667 81.995 138.557 82.1004C138.446 82.2055 138.307 82.2752 138.157 82.2999L138.381 82.5809C138.447 82.661 138.486 82.7591 138.494 82.8619L138.634 83.5926C138.645 83.721 138.616 83.8494 138.551 83.9604C138.485 84.0711 138.387 84.1588 138.269 84.2108L135.684 85.2787L134.503 85.7845L128.518 91.0957L127.281 82.7776L130.401 80.2485C130.542 80.1594 130.666 80.045 130.766 79.9113L131.862 78.5905C132.318 78.0197 132.934 77.5991 133.632 77.3821L133.969 77.2697L141.669 76.5391C142.793 76.5953 142.512 77.8879 141.81 77.9722Z" fill="#2970FF"/>
<path d="M138.859 81.401L138.775 81.7382C138.743 81.8872 138.667 82.0232 138.557 82.1286C138.447 82.2339 138.307 82.3033 138.157 82.3284L138.381 82.6094C138.447 82.6895 138.486 82.7873 138.494 82.8904L138.634 83.621C138.646 83.7492 138.616 83.8779 138.551 83.9886C138.485 84.0993 138.387 84.187 138.269 84.2393L135.684 85.3071L136.414 82.6937C136.543 82.2277 136.789 81.8026 137.128 81.4583C137.468 81.1141 137.889 80.862 138.353 80.7266H138.55C138.659 80.7988 138.746 80.9005 138.801 81.0197C138.855 81.1388 138.876 81.2709 138.859 81.401Z" fill="#2970FF"/>
<path d="M120.761 96.0697H109.914V74.6844L120.677 74.6562L120.761 96.0697Z" fill="#2970FF"/>
<path d="M128.714 81.9062L109.914 93.3155V95.9008C109.914 99.0201 112.64 101.409 115.956 101.409C117.3 101.423 118.612 100.999 119.693 100.2L129.922 89.8309L128.714 81.9062Z" fill="#2970FF"/>
<path d="M129.304 65.2921L120.789 68.6081L120.705 78.0502L109.914 78.1626V68.9453C109.914 64.7863 112.752 61.105 117.333 59.2784L118.007 59.0536L127.674 56.7773L128.658 58.8569L129.304 65.2921Z" fill="#2970FF"/>
<path d="M122.982 85.3845L121.942 76.5325C121.886 76.0267 121.296 75.7175 120.762 75.8862C120.595 75.9241 120.447 76.0168 120.34 76.1492C120.233 76.2818 120.174 76.4465 120.172 76.6168L120.284 86.0027L116.94 88.1384C116.462 88.4476 116.8 89.1501 117.305 88.841L122.982 85.3845Z" fill="#2970FF"/>
<path d="M120.705 76.0352L109.914 76.0914V78.1709H120.705V76.0352Z" fill="#2970FF"/>
<path d="M141.81 77.9722L137.623 78.3657C137.651 78.3938 137.651 78.45 137.651 78.5343L137.735 78.8715C137.763 78.8996 137.763 78.9558 137.791 79.012C137.791 79.0269 137.797 79.0412 137.808 79.0519C137.818 79.0623 137.833 79.0682 137.847 79.0682L138.381 79.6864L138.438 79.7707C138.438 79.7988 138.466 79.7988 138.466 79.827C138.495 79.9281 138.495 80.0352 138.466 80.1361C138.467 80.1515 138.465 80.1667 138.46 80.1813C138.456 80.1956 138.448 80.2091 138.438 80.2204C138.436 80.242 138.426 80.2622 138.409 80.2766L138.213 80.4452H138.128C138.1 80.4452 138.1 80.8105 138.072 80.8105C138.225 80.7433 138.385 80.6961 138.55 80.67C138.664 80.7447 138.754 80.8507 138.809 80.9755C138.864 81.1002 138.881 81.2382 138.859 81.3725L138.775 81.7098C138.743 81.859 138.667 81.995 138.557 82.1004C138.446 82.2055 138.307 82.2752 138.157 82.2999L138.381 82.5809C138.447 82.661 138.486 82.7591 138.494 82.8619L138.634 83.5926C138.645 83.721 138.616 83.8494 138.551 83.9604C138.485 84.0711 138.387 84.1588 138.269 84.2108L135.684 85.2787L134.503 85.7845L128.518 91.0957L127.281 82.7776L130.401 80.2485C130.542 80.1594 130.666 80.045 130.766 79.9113L131.862 78.5905C132.318 78.0197 132.934 77.5991 133.632 77.3821L133.969 77.2697L141.669 76.5391C142.793 76.5953 142.512 77.8879 141.81 77.9722Z" fill="#FFC3BD"/>
<path opacity="0.15" d="M138.859 81.401L138.775 81.7382C138.743 81.8872 138.667 82.0232 138.557 82.1286C138.447 82.2339 138.307 82.3033 138.157 82.3284L138.381 82.6094C138.447 82.6895 138.486 82.7873 138.494 82.8904L138.634 83.621C138.646 83.7492 138.616 83.8779 138.551 83.9886C138.485 84.0993 138.387 84.187 138.269 84.2393L135.684 85.3071L136.414 82.6937C136.543 82.2277 136.789 81.8026 137.128 81.4583C137.468 81.1141 137.889 80.862 138.353 80.7266H138.55C138.659 80.7988 138.746 80.9005 138.801 81.0197C138.855 81.1388 138.876 81.2709 138.859 81.401Z" fill="black"/>
<path d="M120.761 96.0697H109.914V74.6844L120.677 74.6562L120.761 96.0697Z" fill="#FFC3BD"/>
<path d="M128.714 81.9062L109.914 93.3155V95.9008C109.914 99.0201 112.64 101.409 115.956 101.409C117.3 101.423 118.612 100.999 119.693 100.2L129.922 89.8309L128.714 81.9062Z" fill="#FFC3BD"/>
<path d="M129.304 65.2921L120.789 68.6081L120.705 78.0502L109.914 78.1626V68.9453C109.914 64.7863 112.752 61.105 117.333 59.2784L118.007 59.0536L127.674 56.7773L128.658 58.8569L129.304 65.2921Z" fill="#2970FF"/>
<path opacity="0.15" d="M122.982 85.3845L121.942 76.5325C121.886 76.0267 121.296 75.7175 120.762 75.8862C120.595 75.9241 120.447 76.0168 120.34 76.1492C120.233 76.2818 120.174 76.4465 120.172 76.6168L120.284 86.0027L116.94 88.1384C116.462 88.4476 116.8 89.1501 117.305 88.841L122.982 85.3845Z" fill="black"/>
<path d="M120.705 76.0352L109.914 76.0914V78.1709H120.705V76.0352Z" fill="white"/>
<path d="M139.141 86.5401L140.04 87.1583L141.614 85.3879C141.737 85.248 141.905 85.1552 142.09 85.1243C142.274 85.0937 142.463 85.1272 142.625 85.2193C142.672 85.2469 142.713 85.2845 142.743 85.3298C142.773 85.3747 142.794 85.4261 142.802 85.4801C142.81 85.5341 142.806 85.5891 142.79 85.6411C142.774 85.6931 142.747 85.7412 142.71 85.7814C141.951 86.7368 140.377 88.6196 140.349 88.6196C140.321 88.6196 138.41 87.608 138.41 87.608L139.141 86.5401Z" fill="#FFC3BD"/>
<path d="M138.775 85.5862L139.534 86.0639L140.349 85.3333C140.424 85.2656 140.519 85.2234 140.62 85.2133C140.722 85.2032 140.823 85.2257 140.911 85.2771H140.939C141.01 85.3167 141.073 85.3712 141.121 85.4373C141.17 85.5033 141.203 85.5792 141.219 85.6596C141.235 85.7399 141.234 85.8225 141.214 85.9024C141.195 85.9819 141.158 86.0564 141.107 86.1201C140.574 86.8227 139.702 87.9467 139.674 87.9467C139.646 87.9467 137.848 86.9632 137.848 86.9632L138.775 85.5862Z" fill="#FFC3BD"/>
<path opacity="0.15" d="M139.141 86.5401L140.04 87.1583L141.614 85.3879C141.737 85.248 141.905 85.1552 142.09 85.1243C142.274 85.0937 142.463 85.1272 142.625 85.2193C142.672 85.2469 142.713 85.2845 142.743 85.3298C142.773 85.3747 142.794 85.4261 142.802 85.4801C142.81 85.5341 142.806 85.5891 142.79 85.6411C142.774 85.6931 142.747 85.7412 142.71 85.7814C141.951 86.7368 140.377 88.6196 140.349 88.6196C140.321 88.6196 138.41 87.608 138.41 87.608L139.141 86.5401Z" fill="black"/>
<path opacity="0.15" d="M138.775 85.5862L139.534 86.0639L140.349 85.3333C140.424 85.2656 140.519 85.2234 140.62 85.2133C140.722 85.2032 140.823 85.2257 140.911 85.2771H140.939C141.01 85.3167 141.073 85.3712 141.121 85.4373C141.17 85.5033 141.203 85.5792 141.219 85.6596C141.235 85.7399 141.234 85.8225 141.214 85.9024C141.195 85.9819 141.158 86.0564 141.107 86.1201C140.574 86.8227 139.702 87.9467 139.674 87.9467C139.646 87.9467 137.848 86.9632 137.848 86.9632L138.775 85.5862Z" fill="black"/>
<path d="M149.79 78.7539L140.039 80.7491C139.575 80.8747 139.151 81.1198 138.811 81.4601C138.471 81.8004 138.226 82.2236 138.1 82.6881L137.313 85.4983C137.191 85.9572 137.211 86.4425 137.372 86.8893C137.533 87.3364 137.826 87.7236 138.213 87.9993L140.152 89.3201C140.573 89.6011 141.023 89.4606 141.416 89.1234L143.215 87.634C143.496 87.4092 143.636 86.9877 143.327 86.7629C143.239 86.6946 143.13 86.6575 143.018 86.6575C142.906 86.6575 142.797 86.6946 142.709 86.7629L141.838 87.3811C141.63 87.5337 141.372 87.6014 141.116 87.5699C140.86 87.5385 140.626 87.4106 140.461 87.2125L139.646 86.3132C139.582 86.2247 139.552 86.1162 139.563 86.0075C139.573 85.899 139.623 85.7978 139.702 85.7231L140.348 85.2454C140.742 84.9081 141.669 84.3742 142.147 84.599L143.721 85.7512C144.206 86.1438 144.81 86.3616 145.435 86.3694C146.012 86.3942 146.577 86.1924 147.008 85.8074C147.346 85.5264 147.795 85.0768 148.076 84.8238C148.179 84.7612 148.294 84.7227 148.413 84.7114L151.364 84.3742L149.79 78.7539Z" fill="#FFC3BD"/>
<path d="M177.274 72.7983L169.574 80.6949L156.619 70.0725L162.886 61.4453L177.274 72.7983Z" fill="#FFC3BD"/>
<path d="M168.085 65.5755L160.835 73.5282L155.636 69.2849L149.651 73.9498L146.166 60.461L146.447 55.5432H149.847C152.779 55.5266 155.655 56.3452 158.137 57.9037C159.422 58.7417 160.652 59.6618 161.819 60.6577L168.085 65.5755Z" fill="#2970FF"/>
<path opacity="0.15" d="M166.906 73.1615L163.169 74.2013L155.89 68.4404C155.813 68.3297 155.702 68.2474 155.573 68.2058C155.445 68.1642 155.306 68.1659 155.179 68.2106C155.051 68.255 154.942 68.3401 154.868 68.4528C154.793 68.5652 154.757 68.699 154.766 68.8339L155.047 110.312H156.789L155.637 69.2835L162.719 75.0724L167.131 73.8921C167.196 73.868 167.254 73.8272 167.298 73.7738C167.342 73.7204 167.371 73.6561 167.383 73.5875C167.394 73.519 167.387 73.4487 167.363 73.3838C167.338 73.3189 167.297 73.2615 167.243 73.2177C167.142 73.1553 167.021 73.1351 166.906 73.1615Z" fill="black"/>
<path d="M160.835 73.5297L159.205 72.2089L166.343 64.1719L168.085 65.577L160.835 73.5297Z" fill="white"/>
<path d="M148.865 78.9248L173.51 72.0962C180.227 70.9721 181.519 80.4704 174.803 81.5945L149.483 84.6014L148.865 78.9248Z" fill="#FFC3BD"/>
<path d="M148.218 84.7677L147.347 79.0911L149.033 78.7539L149.96 84.5428L148.218 84.7677Z" fill="#101828"/>
<path d="M146.306 79.0697C146.284 79.0144 146.274 78.9554 146.277 78.8961C146.279 78.8368 146.294 78.7789 146.321 78.7258C146.348 78.6727 146.385 78.6257 146.431 78.5884C146.477 78.5507 146.53 78.5232 146.587 78.5077L149.566 77.8052C149.67 77.7849 149.777 77.8021 149.87 77.8532C149.963 77.9046 150.034 77.9873 150.072 78.0862V78.1424C150.088 78.1977 150.094 78.2559 150.087 78.3132C150.081 78.3708 150.062 78.4265 150.033 78.4765C150.004 78.5265 149.965 78.5701 149.919 78.6044C149.872 78.6389 149.819 78.6634 149.762 78.6763L146.784 79.3224C146.736 79.3398 146.685 79.3468 146.634 79.3432C146.583 79.3398 146.534 79.3255 146.489 79.3016C146.444 79.278 146.405 79.2448 146.373 79.2049C146.341 79.165 146.319 79.1189 146.306 79.0697Z" fill="#101828"/>
<path d="M130.765 55.7178L127.533 56.6732C127.73 57.4882 128.742 58.556 129.528 59.1462C133.322 62.0406 139.364 62.434 143.607 59.1462C144.759 58.2469 145.434 56.7013 145.603 55.5492L142.624 55.4648L130.765 55.7178Z" fill="white"/>
<path d="M138.409 29.2737C133.997 29.0489 129.107 30.3416 128.883 36.6925L128.349 41.4417H145.631L145.94 36.271C145.94 33.5451 145.94 31.3813 142.203 30.0324C140.986 29.5806 139.706 29.3246 138.409 29.2737Z" fill="#101828"/>
<path d="M143.019 40.5138C143.019 40.5138 131.244 33.1511 130.851 42.1437L130.682 44.5042L129.896 56.082C131.919 61.4213 143.693 59.2294 143.131 55.7729L142.316 49.1972C142.468 48.5047 142.543 47.798 142.541 47.0895C142.682 43.633 143.019 40.5138 143.019 40.5138Z" fill="#FFC3BD"/>
<path d="M144.929 33.9342C144.929 33.9342 148.47 51.6101 139.533 52.7622C131.749 53.802 130.878 41.7183 130.878 41.7183L131.103 36.8567C131.132 36.0615 131.472 35.3097 132.051 34.7632C132.629 34.2166 133.398 33.9187 134.194 33.9342H144.929Z" fill="#FFC3BD"/>
<path opacity="0.15" d="M130.626 45.0357C130.626 45.0357 131.385 45.0638 131.778 44.7266L130.514 46.6656L130.626 45.0357Z" fill="black"/>
<path d="M131.048 40.342C131.048 40.342 130.486 38.7122 128.772 39.4709C127.058 40.2296 127.198 44.8102 130.514 45.035C132.256 45.1755 131.919 44.1639 131.638 42.815L131.048 40.342Z" fill="#FFC3BD"/>
<path opacity="0.3" d="M128.63 40.6785C128.907 40.481 129.25 40.4 129.586 40.4537C129.746 40.4869 129.896 40.554 130.027 40.6513C130.158 40.7482 130.266 40.8727 130.345 41.0157C130.598 41.381 130.625 41.7745 130.682 42.2522L130.766 42.6456C130.766 42.7861 130.682 42.8985 130.597 42.8985C130.513 42.8985 130.345 42.8142 130.345 42.7299L130.289 42.3084C130.267 41.9602 130.161 41.6224 129.979 41.3248C129.811 41.0719 129.67 40.9033 129.502 40.9033C129.393 40.8803 129.28 40.8837 129.172 40.9129C129.065 40.9424 128.966 40.9969 128.883 41.0719C128.743 41.1281 128.63 41.1281 128.574 41.0157C128.518 40.9033 128.574 40.7066 128.63 40.6785Z" fill="black"/>
<path opacity="0.15" d="M142.99 54.7319L142.625 51.3597C141.838 52.1465 139.703 53.2425 137.286 52.7086C136.073 52.3764 134.981 51.7034 134.138 50.7696C134.108 50.7417 134.068 50.7266 134.026 50.7266C133.985 50.7266 133.945 50.7417 133.914 50.7696C133.896 50.7825 133.882 50.7996 133.872 50.819C133.862 50.8384 133.857 50.86 133.857 50.882C133.857 50.9036 133.862 50.9252 133.872 50.9446C133.882 50.9643 133.896 50.9812 133.914 50.9944C134.984 52.2008 136.448 52.9876 138.045 53.2144C139.51 54.192 141.229 54.7198 142.99 54.7319Z" fill="black"/>
<path d="M131.357 41.6632C131.422 41.6634 131.486 41.6502 131.546 41.6244C131.606 41.5988 131.66 41.5609 131.705 41.5137C131.75 41.4662 131.784 41.4102 131.806 41.349C131.829 41.2877 131.838 41.2225 131.835 41.1573C131.778 39.7804 131.806 36.4644 133.211 35.8461C134.532 36.0709 143.862 37.3074 144.93 35.3403L145.548 41.4102H145.632L145.52 33.5699L133.661 32.1367L129.896 34.6378L131.357 41.6632Z" fill="#101828"/>
</svg>
