<svg width="97" height="200" viewBox="0 0 97 200" fill="none" xmlns="http://www.w3.org/2000/svg">
<path d="M96.5216 0C96.5216 53.3086 53.3086 96.5216 0 96.5216V0H96.5216Z" fill="#E0F2FE"/>
<path d="M0 77.3994L1.9647 75.4347C1.39954 75.395 0.834379 75.375 0.269216 75.375L0 75.6447V77.3994Z" fill="black"/>
<path d="M0 82.1194L6.04018 76.0797C5.56427 75.9608 5.08312 75.8563 4.59242 75.7723L0 80.3642V82.1194Z" fill="black"/>
<path d="M0 86.8379L9.59965 77.2383C9.17817 77.0645 8.75668 76.9013 8.33042 76.7523L0 85.0828V86.8379Z" fill="black"/>
<path d="M0 91.5576L12.7477 78.81C12.3758 78.5966 12.004 78.3837 11.6274 78.1852L0 89.813V91.5576Z" fill="black"/>
<path d="M0 96.28L15.5339 80.7461C15.2069 80.4884 14.8747 80.2354 14.5424 79.9924L0 94.5349V96.28Z" fill="black"/>
<path d="M0 100.998L17.9931 83.0047C17.8542 82.8562 17.7105 82.7121 17.5616 82.5636C17.4126 82.4147 17.269 82.271 17.1205 82.1321L0 99.2526V100.998Z" fill="black"/>
<path d="M0 105.717L20.1344 85.5823C19.8914 85.25 19.6384 84.9178 19.3807 84.5908L0 103.972V105.717Z" fill="black"/>
<path d="M0 110.438L21.9392 88.4985C21.7411 88.1218 21.5277 87.75 21.3144 87.3782L0 108.693V110.438Z" fill="black"/>
<path d="M0 115.166L23.3721 91.7939C23.2237 91.3676 23.06 90.9461 22.8862 90.5246L0 113.411V115.166Z" fill="black"/>
<path d="M0 119.887L24.3535 95.5334C24.2691 95.0427 24.165 94.5616 24.0461 94.0857L0 118.132V119.887Z" fill="black"/>
<path d="M24.6905 98.1626L0 122.853V124.456C0.05012 124.456 0.10024 124.458 0.15036 124.458L24.7502 99.858C24.7502 99.2929 24.7302 98.7277 24.6905 98.1626Z" fill="black"/>
<path d="M24.1946 105.132L5.4249 123.901C4.73086 124.05 4.03204 124.164 3.32798 124.253L24.5469 103.034C24.4571 103.738 24.3431 104.438 24.1946 105.132Z" fill="black"/>
<path d="M20.8408 113.204L13.4936 120.551C12.3037 121.324 11.0592 121.974 9.78524 122.514L22.804 109.495C22.2637 110.77 21.6145 112.014 20.8408 113.204Z" fill="black"/>
<path d="M30.8863 186.341C41.4421 186.341 49.9992 177.784 49.9992 167.228C49.9992 156.672 41.4421 148.115 30.8863 148.115C20.3306 148.115 11.7734 156.672 11.7734 167.228C11.7734 177.784 20.3306 186.341 30.8863 186.341Z" fill="#2970FF"/>
<path d="M47.3828 120.625C54.6488 120.625 60.5391 114.735 60.5391 107.469C60.5391 100.203 54.6488 94.3125 47.3828 94.3125C40.1168 94.3125 34.2266 100.203 34.2266 107.469C34.2266 114.735 40.1168 120.625 47.3828 120.625Z" fill="#36BFFA"/>
<path d="M47.3879 112.061C49.9234 112.061 51.9789 110.005 51.9789 107.47C51.9789 104.934 49.9234 102.879 47.3879 102.879C44.8523 102.879 42.7969 104.934 42.7969 107.47C42.7969 110.005 44.8523 112.061 47.3879 112.061Z" fill="black"/>
<path d="M31.3942 167.736L0 199.126V197.102L30.3775 166.719C30.6591 166.443 31.1126 166.443 31.3942 166.719C31.6711 167.001 31.6711 167.454 31.3942 167.736Z" fill="black"/>
<path d="M47.9815 108.545L0 156.527V154.503L46.9696 107.533C47.2465 107.252 47.6999 107.252 47.9815 107.533C48.2584 107.815 48.2584 108.269 47.9815 108.545Z" fill="black"/>
<path d="M51.5508 51.5519L51.5508 19.0938L19.0926 19.0937L19.0926 51.5519L51.5508 51.5519Z" fill="#36BFFA"/>
<path d="M67.7812 67.7805V35.3223L35.3231 35.3223L35.3231 67.7805H67.7812Z" stroke="black" stroke-width="1.432" stroke-miterlimit="10" stroke-linecap="round" stroke-linejoin="round"/>
<path d="M42.2656 42.2698V28.3789L28.3747 28.3789V42.2698H42.2656Z" fill="#2970FF"/>
<path d="M30.8856 173.363C34.2743 173.363 37.0213 170.616 37.0213 167.227C37.0213 163.839 34.2743 161.092 30.8856 161.092C27.497 161.092 24.75 163.839 24.75 167.227C24.75 170.616 27.497 173.363 30.8856 173.363Z" fill="black"/>
</svg>
