<svg width="70" height="188" viewBox="0 0 70 188" fill="none" xmlns="http://www.w3.org/2000/svg">
<path d="M69.9308 56.5859C58.4485 56.5859 48.3257 62.4065 42.3514 71.2577C37.853 67.1159 31.8496 64.5837 25.2528 64.5837C11.3061 64.5837 0 75.8898 0 89.8365C0 103.783 11.3061 115.089 25.2528 115.089C31.8496 115.089 37.853 112.558 42.3514 108.416C48.3257 117.267 58.4485 123.088 69.9308 123.088V56.5859Z" fill="#2970FF"/>
<path d="M34.9649 49.1328C42.2309 49.1328 48.1211 43.2426 48.1211 35.9766C48.1211 28.7106 42.2309 22.8203 34.9649 22.8203C27.6989 22.8203 21.8086 28.7106 21.8086 35.9766C21.8086 43.2426 27.6989 49.1328 34.9649 49.1328Z" fill="#36BFFA"/>
<path d="M34.9621 40.5687C37.4976 40.5687 39.5531 38.5132 39.5531 35.9777C39.5531 33.4422 37.4976 31.3867 34.9621 31.3867C32.4265 31.3867 30.3711 33.4422 30.3711 35.9777C30.3711 38.5132 32.4265 40.5687 34.9621 40.5687Z" fill="black"/>
<path d="M69.9298 91.1914V154.199C52.531 154.199 38.4258 140.094 38.4258 122.695C38.4258 105.297 52.531 91.1914 69.9298 91.1914Z" fill="#36BFFA"/>
<path d="M69.924 0V2.02389L35.4654 36.4826C35.3269 36.6258 35.1408 36.6926 34.9594 36.6926C34.7732 36.6926 34.5918 36.6258 34.4534 36.4826C34.1718 36.2057 34.1718 35.7523 34.4534 35.4706L69.924 0Z" fill="black"/>
<path d="M34.6055 170.411L34.6055 137.953H2.14728L2.14728 170.411H34.6055Z" fill="#E0F2FE"/>
<path d="M50.8359 186.64L50.8359 154.182H18.3778L18.3778 186.64H50.8359Z" stroke="black" stroke-width="1.432" stroke-miterlimit="10" stroke-linecap="round" stroke-linejoin="round"/>
<path d="M25.3203 161.129L25.3203 147.238H11.4294L11.4294 161.129H25.3203Z" fill="#36BFFA"/>
<path d="M52.7059 47.9935C53.325 48.6126 53.325 49.6159 52.7059 50.2351C52.0868 50.8542 51.0834 50.8542 50.4643 50.2351C49.8452 49.6159 49.8452 48.6126 50.4643 47.9935C51.0834 47.3744 52.0868 47.3744 52.7059 47.9935Z" fill="black"/>
<path d="M57.2527 43.4428C57.8718 44.0619 57.8718 45.0653 57.2527 45.6844C56.6336 46.3035 55.6303 46.3035 55.0112 45.6844C54.3921 45.0653 54.3921 44.0619 55.0112 43.4428C55.6303 42.8237 56.6336 42.8237 57.2527 43.4428Z" fill="black"/>
<path d="M61.7995 38.8979C62.4186 39.517 62.4186 40.5204 61.7995 41.1395C61.1804 41.7586 60.1771 41.7586 59.558 41.1395C58.9389 40.5204 58.9389 39.517 59.558 38.8979C60.1766 38.2788 61.1804 38.2788 61.7995 38.8979Z" fill="black"/>
<path d="M66.3502 34.3492C66.9693 34.9683 66.9693 35.9716 66.3502 36.5907C65.7311 37.2098 64.7277 37.2098 64.1086 36.5907C63.4895 35.9716 63.4895 34.9683 64.1086 34.3492C64.7277 33.7301 65.7311 33.7301 66.3502 34.3492Z" fill="black"/>
<path d="M69.9371 29.3518C69.4808 29.3065 69.0087 29.4511 68.6593 29.801C68.0402 30.4201 68.0402 31.4235 68.6593 32.0426C69.0092 32.392 69.4808 32.5371 69.9371 32.4917V29.3518Z" fill="black"/>
</svg>
