<svg width="332" height="155" viewBox="0 0 332 155" fill="none" xmlns="http://www.w3.org/2000/svg">
<g clip-path="url(#clip0_1899_43619)">
<path d="M-83.9378 208.092H326.186C331.282 208.092 335.39 203.984 335.39 198.888V7.42366C305.958 2.17166 287.602 29.0557 270.026 56.7716C250.266 87.9716 224.266 83.8116 190.986 77.5716C157.706 71.3316 148.346 113.972 120.266 131.652C92.1862 149.332 80.7462 122.292 40.1862 139.972C-0.37384 157.652 -6.61384 165.972 -45.0938 143.092C-66.2058 130.56 -82.5858 136.436 -93.0898 144.34V198.888C-93.0898 203.984 -88.9818 208.092 -83.9378 208.092Z" fill="url(#paint0_linear_1899_43619)"/>
<g filter="url(#filter0_d_1899_43619)">
<path d="M-6.91341 160.58C-17.2094 160.58 -28.2334 156.472 -45.2374 146.332C-65.6214 134.216 -81.3774 140.248 -90.9454 147.476L-93.4414 144.148C-82.8334 136.192 -65.5174 129.484 -43.1574 142.796C-10.1894 162.348 -2.2854 158.76 27.0426 145.448C30.9426 143.68 35.3626 141.652 40.2506 139.52C61.6746 130.212 75.1946 132.968 87.1026 135.412C97.8146 137.648 107.071 139.52 120.071 131.356C130.471 124.804 138.271 114.664 145.811 104.836C158.499 88.4039 170.407 72.9079 192.247 77.0159C227.919 83.6719 250.695 86.2719 269.155 57.1519C284.963 32.1919 304.619 1.0959 336.651 6.8679L335.923 10.9759C308.883 6.08789 291.255 30.0079 272.691 59.3359C251.787 92.4079 223.811 87.1559 191.519 81.0719C172.175 77.4319 161.515 91.3159 149.139 107.384C141.339 117.472 133.279 127.924 122.255 134.892C107.903 143.94 97.3986 141.808 86.2706 139.52C74.9346 137.18 62.0906 134.528 41.9146 143.368C37.0786 145.448 32.6586 147.476 28.7586 149.244C13.7306 156.056 3.8506 160.58 -6.91341 160.58Z" fill="white"/>
</g>
<path d="M333.415 41.6016C333.345 41.6016 333.276 41.6016 333.207 41.6016C322.391 41.6016 313.551 50.3896 313.551 61.2576C313.551 72.0736 322.391 80.9136 333.207 80.9136C333.276 80.8789 333.345 80.8616 333.415 80.8616V41.6016Z" fill="#EEC84A"/>
<path d="M333.415 41.6016C333.346 41.6016 333.276 41.6016 333.207 41.6016C329.723 41.6016 326.447 42.4856 323.587 44.0976C322.287 44.8256 322.807 46.7496 324.263 46.7496C324.505 46.7496 324.748 46.6976 324.991 46.5936C327.435 45.1896 330.243 44.4096 333.207 44.4096C333.276 44.4096 333.346 44.4096 333.415 44.4096V41.6016Z" fill="#F7EEA3"/>
<path d="M333.418 47.1172C333.349 47.1172 333.279 47.1172 333.21 47.1172C326.97 47.1172 321.666 51.2252 319.794 56.8932C319.534 57.7252 320.158 58.6092 321.042 58.6092C321.614 58.6092 322.082 58.1932 322.29 57.6732C323.798 53.0452 328.114 49.7172 333.21 49.7172C333.279 49.7172 333.349 49.7172 333.418 49.7172V47.1172Z" fill="#E28D3B"/>
<path d="M333.417 75.145C333.348 75.145 333.278 75.145 333.209 75.145C328.529 75.145 324.421 72.857 321.873 69.321C321.353 68.541 320.469 68.125 319.533 68.125C317.193 68.125 315.789 70.777 317.193 72.649C320.729 77.693 326.605 80.969 333.209 80.969C333.278 80.969 333.348 80.969 333.417 80.969V75.145Z" fill="#E8AE47"/>
<path d="M333.415 49.7109C333.346 49.7109 333.276 49.7109 333.207 49.7109C326.863 49.7109 321.715 54.8589 321.715 61.2549C321.715 63.3869 322.287 65.3629 323.327 67.0789L333.415 56.9909V49.7109Z" fill="#E8AE47"/>
<path d="M333.418 65.6797L327.75 71.3477C329.362 72.2317 331.234 72.7517 333.21 72.7517C333.279 72.7517 333.349 72.7517 333.418 72.7517V65.6797Z" fill="#F7EEA3"/>
<path d="M249.488 55.3297C249.488 60.6337 245.172 64.8977 239.92 64.8977C234.616 64.8977 230.352 60.6337 230.352 55.3297C230.352 50.0777 234.616 45.7617 239.92 45.7617C245.172 45.7617 249.488 50.0777 249.488 55.3297Z" fill="#EEC84A"/>
<path d="M235.551 48.3097C235.655 48.3097 235.759 48.2751 235.863 48.2057C237.059 47.5297 238.463 47.1657 239.919 47.1657C241.375 47.1657 242.727 47.5297 243.923 48.2057C244.027 48.2751 244.131 48.3097 244.235 48.3097C244.963 48.3097 245.223 47.3737 244.599 47.0097C243.195 46.2297 241.583 45.7617 239.919 45.7617C238.203 45.7617 236.591 46.2297 235.187 47.0097C234.563 47.3737 234.823 48.3097 235.551 48.3097Z" fill="#F7EEA3"/>
<path d="M239.921 49.7167C242.365 49.7167 244.497 51.3807 245.225 53.6167C245.329 53.8767 245.537 54.0327 245.849 54.0327C246.265 54.0327 246.577 53.6168 246.421 53.2008C245.537 50.4448 242.937 48.4688 239.921 48.4688C236.853 48.4688 234.253 50.4448 233.369 53.2008C233.213 53.6168 233.525 54.0327 233.993 54.0327C234.253 54.0327 234.461 53.8767 234.565 53.6167C235.293 51.3807 237.425 49.7167 239.921 49.7167Z" fill="#E28D3B"/>
<path d="M246.574 58.6562C246.106 58.6562 245.69 58.9162 245.43 59.2802C244.182 60.9962 242.154 62.0882 239.918 62.0882C237.63 62.0882 235.602 60.9962 234.354 59.2802C234.094 58.9162 233.678 58.6562 233.262 58.6562C232.118 58.6562 231.442 59.9562 232.066 60.8922C233.834 63.3362 236.694 64.9482 239.918 64.9482C243.142 64.9482 245.95 63.3362 247.718 60.8922C248.394 59.9562 247.718 58.6562 246.574 58.6562Z" fill="#E8AE47"/>
<path d="M242.733 50.4988C241.901 50.0308 240.965 49.7188 239.925 49.7188C236.805 49.7188 234.309 52.2667 234.309 55.3347C234.309 56.3747 234.569 57.3627 235.089 58.1947L242.733 50.4988Z" fill="#E8AE47"/>
<path d="M237.219 60.2717C237.999 60.6877 238.935 60.9477 239.923 60.9477C242.991 60.9477 245.487 58.4517 245.487 55.3317C245.487 54.3437 245.279 53.4597 244.811 52.6797L237.219 60.2717Z" fill="#F7EEA3"/>
<path d="M116.627 106.966C116.627 110.034 114.183 112.478 111.115 112.478C108.047 112.478 105.551 110.034 105.551 106.966C105.551 103.898 108.047 101.402 111.115 101.402C114.183 101.402 116.627 103.898 116.627 106.966Z" fill="#EEC84A"/>
<path d="M108.566 102.858C108.635 102.858 108.705 102.841 108.774 102.806C109.45 102.442 110.282 102.234 111.114 102.234C111.946 102.234 112.726 102.442 113.454 102.806C113.489 102.841 113.541 102.858 113.61 102.858C114.026 102.858 114.182 102.338 113.818 102.13C113.038 101.662 112.102 101.402 111.114 101.402C110.126 101.402 109.19 101.662 108.41 102.13C108.046 102.338 108.15 102.858 108.566 102.858Z" fill="#F7EEA3"/>
<path d="M111.118 103.689C112.574 103.689 113.77 104.625 114.186 105.925C114.238 106.081 114.394 106.185 114.55 106.185C114.81 106.185 114.966 105.977 114.914 105.717C114.394 104.157 112.886 102.961 111.118 102.961C109.35 102.961 107.842 104.157 107.322 105.717C107.27 105.977 107.426 106.185 107.686 106.185C107.842 106.185 107.998 106.081 108.05 105.925C108.466 104.625 109.662 103.689 111.118 103.689Z" fill="#E28D3B"/>
<path d="M114.965 108.891C114.705 108.891 114.445 108.995 114.289 109.255C113.613 110.243 112.417 110.867 111.117 110.867C109.817 110.867 108.621 110.243 107.893 109.255C107.789 108.995 107.529 108.891 107.269 108.891C106.593 108.891 106.229 109.619 106.593 110.191C107.581 111.595 109.245 112.531 111.117 112.531C112.989 112.531 114.601 111.595 115.641 110.191C116.005 109.619 115.641 108.891 114.965 108.891Z" fill="#E8AE47"/>
<path d="M112.779 104.163C112.259 103.903 111.687 103.695 111.115 103.695C109.295 103.695 107.891 105.151 107.891 106.971C107.891 107.543 108.047 108.115 108.307 108.583L112.779 104.163Z" fill="#E8AE47"/>
<path d="M109.555 109.826C110.023 110.034 110.543 110.19 111.115 110.19C112.883 110.19 114.339 108.734 114.339 106.966C114.339 106.394 114.183 105.874 113.975 105.406L109.555 109.826Z" fill="#F7EEA3"/>
<path d="M236.748 105.875C236.748 108.943 234.304 111.387 231.236 111.387C228.168 111.387 225.672 108.943 225.672 105.875C225.672 102.807 228.168 100.363 231.236 100.363C234.304 100.363 236.748 102.807 236.748 105.875Z" fill="#EEC84A"/>
<path d="M228.687 101.819C228.756 101.819 228.826 101.802 228.895 101.767C229.571 101.351 230.403 101.143 231.235 101.143C232.067 101.143 232.847 101.351 233.523 101.767C233.592 101.802 233.662 101.819 233.731 101.819C234.147 101.819 234.303 101.247 233.939 101.039C233.159 100.623 232.223 100.363 231.235 100.363C230.247 100.363 229.311 100.623 228.531 101.039C228.167 101.247 228.271 101.819 228.687 101.819Z" fill="#F7EEA3"/>
<path d="M231.236 102.654C232.64 102.654 233.888 103.59 234.304 104.89C234.356 105.046 234.512 105.15 234.668 105.15C234.928 105.15 235.084 104.89 234.98 104.63C234.46 103.07 233.004 101.926 231.236 101.926C229.468 101.926 227.96 103.07 227.44 104.63C227.388 104.89 227.544 105.15 227.804 105.15C227.96 105.15 228.116 105.046 228.168 104.89C228.584 103.59 229.78 102.654 231.236 102.654Z" fill="#E28D3B"/>
<path d="M235.085 107.801C234.825 107.801 234.565 107.957 234.409 108.165C233.733 109.153 232.537 109.777 231.237 109.777C229.885 109.777 228.741 109.153 228.013 108.165C227.857 107.957 227.649 107.801 227.389 107.801C226.713 107.801 226.297 108.581 226.713 109.101C227.701 110.505 229.365 111.441 231.237 111.441C233.109 111.441 234.721 110.505 235.761 109.101C236.125 108.581 235.761 107.801 235.085 107.801Z" fill="#E8AE47"/>
<path d="M232.845 103.064C232.377 102.804 231.805 102.648 231.233 102.648C229.413 102.648 227.957 104.104 227.957 105.872C227.957 106.496 228.165 107.016 228.425 107.536L232.845 103.064Z" fill="#E8AE47"/>
<path d="M229.676 108.733C230.144 108.992 230.664 109.096 231.236 109.096C233.004 109.096 234.46 107.692 234.46 105.872C234.46 105.3 234.304 104.78 234.096 104.312L229.676 108.733Z" fill="#F7EEA3"/>
<path d="M162.908 138.637C162.908 141.705 160.464 144.149 157.396 144.149C154.328 144.149 151.832 141.705 151.832 138.637C151.832 135.569 154.328 133.125 157.396 133.125C160.464 133.125 162.908 135.569 162.908 138.637Z" fill="#EEC84A"/>
<path d="M154.847 134.581C154.917 134.581 154.986 134.564 155.055 134.529C155.731 134.113 156.563 133.905 157.395 133.905C158.227 133.905 159.007 134.113 159.683 134.529C159.753 134.564 159.822 134.581 159.891 134.581C160.307 134.581 160.463 134.009 160.099 133.801C159.319 133.385 158.383 133.125 157.395 133.125C156.407 133.125 155.471 133.385 154.691 133.801C154.327 134.009 154.431 134.581 154.847 134.581Z" fill="#F7EEA3"/>
<path d="M157.396 135.412C158.8 135.412 160.048 136.348 160.464 137.648C160.516 137.804 160.672 137.908 160.828 137.908C161.088 137.908 161.244 137.648 161.14 137.388C160.62 135.828 159.164 134.684 157.396 134.684C155.628 134.684 154.12 135.828 153.6 137.388C153.548 137.648 153.704 137.908 153.964 137.908C154.12 137.908 154.276 137.804 154.328 137.648C154.744 136.348 155.94 135.412 157.396 135.412Z" fill="#E28D3B"/>
<path d="M161.245 140.562C160.985 140.562 160.725 140.719 160.569 140.927C159.893 141.915 158.697 142.539 157.397 142.539C156.045 142.539 154.901 141.915 154.173 140.927C154.017 140.719 153.809 140.562 153.549 140.562C152.873 140.562 152.457 141.342 152.873 141.862C153.861 143.266 155.525 144.202 157.397 144.202C159.269 144.202 160.881 143.266 161.921 141.862C162.285 141.342 161.921 140.562 161.245 140.562Z" fill="#E8AE47"/>
<path d="M159.009 135.826C158.541 135.566 157.969 135.41 157.397 135.41C155.577 135.41 154.121 136.866 154.121 138.634C154.121 139.258 154.329 139.778 154.589 140.298L159.009 135.826Z" fill="#E8AE47"/>
<path d="M155.836 141.498C156.304 141.758 156.824 141.862 157.396 141.862C159.164 141.862 160.62 140.458 160.62 138.638C160.62 138.066 160.464 137.546 160.256 137.078L155.836 141.498Z" fill="#F7EEA3"/>
<path d="M79.7615 150.334C79.7615 151.946 78.4615 153.246 76.8495 153.246C75.2375 153.246 73.9375 151.946 73.9375 150.334C73.9375 148.722 75.2375 147.422 76.8495 147.422C78.4615 147.422 79.7615 148.722 79.7615 150.334Z" fill="#EEC84A"/>
<path d="M75.4955 148.202C75.5302 148.202 75.5648 148.185 75.5995 148.15C75.9635 147.942 76.3795 147.838 76.8475 147.838C77.2635 147.838 77.6795 147.942 78.0435 148.15C78.0782 148.185 78.1128 148.202 78.1475 148.202C78.4075 148.202 78.4595 147.89 78.2515 147.786C77.8355 147.578 77.3675 147.422 76.8475 147.422C76.3275 147.422 75.8075 147.578 75.3915 147.786C75.2355 147.89 75.2875 148.202 75.4955 148.202Z" fill="#F7EEA3"/>
<path d="M76.8483 148.622C77.5763 148.622 78.2523 149.142 78.4603 149.818C78.5123 149.922 78.5643 149.974 78.6683 149.974C78.7723 149.974 78.8763 149.818 78.8243 149.714C78.5643 148.882 77.7843 148.258 76.8483 148.258C75.9123 148.258 75.1323 148.882 74.8203 149.714C74.8203 149.818 74.8723 149.974 75.0283 149.974C75.1323 149.974 75.1843 149.922 75.2363 149.818C75.4443 149.142 76.0683 148.622 76.8483 148.622Z" fill="#E28D3B"/>
<path d="M78.8776 151.375C78.7216 151.375 78.6176 151.427 78.5136 151.531C78.1496 152.051 77.5256 152.415 76.8496 152.415C76.1216 152.415 75.5496 152.051 75.1336 151.531C75.0816 151.427 74.9256 151.375 74.8216 151.375C74.4576 151.375 74.2496 151.739 74.4576 152.051C74.9776 152.779 75.8616 153.299 76.8496 153.299C77.8376 153.299 78.6696 152.779 79.2416 152.051C79.4496 151.739 79.2416 151.375 78.8776 151.375Z" fill="#E8AE47"/>
<path d="M77.6808 148.881C77.4381 148.708 77.1608 148.621 76.8488 148.621C75.9128 148.621 75.1328 149.401 75.1328 150.337C75.1328 150.684 75.2021 150.978 75.3408 151.221L77.6808 148.881Z" fill="#E8AE47"/>
<path d="M76.0156 151.843C76.2583 151.981 76.5356 152.051 76.8476 152.051C77.7836 152.051 78.5636 151.271 78.5636 150.335C78.5636 150.057 78.4943 149.797 78.3556 149.555L76.0156 151.843Z" fill="#F7EEA3"/>
<path d="M226.713 131.302C226.713 142.69 217.509 151.894 206.173 151.894C194.837 151.894 185.633 142.69 185.633 131.302C185.633 119.966 194.837 110.762 206.173 110.762C217.509 110.762 226.713 119.966 226.713 131.302Z" fill="url(#paint1_radial_1899_43619)" style="mix-blend-mode:color-dodge"/>
<path d="M270.135 101.534C270.135 106.509 266.115 110.529 261.163 110.529C256.212 110.529 252.191 106.509 252.191 101.534C252.191 96.5828 256.212 92.5625 261.163 92.5625C266.115 92.5625 270.135 96.5828 270.135 101.534Z" fill="url(#paint2_radial_1899_43619)" style="mix-blend-mode:exclusion"/>
<path fill-rule="evenodd" clip-rule="evenodd" d="M252.004 119.891C252.004 107.648 260.008 97.1594 276.417 95.0763V82.2852H286.796V94.857C294.58 95.5514 302.145 97.8538 307.846 101.91L302.657 116.09C297.358 112.728 291.985 110.755 286.796 110.097V129.685C298.308 132.682 310.953 136.958 310.953 153.221C310.953 154.269 310.892 155.317 310.77 156.364H294.068C294.19 155.804 294.251 155.207 294.251 154.573C294.251 150.553 291.254 148.361 286.796 146.643V156.364H276.417V143.756C264.905 140.649 252.004 136.373 252.004 119.891ZM268.742 118.941C268.742 122.998 271.848 125.19 276.417 126.798V110.426C270.898 111.814 268.742 115.14 268.742 118.941Z" fill="url(#paint3_linear_1899_43619)"/>
<path d="M255.66 156.363H258.328C257.597 155.876 256.915 155.364 256.281 154.828L255.66 156.363Z" fill="url(#paint4_linear_1899_43619)"/>
<path d="M213.61 82.3213C213.61 92.7733 205.134 101.249 194.682 101.249C184.23 101.249 175.754 92.7733 175.754 82.3213C175.754 71.8693 184.23 63.4453 194.682 63.4453C205.134 63.4453 213.61 71.8693 213.61 82.3213Z" fill="url(#paint5_linear_1899_43619)"/>
<path d="M190.938 90.6919L185.218 85.0239C184.958 84.7639 184.958 84.2959 185.218 84.0359L187.766 81.5399C188.026 81.2799 188.442 81.2799 188.702 81.5399L190.938 83.7239C191.198 84.0359 191.614 84.0359 191.874 83.7239L201.442 74.1559C201.754 73.8959 202.17 73.8959 202.43 74.1559L204.926 76.7039C205.186 76.9639 205.186 77.3799 204.926 77.6399L191.874 90.6919C191.614 90.9519 191.198 90.9519 190.938 90.6919Z" fill="#FCFCFD"/>
<path d="M185.803 43.004C185.803 45.2118 184.044 46.9706 181.836 46.9706C179.628 46.9706 177.832 45.2118 177.832 43.004C177.832 40.7962 179.628 39 181.836 39C184.044 39 185.803 40.7962 185.803 43.004Z" fill="#EEC84A"/>
<path d="M179.999 40.0478C180.049 40.0478 180.099 40.0353 180.149 40.0104C180.635 39.7484 181.234 39.5987 181.833 39.5987C182.431 39.5987 182.993 39.7484 183.516 40.0104C183.541 40.0353 183.579 40.0478 183.629 40.0478C183.928 40.0478 184.04 39.6736 183.778 39.5239C183.217 39.1871 182.544 39 181.833 39C181.122 39 180.448 39.1871 179.887 39.5239C179.625 39.6736 179.7 40.0478 179.999 40.0478Z" fill="#F7EEA3"/>
<path d="M181.837 40.645C182.884 40.645 183.745 41.3186 184.044 42.2541C184.082 42.3663 184.194 42.4412 184.306 42.4412C184.493 42.4412 184.606 42.2915 184.568 42.1044C184.194 40.9818 183.109 40.1211 181.837 40.1211C180.564 40.1211 179.479 40.9818 179.105 42.1044C179.067 42.2915 179.18 42.4412 179.367 42.4412C179.479 42.4412 179.591 42.3663 179.629 42.2541C179.928 41.3186 180.789 40.645 181.837 40.645Z" fill="#E28D3B"/>
<path d="M184.605 44.3867C184.418 44.3867 184.231 44.4616 184.118 44.6487C183.632 45.3597 182.771 45.8087 181.836 45.8087C180.9 45.8087 180.039 45.3597 179.516 44.6487C179.441 44.4616 179.254 44.3867 179.067 44.3867C178.58 44.3867 178.318 44.9106 178.58 45.3222C179.291 46.3326 180.489 47.0062 181.836 47.0062C183.183 47.0062 184.343 46.3326 185.091 45.3222C185.353 44.9106 185.091 44.3867 184.605 44.3867Z" fill="#E8AE47"/>
<path d="M183.037 40.9852C182.663 40.7981 182.251 40.6484 181.84 40.6484C180.53 40.6484 179.52 41.6962 179.52 43.0059C179.52 43.4176 179.632 43.8292 179.819 44.166L183.037 40.9852Z" fill="#E8AE47"/>
<path d="M180.711 45.0636C181.048 45.2132 181.422 45.3255 181.834 45.3255C183.106 45.3255 184.154 44.2777 184.154 43.0054C184.154 42.5938 184.041 42.2196 183.892 41.8828L180.711 45.0636Z" fill="#F7EEA3"/>
</g>
<defs>
<filter id="filter0_d_1899_43619" x="-101.761" y="-0.0720325" width="446.734" height="171.05" filterUnits="userSpaceOnUse" color-interpolation-filters="sRGB">
<feFlood flood-opacity="0" result="BackgroundImageFix"/>
<feColorMatrix in="SourceAlpha" type="matrix" values="0 0 0 0 0 0 0 0 0 0 0 0 0 0 0 0 0 0 127 0" result="hardAlpha"/>
<feOffset dy="2.08"/>
<feGaussianBlur stdDeviation="4.16"/>
<feComposite in2="hardAlpha" operator="out"/>
<feColorMatrix type="matrix" values="0 0 0 0 0 0 0 0 0 0 0 0 0 0 0 0 0 0 0.25 0"/>
<feBlend mode="normal" in2="BackgroundImageFix" result="effect1_dropShadow_1899_43619"/>
<feBlend mode="normal" in="SourceGraphic" in2="effect1_dropShadow_1899_43619" result="shape"/>
</filter>
<linearGradient id="paint0_linear_1899_43619" x1="73.8411" y1="326.821" x2="73.8411" y2="190.586" gradientUnits="userSpaceOnUse">
<stop stop-color="#002266"/>
<stop offset="1" stop-color="#004EEB"/>
</linearGradient>
<radialGradient id="paint1_radial_1899_43619" cx="0" cy="0" r="1" gradientUnits="userSpaceOnUse" gradientTransform="translate(206.175 131.32) rotate(0.674551) scale(20.5393 20.5393)">
<stop stop-color="#06D001"/>
<stop offset="1" stop-opacity="0.96"/>
</radialGradient>
<radialGradient id="paint2_radial_1899_43619" cx="0" cy="0" r="1" gradientUnits="userSpaceOnUse" gradientTransform="translate(261.164 101.542) rotate(0.674551) scale(8.97156 8.97156)">
<stop stop-color="#FF2D58"/>
<stop offset="1" stop-opacity="0.96"/>
</radialGradient>
<linearGradient id="paint3_linear_1899_43619" x1="328.032" y1="20.0471" x2="328.032" y2="194.549" gradientUnits="userSpaceOnUse">
<stop stop-color="#004EEB"/>
<stop offset="1" stop-color="#002266"/>
</linearGradient>
<linearGradient id="paint4_linear_1899_43619" x1="257.43" y1="154.82" x2="257.43" y2="156.363" gradientUnits="userSpaceOnUse">
<stop stop-color="#0040C1"/>
<stop offset="1" stop-color="#002266"/>
</linearGradient>
<linearGradient id="paint5_linear_1899_43619" x1="163.839" y1="75.358" x2="191.645" y2="47.5526" gradientUnits="userSpaceOnUse">
<stop stop-color="#2970FF"/>
<stop offset="1" stop-color="#41EAD4"/>
</linearGradient>
<clipPath id="clip0_1899_43619">
<rect width="332.8" height="156" fill="white"/>
</clipPath>
</defs>
</svg>
