<svg width="640" height="300" viewBox="0 0 640 300" fill="none" xmlns="http://www.w3.org/2000/svg">
    <g clip-path="url(#clip0_9715_37863)">
        <path d="M-161.4 400.173H627.3C637.1 400.173 645 392.273 645 382.473V14.273C588.4 4.17297 553.1 55.873 519.3 109.173C481.3 169.173 431.3 161.173 367.3 149.173C303.3 137.173 285.3 219.173 231.3 253.173C177.3 287.173 155.3 235.173 77.3 269.173C-0.700012 303.173 -12.7 319.173 -86.7 275.173C-127.3 251.073 -158.8 262.373 -179 277.573V382.473C-179 392.273 -171.1 400.173 -161.4 400.173Z" fill="url(#paint0_linear_9715_37863)"/>
        <g filter="url(#filter0_d_9715_37863)">
            <path d="M-13.2797 308.801C-33.0797 308.801 -54.2797 300.901 -86.9797 281.401C-126.18 258.101 -156.48 269.701 -174.88 283.601L-179.68 277.201C-159.28 261.901 -125.98 249.001 -82.9797 274.601C-19.5797 312.201 -4.3797 305.301 52.0203 279.701C59.5203 276.301 68.0203 272.401 77.4203 268.301C118.62 250.401 144.62 255.701 167.52 260.401C188.12 264.701 205.92 268.301 230.92 252.601C250.92 240.001 265.92 220.501 280.42 201.601C304.82 170.001 327.72 140.201 369.72 148.101C438.32 160.901 482.12 165.901 517.62 109.901C548.02 61.9015 585.82 2.10148 647.42 13.2015L646.02 21.1015C594.02 11.7015 560.12 57.7015 524.42 114.101C484.22 177.701 430.42 167.601 368.32 155.901C331.12 148.901 310.62 175.601 286.82 206.501C271.82 225.901 256.32 246.001 235.12 259.401C207.52 276.801 187.32 272.701 165.92 268.301C144.12 263.801 119.42 258.701 80.6203 275.701C71.3203 279.701 62.8203 283.601 55.3203 287.001C26.4203 300.101 7.4203 308.801 -13.2797 308.801Z" fill="white"/>
        </g>
        <path d="M641.2 80C641.067 80 640.933 80 640.8 80C620 80 603 96.9 603 117.8C603 138.6 620 155.6 640.8 155.6C640.933 155.533 641.067 155.5 641.2 155.5V80Z" fill="#EEC84A"/>
        <path d="M641.2 80C641.067 80 640.933 80 640.8 80C634.1 80 627.8 81.7 622.3 84.8C619.8 86.2 620.8 89.9 623.6 89.9C624.067 89.9 624.533 89.8 625 89.6C629.7 86.9 635.1 85.4 640.8 85.4C640.933 85.4 641.067 85.4 641.2 85.4V80Z" fill="#F7EEA3"/>
        <path d="M641.2 90.6C641.067 90.6 640.933 90.6 640.8 90.6C628.8 90.6 618.6 98.5 615 109.4C614.5 111 615.7 112.7 617.4 112.7C618.5 112.7 619.4 111.9 619.8 110.9C622.7 102 631 95.6 640.8 95.6C640.933 95.6 641.067 95.6 641.2 95.6V90.6Z" fill="#E28D3B"/>
        <path d="M641.2 144.5C641.067 144.5 640.933 144.5 640.8 144.5C631.8 144.5 623.9 140.1 619 133.3C618 131.8 616.3 131 614.5 131C610 131 607.3 136.1 610 139.7C616.8 149.4 628.1 155.7 640.8 155.7C640.933 155.7 641.067 155.7 641.2 155.7V144.5Z" fill="#E8AE47"/>
        <path d="M641.2 95.6C641.067 95.6 640.933 95.6 640.8 95.6C628.6 95.6 618.7 105.5 618.7 117.8C618.7 121.9 619.8 125.7 621.8 129L641.2 109.6V95.6Z" fill="#E8AE47"/>
        <path d="M641.2 126.3L630.3 137.2C633.4 138.9 637 139.9 640.8 139.9C640.933 139.9 641.067 139.9 641.2 139.9V126.3Z" fill="#F7EEA3"/>
        <path d="M479.8 106.4C479.8 116.6 471.5 124.8 461.4 124.8C451.2 124.8 443 116.6 443 106.4C443 96.3 451.2 88 461.4 88C471.5 88 479.8 96.3 479.8 106.4Z" fill="#EEC84A"/>
        <path d="M453.001 92.9C453.201 92.9 453.401 92.8333 453.601 92.7C455.901 91.4 458.601 90.7 461.401 90.7C464.201 90.7 466.801 91.4 469.101 92.7C469.301 92.8333 469.501 92.9 469.701 92.9C471.101 92.9 471.601 91.1 470.401 90.4C467.701 88.9 464.601 88 461.401 88C458.101 88 455.001 88.9 452.301 90.4C451.101 91.1 451.601 92.9 453.001 92.9Z" fill="#F7EEA3"/>
        <path d="M461.401 95.5992C466.101 95.5992 470.201 98.7992 471.601 103.099C471.801 103.599 472.201 103.899 472.801 103.899C473.601 103.899 474.201 103.099 473.901 102.299C472.201 96.9992 467.201 93.1992 461.401 93.1992C455.501 93.1992 450.501 96.9992 448.801 102.299C448.501 103.099 449.101 103.899 450.001 103.899C450.501 103.899 450.901 103.599 451.101 103.099C452.501 98.7992 456.601 95.5992 461.401 95.5992Z" fill="#E28D3B"/>
        <path d="M474.201 112.801C473.301 112.801 472.501 113.301 472.001 114.001C469.601 117.301 465.701 119.401 461.401 119.401C457.001 119.401 453.101 117.301 450.701 114.001C450.201 113.301 449.401 112.801 448.601 112.801C446.401 112.801 445.101 115.301 446.301 117.101C449.701 121.801 455.201 124.901 461.401 124.901C467.601 124.901 473.001 121.801 476.401 117.101C477.701 115.301 476.401 112.801 474.201 112.801Z" fill="#E8AE47"/>
        <path d="M466.802 97.1016C465.202 96.2016 463.402 95.6016 461.402 95.6016C455.402 95.6016 450.602 100.502 450.602 106.402C450.602 108.402 451.102 110.302 452.102 111.902L466.802 97.1016Z" fill="#E8AE47"/>
        <path d="M456.199 115.901C457.699 116.701 459.499 117.201 461.399 117.201C467.299 117.201 472.099 112.401 472.099 106.401C472.099 104.501 471.699 102.801 470.799 101.301L456.199 115.901Z" fill="#F7EEA3"/>
        <path d="M224.3 205.7C224.3 211.6 219.6 216.3 213.7 216.3C207.8 216.3 203 211.6 203 205.7C203 199.8 207.8 195 213.7 195C219.6 195 224.3 199.8 224.3 205.7Z" fill="#EEC84A"/>
        <path d="M208.8 197.8C208.933 197.8 209.067 197.767 209.2 197.7C210.5 197 212.1 196.6 213.7 196.6C215.3 196.6 216.8 197 218.2 197.7C218.267 197.767 218.367 197.8 218.5 197.8C219.3 197.8 219.6 196.8 218.9 196.4C217.4 195.5 215.6 195 213.7 195C211.8 195 210 195.5 208.5 196.4C207.8 196.8 208 197.8 208.8 197.8Z" fill="#F7EEA3"/>
        <path d="M213.7 199.4C216.5 199.4 218.8 201.2 219.6 203.7C219.7 204 220 204.2 220.3 204.2C220.8 204.2 221.1 203.8 221 203.3C220 200.3 217.1 198 213.7 198C210.3 198 207.4 200.3 206.4 203.3C206.3 203.8 206.6 204.2 207.1 204.2C207.4 204.2 207.7 204 207.8 203.7C208.6 201.2 210.9 199.4 213.7 199.4Z" fill="#E28D3B"/>
        <path d="M221.1 209.4C220.6 209.4 220.1 209.6 219.8 210.1C218.5 212 216.2 213.2 213.7 213.2C211.2 213.2 208.9 212 207.5 210.1C207.3 209.6 206.8 209.4 206.3 209.4C205 209.4 204.3 210.8 205 211.9C206.9 214.6 210.1 216.4 213.7 216.4C217.3 216.4 220.4 214.6 222.4 211.9C223.1 210.8 222.4 209.4 221.1 209.4Z" fill="#E8AE47"/>
        <path d="M216.9 200.3C215.9 199.8 214.8 199.4 213.7 199.4C210.2 199.4 207.5 202.2 207.5 205.7C207.5 206.8 207.8 207.9 208.3 208.8L216.9 200.3Z" fill="#E8AE47"/>
        <path d="M210.7 211.2C211.6 211.6 212.6 211.9 213.7 211.9C217.1 211.9 219.9 209.1 219.9 205.7C219.9 204.6 219.6 203.6 219.2 202.7L210.7 211.2Z" fill="#F7EEA3"/>
        <path d="M455.3 203.6C455.3 209.5 450.6 214.2 444.7 214.2C438.8 214.2 434 209.5 434 203.6C434 197.7 438.8 193 444.7 193C450.6 193 455.3 197.7 455.3 203.6Z" fill="#EEC84A"/>
        <path d="M439.8 195.8C439.933 195.8 440.067 195.767 440.2 195.7C441.5 194.9 443.1 194.5 444.7 194.5C446.3 194.5 447.8 194.9 449.1 195.7C449.233 195.767 449.367 195.8 449.5 195.8C450.3 195.8 450.6 194.7 449.9 194.3C448.4 193.5 446.6 193 444.7 193C442.8 193 441 193.5 439.5 194.3C438.8 194.7 439 195.8 439.8 195.8Z" fill="#F7EEA3"/>
        <path d="M444.7 197.4C447.4 197.4 449.8 199.2 450.6 201.7C450.7 202 451 202.2 451.3 202.2C451.8 202.2 452.1 201.7 451.9 201.2C450.9 198.2 448.1 196 444.7 196C441.3 196 438.4 198.2 437.4 201.2C437.3 201.7 437.6 202.2 438.1 202.2C438.4 202.2 438.7 202 438.8 201.7C439.6 199.2 441.9 197.4 444.7 197.4Z" fill="#E28D3B"/>
        <path d="M452.1 207.3C451.6 207.3 451.1 207.6 450.8 208C449.5 209.9 447.2 211.1 444.7 211.1C442.1 211.1 439.9 209.9 438.5 208C438.2 207.6 437.8 207.3 437.3 207.3C436 207.3 435.2 208.8 436 209.8C437.9 212.5 441.1 214.3 444.7 214.3C448.3 214.3 451.4 212.5 453.4 209.8C454.1 208.8 453.4 207.3 452.1 207.3Z" fill="#E8AE47"/>
        <path d="M447.8 198.2C446.9 197.7 445.8 197.4 444.7 197.4C441.2 197.4 438.4 200.2 438.4 203.6C438.4 204.8 438.8 205.8 439.3 206.8L447.8 198.2Z" fill="#E8AE47"/>
        <path d="M441.7 209.1C442.6 209.6 443.6 209.8 444.7 209.8C448.1 209.8 450.9 207.1 450.9 203.6C450.9 202.5 450.6 201.5 450.2 200.6L441.7 209.1Z" fill="#F7EEA3"/>
        <path d="M313.3 266.6C313.3 272.5 308.6 277.2 302.7 277.2C296.8 277.2 292 272.5 292 266.6C292 260.7 296.8 256 302.7 256C308.6 256 313.3 260.7 313.3 266.6Z" fill="#EEC84A"/>
        <path d="M297.8 258.8C297.933 258.8 298.067 258.767 298.2 258.7C299.5 257.9 301.1 257.5 302.7 257.5C304.3 257.5 305.8 257.9 307.1 258.7C307.233 258.767 307.367 258.8 307.5 258.8C308.3 258.8 308.6 257.7 307.9 257.3C306.4 256.5 304.6 256 302.7 256C300.8 256 299 256.5 297.5 257.3C296.8 257.7 297 258.8 297.8 258.8Z" fill="#F7EEA3"/>
        <path d="M302.7 260.4C305.4 260.4 307.8 262.2 308.6 264.7C308.7 265 309 265.2 309.3 265.2C309.8 265.2 310.1 264.7 309.9 264.2C308.9 261.2 306.1 259 302.7 259C299.3 259 296.4 261.2 295.4 264.2C295.3 264.7 295.6 265.2 296.1 265.2C296.4 265.2 296.7 265 296.8 264.7C297.6 262.2 299.9 260.4 302.7 260.4Z" fill="#E28D3B"/>
        <path d="M310.1 270.3C309.6 270.3 309.1 270.6 308.8 271C307.5 272.9 305.2 274.1 302.7 274.1C300.1 274.1 297.9 272.9 296.5 271C296.2 270.6 295.8 270.3 295.3 270.3C294 270.3 293.2 271.8 294 272.8C295.9 275.5 299.1 277.3 302.7 277.3C306.3 277.3 309.4 275.5 311.4 272.8C312.1 271.8 311.4 270.3 310.1 270.3Z" fill="#E8AE47"/>
        <path d="M305.8 261.2C304.9 260.7 303.8 260.4 302.7 260.4C299.2 260.4 296.4 263.2 296.4 266.6C296.4 267.8 296.8 268.8 297.3 269.8L305.8 261.2Z" fill="#E8AE47"/>
        <path d="M299.7 272.1C300.6 272.6 301.6 272.8 302.7 272.8C306.1 272.8 308.9 270.1 308.9 266.6C308.9 265.5 308.6 264.5 308.2 263.6L299.7 272.1Z" fill="#F7EEA3"/>
        <path d="M153.403 289.1C153.403 292.2 150.903 294.7 147.803 294.7C144.703 294.7 142.203 292.2 142.203 289.1C142.203 286 144.703 283.5 147.803 283.5C150.903 283.5 153.403 286 153.403 289.1Z" fill="#EEC84A"/>
        <path d="M145.203 285C145.27 285 145.336 284.967 145.403 284.9C146.103 284.5 146.903 284.3 147.803 284.3C148.603 284.3 149.403 284.5 150.103 284.9C150.17 284.967 150.236 285 150.303 285C150.803 285 150.903 284.4 150.503 284.2C149.703 283.8 148.803 283.5 147.803 283.5C146.803 283.5 145.803 283.8 145.003 284.2C144.703 284.4 144.803 285 145.203 285Z" fill="#F7EEA3"/>
        <path d="M147.803 285.8C149.203 285.8 150.503 286.8 150.903 288.1C151.003 288.3 151.103 288.4 151.303 288.4C151.503 288.4 151.703 288.1 151.603 287.9C151.103 286.3 149.603 285.1 147.803 285.1C146.003 285.1 144.503 286.3 143.903 287.9C143.903 288.1 144.003 288.4 144.303 288.4C144.503 288.4 144.603 288.3 144.703 288.1C145.103 286.8 146.303 285.8 147.803 285.8Z" fill="#E28D3B"/>
        <path d="M151.703 291.1C151.403 291.1 151.203 291.2 151.003 291.4C150.303 292.4 149.103 293.1 147.803 293.1C146.403 293.1 145.303 292.4 144.503 291.4C144.403 291.2 144.103 291.1 143.903 291.1C143.203 291.1 142.803 291.8 143.203 292.4C144.203 293.8 145.903 294.8 147.803 294.8C149.703 294.8 151.303 293.8 152.403 292.4C152.803 291.8 152.403 291.1 151.703 291.1Z" fill="#E8AE47"/>
        <path d="M149.403 286.3C148.937 285.967 148.403 285.8 147.803 285.8C146.003 285.8 144.503 287.3 144.503 289.1C144.503 289.767 144.637 290.333 144.903 290.8L149.403 286.3Z" fill="#E8AE47"/>
        <path d="M146.203 292C146.67 292.267 147.203 292.4 147.803 292.4C149.603 292.4 151.103 290.9 151.103 289.1C151.103 288.567 150.97 288.067 150.703 287.6L146.203 292Z" fill="#F7EEA3"/>
        <path d="M436 252.5C436 274.4 418.3 292.1 396.5 292.1C374.7 292.1 357 274.4 357 252.5C357 230.7 374.7 213 396.5 213C418.3 213 436 230.7 436 252.5Z" fill="url(#paint1_radial_9715_37863)" style="mix-blend-mode:color-dodge"/>
        <path d="M519.507 195.254C519.507 204.819 511.776 212.551 502.254 212.551C492.731 212.551 485 204.819 485 195.254C485 185.731 492.731 178 502.254 178C511.776 178 519.507 185.731 519.507 195.254Z" fill="url(#paint2_radial_9715_37863)" style="mix-blend-mode:exclusion"/>
        <path fill-rule="evenodd" clip-rule="evenodd" d="M484.637 230.557C484.637 207.013 500.028 186.843 531.584 182.837V158.238H551.544V182.415C566.514 183.75 581.062 188.178 592.026 195.979L582.046 223.248C571.855 216.782 561.524 212.987 551.544 211.722V249.393C573.683 255.156 598 263.379 598 294.654C598 296.669 597.883 298.683 597.649 300.698H565.53C565.764 299.62 565.882 298.472 565.882 297.254C565.882 289.523 560.119 285.306 551.544 282.003V300.698H531.584V276.451C509.446 270.477 484.637 262.254 484.637 230.557ZM516.825 228.73C516.825 236.531 522.799 240.748 531.584 243.841V212.355C520.972 215.025 516.825 221.421 516.825 228.73Z" fill="url(#paint3_linear_9715_37863)"/>
        <path d="M491.667 300.696H496.797C495.392 299.759 494.08 298.775 492.862 297.744L491.667 300.696Z" fill="url(#paint4_linear_9715_37863)"/>
        <path d="M410.8 158.3C410.8 178.4 394.5 194.7 374.4 194.7C354.3 194.7 338 178.4 338 158.3C338 138.2 354.3 122 374.4 122C394.5 122 410.8 138.2 410.8 158.3Z" fill="url(#paint5_linear_9715_37863)"/>
        <path d="M367.2 174.4L356.2 163.5C355.7 163 355.7 162.1 356.2 161.6L361.1 156.8C361.6 156.3 362.4 156.3 362.9 156.8L367.2 161C367.7 161.6 368.5 161.6 369 161L387.4 142.6C388 142.1 388.8 142.1 389.3 142.6L394.1 147.5C394.6 148 394.6 148.8 394.1 149.3L369 174.4C368.5 174.9 367.7 174.9 367.2 174.4Z" fill="#FCFCFD"/>
        <path d="M357.328 82.7C357.328 86.9458 353.946 90.328 349.7 90.328C345.454 90.328 342 86.9458 342 82.7C342 78.4542 345.454 75 349.7 75C353.946 75 357.328 78.4542 357.328 82.7Z" fill="#EEC84A"/>
        <path d="M346.173 77.0149C346.269 77.0149 346.364 76.991 346.46 76.943C347.396 76.4393 348.547 76.1514 349.699 76.1514C350.85 76.1514 351.93 76.4393 352.937 76.943C352.985 76.991 353.057 77.0149 353.153 77.0149C353.729 77.0149 353.945 76.2953 353.441 76.0075C352.361 75.3598 351.066 75 349.699 75C348.331 75 347.036 75.3598 345.957 76.0075C345.453 76.2953 345.597 77.0149 346.173 77.0149Z" fill="#F7EEA3"/>
        <path d="M349.701 78.1664C351.716 78.1664 353.371 79.4617 353.947 81.2608C354.019 81.4766 354.235 81.6206 354.451 81.6206C354.811 81.6206 355.027 81.3327 354.955 80.9729C354.235 78.814 352.148 77.1589 349.701 77.1589C347.255 77.1589 345.168 78.814 344.448 80.9729C344.376 81.3327 344.592 81.6206 344.952 81.6206C345.168 81.6206 345.384 81.4766 345.456 81.2608C346.031 79.4617 347.686 78.1664 349.701 78.1664Z" fill="#E28D3B"/>
        <path d="M355.025 85.3615C354.665 85.3615 354.305 85.5054 354.089 85.8653C353.154 87.2325 351.499 88.0961 349.7 88.0961C347.9 88.0961 346.245 87.2325 345.238 85.8653C345.094 85.5054 344.734 85.3615 344.374 85.3615C343.439 85.3615 342.935 86.369 343.439 87.1606C344.806 89.1036 347.109 90.3989 349.7 90.3989C352.29 90.3989 354.521 89.1036 355.96 87.1606C356.464 86.369 355.96 85.3615 355.025 85.3615Z" fill="#E8AE47"/>
        <path d="M352.003 78.814C351.283 78.4542 350.492 78.1664 349.7 78.1664C347.181 78.1664 345.238 80.1814 345.238 82.7001C345.238 83.4916 345.454 84.2832 345.814 84.9309L352.003 78.814Z" fill="#E8AE47"/>
        <path d="M347.541 86.6586C348.188 86.9464 348.908 87.1623 349.699 87.1623C352.146 87.1623 354.161 85.1474 354.161 82.7006C354.161 81.909 353.945 81.1894 353.657 80.5417L347.541 86.6586Z" fill="#F7EEA3"/>
    </g>
    <defs>
        <filter id="filter0_d_9715_37863" x="-195.68" y="-0.144531" width="859.1" height="328.946" filterUnits="userSpaceOnUse" color-interpolation-filters="sRGB">
            <feFlood flood-opacity="0" result="BackgroundImageFix"/>
            <feColorMatrix in="SourceAlpha" type="matrix" values="0 0 0 0 0 0 0 0 0 0 0 0 0 0 0 0 0 0 127 0" result="hardAlpha"/>
            <feOffset dy="4"/>
            <feGaussianBlur stdDeviation="8"/>
            <feComposite in2="hardAlpha" operator="out"/>
            <feColorMatrix type="matrix" values="0 0 0 0 0 0 0 0 0 0 0 0 0 0 0 0 0 0 0.25 0"/>
            <feBlend mode="normal" in2="BackgroundImageFix" result="effect1_dropShadow_9715_37863"/>
            <feBlend mode="normal" in="SourceGraphic" in2="effect1_dropShadow_9715_37863" result="shape"/>
        </filter>
        <linearGradient id="paint0_linear_9715_37863" x1="142.021" y1="628.499" x2="142.021" y2="366.509" gradientUnits="userSpaceOnUse">
            <stop stop-color="#067647"/>
            <stop offset="1" stop-color="#17B26A"/>
        </linearGradient>
        <radialGradient id="paint1_radial_9715_37863" cx="0" cy="0" r="1" gradientUnits="userSpaceOnUse" gradientTransform="translate(396.504 252.535) rotate(0.674551) scale(39.4987 39.4987)">
            <stop stop-color="#FF4D00"/>
            <stop offset="1" stop-opacity="0.96"/>
        </radialGradient>
        <radialGradient id="paint2_radial_9715_37863" cx="0" cy="0" r="1" gradientUnits="userSpaceOnUse" gradientTransform="translate(502.255 195.269) rotate(0.674551) scale(17.253 17.253)">
            <stop stop-color="#FF2D58"/>
            <stop offset="1" stop-opacity="0.96"/>
        </radialGradient>
        <linearGradient id="paint3_linear_9715_37863" x1="630.845" y1="38.5497" x2="630.845" y2="374.131" gradientUnits="userSpaceOnUse">
            <stop stop-color="#17B26A"/>
            <stop offset="1" stop-color="#053321"/>
        </linearGradient>
        <linearGradient id="paint4_linear_9715_37863" x1="495.071" y1="297.729" x2="495.071" y2="300.696" gradientUnits="userSpaceOnUse">
            <stop stop-color="#0040C1"/>
            <stop offset="1" stop-color="#002266"/>
        </linearGradient>
        <linearGradient id="paint5_linear_9715_37863" x1="315.087" y1="144.909" x2="368.559" y2="91.437" gradientUnits="userSpaceOnUse">
            <stop stop-color="#067647"/>
            <stop offset="1" stop-color="#75E0A7"/>
        </linearGradient>
        <clipPath id="clip0_9715_37863">
            <rect width="640" height="300" fill="white"/>
        </clipPath>
    </defs>
</svg>
