<svg width="246" height="84" viewBox="0 0 246 84" fill="none" xmlns="http://www.w3.org/2000/svg">
<path d="M53.1898 40.6651C53.2072 39.6519 53.0369 38.6596 52.8614 37.669C52.5395 35.8676 51.9942 34.1133 51.2382 32.4468C51.1916 32.2371 51.118 32.0344 51.0192 31.8437C50.3361 30.3976 49.5106 29.0231 48.555 27.7407C47.772 26.6475 46.8748 25.6408 45.8787 24.7377C45.6493 24.4144 45.326 24.1902 45.0341 23.9313C43.6854 22.7282 42.1963 21.6924 40.5991 20.8466C38.4781 19.7162 36.2001 18.9091 33.8406 18.4518C32.3867 18.1828 30.9134 18.0317 29.4351 18C28.5328 18 27.6312 18.0505 26.7345 18.1512C25.1542 18.2951 23.5947 18.6127 22.084 19.0983C19.5628 19.8734 17.1921 21.0723 15.0735 22.6435C14.2793 23.2344 13.4764 23.8253 12.8143 24.576C12.1948 25.1319 11.6093 25.7244 11.0608 26.3504C9.8723 27.7108 8.85341 29.2106 8.02651 30.8167C7.20224 32.3387 6.56059 33.9528 6.11487 35.6253C5.7812 36.8713 5.46491 38.1261 5.41973 39.4277C5.31465 39.9675 5.26457 40.5166 5.27027 41.0665C5.19611 42.8405 5.32556 44.6172 5.65608 46.3618C5.98428 48.1718 6.53107 49.9353 7.28444 51.6135C7.89948 53.0672 8.67224 54.449 9.58884 55.734C10.0824 56.4291 10.5568 57.1243 11.1807 57.7099C11.256 57.8374 11.3427 57.9578 11.4396 58.0697C12.1348 58.7509 12.7969 59.46 13.5251 60.1047C14.8669 61.278 16.3379 62.2948 17.9097 63.1355C21.1213 64.8515 24.6779 65.8226 28.3159 65.9769C29.9748 66.0531 31.637 65.9406 33.2706 65.6415C36.1839 65.1522 38.9808 64.1251 41.5184 62.6124C43.7168 61.283 45.6892 59.6946 47.3437 57.7099C47.4485 57.6479 47.5367 57.5615 47.6009 57.4579C48.4316 56.3579 49.2327 55.2439 49.9557 54.0622C50.9027 52.5137 51.6385 50.8457 52.1436 49.1024C52.1949 49.01 52.2396 48.9142 52.2774 48.8156C52.9916 46.3504 53.3257 43.7906 53.268 41.2247C53.308 41.0283 53.1863 40.8545 53.1898 40.6651ZM50.3067 41.2194C50.172 42.9654 49.7742 44.6809 49.1267 46.3079C48.7863 47.0896 48.4052 47.853 47.9849 48.5949C46.5471 50.8567 44.5974 52.7486 42.2935 54.1178C40.281 55.3343 38.1487 56.2936 35.8408 56.775C34.6655 57.0023 33.4655 57.0754 32.2713 56.9922C30.0364 56.874 27.9753 56.238 26.1888 54.9068C25.0943 54.0918 24.2204 53.0166 23.6463 51.7786C23.5942 51.6709 23.5368 51.5649 23.483 51.4571C22.1205 47.6182 23.3839 44.4154 25.8934 41.5149C26.0254 41.362 26.161 41.2125 26.2948 41.063L26.5086 40.8788C30.6672 37.1772 35.4151 35.6653 40.9223 37.0295C41.1865 37.0938 41.2108 36.9999 41.2508 36.8018C41.5914 35.0814 41.939 33.362 42.2935 31.6439C42.356 31.3398 42.3248 31.1451 41.9459 31.1434C41.7646 31.1215 41.5866 31.0777 41.4159 31.013L39.7997 30.735C37.2717 30.3284 34.7134 30.1406 32.1531 30.1737C30.5213 30.3005 28.8859 30.3961 27.2732 30.7107C25.9385 31.0165 24.6021 31.3293 23.3266 31.835C21.6873 32.4913 20.1192 33.3129 18.6465 34.2872C17.9201 34.7668 17.2945 35.3559 16.6098 35.8773C16.1336 36.3691 15.6696 36.8748 15.176 37.3475C14.5035 37.9923 14.0065 38.7691 13.4747 39.5216C13.4139 39.6085 13.3461 39.6954 13.28 39.777L12.6492 40.8858C12.4163 41.2994 12.1817 41.7113 11.9541 42.1231C11.3886 43.3839 10.9181 44.6851 10.5464 46.0159C10.3952 46.8066 10.1988 47.5939 10.1015 48.3898C10.0111 49.085 10.0163 49.8079 9.98159 50.517C9.98307 50.6759 9.97087 50.8346 9.9451 50.9914C9.28285 49.6751 8.79448 48.2783 8.49225 46.8362C8.22312 45.8536 8.06457 44.844 8.01956 43.8262C7.89965 43.291 7.95178 42.7453 7.93614 42.2048C7.92397 41.4158 7.89269 40.6268 8.04215 39.8448C8.04215 39.7093 8.04215 39.5737 8.03346 39.4382C8.0817 38.831 8.19294 38.2305 8.36539 37.6464C8.49947 36.8414 8.71432 36.0519 9.00666 35.2899C9.2997 34.2725 9.70783 33.2918 10.2232 32.3668L11.0156 30.8219C11.457 30.1771 11.8359 29.4872 12.4059 28.9346C12.9394 28.1334 13.6224 27.4643 14.2897 26.7831C15.1309 25.9647 16.0274 25.2052 16.973 24.51L17.7776 23.9886C17.7776 23.9886 21.1542 22.1413 22.906 21.606C24.9914 20.9769 27.1203 20.5946 29.3135 20.6728C30.6228 20.6557 31.9304 20.7751 33.2149 21.0291C34.2437 21.2533 35.2847 21.4305 36.2405 21.898C37.1095 22.0718 37.8446 22.5184 38.6179 22.8938C39.2583 23.1702 39.8695 23.5096 40.4427 23.907C41.0057 24.1607 41.4106 24.6577 41.9772 24.9062C42.0469 25.0247 42.1487 25.1211 42.2709 25.1843C42.7249 25.5182 43.1531 25.8859 43.5517 26.2843C44.1217 26.8613 44.7525 27.3757 45.2583 28.0222L45.8022 28.7173C46.7441 29.8174 47.4897 31.0513 48.2039 32.3043C48.8258 33.5136 49.3489 34.7713 49.768 36.065C50.2893 37.742 50.4006 39.4694 50.3067 41.2194Z" fill="url(#paint0_linear_1926_40904)"/>
<path d="M50.3115 41.2208C50.1768 42.9667 49.7789 44.6822 49.1315 46.3092C48.7911 47.091 48.4099 47.8543 47.9897 48.5962C46.5519 50.858 44.6022 52.7499 42.2983 54.1191C40.2858 55.3356 38.1535 56.2949 35.8456 56.7763C34.6703 57.0037 33.4703 57.0767 32.2761 56.9935C30.0412 56.8754 27.9801 56.2393 26.1936 54.9081C25.0991 54.0931 24.2252 53.0179 23.6511 51.78C23.599 51.6722 23.5416 51.5662 23.4878 51.4585C22.1253 47.6196 23.3887 44.4167 25.8982 41.5162C26.0302 41.3633 26.1658 41.2138 26.2996 41.0644L26.5134 40.8802C30.672 37.1785 35.4198 35.6666 40.9271 37.0308C41.1913 37.0951 41.2156 37.0013 41.2556 36.8032C41.5962 35.0827 41.9437 33.3634 42.2983 31.6452C42.3608 31.3411 42.3295 31.1465 41.9507 31.1447C41.7694 31.1229 41.5914 31.0791 41.4207 31.0144L39.8044 30.7363C37.2765 30.3297 34.7181 30.1419 32.1579 30.175C30.5261 30.3019 28.8907 30.3974 27.278 30.712C25.9433 31.0179 24.6069 31.3307 23.3314 31.8364C21.6921 32.4926 20.124 33.3143 18.6513 34.2885C17.9249 34.7681 17.2993 35.3573 16.6146 35.8786C16.1384 36.3704 15.6744 36.8762 15.1808 37.3489C14.5083 37.9936 14.0113 38.7704 13.4795 39.5229C13.4186 39.6098 13.3509 39.6967 13.2848 39.7784L12.654 40.8871C12.4211 41.3007 12.1865 41.7126 11.9588 42.1245C11.3934 43.3852 10.9228 44.6864 10.5512 46.0173C10.4 46.808 10.2036 47.5952 10.1063 48.3912C10.0159 49.0863 10.0211 49.8093 9.98639 50.5183C9.98787 50.6772 9.97566 50.8359 9.94989 50.9927C9.28765 49.6765 8.79928 48.2797 8.49705 46.8375C8.22791 45.8549 8.06936 44.8454 8.02435 43.8276C7.90444 43.2923 7.95657 42.7466 7.94093 42.2062C7.92877 41.4172 7.89749 40.6282 8.04694 39.8461C8.04694 39.7106 8.04694 39.575 8.03826 39.4395C8.08649 38.8324 8.19773 38.2319 8.37018 37.6478C8.50427 36.8427 8.71911 36.0532 9.01145 35.2912C9.30449 34.2738 9.71263 33.2931 10.2279 32.3682L11.0204 30.8232C11.4618 30.1785 11.8407 29.4885 12.4107 28.9359C12.9442 28.1348 13.6272 27.4657 14.2945 26.7844C15.1357 25.966 16.0322 25.2065 16.9778 24.5113L17.7824 23.99L17.9562 23.8666C19.5307 22.949 21.159 22.1426 22.9108 21.6074C24.9962 20.9783 27.1251 20.596 29.3182 20.6742C30.6276 20.6571 31.9351 20.7765 33.2197 21.0304C34.2485 21.2546 35.2895 21.4319 36.2453 21.8993C37.1143 22.0731 37.8494 22.5198 38.6227 22.8951C39.263 23.1715 39.8743 23.5109 40.4475 23.9083C41.0105 24.162 41.4154 24.6591 41.982 24.9076C42.0517 25.0261 42.1535 25.1225 42.2757 25.1856C42.7297 25.5195 43.1578 25.8873 43.5565 26.2857C44.1265 26.8627 44.7573 27.3771 45.263 28.0235L45.807 28.7187C46.7489 29.8187 47.4944 31.0526 48.2087 32.3056C48.8306 33.515 49.3537 34.7726 49.7728 36.0663C50.2941 37.7433 50.4053 39.4708 50.3115 41.2208Z" fill="url(#paint1_radial_1926_40904)"/>
<path d="M76.9773 56.1001C75.6273 56.1001 73.0773 55.7251 73.0773 52.2001C73.1523 50.4001 73.4523 48.6751 73.9773 46.9501C75.4023 42.9001 78.0273 42.0751 79.7523 42.0751H87.7773L88.9023 35.7001H79.1523C75.1773 35.6251 71.2773 37.0501 68.2023 39.6001C64.9023 42.6001 63.0273 48.0001 63.0273 52.0501C63.0273 56.4751 64.9023 62.7001 73.7523 62.7001H83.5773L84.9273 55.9501L76.9773 56.1001Z" fill="#ED2224"/>
<path d="M82.5992 22.5L80.9492 30.75H94.6742L88.4492 62.85H99.9992L106.149 30.75H119.574L121.224 22.5H82.5992Z" fill="black"/>
<path d="M237.176 37.0484C235.526 36.0734 234.101 35.8484 230.801 35.8484H191.126L189.776 42.7484C189.476 41.7734 189.101 40.7984 188.501 39.9734C187.826 38.9984 186.926 38.1734 185.876 37.5734C184.901 36.9734 183.851 36.5234 182.726 36.2984C181.676 36.0734 180.551 35.9234 179.501 35.8484H164.726L160.301 58.1984L156.776 35.7734H143.201L130.076 59.6984L130.001 54.7484C130.001 53.5484 129.551 52.3484 128.726 51.4484C127.901 50.6234 126.851 50.1734 125.651 50.0234V49.9484C127.151 49.7234 128.576 49.1984 129.776 48.3734C131.951 47.0234 133.226 44.6984 133.226 42.1484C133.301 39.9734 132.026 37.9484 130.076 36.9734C128.801 36.2984 127.301 35.9234 125.876 35.8484H108.551L107.276 42.1484H119.351C120.026 42.1484 122.726 42.1484 122.726 44.3984C122.726 45.3734 122.276 46.3484 121.376 46.8734C120.251 47.3984 119.051 47.6234 117.776 47.4734H106.301L103.301 62.7734H113.051L114.926 53.2484H117.176C117.926 53.1734 118.751 53.3984 119.276 53.9234C119.726 54.5234 119.876 55.2734 119.801 55.9484L119.501 62.6984H138.626L141.026 57.5984H149.801L150.176 62.6984H174.026C178.001 62.7734 181.901 61.3484 184.976 58.7234C185.726 58.0484 186.326 57.2984 186.926 56.5484L185.726 62.6984H207.176L208.526 55.7234H197.051L197.801 52.0484H207.401L208.601 45.8234H199.001L199.751 41.9234H226.076C227.726 41.9234 229.526 42.2984 229.526 44.0984C229.526 46.1234 227.876 47.2484 225.926 47.2484H212.651L209.651 62.5484H219.776L221.651 53.0234H223.901C224.651 52.9484 225.476 53.1734 226.076 53.6984C226.451 54.2984 226.676 55.0484 226.601 55.7234L226.301 62.4734H236.801L236.726 54.5984C236.801 53.2484 236.276 51.8984 235.301 50.9234C234.476 50.2484 233.501 49.7984 232.451 49.6484V49.5734C234.251 49.3484 235.901 48.5984 237.326 47.4734C239.051 46.0484 240.101 43.9484 240.101 41.6984C240.101 39.9734 238.976 38.0234 237.176 37.0484ZM144.401 50.7734L148.451 41.9984H148.601L149.276 50.7734H144.401ZM178.601 51.3734C177.176 55.4984 174.551 55.8734 172.901 55.8734H171.026L173.726 42.0734H175.676C177.026 42.0734 179.576 42.3734 179.576 45.8984C179.501 47.8484 179.201 49.6484 178.601 51.3734Z" fill="black"/>
<defs>
<linearGradient id="paint0_linear_1926_40904" x1="5.25811" y1="41.9963" x2="53.2715" y2="41.9963" gradientUnits="userSpaceOnUse">
<stop stop-color="#EFEFEF"/>
<stop offset="1" stop-color="#DEDEDE"/>
</linearGradient>
<radialGradient id="paint1_radial_1926_40904" cx="0" cy="0" r="1" gradientUnits="userSpaceOnUse" gradientTransform="translate(19.2005 25.0165) rotate(-21.1613) scale(29.1138 17.1872)">
<stop stop-color="#FF7D7D"/>
<stop offset="0.17" stop-color="#FF6D6D"/>
<stop offset="0.51" stop-color="#FF4545"/>
<stop offset="0.98" stop-color="#FF0303"/>
<stop offset="1" stop-color="#FF0000"/>
</radialGradient>
</defs>
</svg>
