<svg width="241" height="160" viewBox="0 0 241 160" fill="none" xmlns="http://www.w3.org/2000/svg">
<path d="M57.2097 199.96V144.234L1.48438 199.96H57.2097Z" fill="#2970FF"/>
<path d="M220.162 17.0043C213.123 9.96675 213.123 -1.44385 220.162 -8.48228L378.401 -166.722C385.438 -173.759 396.849 -173.759 403.887 -166.722C410.925 -159.684 410.925 -148.274 403.887 -141.235L245.648 17.0043C238.611 24.0427 227.2 24.0427 220.162 17.0043Z" fill="#004EEB"/>
<path d="M229.149 199.962V5.57812L34.7656 199.962H229.149Z" fill="#182230"/>
<path d="M293.857 199.952V-5.45312L88.4531 199.952H293.857Z" fill="#2970FF"/>
<path d="M207.003 185.082C165.413 185.082 131.578 151.245 131.578 109.655C131.578 68.0651 165.414 34.2305 207.003 34.2305C248.593 34.2305 282.429 68.066 282.429 109.655C282.429 151.246 248.594 185.082 207.003 185.082ZM207.003 57.0863C178.016 57.0863 154.434 80.6692 154.434 109.656C154.434 138.644 178.016 162.227 207.003 162.227C235.99 162.227 259.574 138.644 259.574 109.656C259.574 80.6683 235.99 57.0863 207.003 57.0863Z" fill="#36BFFA"/>
<path d="M293.863 107.531H201.43V199.965H293.863V107.531Z" fill="#E0F2FE"/>
<path d="M247.646 188.507C266.843 188.507 282.405 172.945 282.405 153.748C282.405 134.551 266.843 118.988 247.646 118.988C228.449 118.988 212.887 134.551 212.887 153.748C212.887 172.945 228.449 188.507 247.646 188.507Z" fill="#004EEB"/>
<path d="M247.634 174.921C259.335 174.921 268.82 165.436 268.82 153.736C268.82 142.036 259.335 132.551 247.634 132.551C235.934 132.551 226.449 142.036 226.449 153.736C226.449 165.436 235.934 174.921 247.634 174.921Z" fill="#2970FF"/>
<path d="M12.4847 225.318C8.90613 221.739 8.90613 215.937 12.4847 212.358L92.9473 131.895C96.5258 128.316 102.328 128.316 105.907 131.895C109.485 135.474 109.485 141.276 105.907 144.855L25.4443 225.318C21.8657 228.896 16.0633 228.896 12.4847 225.318Z" fill="#E0F2FE"/>
<path d="M91.6908 103.253C91.6908 87.6152 79.0132 74.9375 63.375 74.9375V131.57C79.0132 131.569 91.6908 118.892 91.6908 103.253Z" fill="#2970FF"/>
<path d="M157.743 63.875L114.062 107.556H201.424L157.743 63.875Z" fill="#2970FF"/>
<path d="M157.743 63.8696L114.062 20.1875H201.424L157.743 63.8696Z" fill="#E0F2FE"/>
<path d="M114.062 107.551L157.743 63.8696L114.062 20.1875V107.551Z" fill="#36BFFA"/>
<path d="M201.431 107.551L157.75 63.8696L201.431 20.1875V107.551Z" fill="#004EEB"/>
<path d="M2.18386 171.832C-0.727955 168.921 -0.727955 164.199 2.18386 161.286L67.6608 95.8089C70.5726 92.897 75.2941 92.897 78.2068 95.8089C81.1186 98.7207 81.1186 103.442 78.2068 106.355L12.7299 171.832C9.81806 174.744 5.09657 174.744 2.18386 171.832Z" fill="#36BFFA"/>
<path d="M142.345 7.04837C140.854 5.55698 140.854 3.13991 142.345 1.64852L175.871 -31.8776C177.362 -33.3689 179.779 -33.3689 181.271 -31.8776C182.762 -30.3862 182.762 -27.9691 181.271 -26.4777L147.745 7.04837C146.253 8.53976 143.836 8.53976 142.345 7.04837Z" fill="#E0F2FE"/>
</svg>
