<svg width="360" height="270" viewBox="0 0 360 270" fill="none" xmlns="http://www.w3.org/2000/svg">
<path d="M165.162 105.077L171.935 84.5547L160.579 82.8594L154.562 103.552L155.092 105.242C156.655 110.236 163.761 110.117 165.162 105.077Z" fill="#FFC3BD"/>
<path d="M149.396 81.3968L141.493 69.9809C141.336 69.6672 141.433 69.2887 141.717 69.0832L141.747 69.0616C142.079 68.8209 142.466 68.8344 142.766 69.2562C143.564 70.3703 145.611 72.8173 145.611 72.8173C145.611 72.8173 143.129 68.9642 142.463 67.5825C142.323 67.2878 142.398 66.939 142.647 66.7281L142.65 66.7254C142.993 66.4361 143.512 66.528 143.734 66.9174C144.632 68.4937 146.76 71.5897 146.76 71.5897C145.3 68.637 144.18 66.9714 143.88 66.1197C143.775 65.8196 143.883 65.487 144.142 65.3004C144.494 65.0517 144.983 65.1652 145.189 65.5411L147.96 70.6406L148.934 68.4099L153.098 69.3211C153.501 69.4239 153.731 69.8511 153.587 70.2432C153.479 70.546 153.176 70.738 152.854 70.7055L150.48 70.4703L150.164 72.5983C150.14 72.7578 150.169 72.9227 150.245 73.066C150.245 73.066 151.394 74.3342 152.143 74.4207C152.552 74.4099 152.69 74.0989 152.692 73.6906L152.695 73.2553C152.638 70.0323 154.674 70.7677 154.674 70.7677L154.874 74.2341C154.874 74.2341 156.105 76.9326 154.726 78.7388L164.735 97.6743C166.306 100.646 165.171 104.329 162.196 105.9C160.32 106.892 158.111 106.814 156.34 105.805C155.448 105.297 154.812 104.431 154.577 103.434L150.57 86.3936L149.396 81.3968Z" fill="#FFC3BD"/>
<path opacity="0.15" d="M148.326 71.2871L147.961 70.6382L148.934 68.4102L148.326 71.2871Z" fill="black"/>
<path opacity="0.15" d="M147.119 71.235L146.762 71.5892L143.963 66.3274C143.844 66.1057 143.796 65.8245 143.904 65.5973L143.955 65.5L147.119 71.235Z" fill="black"/>
<path opacity="0.15" d="M145.607 72.8167C145.607 72.8167 143.103 68.8771 142.419 67.4765C142.338 67.3088 142.435 67.0195 142.435 67.0195L145.967 72.4571L145.607 72.8167Z" fill="black"/>
<path opacity="0.15" d="M153.587 70.8398C153.587 70.8398 153.295 70.9345 153.016 71.4347C152.478 72.4 152.865 73.8763 152.549 74.236C152.232 74.5929 151.762 74.2954 151.61 74.217C151.151 73.971 150.523 73.3545 150.523 73.3545L151.616 74.5118C152.032 74.9552 152.778 74.8687 153.054 74.3252C153.057 74.3225 153.057 74.3198 153.06 74.3144C153.219 73.9953 152.957 72.9381 152.984 72.6623C153.011 72.3838 152.992 71.459 153.587 70.8398Z" fill="black"/>
<path opacity="0.15" d="M164.691 98.615L159.254 87.3045L160.176 84.2383L165.221 98.3959C165.265 98.5176 165.221 98.6555 165.113 98.7285C164.967 98.8286 164.77 98.7745 164.691 98.615Z" fill="black"/>
<path d="M239.363 109.987L214.239 102.032C213.184 101.675 212.286 100.961 211.702 100.012L204.348 87.9096L215.142 84.0078L220.909 96.6296L240.51 106.05" fill="#FFC3BD"/>
<path opacity="0.15" d="M236.591 110.602L237.229 109.05C233.228 107.647 220.857 101.901 216.125 100.033C214.828 99.5215 213.749 98.5778 213.062 97.3638L207.135 87.043L205.102 89.1358L211.161 99.3917C211.896 100.619 213.04 101.549 214.392 102.017L236.591 110.602Z" fill="black"/>
<path d="M193.871 54.5158L193.793 65.1367C193.793 65.3936 193.715 65.6532 193.561 65.8587L193.715 66.2616C191.138 70.1038 185.568 70.6284 182.009 67.6892C181.65 67.381 181.469 66.9159 181.544 66.4508L183.478 53.6641L193.871 54.5158Z" fill="#FFC3BD"/>
<path d="M182.347 49.258C182.347 49.258 180.233 63.2318 187.942 63.7969C195.469 64.3647 195.702 50.2368 195.702 50.2368L195.907 46.189L186.214 44.4883L183.764 45.751L182.347 49.258Z" fill="#FFC3BD"/>
<path opacity="0.15" d="M182.168 62.6391L182.736 58.7969C183.431 61.271 184.875 63.334 187.403 63.7477H187.376C187.557 63.7748 187.735 63.7991 187.916 63.8261C189.928 63.9803 191.602 63.0528 192.867 61.0682C192.919 60.9897 193.021 60.9654 193.1 61.0168C193.178 61.0682 193.203 61.1709 193.151 61.2493C191.81 63.3638 190.031 64.3426 187.892 64.1885C187.427 64.1614 186.989 64.0587 186.578 63.9316C185.21 64.0803 183.636 63.745 182.168 62.6391Z" fill="black"/>
<path d="M184.182 46.1353C184.182 46.1353 181.732 44.5103 180.572 47.2953C179.593 49.6423 181.243 52.1948 181.243 52.1948L182.659 52.0407C183.252 52.0136 183.665 51.7324 183.717 51.1646L184.182 46.1353Z" fill="#21252B"/>
<path d="M182.427 44.4355C182.222 47.0907 184.49 47.7856 185.418 47.8641L193.024 48.5076C193.643 48.559 194.105 49.0997 194.081 49.7189L193.951 52.1416C193.924 52.4769 194.157 52.7608 194.492 52.8122L194.957 52.8636L195.474 53.5071C198.464 52.7852 199.702 44.303 194.211 42.6023C193.643 42.4211 193.102 41.9831 192.845 41.4423C192.045 39.7929 188.773 39.3549 187.121 41.2097C186.762 41.6234 186.348 41.7776 185.807 41.7776C183.82 41.7289 182.53 42.9673 182.427 44.4355Z" fill="#21252B"/>
<path d="M194.934 53.6913C195.037 52.7125 196.197 52.1961 196.97 52.8396L196.997 52.8666C198.311 54.0023 197.462 57.5579 194.574 57.2497L194.934 53.6913Z" fill="#FFC3BD"/>
<path d="M180.575 51.8074L180.602 51.7804C181.453 51.264 182.511 51.9345 182.484 52.916L182.327 56.3203C179.415 56.2148 179.131 52.7349 180.575 51.8074Z" fill="#FFC3BD"/>
<path d="M194.573 54.1304C194.546 54.3115 194.703 54.4657 194.882 54.49C195.063 54.517 195.241 54.3872 195.268 54.2331L195.604 51.9375L194.649 51.9645L194.573 54.1304Z" fill="#21252B"/>
<path d="M181.878 53.2007C181.851 53.3818 182.008 53.536 182.186 53.5603C182.367 53.5873 182.546 53.4575 182.573 53.3034L182.908 51.0078L181.954 51.0349L181.878 53.2007Z" fill="#21252B"/>
<path d="M185.364 48.2005C185.597 48.2276 185.724 48.2005 185.751 48.2005C185.829 48.2005 185.905 48.1221 185.905 48.0194C185.905 47.941 185.827 47.8652 185.724 47.8652C185.697 47.8652 184.177 47.9437 183.534 46.9378C183.482 46.8594 183.38 46.8351 183.301 46.8864C183.223 46.9378 183.198 47.0406 183.25 47.119C183.818 47.968 184.823 48.1762 185.364 48.2005Z" fill="#FFC3BD"/>
<g opacity="0.45">
<path opacity="0.3" d="M195.645 55.5478C195.748 55.5478 195.826 55.4694 195.85 55.3666L195.902 54.9529C195.953 54.5149 196.083 54.2066 196.261 54.0498C196.415 53.92 196.57 53.9471 196.57 53.9471C196.672 53.9741 196.775 53.8957 196.802 53.7929C196.829 53.6902 196.751 53.5874 196.648 53.5604C196.621 53.5604 196.34 53.509 196.029 53.7145C195.745 53.92 195.564 54.3337 195.512 54.8745L195.461 55.2882C195.466 55.418 195.542 55.5207 195.645 55.5478Z" fill="black"/>
</g>
<g opacity="0.45">
<path opacity="0.3" d="M181.478 54.4898C181.375 54.4898 181.297 54.387 181.297 54.2843V53.8706C181.324 53.4325 181.246 53.1243 181.065 52.9431C180.935 52.789 180.781 52.789 180.756 52.789C180.654 52.789 180.575 52.7106 180.551 52.6078C180.551 52.5051 180.629 52.4267 180.732 52.4023C180.759 52.4023 181.067 52.4023 181.3 52.6592C181.557 52.9161 181.659 53.3298 181.635 53.8976V54.3113C181.684 54.4113 181.605 54.4898 181.478 54.4898Z" fill="black"/>
</g>
<path d="M203.025 122.559L200.156 216.089H191.519L186.701 136.17C186.65 135.243 185.876 134.521 184.949 134.521C184.021 134.521 183.248 135.243 183.197 136.197L178.811 216.087H170.175L167.52 123.521L203.025 122.559Z" fill="#3F4249"/>
<path d="M199.254 221.5L199.486 213.973H192.164L192.499 221.73L199.254 221.5Z" fill="#FFC3BD"/>
<path opacity="0.15" d="M192.242 216.085L192.475 221.73L194.227 221.679L194.175 218.353C194.175 217.813 194.535 217.347 195.052 217.218L199.435 216.082L192.242 216.085Z" fill="black"/>
<path d="M171.16 221.5L170.93 213.973H178.276L177.941 221.73L171.16 221.5Z" fill="#FFC3BD"/>
<path d="M192.504 228.308V221.735C192.504 219.75 194.129 218.125 196.114 218.125H196.268C197.893 218.125 199.31 219.261 199.618 220.859C199.799 221.813 200.237 222.689 200.856 223.411L201.886 224.622C202.763 225.653 203.252 226.969 203.252 228.308H192.504Z" fill="#242830"/>
<path d="M198.719 221.627C198.77 221.627 198.822 221.6 198.849 221.549C198.876 221.47 198.876 221.394 198.797 221.367C196.683 220.18 194.828 221.367 194.828 221.367C194.777 221.419 194.75 221.497 194.801 221.549C194.852 221.6 194.931 221.627 194.982 221.576C195.009 221.576 196.71 220.467 198.668 221.576C198.668 221.627 198.692 221.627 198.719 221.627Z" fill="white"/>
<path d="M199.153 222.557C199.204 222.557 199.255 222.53 199.282 222.478C199.309 222.4 199.309 222.324 199.231 222.297C197.117 221.11 195.262 222.297 195.262 222.297C195.21 222.348 195.183 222.427 195.235 222.478C195.286 222.53 195.364 222.557 195.416 222.505C195.443 222.505 197.144 221.397 199.101 222.505C199.101 222.557 199.126 222.557 199.153 222.557Z" fill="white"/>
<path d="M199.617 223.537C199.669 223.537 199.72 223.51 199.747 223.459C199.774 223.38 199.774 223.305 199.696 223.278C197.581 222.091 195.726 223.278 195.726 223.278C195.675 223.329 195.648 223.407 195.699 223.459C195.751 223.51 195.829 223.537 195.881 223.486C195.908 223.486 197.608 222.377 199.566 223.486C199.593 223.537 199.617 223.537 199.617 223.537Z" fill="white"/>
<path opacity="0.5" d="M202.792 229.673H192.969C192.712 229.673 192.504 229.468 192.504 229.208V228.332H203.255V229.208C203.257 229.468 203.052 229.673 202.792 229.673Z" fill="black"/>
<path d="M200.338 216.084L200.417 213.094H191.137L191.315 216.084H200.338Z" fill="#2970FF"/>
<path d="M191.137 213.094L191.315 216.084H200.338L200.417 213.094H191.137Z" fill="#21252B"/>
<path opacity="0.15" d="M184.945 134.516C185.873 134.516 186.646 135.238 186.697 136.165L191.337 213.094H194.095L192.987 139.621C192.935 136.784 190.64 134.516 187.806 134.516H184.945Z" fill="black"/>
<path opacity="0.2" d="M191.315 216.084L191.137 213.094H194.1L194.152 216.084H191.315Z" fill="black"/>
<path opacity="0.15" d="M170.996 216.086L171.15 221.499L174.219 221.602L174.168 217.941C174.168 217.605 174.373 217.27 174.709 217.167L178.164 216.059H170.996V216.086Z" fill="black"/>
<path opacity="0.15" d="M167.539 124.208L170.173 216.087H170.997L170.922 213.975H174.118L172.766 123.902L167.539 124.208Z" fill="black"/>
<path d="M177.943 228.308V221.735C177.943 219.75 176.318 218.125 174.334 218.125H174.179C172.554 218.125 171.138 219.261 170.829 220.859C170.648 221.813 170.21 222.689 169.591 223.411L168.561 224.622C167.685 225.653 167.195 226.969 167.195 228.308H177.943Z" fill="#242830"/>
<path d="M171.697 221.629C171.724 221.629 171.749 221.629 171.776 221.602C173.76 220.493 175.461 221.575 175.461 221.602C175.512 221.653 175.615 221.629 175.642 221.575C175.694 221.524 175.669 221.421 175.615 221.394C175.588 221.394 173.76 220.182 171.646 221.394C171.567 221.421 171.567 221.524 171.594 221.575C171.619 221.605 171.67 221.629 171.697 221.629Z" fill="white"/>
<path d="M171.287 222.559C171.314 222.559 171.338 222.559 171.365 222.532C173.35 221.423 175.051 222.505 175.051 222.532C175.102 222.583 175.205 222.559 175.232 222.505C175.283 222.453 175.259 222.351 175.205 222.324C175.178 222.324 173.35 221.112 171.236 222.324C171.157 222.351 171.157 222.453 171.184 222.505C171.184 222.532 171.236 222.559 171.287 222.559Z" fill="white"/>
<path d="M170.795 223.535C170.822 223.535 170.846 223.535 170.873 223.508C172.858 222.4 174.559 223.481 174.559 223.508C174.61 223.56 174.713 223.535 174.74 223.481C174.791 223.43 174.767 223.327 174.713 223.3C174.686 223.3 172.858 222.089 170.743 223.3C170.665 223.327 170.665 223.43 170.692 223.481C170.716 223.508 170.743 223.535 170.795 223.535Z" fill="white"/>
<path d="M167.651 229.673H177.474C177.731 229.673 177.939 229.468 177.939 229.208V228.332H167.164V229.208C167.161 229.468 167.391 229.673 167.651 229.673Z" fill="#3F4249"/>
<path opacity="0.5" d="M202.792 229.673H192.969C192.712 229.673 192.504 229.468 192.504 229.208V228.332H203.255V229.208C203.257 229.468 203.052 229.673 202.792 229.673Z" fill="black"/>
<path opacity="0.8" d="M202.792 229.673H192.969C192.712 229.673 192.504 229.468 192.504 229.208V228.332H203.255V229.208C203.257 229.468 203.052 229.673 202.792 229.673Z" fill="black"/>
<path opacity="0.8" d="M167.651 229.673H177.474C177.731 229.673 177.939 229.468 177.939 229.208V228.332H167.164V229.208C167.161 229.468 167.391 229.673 167.651 229.673Z" fill="black"/>
<path d="M179.201 213.094L179.02 216.084H169.997L169.945 213.094H179.201Z" fill="#21252B"/>
<path opacity="0.2" d="M174.123 213.094V216.084H169.997L169.945 213.094H174.123Z" fill="black"/>
<path d="M193.781 65.332L201.582 67.4113C201.758 67.4519 201.931 67.4979 202.107 67.5438C206.217 68.6578 209.567 71.6402 211.319 75.5231L215.148 84.0079L205.184 89.094L202.342 85.0787" fill="white"/>
<path d="M165.543 103.921L166.13 122.318C166.16 123.332 166.963 124.157 167.977 124.205L202.371 123.61C203.414 123.662 204.315 122.88 204.407 121.839L203.052 83.8847L213.833 85.745L219.211 77.2142L210.574 71.1736C208.317 69.5946 205.794 68.4346 203.128 67.7451L193.783 65.3332C193.783 65.3332 192.093 69.4864 187.675 69.3079C181.859 69.0754 181.759 65.0898 181.759 65.0898L170.911 66.9312C166.725 67.6423 163.372 70.7924 162.404 74.9294L159.316 87.1051L170.243 90.0848L172.201 83.7901L165.543 103.921Z" fill="#2970FF"/>
<path opacity="0.2" d="M205.099 89.1374L202.371 85.0788L202.598 79.6953L207.6 87.8611L205.099 89.1374Z" fill="black"/>
<path d="M200.426 96.658L206.496 105.873L228.295 88.3164" stroke="white" stroke-width="6.21899" stroke-miterlimit="10" stroke-linecap="round" stroke-linejoin="round"/>
<path d="M238.357 76.0817C238.357 75.3138 238.508 74.5811 238.773 73.9078C232.505 69.9006 224.44 68.3242 217.009 68.3242C209.579 68.3242 201.513 69.9006 195.246 73.9078C195.511 74.5811 195.662 75.3138 195.662 76.0817C195.662 79.3508 193.018 82.0006 189.754 82.0141C189.9 91.594 190.838 103.01 195.438 111.768C200.402 121.221 210.336 127.78 217.009 130.798C223.683 127.78 233.617 121.221 238.581 111.768C243.18 103.01 244.119 91.594 244.265 82.0141C240.998 82.0006 238.357 79.3508 238.357 76.0817Z" fill="#2970FF"/>
<path opacity="0.5" d="M238.357 76.0817C238.357 75.3138 238.508 74.5811 238.773 73.9078C232.505 69.9006 224.44 68.3242 217.009 68.3242C209.579 68.3242 201.513 69.9006 195.246 73.9078C195.511 74.5811 195.662 75.3138 195.662 76.0817C195.662 79.3508 193.018 82.0006 189.754 82.0141C189.9 91.594 190.838 103.01 195.438 111.768C200.402 121.221 210.336 127.78 217.009 130.798C223.683 127.78 233.617 121.221 238.581 111.768C243.18 103.01 244.119 91.594 244.265 82.0141C240.998 82.0006 238.357 79.3508 238.357 76.0817Z" fill="white"/>
<path d="M217.003 125.855C210.665 122.624 203.186 116.951 199.376 109.696C195.596 102.504 194.58 92.9728 194.293 85.4073C197.678 83.739 200.036 80.278 200.109 76.2789C204.749 74.0103 210.633 72.7773 217.003 72.7773C223.373 72.7773 229.257 74.0076 233.897 76.2789C233.973 80.278 236.328 83.739 239.713 85.4073C239.427 92.9701 238.407 102.501 234.63 109.696C230.82 116.951 223.341 122.624 217.003 125.855Z" fill="#2970FF"/>
<path d="M217.003 125.855C210.665 122.624 203.186 116.951 199.376 109.696C195.596 102.504 194.58 92.9728 194.293 85.4073C197.678 83.739 200.036 80.278 200.109 76.2789C204.749 74.0103 210.633 72.7773 217.003 72.7773C223.373 72.7773 229.257 74.0076 233.897 76.2789C233.973 80.278 236.328 83.739 239.713 85.4073C239.427 92.9701 238.407 102.501 234.63 109.696C230.82 116.951 223.341 122.624 217.003 125.855Z" fill="#2970FF"/>
<path opacity="0.7" d="M217.003 124.158C211.071 121.133 204.068 115.822 200.501 109.03C196.964 102.295 196.01 93.3745 195.742 86.2929C198.914 84.7301 201.118 81.4908 201.188 77.7459C205.533 75.6206 211.041 74.4688 217.003 74.4688C222.965 74.4688 228.476 75.6206 232.818 77.7459C232.888 81.4881 235.095 84.7301 238.264 86.2929C237.996 93.3745 237.042 102.297 233.505 109.03C229.939 115.822 222.938 121.133 217.003 124.158Z" fill="white"/>
<path d="M232.515 89.6549L230.265 87.4053C230.016 87.1863 229.703 87.0781 229.397 87.0781H227.572L227.883 88.1056L215.337 100.711L209.84 95.2142C209.339 94.7762 208.59 94.7762 208.152 95.2142L205.903 97.4638C205.465 97.964 205.465 98.713 205.903 99.1511L213.939 107.187L213.471 108.085H215.274C215.58 108.087 215.896 107.963 216.148 107.712L232.515 91.3449C232.953 90.842 232.953 90.093 232.515 89.6549Z" fill="#2970FF"/>
<path opacity="0.5" d="M232.515 89.6549L230.265 87.4053C230.016 87.1863 229.703 87.0781 229.397 87.0781H227.572L227.883 88.1056L215.337 100.711L209.84 95.2142C209.339 94.7762 208.59 94.7762 208.152 95.2142L205.903 97.4638C205.465 97.964 205.465 98.713 205.903 99.1511L213.939 107.187L213.471 108.085H215.274C215.58 108.087 215.896 107.963 216.148 107.712L232.515 91.3449C232.953 90.842 232.953 90.093 232.515 89.6549Z" fill="white"/>
<path d="M239.714 85.4128C239.714 85.4101 239.714 85.4074 239.714 85.4074C239.627 85.3642 239.544 85.3155 239.457 85.2695C239.541 85.3182 239.627 85.3642 239.714 85.4128Z" fill="#FFD16E"/>
<path d="M212.695 107.706L204.137 99.1485C203.699 98.7105 203.699 97.9615 204.137 97.4613L206.387 95.2116C206.825 94.7736 207.574 94.7736 208.074 95.2116L213.571 100.709L226.812 87.4027C227.25 86.9647 227.999 86.9647 228.499 87.4027L230.749 89.6524C231.187 90.0904 231.187 90.8394 230.749 91.3396L214.382 107.706C213.882 108.207 213.133 108.207 212.695 107.706Z" fill="white"/>
<path d="M242.714 86.7514C242.476 86.2998 242.716 85.7428 243.208 85.6076L246.277 84.764C246.58 84.6802 246.897 84.8451 247.002 85.1398L247.335 86.0754C247.467 86.4458 247.213 86.8406 246.824 86.873L243.49 87.1705C243.171 87.2029 242.865 87.0353 242.714 86.7514Z" fill="#FFC3BD"/>
<path d="M241.707 90.2182C241.702 89.6774 242.142 89.2394 242.683 89.2502L243.059 89.2583C243.078 89.2962 243.113 89.3259 243.159 89.334L245.109 89.6531C245.49 89.7288 245.979 89.8099 246.363 89.772L247.22 89.6612C247.226 89.6612 247.228 89.6585 247.234 89.6585C247.255 89.6531 247.272 89.6423 247.288 89.6314C247.32 89.6828 247.347 89.7423 247.364 89.8045L247.607 90.7292C247.707 91.1051 247.445 91.4836 247.055 91.5215L246.15 91.6107C245.822 91.6432 245.493 91.6323 245.168 91.581L242.513 91.1564C242.053 91.0807 241.712 90.6833 241.707 90.2182Z" fill="#FFC3BD"/>
<path d="M247.217 89.6634L246.36 89.7743C245.976 89.8121 245.484 89.7283 245.106 89.6553L242.875 89.2578L244.651 89.293L245.154 89.3768C245.519 89.4498 245.984 89.5255 246.328 89.4931L247.025 89.4011C247.131 89.4525 247.22 89.5336 247.282 89.6337C247.266 89.6472 247.247 89.6553 247.228 89.6607C247.228 89.6607 247.223 89.6634 247.217 89.6634Z" fill="#FFC3BD"/>
<path d="M245.159 89.3729L244.656 89.2891L246.765 89.3323C246.86 89.335 246.949 89.3594 247.033 89.3999L246.335 89.4919C245.989 89.5243 245.527 89.4459 245.159 89.3729Z" fill="#FFC3BD"/>
<path d="M245.604 91.9329L242.43 91.4245C242.543 91.2948 242.711 91.2136 242.895 91.2109L245.634 91.649L246.513 91.5706C246.618 91.6355 246.699 91.7247 246.753 91.8355L245.642 91.9329C245.628 91.9356 245.618 91.9356 245.604 91.9329Z" fill="#FFC3BD"/>
<path d="M242.275 91.7908C242.286 91.6502 242.346 91.5231 242.432 91.4258L245.607 91.9341C245.618 91.9368 245.631 91.9368 245.642 91.9341L246.753 91.8368C246.802 91.9395 246.829 92.0558 246.815 92.1775L246.748 92.8102C246.707 93.1995 246.323 93.4591 245.947 93.3537L242.738 92.4506C242.446 92.3694 242.251 92.0936 242.275 91.7908Z" fill="#FFC3BD"/>
<path opacity="0.15" d="M247.217 89.6634L246.36 89.7743C245.976 89.8121 245.484 89.7283 245.106 89.6553L242.875 89.2578L244.651 89.293L245.154 89.3768C245.519 89.4498 245.984 89.5255 246.328 89.4931L247.025 89.4011C247.131 89.4525 247.22 89.5336 247.282 89.6337C247.266 89.6472 247.247 89.6553 247.228 89.6607C247.228 89.6607 247.223 89.6634 247.217 89.6634Z" fill="black"/>
<path opacity="0.15" d="M245.604 91.9329L242.43 91.4245C242.543 91.2948 242.711 91.2136 242.895 91.2109L245.634 91.649L246.513 91.5706C246.618 91.6355 246.699 91.7247 246.753 91.8355L245.642 91.9329C245.628 91.9356 245.618 91.9356 245.604 91.9329Z" fill="black"/>
<path d="M242.73 87.2593C242.692 87.2457 242.665 87.2187 242.648 87.1863C242.759 87.1214 242.889 87.0808 243.03 87.0754L243.673 87.189L243.984 87.1592C244.014 87.1565 244.044 87.1592 244.073 87.1565L246.894 86.9023C247.072 86.9186 247.234 87.0105 247.34 87.1484L244.098 87.4404C243.638 87.4783 243.165 87.4161 242.73 87.2593Z" fill="#FFC3BD"/>
<path d="M243.98 87.158L245.465 87.0228L246.806 86.8984C246.836 86.8984 246.863 86.8984 246.89 86.9011L244.07 87.1553C244.04 87.158 244.01 87.158 243.98 87.158Z" fill="#FFC3BD"/>
<path d="M242.645 87.1824C242.661 87.2148 242.688 87.2419 242.726 87.2554C243.161 87.4122 243.634 87.4744 244.097 87.4365L247.339 87.1445C247.393 87.2148 247.436 87.2987 247.455 87.3906L247.72 88.5965C247.798 88.9589 247.552 89.3104 247.187 89.359L246.433 89.4618C246.062 89.5132 245.686 89.4888 245.324 89.3942L243.277 89.0589C242.815 88.9832 242.428 88.6614 242.271 88.218C242.115 87.8124 242.298 87.3798 242.645 87.1824Z" fill="#FFC3BD"/>
<path opacity="0.15" d="M242.73 87.2593C242.692 87.2457 242.665 87.2187 242.648 87.1863C242.759 87.1214 242.889 87.0808 243.03 87.0754L243.673 87.189L243.984 87.1592C244.014 87.1565 244.044 87.1592 244.073 87.1565L246.894 86.9023C247.072 86.9186 247.234 87.0105 247.34 87.1484L244.098 87.4404C243.638 87.4783 243.165 87.4161 242.73 87.2593Z" fill="black"/>
<path opacity="0.15" d="M172.196 83.7891L165.539 103.92L165.677 111.182L172.196 87.0446V83.7891Z" fill="black"/>
<path opacity="0.6" d="M159.312 87.1028L170.239 90.0798L170.866 88.2708L159.805 85.1641L159.312 87.1028Z" fill="black"/>
<path opacity="0.15" d="M203.391 121.838C203.391 121.838 194.582 114.267 191.905 102.065C190.007 93.4122 189.858 89.8323 189.747 82.0126C189.747 82.0126 194.909 81.999 195.615 76.7886C195.782 75.5421 195.574 74.7769 195.239 73.9062C195.239 73.9062 195.398 78.4353 191.767 79.7818C190.42 80.2821 186.121 80.447 186.121 80.447C186.121 80.447 181.719 106.713 203.391 121.838Z" fill="black"/>
<path opacity="0.6" d="M193.777 65.3332C193.777 65.3332 192.087 69.4864 187.669 69.3079C181.853 69.0754 181.753 65.0898 181.753 65.0898L180.223 65.3494C180.223 65.3494 180.926 70.4787 187.669 70.6545C193.869 70.814 195.292 65.7253 195.292 65.7253L193.777 65.3332Z" fill="black"/>
<path d="M347.964 229.987H11.2163C11.1082 229.987 11 229.906 11 229.771C11 229.636 11.1082 229.555 11.2163 229.555H347.988C348.096 229.555 348.204 229.636 348.204 229.771C348.204 229.906 348.099 229.987 347.964 229.987Z" fill="#ABAFB4"/>
</svg>
