<svg width="240" height="180" viewBox="0 0 240 180" fill="none" xmlns="http://www.w3.org/2000/svg">
<path d="M142.324 153.349L138.231 153.439C138.231 155.065 138.231 159.32 138.18 160.928L139.957 161.11L142.017 160.889L142.099 159.15L142.129 159.161C142.181 158.111 142.251 154.412 142.326 153.348L142.324 153.349Z" fill="#FC9D9D"/>
<path opacity="0.15" d="M138.148 153.549L138.189 159.025L139.316 158.747L139.458 153.52L138.148 153.549Z" fill="black"/>
<path d="M138.079 159.501V159.877C138.082 160.197 138.031 160.514 137.929 160.816L137.491 162.137C137.371 162.511 137.313 162.904 137.321 163.297V163.361C137.324 163.425 137.341 163.487 137.369 163.545C137.397 163.604 137.436 163.655 137.484 163.697C137.532 163.739 137.588 163.772 137.649 163.794C137.71 163.814 137.774 163.821 137.838 163.817L142.495 163.717C142.624 163.719 142.749 163.669 142.842 163.58C142.935 163.49 142.989 163.368 142.992 163.238V163.07C142.983 162.731 142.922 162.395 142.81 162.073L142.379 160.745C142.284 160.475 142.234 160.191 142.231 159.905L142.22 159.412C142.21 159.102 142.082 158.807 141.863 158.588L141.798 158.511C141.36 158.085 140.772 157.849 140.162 157.856C139.551 157.862 138.968 158.109 138.539 158.544L138.424 158.663C138.213 158.893 138.091 159.19 138.079 159.501Z" fill="#2970FF"/>
<path opacity="0.6" d="M137.297 162.997L142.959 162.875C142.97 162.939 142.975 163.005 142.975 163.07V163.238C142.975 163.302 142.961 163.366 142.936 163.425C142.91 163.483 142.873 163.538 142.827 163.582C142.781 163.626 142.726 163.662 142.667 163.684C142.607 163.708 142.543 163.719 142.479 163.717L137.821 163.817C137.692 163.825 137.566 163.781 137.469 163.695C137.372 163.609 137.313 163.491 137.304 163.361V163.297L137.297 162.997Z" fill="black"/>
<path d="M141.163 159.639C141.173 159.611 141.174 159.58 141.163 159.551C141.153 159.523 141.132 159.5 141.106 159.485C140.802 159.344 140.47 159.274 140.135 159.282C139.8 159.289 139.471 159.373 139.174 159.527C139.16 159.534 139.147 159.543 139.137 159.554C139.127 159.566 139.119 159.579 139.114 159.594C139.11 159.609 139.108 159.624 139.11 159.639C139.112 159.655 139.117 159.669 139.124 159.683C139.131 159.697 139.14 159.709 139.152 159.719C139.164 159.73 139.177 159.737 139.192 159.742C139.207 159.747 139.222 159.748 139.238 159.746C139.253 159.745 139.268 159.74 139.282 159.732C139.546 159.599 139.838 159.527 140.134 159.521C140.43 159.514 140.724 159.574 140.995 159.695C141.008 159.708 141.033 159.706 141.046 159.706C141.069 159.706 141.093 159.7 141.113 159.688C141.134 159.676 141.151 159.659 141.163 159.639Z" fill="white"/>
<path d="M141.17 160.238C141.18 160.21 141.18 160.179 141.17 160.15C141.16 160.122 141.14 160.098 141.113 160.083C140.809 159.942 140.477 159.872 140.142 159.879C139.807 159.887 139.478 159.971 139.181 160.125C139.167 160.132 139.155 160.141 139.145 160.153C139.135 160.165 139.127 160.178 139.122 160.193C139.118 160.208 139.116 160.223 139.118 160.238C139.119 160.254 139.124 160.269 139.132 160.282C139.138 160.296 139.147 160.309 139.159 160.319C139.171 160.329 139.184 160.337 139.199 160.341C139.214 160.346 139.23 160.348 139.245 160.346C139.26 160.344 139.275 160.339 139.289 160.331C139.553 160.198 139.845 160.125 140.141 160.119C140.438 160.113 140.732 160.173 141.002 160.295C141.015 160.308 141.04 160.306 141.055 160.306C141.078 160.305 141.101 160.299 141.121 160.287C141.141 160.275 141.158 160.258 141.17 160.238Z" fill="white"/>
<path d="M141.194 160.82C141.205 160.792 141.205 160.761 141.194 160.732C141.184 160.704 141.164 160.68 141.138 160.665C140.834 160.524 140.501 160.454 140.166 160.461C139.831 160.469 139.502 160.553 139.205 160.707C139.191 160.714 139.178 160.723 139.168 160.735C139.158 160.746 139.15 160.76 139.146 160.775C139.141 160.789 139.14 160.805 139.141 160.82C139.143 160.836 139.148 160.851 139.156 160.864C139.163 160.878 139.172 160.89 139.184 160.9C139.196 160.91 139.209 160.917 139.224 160.922C139.239 160.926 139.254 160.928 139.269 160.927C139.284 160.925 139.299 160.921 139.313 160.913C139.578 160.78 139.869 160.707 140.165 160.701C140.461 160.694 140.756 160.754 141.026 160.875C141.041 160.885 141.059 160.89 141.077 160.888C141.101 160.887 141.124 160.881 141.144 160.869C141.165 160.857 141.182 160.84 141.194 160.82Z" fill="white"/>
<path d="M152.617 154.068L152.93 160.614L161.03 161.29L157.941 158.647C157.446 158.221 157.335 156.238 157.327 155.562L157.293 153.945L152.626 154.064" fill="#FC9D9D"/>
<path opacity="0.15" d="M152.562 154.094L152.917 159.058L154.331 159.548L153.958 154.107L152.562 154.094Z" fill="black"/>
<path d="M153.151 158.893L154.978 159.484C155.11 159.527 155.249 159.535 155.384 159.509C155.519 159.482 155.645 159.423 155.751 159.335L157.212 158.114C157.371 157.98 157.572 157.905 157.78 157.902C157.99 157.9 158.193 157.97 158.355 158.1L161.597 160.675L164.165 161.554C164.534 161.683 164.854 161.924 165.079 162.244C165.305 162.564 165.424 162.946 165.422 163.337C165.42 163.446 165.376 163.55 165.298 163.627C165.219 163.702 165.115 163.744 165.006 163.744L153.574 163.618C153.444 163.616 153.317 163.589 153.198 163.539C153.079 163.488 152.971 163.413 152.881 163.322C152.791 163.229 152.72 163.119 152.672 163C152.624 162.88 152.6 162.752 152.602 162.622L152.638 159.26C152.64 159.198 152.655 159.139 152.684 159.084C152.713 159.03 152.753 158.983 152.803 158.948C152.853 158.912 152.91 158.889 152.971 158.879C153.031 158.87 153.093 158.874 153.151 158.893Z" fill="#2970FF"/>
<path opacity="0.6" d="M152.617 162.781L165.379 162.924C165.415 163.059 165.432 163.198 165.426 163.336C165.424 163.446 165.381 163.55 165.302 163.627C165.223 163.702 165.119 163.746 165.01 163.744L153.578 163.618C153.345 163.614 153.12 163.528 152.944 163.375C152.768 163.223 152.653 163.011 152.617 162.781Z" fill="black"/>
<path d="M158.353 159.415L159.053 158.685C159.069 158.665 159.076 158.64 159.075 158.615C159.075 158.589 159.064 158.565 159.045 158.547C159.029 158.529 159.005 158.518 158.98 158.516C158.954 158.514 158.929 158.521 158.908 158.537L158.209 159.267C158.191 159.287 158.18 159.313 158.18 159.34C158.18 159.368 158.191 159.394 158.209 159.413C158.227 159.429 158.251 159.439 158.275 159.441C158.302 159.438 158.329 159.429 158.353 159.415Z" fill="white"/>
<path d="M158.892 159.849L159.592 159.118C159.608 159.099 159.616 159.074 159.616 159.048C159.614 159.023 159.603 158.999 159.584 158.981C159.568 158.962 159.544 158.951 159.519 158.949C159.493 158.948 159.468 158.955 159.448 158.97L158.748 159.701C158.73 159.72 158.719 159.747 158.719 159.774C158.719 159.801 158.73 159.828 158.748 159.847C158.766 159.864 158.79 159.874 158.814 159.875C158.841 159.871 158.869 159.863 158.892 159.849Z" fill="white"/>
<path d="M159.441 160.284L160.141 159.553C160.159 159.533 160.168 159.508 160.168 159.481C160.168 159.454 160.157 159.429 160.139 159.41C160.119 159.391 160.093 159.38 160.067 159.379C160.04 159.378 160.014 159.387 159.994 159.405L159.295 160.136C159.277 160.155 159.266 160.182 159.266 160.209C159.266 160.236 159.277 160.262 159.295 160.282C159.313 160.299 159.337 160.308 159.361 160.309C159.39 160.311 159.419 160.302 159.441 160.284Z" fill="white"/>
<path d="M215.25 164.267H28.6802C28.6075 164.267 28.5378 164.237 28.4864 164.186C28.4351 164.135 28.4062 164.066 28.4062 163.993C28.4062 163.92 28.4351 163.85 28.4864 163.799C28.5378 163.748 28.6075 163.719 28.6802 163.719H215.25C215.323 163.719 215.393 163.748 215.444 163.799C215.495 163.85 215.524 163.92 215.524 163.993C215.524 164.066 215.495 164.135 215.444 164.186C215.393 164.237 215.323 164.267 215.25 164.267Z" fill="#B2B6BB"/>
<path d="M130.496 66.2273C129.354 66.2273 128.438 65.2519 128.438 64.0355C128.438 62.8191 129.351 61.8438 130.496 61.8438C131.641 61.8438 132.374 62.8154 132.374 64.0355C132.374 65.2556 131.643 66.2273 130.496 66.2273Z" fill="black"/>
<path d="M123.518 73.9318L122.141 74.4486C122.141 74.4486 122.871 78.1016 127.985 77.9189C131.09 77.7363 131.015 74.0596 131.015 74.0596L130.338 73.9665C130.253 73.9546 130.176 73.9135 130.118 73.8505C130.061 73.7875 130.028 73.7064 130.024 73.6213L129.931 71.7089V70.4505C130.002 70.1601 130.349 69.8861 130.349 69.5026C130.458 67.7345 130.659 66.1309 130.659 66.1309C130.659 66.1309 124.88 62.2588 124.515 66.7592L124.066 67.6067L123.797 73.592C123.794 73.6713 123.765 73.7473 123.714 73.8086C123.664 73.8698 123.595 73.9131 123.518 73.9318Z" fill="#C46F69"/>
<path d="M131.209 61.8732C131.209 61.8732 133.689 71.4694 128.677 72.1635C124.338 72.7589 123.828 65.9827 123.828 65.9827L124.011 62.8284L127.353 61.4805L131.209 61.8732Z" fill="#C46F69"/>
<path opacity="0.25" d="M124.099 67.6597C124.214 67.6334 124.321 67.581 124.413 67.5065C124.505 67.4321 124.578 67.3377 124.627 67.2305L124.062 68.2789L124.099 67.6597Z" fill="black"/>
<path opacity="0.25" d="M125.788 71.2147C126.331 71.8463 127.093 72.2489 127.921 72.3417C128.543 72.7466 129.277 72.9442 130.018 72.9061L129.921 71.675L129.755 71.7736C129.135 72.1157 128.416 72.2336 127.72 72.1072C127.023 71.9808 126.392 71.6179 125.932 71.0796C125.914 71.0431 125.839 71.0449 125.8 71.065C125.785 71.0865 125.776 71.1119 125.774 71.1382C125.772 71.1645 125.777 71.1908 125.788 71.2147Z" fill="black"/>
<path d="M133.77 161.894L142.677 162.12L139.125 159.59C138.837 159.388 138.601 159.121 138.435 158.811C138.269 158.501 138.179 158.156 138.171 157.804L138.016 154.98L133.18 154.997L133.77 161.894Z" fill="#C46F69"/>
<path opacity="0.15" d="M134.76 158.647V158.594C134.743 158.447 134.785 158.3 134.876 158.183C134.967 158.067 135.1 157.991 135.246 157.971L138.139 157.551L138.105 156.629H133.305V156.994L133.738 161.708L137.619 161.275L136.34 160.773C135.909 160.595 135.535 160.303 135.257 159.928C134.979 159.554 134.807 159.111 134.76 158.647Z" fill="black"/>
<path d="M117.742 161.355H121.746L122.489 154.578L117.759 154.595L117.742 161.355Z" fill="#C46F69"/>
<path opacity="0.15" d="M118.746 160.212L118.85 158.133C118.86 158.002 118.912 157.878 119.001 157.781C119.089 157.684 119.207 157.619 119.336 157.596L122.213 157.162L122.282 156.59L117.776 156.608L117.758 161.408L118.746 160.212Z" fill="black"/>
<path d="M118.367 104.891L117.484 156.642H122.69L127.212 112.766C127.227 112.625 127.294 112.494 127.399 112.398C127.505 112.303 127.642 112.249 127.784 112.248C127.924 112.247 128.059 112.301 128.161 112.398C128.263 112.494 128.324 112.626 128.332 112.766L133.148 156.642H138.348L137.152 104.9L118.367 104.891Z" fill="#2970FF"/>
<path opacity="0.3" d="M118.367 104.891L117.484 156.642H122.69L127.212 112.766C127.227 112.625 127.294 112.494 127.399 112.398C127.505 112.303 127.642 112.249 127.784 112.248C127.924 112.247 128.059 112.301 128.161 112.398C128.263 112.494 128.324 112.626 128.332 112.766L133.148 156.642H138.348L137.152 104.9L118.367 104.891Z" fill="black"/>
<path opacity="0.2" d="M135.165 156.678L131.147 114.647C131.067 113.986 130.748 113.376 130.25 112.933C129.753 112.489 129.11 112.242 128.444 112.238H127.805C127.945 112.238 128.08 112.292 128.182 112.388C128.284 112.485 128.345 112.617 128.353 112.757L133.136 156.753L135.165 156.678Z" fill="black"/>
<path opacity="0.2" d="M118.324 104.927L117.422 156.603L119.657 156.62L121.301 104.664L118.324 104.927Z" fill="black"/>
<path d="M145.887 163.003V162.811C145.887 162.508 145.767 162.218 145.552 162.003C145.338 161.788 145.047 161.668 144.744 161.668H143.148C142.981 161.669 142.815 161.637 142.661 161.575C142.506 161.512 142.366 161.42 142.247 161.302L138.174 157.438L136.908 159.101C136.81 159.231 136.683 159.337 136.537 159.411C136.392 159.485 136.232 159.525 136.068 159.529C135.905 159.532 135.743 159.498 135.595 159.431C135.447 159.363 135.316 159.262 135.212 159.136C135.109 159.015 134.982 158.917 134.838 158.849C134.695 158.781 134.539 158.744 134.381 158.74H133.531V162.941L145.887 163.003Z" fill="#21252B"/>
<path d="M145.883 162.999V163.622H133.492V162.93L145.883 162.999Z" fill="black"/>
<path d="M137.353 158.48L140.109 160.714C140.257 160.832 140.442 160.892 140.631 160.882C140.819 160.871 140.997 160.791 141.13 160.658L141.339 160.449L138.168 157.434C138.086 157.411 137.998 157.413 137.917 157.441C137.837 157.469 137.766 157.522 137.717 157.591L137.388 158.059C137.345 158.111 137.317 158.175 137.308 158.242C137.299 158.31 137.309 158.378 137.337 158.44L137.353 158.48Z" fill="black"/>
<path d="M121.234 158.281H121.563C121.713 158.279 121.858 158.333 121.97 158.432C122.082 158.532 122.153 158.669 122.169 158.818L122.239 160.066C122.26 160.452 122.36 160.83 122.533 161.176L122.655 161.401C122.875 161.836 122.988 162.316 122.984 162.804V163.03H116.641C116.643 162.411 116.83 161.808 117.178 161.297C117.435 160.915 117.596 160.476 117.645 160.018L117.784 158.771C117.814 158.633 117.89 158.509 118.001 158.42C118.111 158.332 118.249 158.284 118.39 158.285H118.615" fill="#21252B"/>
<path d="M122.997 163.016H116.672V163.622H122.997V163.016Z" fill="black"/>
<path d="M120.393 157.719H119.458C119.347 157.718 119.236 157.742 119.134 157.787C119.033 157.833 118.942 157.9 118.868 157.984C118.794 158.068 118.739 158.166 118.706 158.273C118.674 158.38 118.664 158.492 118.678 158.603L118.887 160.301C118.922 160.553 119.047 160.783 119.237 160.95C119.428 161.118 119.672 161.211 119.926 161.215C120.185 161.216 120.435 161.121 120.628 160.948C120.821 160.774 120.941 160.535 120.967 160.278L121.15 158.579C121.164 158.471 121.156 158.362 121.125 158.258C121.094 158.153 121.04 158.057 120.969 157.976C120.897 157.894 120.808 157.829 120.709 157.784C120.61 157.74 120.502 157.718 120.393 157.719Z" fill="black"/>
<path d="M121.613 158.844H118.25" stroke="white" stroke-width="0.228309" stroke-linecap="round" stroke-linejoin="round"/>
<path d="M121.506 159.641H118.352" stroke="white" stroke-width="0.228309" stroke-linecap="round" stroke-linejoin="round"/>
<path d="M121.41 160.422H118.43" stroke="white" stroke-width="0.228309" stroke-linecap="round" stroke-linejoin="round"/>
<path d="M140.52 159.645L139.289 160.806" stroke="white" stroke-width="0.228309" stroke-linecap="round" stroke-linejoin="round"/>
<path d="M139.858 159.035L138.594 160.232" stroke="white" stroke-width="0.228309" stroke-linecap="round" stroke-linejoin="round"/>
<path d="M139.185 158.465L137.938 159.643" stroke="white" stroke-width="0.228309" stroke-linecap="round" stroke-linejoin="round"/>
<path d="M131.275 59.8344C130.545 59.3924 130.527 58.9687 130.086 59.1532C129.941 59.2187 129.776 59.2288 129.623 59.1813C129.47 59.1338 129.34 59.0323 129.257 58.8956C128.963 58.4536 128.691 58.5924 127.613 58.5559C126.232 58.5011 125.509 58.8938 125.252 59.3157C125.204 59.4032 125.135 59.4775 125.052 59.5323C124.968 59.5871 124.872 59.6206 124.773 59.6299C124.128 59.7212 123.507 60.7002 123.047 62.0262C122.238 64.3458 123.047 65.8618 123.047 65.8618L124.079 65.2171L124.262 65.5111L124.444 66.4134C124.444 66.5065 124.574 66.5796 124.665 66.5796C124.718 66.5732 124.767 66.5465 124.801 66.5054C124.835 66.4643 124.852 66.4117 124.848 66.3586L124.793 65.4015C124.789 65.3648 124.792 65.3276 124.803 65.2923C124.813 65.2569 124.832 65.2244 124.856 65.1966C124.88 65.1687 124.91 65.1464 124.944 65.131C124.977 65.1157 125.014 65.1076 125.051 65.1075C125.181 65.0976 125.307 65.062 125.423 65.0026C125.539 64.9434 125.642 64.8616 125.726 64.7623C125.81 64.6627 125.873 64.5477 125.912 64.4235C125.951 64.2993 125.965 64.1685 125.953 64.039C125.939 63.9089 125.952 63.7776 125.99 63.6527C126.029 63.5277 126.092 63.4119 126.176 63.312C126.26 63.2121 126.364 63.1305 126.481 63.0717C126.598 63.0131 126.725 62.9785 126.855 62.9705L131.217 62.6582C132.327 62.4792 132.293 60.6819 131.275 59.8344Z" fill="black"/>
<path d="M123.006 66.2344L122.255 68.3732C122.223 68.4619 122.218 68.558 122.24 68.6497C122.261 68.7416 122.309 68.825 122.378 68.8901C122.619 69.1111 123.097 69.4124 123.985 69.5366L124.062 66.8316L123.006 66.2344Z" fill="#2970FF"/>
<path opacity="0.5" d="M123.006 66.2344L122.255 68.3732C122.223 68.4619 122.218 68.558 122.24 68.6497C122.261 68.7416 122.309 68.825 122.378 68.8901C122.619 69.1111 123.097 69.4124 123.985 69.5366L124.062 66.8316L123.006 66.2344Z" fill="black"/>
<path d="M139.683 74.9922L147.56 75.268H147.655C149.761 75.3283 155.756 75.3538 155.756 75.3538L156.968 78.0625L139.5 80.8369L139.683 74.9922Z" fill="#C46F69"/>
<path opacity="0.25" d="M157.334 77.3398L139.865 80.1106L139.5 80.8412L156.968 78.0704L157.334 77.3398Z" fill="black"/>
<path d="M142.238 81.7724L142.603 74.9943L136.746 74.4464L130.888 74.0263V74.0446C129.895 77.4071 124.207 76.9815 123.257 73.8984L117.109 75.9076L118.238 87.9623L118.008 105.759H137.369L137.458 89.4344L137.414 82.4938L142.238 81.7724Z" fill="#D1E0FF"/>
<path d="M132.288 61.292C132.085 60.5523 131.669 59.8887 131.091 59.3839C130.514 58.8789 129.801 58.5547 129.041 58.4518C128.25 58.3295 126.484 58.4993 125.881 58.6674C125.004 58.9176 123.813 60.0354 123.62 60.2637C123.426 60.492 122.778 61.9824 122.69 62.4226C122.511 63.3011 122.876 65.4929 122.876 65.4929C122.876 65.4929 123.764 62.9358 126.253 62.0226C126.306 62.0025 126.412 61.9678 126.412 61.9678L130.431 61.8125C130.461 61.82 130.492 61.8292 130.522 61.8399C132.122 62.5705 132.367 63.9349 132.367 63.9349C132.367 63.9349 132.423 61.7778 132.288 61.292ZM126.407 61.0893C126.407 61.0893 126.425 59.8308 128.204 59.6482C130.681 59.3943 130.451 60.976 130.451 60.976L126.407 61.0893Z" fill="#2970FF"/>
<path opacity="0.3" d="M126.403 61.9615C126.392 61.9615 126.381 61.957 126.372 61.9487C126.364 61.9405 126.36 61.9294 126.36 61.9177C126.359 61.9118 126.36 61.9058 126.362 61.9003C126.363 61.8947 126.366 61.8894 126.37 61.885C126.374 61.8806 126.379 61.8769 126.384 61.8744C126.39 61.8718 126.396 61.8704 126.402 61.8702L130.286 61.7113C130.332 61.71 130.377 61.6994 130.419 61.6804C130.461 61.6612 130.498 61.6338 130.529 61.5999C130.573 61.5604 130.603 61.5076 130.615 61.4497C130.626 61.3918 130.619 61.3317 130.593 61.2784C130.564 61.22 130.518 61.1716 130.461 61.1392C130.404 61.1067 130.339 61.0916 130.274 61.0958L126.405 61.1999C126.393 61.1999 126.382 61.1953 126.373 61.1873C126.365 61.1791 126.36 61.1679 126.36 61.156C126.359 61.1502 126.36 61.1442 126.362 61.1385C126.363 61.133 126.366 61.1277 126.37 61.1233C126.374 61.119 126.379 61.1153 126.384 61.1128C126.39 61.1102 126.396 61.1087 126.402 61.1086L130.272 61.0044C130.355 61.0002 130.437 61.0207 130.509 61.0633C130.58 61.106 130.638 61.1686 130.674 61.2437C130.707 61.3138 130.717 61.3926 130.703 61.4687C130.688 61.5449 130.65 61.6145 130.593 61.6675C130.554 61.7098 130.508 61.744 130.456 61.7681C130.404 61.7922 130.347 61.8059 130.29 61.8081L126.405 61.967L126.403 61.9615Z" fill="black"/>
<path opacity="0.3" d="M129.082 61.5826C129.046 61.5826 129.011 61.5682 128.985 61.5424C128.96 61.5167 128.945 61.4818 128.945 61.4456C128.945 61.4093 128.96 61.3744 128.985 61.3487C129.011 61.3231 129.046 61.3087 129.082 61.3087C129.1 61.3081 129.118 61.3112 129.135 61.3176C129.151 61.3242 129.166 61.3339 129.179 61.3463C129.192 61.3587 129.202 61.3737 129.209 61.3901C129.216 61.4064 129.219 61.4241 129.219 61.442C129.22 61.4597 129.218 61.4776 129.211 61.4942C129.205 61.5108 129.195 61.526 129.183 61.5388C129.171 61.5519 129.157 61.5625 129.142 61.57C129.126 61.5775 129.109 61.5819 129.091 61.5826H129.082ZM129.082 61.4C129.07 61.4009 129.059 61.4064 129.052 61.4151C129.044 61.4241 129.04 61.4356 129.04 61.4475C129.041 61.4592 129.046 61.4703 129.054 61.4785C129.063 61.4867 129.074 61.4913 129.086 61.4913C129.098 61.4906 129.109 61.4853 129.117 61.4767C129.121 61.4723 129.124 61.467 129.126 61.4613C129.128 61.4557 129.129 61.4497 129.128 61.4438C129.128 61.4378 129.127 61.4319 129.124 61.4265C129.122 61.4212 129.119 61.4162 129.114 61.412C129.11 61.408 129.105 61.4047 129.1 61.4027C129.094 61.4005 129.088 61.3996 129.082 61.4Z" fill="black"/>
<path opacity="0.3" d="M128.376 61.6023C128.342 61.6017 128.309 61.588 128.284 61.5639C128.259 61.5389 128.244 61.5049 128.242 61.4689C128.241 61.451 128.244 61.433 128.251 61.416C128.257 61.399 128.266 61.3835 128.279 61.3703C128.291 61.3573 128.305 61.3469 128.321 61.3396C128.337 61.3325 128.354 61.3287 128.372 61.3283C128.39 61.3274 128.407 61.3301 128.424 61.3365C128.44 61.3427 128.455 61.3524 128.467 61.3648C128.492 61.3902 128.508 61.424 128.509 61.4598C128.51 61.496 128.498 61.531 128.473 61.5577C128.449 61.5844 128.415 61.6004 128.379 61.6023H128.376ZM128.376 61.4196C128.364 61.4204 128.353 61.4256 128.345 61.4342C128.341 61.4384 128.338 61.4432 128.336 61.4487C128.334 61.454 128.333 61.4596 128.334 61.4653C128.334 61.4775 128.339 61.489 128.346 61.4982C128.356 61.5055 128.367 61.5098 128.379 61.5109C128.391 61.51 128.402 61.5045 128.41 61.4958C128.418 61.4868 128.422 61.4753 128.421 61.4635C128.421 61.4514 128.416 61.4399 128.409 61.4306C128.399 61.4231 128.388 61.4193 128.376 61.4196Z" fill="black"/>
<path opacity="0.3" d="M127.673 61.6255C127.656 61.6257 127.639 61.6226 127.623 61.6164C127.608 61.6102 127.593 61.6009 127.581 61.589C127.568 61.5768 127.558 61.562 127.551 61.5457C127.544 61.5295 127.54 61.5118 127.539 61.494C127.538 61.476 127.541 61.4579 127.547 61.4409C127.553 61.4239 127.563 61.4084 127.576 61.3954C127.587 61.3823 127.601 61.3715 127.617 61.364C127.633 61.3565 127.65 61.3523 127.667 61.3516C127.703 61.3512 127.737 61.3642 127.764 61.3881C127.79 61.414 127.805 61.4486 127.806 61.4849C127.806 61.5205 127.793 61.555 127.769 61.5817C127.758 61.595 127.743 61.6056 127.727 61.6133C127.711 61.6208 127.694 61.625 127.676 61.6255H127.673ZM127.673 61.4429C127.661 61.4438 127.649 61.4491 127.641 61.4581C127.633 61.4668 127.629 61.4783 127.629 61.4904C127.629 61.4993 127.632 61.5077 127.638 61.515C127.643 61.5222 127.65 61.5276 127.658 61.5308C127.667 61.5339 127.676 61.5344 127.685 61.5324C127.693 61.5306 127.701 61.526 127.707 61.5196C127.715 61.5103 127.718 61.4986 127.718 61.4867C127.718 61.4807 127.717 61.475 127.714 61.4696C127.712 61.4643 127.708 61.4595 127.704 61.4557C127.7 61.4517 127.695 61.4484 127.689 61.4462C127.684 61.444 127.678 61.4429 127.673 61.4429Z" fill="black"/>
<path opacity="0.3" d="M126.96 61.6451C126.943 61.6451 126.926 61.6418 126.911 61.6352C126.896 61.6286 126.882 61.6189 126.87 61.6067C126.857 61.5948 126.846 61.5802 126.839 61.5638C126.832 61.5473 126.828 61.5296 126.828 61.5117C126.826 61.4756 126.839 61.4401 126.863 61.4131C126.875 61.4003 126.889 61.3901 126.905 61.3828C126.921 61.3757 126.939 61.3716 126.956 61.3711C126.992 61.3715 127.026 61.3852 127.051 61.4096C127.077 61.4339 127.093 61.4672 127.095 61.5026C127.096 61.5386 127.083 61.5735 127.059 61.5999C127.035 61.6266 127.001 61.6427 126.965 61.6451H126.96ZM126.96 61.4624C126.954 61.4622 126.948 61.4635 126.942 61.4661C126.937 61.4686 126.932 61.4723 126.929 61.477C126.925 61.481 126.921 61.4858 126.919 61.4911C126.917 61.4966 126.916 61.5022 126.916 61.5081C126.916 61.5143 126.917 61.5203 126.92 61.526C126.922 61.5316 126.926 61.5368 126.931 61.541C126.935 61.5452 126.939 61.5484 126.945 61.5506C126.95 61.5528 126.956 61.5539 126.962 61.5537C126.968 61.5536 126.974 61.5521 126.979 61.5495C126.984 61.547 126.989 61.5435 126.993 61.5391C126.997 61.5347 127.001 61.5294 127.003 61.5238C127.005 61.5183 127.006 61.5123 127.005 61.5063C127.005 61.4946 127.001 61.4834 126.992 61.4752C126.984 61.467 126.973 61.4624 126.962 61.4624H126.96Z" fill="black"/>
<path d="M137.428 86.0742L118.141 86.4578L118.232 87.9464L118.195 90.803L137.428 90.4267V86.0742Z" fill="#2970FF"/>
<path opacity="0.3" d="M137.428 86.0742L118.141 86.4578L118.232 87.9464L118.195 90.803L137.428 90.4267V86.0742Z" fill="black"/>
<path opacity="0.25" d="M127.114 77.2888C123.341 77.2888 122.418 74.3665 122.407 74.3281C122.402 74.3166 122.399 74.3038 122.398 74.2908C122.398 74.278 122.401 74.2653 122.406 74.2534C122.411 74.2413 122.418 74.2307 122.427 74.222C122.437 74.213 122.448 74.2064 122.46 74.2022C122.473 74.198 122.486 74.1966 122.498 74.1977C122.511 74.199 122.524 74.203 122.535 74.2094C122.546 74.2156 122.556 74.2243 122.564 74.2348C122.571 74.2452 122.577 74.257 122.579 74.2696C122.59 74.3007 123.533 77.276 127.436 77.0988C127.47 77.0988 130.586 77.15 131.679 74.0852C131.687 74.0631 131.704 74.0452 131.726 74.0355C131.748 74.0256 131.772 74.0247 131.795 74.0328C131.817 74.041 131.835 74.0574 131.846 74.0788C131.856 74.1002 131.858 74.1248 131.85 74.1473C130.712 77.3381 127.467 77.2815 127.438 77.2815C127.328 77.287 127.22 77.2888 127.114 77.2888Z" fill="black"/>
<path opacity="0.15" d="M142.589 81.7774L142.688 80.5664L137.649 81.1728L137.625 82.4789L142.589 81.7774Z" fill="black"/>
<path opacity="0.15" d="M123.062 96.0156C123.062 96.0156 127.112 99.8512 133.035 99.8403" stroke="black" stroke-width="0.182647" stroke-miterlimit="10"/>
<path opacity="0.15" d="M119.71 105.747L119.272 88.332L118.468 84.1914H118.01L118.238 87.9503L118.008 105.747H119.71Z" fill="black"/>
<path d="M124.214 65.4633C124.188 65.3546 124.139 65.2531 124.07 65.1656C124.001 65.0781 123.913 65.0067 123.814 64.9566C123.714 64.9064 123.604 64.8788 123.493 64.8753C123.381 64.872 123.27 64.8931 123.168 64.9373C122.205 65.2514 122.437 67.2076 123.745 67.613C124.554 67.7537 124.426 67.2715 124.348 66.6194L124.214 65.4633Z" fill="#C46F69"/>
<path opacity="0.3" d="M123.067 65.4865C123.134 65.4399 123.211 65.409 123.292 65.3968C123.372 65.3844 123.455 65.3908 123.533 65.4153C123.605 65.4423 123.671 65.4834 123.727 65.536C123.783 65.5888 123.828 65.652 123.86 65.7221C123.949 65.9004 123.982 66.1018 123.955 66.2993V66.4673C123.956 66.4815 123.953 66.4958 123.948 66.5089C123.942 66.5221 123.934 66.534 123.923 66.5435C123.913 66.553 123.9 66.5599 123.886 66.5637C123.873 66.5678 123.858 66.5685 123.844 66.5661C123.83 66.5637 123.817 66.5583 123.805 66.55C123.793 66.5418 123.784 66.531 123.777 66.5186C123.77 66.506 123.766 66.4921 123.765 66.4779C123.764 66.4638 123.767 66.4496 123.772 66.4362V66.2682C123.779 66.1031 123.755 65.9382 123.699 65.7824C123.653 65.6898 123.579 65.6136 123.487 65.565C123.385 65.5471 123.281 65.5637 123.189 65.6125C123.167 65.6222 123.141 65.6242 123.117 65.6182C123.093 65.6123 123.072 65.5988 123.056 65.5796C123.014 65.5815 123.031 65.5248 123.067 65.4865Z" fill="black"/>
<path opacity="0.2" d="M137.388 85.9556C137.364 85.9556 137.341 85.9459 137.324 85.9289C137.307 85.9118 137.297 85.8886 137.297 85.8643L137.333 77.0132C137.333 76.9889 137.343 76.9657 137.36 76.9487C137.377 76.9316 137.4 76.9219 137.425 76.9219C137.449 76.9219 137.472 76.9316 137.489 76.9487C137.506 76.9657 137.516 76.9889 137.516 77.0132L137.48 85.8643C137.48 85.8886 137.47 85.9118 137.453 85.9289C137.436 85.9459 137.412 85.9556 137.388 85.9556Z" fill="black"/>
<path d="M117.11 75.9023L111.539 79.221L113.198 85.0402L118.01 84.1909L117.11 75.9023Z" fill="#D1E0FF"/>
<path d="M111.589 79.3984L110.625 79.824L111.894 80.4706L111.589 79.3984Z" fill="#C46F69"/>
<path d="M138.486 103.844L137.641 157.177H142.61L146.934 111.88C146.944 111.74 147.005 111.608 147.106 111.51C147.207 111.412 147.341 111.355 147.482 111.351C147.621 111.355 147.753 111.412 147.851 111.511C147.95 111.609 148.007 111.741 148.011 111.88L152.616 157.177H157.586L156.442 103.844H138.486Z" fill="#21252B"/>
<path d="M137.508 157.172H142.808L142.907 156.023H137.524L137.508 157.172Z" fill="#21252B"/>
<path opacity="0.3" d="M137.508 157.172H142.808L142.907 156.023H137.524L137.508 157.172Z" fill="black"/>
<path opacity="0.3" d="M137.508 157.172H139.727L139.776 156.023H137.524L137.508 157.172Z" fill="black"/>
<path opacity="0.3" d="M154.545 156.287L150.696 113.793C150.548 112.397 149.418 111.336 148.114 111.336H147.5C147.639 111.341 147.771 111.398 147.869 111.496C147.968 111.594 148.025 111.727 148.03 111.866L152.596 156.362L154.545 156.287Z" fill="black"/>
<path d="M152.498 157.172H157.782L157.7 156.023H152.383L152.498 157.172Z" fill="#21252B"/>
<path opacity="0.3" d="M138.448 103.88L137.586 156.028L139.723 156.046L141.295 103.613L138.448 103.88Z" fill="black"/>
<path opacity="0.3" d="M152.498 157.172H157.782L157.7 156.023H152.383L152.498 157.172Z" fill="black"/>
<path opacity="0.3" d="M152.458 157.172H154.54L154.463 156.023H152.383L152.458 157.172Z" fill="black"/>
<path d="M172.372 84.3105L173.651 82.8493L174.551 81.4027C174.642 81.273 174.715 81.1635 174.759 81.0904C175.073 80.5699 174.564 79.9269 174.564 79.9269L174.598 79.7881C174.65 79.6236 174.657 79.4484 174.619 79.2804C174.58 79.1125 174.498 78.9574 174.381 78.8311L174.35 78.7324L175.667 76.358C175.667 76.358 176.398 75.3553 175.731 75.2621C175.356 75.2146 173.848 77.6785 173.285 78.2685C173.157 78.4018 172.92 78.2685 172.92 78.2685L173.833 75.5288C173.833 75.5288 174.016 74.6156 173.245 74.9224C172.966 75.0338 171.824 78.2685 171.824 78.2685C171.824 78.2685 171.293 78.9479 170.911 79.3644C170.734 79.6179 170.577 79.8847 170.44 80.1625C170.29 80.4822 170.127 82.4146 170.127 82.4146L169.906 83.3041L172.372 84.3105Z" fill="#FC9D9D"/>
<path d="M172.733 83.9467C172.733 83.9467 167.071 96.5494 164.101 96.4325C161.592 96.332 157.391 88.1476 157.391 88.1476L160.11 81.7422L164.591 89.8901L170.541 82.4856L172.733 83.9467Z" fill="#FC9D9D"/>
<path opacity="0.15" d="M164.101 95.5224C161.929 95.4347 158.492 89.2978 157.606 87.6448L157.391 88.1508C157.391 88.1508 161.592 96.3352 164.101 96.4356C167.071 96.5525 172.733 83.9499 172.733 83.9499L172.41 83.7344C171.17 86.3773 166.647 95.6229 164.101 95.5224Z" fill="black"/>
<path opacity="0.15" d="M164.242 89.491L164.523 90.7002L164.927 89.4636L164.6 89.8856L164.234 89.2773L164.242 89.491Z" fill="black"/>
<path d="M138.131 107.758L147.081 107.578L147.463 105.017L147.907 107.57L156.729 107.393L156.36 92.785L156.694 85.3238L157.035 78.1001L150.825 76.091L150.095 74.9951L149.182 74.8125L142.078 74.9221L141.236 75.1851L140.597 76.4563L137.496 77.6947L137.492 85.954L137.646 85.8919L138.334 94.6991L138.131 107.758Z" fill="#2970FF"/>
<path d="M158.174 89.9115L163.027 86.8376C163.027 86.8376 160.034 81.486 159.793 80.8522C159.162 79.192 156.87 78.1016 156.87 78.1016L156.547 87.1609L158.174 89.9115Z" fill="#2970FF"/>
<path opacity="0.2" d="M157.808 89.3502L157.688 89.1639L162.551 86.0352L162.632 86.289L157.808 89.3502Z" fill="black"/>
<path d="M157.825 89.336L162.647 86.2748C162.684 86.2521 162.728 86.2447 162.77 86.2538C162.81 86.2631 162.846 86.2883 162.87 86.3241L163.361 87.0894C163.372 87.1075 163.381 87.1276 163.385 87.1488C163.389 87.17 163.389 87.1917 163.383 87.2125C163.378 87.2335 163.371 87.2532 163.358 87.2708C163.345 87.2881 163.329 87.3029 163.31 87.3141L158.465 90.3131C158.43 90.3349 158.386 90.3422 158.346 90.3332C158.306 90.3245 158.269 90.3002 158.245 90.2656L157.778 89.5624C157.765 89.5445 157.758 89.5245 157.754 89.5033C157.749 89.4821 157.749 89.4603 157.754 89.4392C157.758 89.418 157.767 89.3981 157.78 89.3804C157.791 89.3625 157.807 89.3475 157.825 89.336Z" fill="#2970FF"/>
<path opacity="0.2" d="M141.508 75.4818V76.2763L142.129 76.1009V75.2188L141.508 75.4818Z" fill="black"/>
<path opacity="0.2" d="M149.723 75.1774C149.736 75.3598 149.736 75.543 149.723 75.7253C149.7 76.0362 149.638 76.3428 149.54 76.6386L148.992 75.908V75.0312L149.723 75.1774Z" fill="black"/>
<path d="M155.648 75.543C155.648 75.543 155.674 76.7886 156.828 78.0726C156.828 78.0726 157.058 79.7932 157.194 80.1256C157.343 80.6248 157.453 81.1354 157.521 81.6525C157.53 81.7159 157.555 81.7754 157.597 81.8242C157.639 81.873 157.692 81.9089 157.754 81.9281C157.815 81.9473 157.88 81.9486 157.942 81.9321C158.005 81.9157 158.059 81.8821 158.103 81.8352C158.62 81.2543 158.224 79.9137 158.417 79.7895C158.465 79.7504 158.523 79.7247 158.584 79.715C158.646 79.7053 158.708 79.7123 158.766 79.7347C159.453 80.058 159.188 83.3036 159.314 83.3383C159.338 83.5352 159.424 83.7195 159.559 83.8644C159.595 83.8965 159.639 83.9195 159.687 83.9316C159.734 83.9435 159.784 83.944 159.831 83.9332C159.88 83.9223 159.924 83.9004 159.961 83.8691C159.999 83.8377 160.028 83.7979 160.048 83.753C160.145 83.5374 160.403 83.4059 160.542 83.1283C160.748 82.7119 160.704 82.4872 160.878 82.2845C161.095 82.0441 161.285 81.7807 161.444 81.4991C161.594 81.1603 161.687 80.7994 161.721 80.4306L161.616 79.258C161.575 78.8138 161.389 78.3956 161.086 78.069C160.428 77.3567 159.294 76.142 159.186 76.0873C158.374 75.6818 155.648 75.543 155.648 75.543Z" fill="#C46F69"/>
<path opacity="0.25" d="M159.945 83.7395L160.338 81.6227L160.267 80.0117" stroke="black" stroke-width="0.126026" stroke-miterlimit="10" stroke-linecap="round"/>
<path opacity="0.25" d="M160.609 82.8798L160.945 81.3638L160.847 79.8789" stroke="black" stroke-width="0.126026" stroke-miterlimit="10" stroke-linecap="round"/>
<path opacity="0.25" d="M161.352 81.6146L161.428 81.3461L161.39 80" stroke="black" stroke-width="0.126026" stroke-miterlimit="10" stroke-linecap="round"/>
<path d="M149.557 67.8743C149.557 67.8743 143.502 63.4305 142.907 68.2707L142.553 69.5401L142.017 75.7501V75.7629L142.005 75.8944C141.979 76.077 141.508 76.2852 141.508 76.2852L141.568 76.4551L142.786 79.0158C142.786 79.0158 143.882 80.0441 144.613 80.477L146.257 81.5729L148.448 79.5638C148.448 79.5638 149.566 77.1601 149.727 76.0935C149.727 76.0935 149.179 76.0935 149.146 75.6496L148.858 72.6067C148.967 72.2451 149.038 71.8729 149.068 71.4962C149.267 69.5912 149.557 67.8743 149.557 67.8743Z" fill="#FC9D9D"/>
<path d="M146.897 64.4933C147.322 64.9348 147.815 65.3048 148.358 65.5892C148.906 65.8632 149.529 66.5737 150.133 66.4823C150.437 66.4411 150.728 66.3318 150.984 66.1631C151.24 65.9943 151.455 65.77 151.613 65.507C151.911 64.9737 151.887 63.6805 151.494 63.2166C151.101 62.7527 150.342 62.6102 149.85 62.9682C149.829 62.6811 149.736 62.4036 149.581 62.1611C149.426 61.9183 149.213 61.7182 148.961 61.5781C148.71 61.4382 148.427 61.3629 148.139 61.3591C147.851 61.3553 147.567 61.4232 147.311 61.5563C147.101 61.1576 146.775 60.8309 146.377 60.6183C145.979 60.4057 145.527 60.3171 145.078 60.3637C144.629 60.41 144.204 60.5898 143.858 60.8795C143.512 61.1691 143.261 61.5556 143.136 61.9892C142.916 61.9456 142.69 61.9474 142.471 61.9945C142.251 62.0416 142.044 62.1331 141.862 62.2634C141.679 62.3936 141.525 62.5596 141.409 62.7516C141.293 62.9435 141.218 63.1571 141.187 63.3792C141.166 63.6422 141.209 63.9271 141.105 64.1627C140.966 64.4915 140.612 64.4495 140.461 65.0084C140.368 65.2812 140.358 65.5751 140.431 65.8537C140.504 66.1322 140.657 66.3832 140.872 66.5755C141.237 66.9408 141.649 67.5581 141.617 68.0111C141.617 68.0111 141.315 70.1371 142.429 70.5955L146.897 64.4933Z" fill="black"/>
<path d="M150.253 64.4406C150.253 64.4406 151.63 73.9528 146.795 74.1483C142.611 74.3309 142.735 67.836 142.735 67.836L143.312 63.668L150.253 64.4406Z" fill="#FC9D9D"/>
<path opacity="0.15" d="M142.5 69.9552C142.714 69.972 142.929 69.9236 143.115 69.8164L142.438 70.8611L142.5 69.9552Z" fill="black"/>
<path opacity="0.2" d="M149.069 74.8544L148.914 73.1649C148.516 73.5795 147.361 74.3631 146.055 74.0544C145.4 73.8931 144.812 73.5273 144.379 73.0096C144.362 72.9894 144.338 72.9764 144.312 72.9733C144.287 72.9704 144.26 72.9775 144.24 72.9932C144.23 73.0014 144.221 73.0115 144.215 73.0228C144.209 73.0343 144.205 73.0467 144.204 73.0597C144.202 73.0725 144.203 73.0856 144.207 73.098C144.211 73.1105 144.217 73.122 144.225 73.132C145.639 74.1638 147.321 74.7623 149.069 74.8544Z" fill="black"/>
<path d="M150.54 67.5859L148.864 67.5366H148.633L147.172 67.4927H147.161L145.271 67.4379C145.198 67.435 145.125 67.4465 145.057 67.4721C144.989 67.4977 144.926 67.5366 144.873 67.5866C144.82 67.6367 144.777 67.6968 144.748 67.7634C144.718 67.8301 144.702 67.9019 144.701 67.9749L144.688 68.4041C144.682 68.602 144.715 68.799 144.786 68.9841C144.856 69.1693 144.962 69.3386 145.098 69.4827C145.372 69.7736 145.751 69.9439 146.15 69.9557C146.55 69.9676 146.938 69.8202 147.229 69.5459C147.52 69.2717 147.69 68.8933 147.702 68.4936L147.709 68.0553C147.711 67.9318 147.671 67.8115 147.596 67.7137L148.18 67.732C148.103 67.8259 148.061 67.9442 148.062 68.0663L148.049 68.4973C148.037 68.8969 148.184 69.2849 148.459 69.5758C148.733 69.8668 149.111 70.037 149.511 70.0489C149.911 70.0608 150.299 69.9134 150.59 69.639C150.88 69.3649 151.051 68.9864 151.063 68.5868L151.074 68.1557C151.076 68.0831 151.065 68.0107 151.04 67.9426C151.014 67.8745 150.976 67.8122 150.926 67.7592C150.876 67.7061 150.817 67.6635 150.75 67.6337C150.684 67.604 150.613 67.5877 150.54 67.5859ZM147.495 68.0553L147.483 68.4845C147.478 68.6531 147.441 68.8191 147.373 68.9735C147.304 69.1276 147.206 69.2668 147.084 69.383C146.962 69.4993 146.818 69.5903 146.66 69.6509C146.503 69.7117 146.335 69.7408 146.167 69.7366C145.998 69.7324 145.832 69.6949 145.678 69.6266C145.524 69.5581 145.384 69.46 145.268 69.3378C145.152 69.2156 145.061 69.0717 145 68.9143C144.94 68.7568 144.91 68.5892 144.915 68.4206L144.927 67.9914C144.931 67.9017 144.969 67.8169 145.034 67.7554C145.1 67.6938 145.187 67.6606 145.276 67.6626L147.167 67.7192H147.181C147.224 67.7205 147.266 67.7304 147.305 67.7481C147.344 67.7656 147.379 67.7908 147.408 67.8221C147.437 67.8533 147.46 67.89 147.475 67.93C147.49 67.97 147.497 68.0126 147.495 68.0553ZM150.849 68.585C150.841 68.9254 150.698 69.2489 150.451 69.484C150.205 69.7192 149.875 69.8467 149.535 69.8388C149.194 69.8308 148.871 69.6878 148.636 69.4414C148.4 69.195 148.273 68.8652 148.281 68.5247L148.294 68.0936C148.297 68.0043 148.336 67.9199 148.401 67.8589C148.466 67.7978 148.553 67.7647 148.643 67.7667H148.873L150.548 67.816C150.637 67.8193 150.722 67.8577 150.783 67.9231C150.845 67.9883 150.878 68.0752 150.876 68.1649L150.849 68.585Z" fill="black"/>
<path d="M150.664 65.4764C149.658 65.7338 148.592 65.6136 147.669 65.1385C146.62 64.6143 145.398 64.3586 145.128 64.5705C144.858 64.7823 144.803 65.8618 143.764 66.1759C143.764 66.1759 143.835 68.238 143.013 68.1631C142.191 68.0883 142.706 64.8974 142.706 64.8974V62.6308L146.69 62.3477L148.966 62.9157L150.956 63.4855L150.664 65.4764Z" fill="black"/>
<path d="M142.728 67.4583C142.688 67.3394 142.621 67.2307 142.535 67.1399C142.448 67.0491 142.342 66.9787 142.225 66.9332C142.107 66.8879 141.982 66.8685 141.856 66.8769C141.731 66.8853 141.609 66.9209 141.499 66.9816C140.452 67.4418 140.668 69.8108 142.436 69.9496C143.349 70.0263 143.166 69.4875 143.02 68.7642L142.728 67.4583Z" fill="#FC9D9D"/>
<path opacity="0.2" d="M141.454 67.6019C141.524 67.5458 141.605 67.5047 141.692 67.4808C141.779 67.457 141.87 67.451 141.96 67.4631C142.046 67.485 142.126 67.5252 142.195 67.5811C142.264 67.6368 142.32 67.7069 142.36 67.7864C142.473 67.9822 142.532 68.2048 142.529 68.4311L142.544 68.632C142.544 68.6463 142.542 68.6603 142.536 68.6733C142.531 68.6864 142.523 68.6983 142.513 68.7082C142.503 68.718 142.491 68.7259 142.478 68.731C142.464 68.7361 142.45 68.7385 142.436 68.738C142.422 68.7383 142.408 68.7358 142.395 68.7305C142.382 68.7253 142.37 68.7175 142.36 68.7076C142.35 68.6978 142.342 68.6861 142.337 68.6731C142.331 68.6601 142.329 68.6461 142.329 68.632L142.314 68.4311C142.307 68.2437 142.26 68.06 142.175 67.8923C142.154 67.8348 142.119 67.7834 142.074 67.7429C142.028 67.7023 141.973 67.674 141.913 67.6603C141.853 67.6466 141.791 67.6483 141.732 67.6649C141.673 67.6815 141.62 67.7126 141.576 67.7553C141.551 67.7697 141.522 67.7745 141.493 67.7686C141.465 67.763 141.44 67.7473 141.423 67.7243C141.392 67.7078 141.406 67.6475 141.454 67.6019Z" fill="black"/>
<path opacity="0.2" d="M140.585 76.457C140.585 76.457 140.22 78.4661 141.133 81.7538L142.138 79.836C142.138 79.836 142.264 79.4433 142.868 79.878C143.014 79.9849 143.166 80.0813 143.325 80.1666C143.732 80.3803 145.073 81.1693 145.7 81.5711C146.065 81.8122 145.882 81.7538 145.882 81.7538C145.882 81.7538 144.969 81.5711 142.686 80.2013C142.686 80.2013 142.412 80.11 142.103 80.8314L141.042 82.7584C140.284 80.8071 140.029 78.6968 140.3 76.6214L140.585 76.457Z" fill="black"/>
<path opacity="0.2" d="M150.824 76.0938C151.051 77.71 151.112 79.3454 151.007 80.9741C151.007 80.9741 150.292 79.8691 149.494 79.743C149.412 79.7301 149.328 79.7345 149.247 79.7562C149.167 79.7779 149.091 79.8165 149.027 79.8691C148.594 80.2344 147.136 81.0782 146.453 81.754C146.616 81.7538 146.775 81.7083 146.913 81.6225L149.186 80.2161C149.186 80.2161 149.916 79.3814 151.333 81.8782C151.333 81.8782 151.737 79.0161 151.076 76.1759L150.824 76.0938Z" fill="black"/>
<path opacity="0.3" d="M146.219 82.3672C146.219 82.3672 147.631 99.7461 147.448 104.678" stroke="black" stroke-width="0.182647" stroke-miterlimit="10" stroke-linecap="round"/>
<path opacity="0.2" d="M139.131 107.688L139.314 94.9024L138.168 85.8906H137.641L138.329 94.6979L138.126 107.757L139.131 107.688Z" fill="black"/>
<path opacity="0.2" d="M156.594 87.1403L156.776 83.8398L157.01 84.2161L157.032 85.9512L158.663 88.806L157.832 89.3339L156.594 87.1403Z" fill="black"/>
<path opacity="0.2" d="M159.055 89.7887L158.585 89.0855C158.574 89.0674 158.565 89.0471 158.561 89.0259C158.558 89.0048 158.558 88.983 158.563 88.9618C158.567 88.9408 158.576 88.9209 158.589 88.9032C158.6 88.8855 158.616 88.8705 158.634 88.859L162.728 86.2618C162.7 86.261 162.671 86.2685 162.647 86.2837L157.825 89.3449C157.807 89.3564 157.791 89.3713 157.78 89.3891C157.767 89.4068 157.758 89.4269 157.754 89.4479C157.749 89.469 157.749 89.491 157.754 89.5122C157.758 89.5333 157.765 89.5534 157.778 89.5713L158.245 90.2745C158.269 90.309 158.306 90.3332 158.346 90.3421C158.386 90.3509 158.43 90.3437 158.465 90.322L159.213 89.8581C159.182 89.8627 159.151 89.8586 159.124 89.8462C159.097 89.834 159.073 89.8141 159.055 89.7887Z" fill="black"/>
<path opacity="0.15" d="M170.766 79.9931L171.783 79.3557C171.783 79.3557 172.32 78.9685 172.802 79.3557L173.869 80.5356C173.869 80.5356 173.858 80.8753 173.367 80.9338C173.149 80.9559 172.932 80.9091 172.742 80.8004C172.565 80.7033 172.402 80.5801 172.262 80.4351C172.251 80.4242 172.232 80.4351 172.238 80.4479C172.34 80.7201 172.621 81.6735 171.872 82.3383" stroke="black" stroke-width="0.136985" stroke-miterlimit="10" stroke-linecap="round"/>
<path opacity="0.15" d="M174.453 79.9966C174.325 79.9837 174.196 79.9992 174.075 80.0417C173.953 80.0843 173.841 80.1532 173.75 80.2432" stroke="black" stroke-width="0.136985" stroke-miterlimit="10" stroke-linecap="round"/>
<path opacity="0.15" d="M174.25 79.082C173.849 79.1492 173.476 79.3408 173.188 79.63" stroke="black" stroke-width="0.136985" stroke-miterlimit="10" stroke-linecap="round"/>
<path opacity="0.15" d="M172.989 80.9375C172.95 80.9695 172.917 81.0062 172.888 81.0471C172.841 81.1181 172.817 81.2032 172.821 81.2891C172.826 81.3749 172.859 81.4568 172.916 81.522C172.972 81.587 173.047 81.6319 173.133 81.6493C173.217 81.6668 173.305 81.656 173.381 81.6188H173.394L174.49 81.0818" stroke="black" stroke-width="0.136985" stroke-miterlimit="10" stroke-linecap="round"/>
<path opacity="0.15" d="M172.406 83.7312C172.982 83.3926 173.478 82.9371 173.867 82.3942L174.335 81.7422L173.643 82.8509L172.73 83.9467L172.406 83.7312Z" fill="black"/>
<path d="M137.328 156.814L137.885 137.535L138.347 156.814H137.328Z" fill="#2970FF"/>
<path opacity="0.3" d="M137.328 156.814L137.885 137.535L138.347 156.814H137.328Z" fill="black"/>
<path d="M110.586 156.273L110.754 160.938L118.029 161.464L115.223 159.126C114.999 158.934 114.817 158.696 114.691 158.429C114.565 158.161 114.498 157.87 114.493 157.574L114.447 156.295L110.586 156.273Z" fill="#FC9D9D"/>
<path opacity="0.2" d="M110.719 157.836V159.533L111.992 159.956L111.798 157.836H110.719Z" fill="black"/>
<path d="M98.9974 157.054H95.5162C95.4924 158.437 95.4522 159.812 95.3828 161.177L96.8915 161.37L98.6467 161.222L98.749 159.745H98.7727C98.8385 158.853 98.9141 157.954 98.9992 157.047L98.9974 157.054Z" fill="#FC9D9D"/>
<path opacity="0.2" d="M95.4219 158.004V159.556L96.3863 159.341L96.536 158.004H95.4219Z" fill="black"/>
<path d="M115.563 82.1211L118.12 86.5046L118.303 87.9658L118.211 93.7575L115.223 90.6379L112.641 86.6873L115.563 82.1211Z" fill="#2970FF"/>
<path d="M95.3194 159.958L95.3084 160.278C95.306 160.549 95.2571 160.819 95.1641 161.074L94.7678 162.188C94.6584 162.504 94.6023 162.836 94.6016 163.171V163.226C94.6034 163.28 94.6162 163.333 94.639 163.383C94.6617 163.432 94.694 163.478 94.7342 163.514C94.7743 163.551 94.8213 163.58 94.8726 163.598C94.9238 163.616 94.9782 163.626 95.0326 163.622H98.9942C99.1038 163.626 99.2105 163.587 99.2912 163.512C99.3719 163.437 99.4202 163.335 99.4253 163.226V163.081C99.4256 162.793 99.3807 162.506 99.2919 162.232L98.9486 161.096C98.8741 160.864 98.837 160.622 98.839 160.378V159.958C98.8364 159.695 98.734 159.442 98.5522 159.251L98.4956 159.186C98.1321 158.815 97.6368 158.604 97.1179 158.598C96.5992 158.592 96.0989 158.791 95.7267 159.153L95.6262 159.251C95.4436 159.443 95.3349 159.693 95.3194 159.958Z" fill="#2970FF"/>
<path opacity="0.6" d="M94.6016 162.922H99.4143C99.4235 162.977 99.4271 163.031 99.4253 163.086V163.231C99.4235 163.285 99.4109 163.338 99.388 163.388C99.3652 163.437 99.3329 163.483 99.2927 163.519C99.2527 163.556 99.2055 163.585 99.1544 163.603C99.1031 163.621 99.0487 163.631 98.9942 163.627H95.0326C94.923 163.631 94.8164 163.592 94.7356 163.517C94.6551 163.442 94.6069 163.34 94.6016 163.231V162.922Z" fill="black"/>
<path d="M97.9326 160.14C97.9425 160.116 97.9434 160.09 97.9354 160.065C97.9273 160.041 97.9109 160.02 97.8888 160.007C97.6329 159.881 97.3518 159.816 97.0669 159.816C96.782 159.816 96.5009 159.881 96.245 160.007C96.2209 160.018 96.2022 160.039 96.1933 160.064C96.1843 160.09 96.1858 160.118 96.1975 160.142C96.2092 160.166 96.23 160.185 96.2552 160.194C96.2806 160.202 96.3085 160.201 96.3326 160.189C96.561 160.081 96.8105 160.024 97.0632 160.024C97.316 160.024 97.5655 160.081 97.7938 160.189C97.8068 160.198 97.8223 160.202 97.8377 160.2C97.8574 160.199 97.8764 160.193 97.893 160.182C97.9096 160.172 97.9233 160.157 97.9326 160.14Z" fill="white"/>
<path d="M97.9326 160.644C97.9425 160.62 97.9434 160.594 97.9354 160.569C97.9273 160.545 97.9109 160.524 97.8888 160.511C97.6329 160.385 97.3518 160.32 97.0669 160.32C96.782 160.32 96.5009 160.385 96.245 160.511C96.2209 160.522 96.2022 160.543 96.1933 160.568C96.1843 160.594 96.1858 160.621 96.1975 160.646C96.2092 160.67 96.23 160.689 96.2552 160.697C96.2806 160.706 96.3085 160.705 96.3326 160.693C96.5608 160.584 96.8105 160.528 97.0632 160.528C97.316 160.528 97.5657 160.584 97.7938 160.693C97.8068 160.702 97.8223 160.706 97.8377 160.704C97.8574 160.703 97.8764 160.697 97.893 160.687C97.9096 160.676 97.9233 160.661 97.9326 160.644Z" fill="white"/>
<path d="M97.9326 161.144C97.9425 161.12 97.9434 161.094 97.9354 161.069C97.9273 161.045 97.9109 161.024 97.8888 161.01C97.6329 160.885 97.3518 160.82 97.0669 160.82C96.782 160.82 96.5009 160.885 96.245 161.01C96.2209 161.022 96.2022 161.043 96.1933 161.068C96.1843 161.094 96.1858 161.121 96.1975 161.146C96.2092 161.17 96.23 161.189 96.2552 161.197C96.2806 161.206 96.3085 161.205 96.3326 161.193C96.5608 161.084 96.8105 161.028 97.0632 161.028C97.316 161.028 97.5657 161.084 97.7938 161.193C97.8068 161.202 97.8223 161.206 97.8377 161.204C97.8574 161.203 97.8764 161.197 97.893 161.186C97.9096 161.176 97.9233 161.161 97.9326 161.144Z" fill="white"/>
<path d="M110.931 159.377L112.575 159.89C112.693 159.926 112.819 159.932 112.94 159.907C113.061 159.882 113.174 159.826 113.267 159.746L114.568 158.637C114.709 158.515 114.889 158.446 115.076 158.442C115.263 158.437 115.445 158.498 115.593 158.613L118.528 160.891L120.842 161.654C121.174 161.766 121.464 161.98 121.669 162.264C121.874 162.549 121.986 162.891 121.987 163.242C121.987 163.338 121.948 163.432 121.88 163.499C121.811 163.569 121.719 163.607 121.622 163.607H111.359C111.243 163.607 111.128 163.585 111.021 163.539C110.914 163.495 110.816 163.432 110.734 163.349C110.652 163.267 110.587 163.17 110.543 163.063C110.499 162.955 110.476 162.84 110.477 162.725V159.717C110.476 159.661 110.489 159.607 110.513 159.557C110.538 159.508 110.574 159.465 110.618 159.432C110.662 159.399 110.714 159.376 110.768 159.367C110.823 159.357 110.878 159.361 110.931 159.377Z" fill="#2970FF"/>
<path opacity="0.6" d="M110.492 162.879H121.942C121.977 162.998 121.994 163.12 121.992 163.244C121.992 163.341 121.953 163.434 121.885 163.502C121.816 163.571 121.723 163.609 121.626 163.609H111.362C111.154 163.609 110.953 163.535 110.794 163.401C110.636 163.268 110.529 163.083 110.492 162.879Z" fill="black"/>
<path d="M115.612 159.798L116.231 159.131C116.248 159.114 116.258 159.09 116.258 159.065C116.258 159.041 116.248 159.017 116.231 159C116.222 158.991 116.212 158.984 116.201 158.98C116.19 158.975 116.178 158.973 116.166 158.973C116.154 158.973 116.142 158.975 116.131 158.98C116.12 158.984 116.11 158.991 116.101 159L115.48 159.666C115.463 159.684 115.453 159.707 115.453 159.732C115.453 159.757 115.463 159.78 115.48 159.798C115.497 159.813 115.518 159.821 115.54 159.822C115.566 159.82 115.59 159.811 115.612 159.798Z" fill="white"/>
<path d="M116.096 160.177L116.715 159.51C116.731 159.493 116.74 159.469 116.739 159.446C116.738 159.422 116.728 159.4 116.712 159.383C116.695 159.366 116.672 159.356 116.649 159.356C116.625 159.355 116.602 159.363 116.584 159.379L115.965 160.046C115.947 160.063 115.938 160.087 115.938 160.111C115.938 160.136 115.947 160.16 115.965 160.177C115.972 160.185 115.982 160.191 115.992 160.195C116.002 160.199 116.012 160.201 116.023 160.201C116.049 160.199 116.074 160.19 116.096 160.177Z" fill="white"/>
<path d="M116.595 160.567L117.216 159.901C117.232 159.883 117.242 159.859 117.242 159.835C117.242 159.811 117.232 159.787 117.216 159.769C117.198 159.752 117.175 159.742 117.15 159.742C117.125 159.742 117.102 159.752 117.084 159.769L116.463 160.436C116.447 160.454 116.438 160.477 116.438 160.502C116.438 160.526 116.447 160.549 116.463 160.567C116.48 160.583 116.501 160.591 116.524 160.591C116.536 160.592 116.549 160.591 116.562 160.587C116.574 160.583 116.585 160.576 116.595 160.567Z" fill="white"/>
<path d="M98.9501 105.7L98.7145 106.613C97.9302 109.642 97.3982 112.731 97.1236 115.847L97.0816 116.331C96.8369 119.084 96.6835 121.836 96.6068 124.605L95.4141 157.807H99.1328L105.818 113.575C105.84 113.433 105.913 113.304 106.022 113.21C106.135 113.116 106.278 113.065 106.426 113.068C106.573 113.07 106.714 113.126 106.824 113.225C106.932 113.331 106.997 113.473 107.007 113.625L110.537 157.791L114.577 157.759L115.324 125.886C115.507 116.485 114.329 106.525 114.316 106.593L114.11 105.648L98.9501 105.7Z" fill="#101828"/>
<path d="M110.273 157.828H114.686V157.012H110.273V157.828Z" fill="#101828"/>
<path opacity="0.3" d="M110.273 157.828H114.686V157.012H110.273V157.828Z" fill="black"/>
<path d="M95.2422 157.828H99.328V157.012H95.2422V157.828Z" fill="#101828"/>
<path opacity="0.3" d="M95.2422 157.828H99.328V157.012H95.2422V157.828Z" fill="black"/>
<path opacity="0.2" d="M114.305 85.8477H114.602C114.602 85.8477 116.109 88.5107 115.927 89.9718L118.21 92.5837V93.7545L115.331 90.8321L114.305 85.8477Z" fill="black"/>
<path opacity="0.3" d="M106.445 113.047C106.597 113.049 106.743 113.103 106.858 113.202C106.915 113.253 106.96 113.315 106.991 113.385C107.023 113.453 107.04 113.528 107.041 113.604L110.529 157.788H111.861L109.26 116.145C108.988 113.392 108.159 113.047 106.445 113.047Z" fill="black"/>
<path opacity="0.3" d="M95.4219 157.826C96.0831 146.245 95.7452 117.644 98.7607 106.203C98.7735 106.293 100.677 106.178 100.658 106.251C100.604 106.461 100.554 106.674 100.503 106.884L99.6648 110.866C97.4328 123.341 97.9844 138.853 96.9981 157.826H95.4219Z" fill="black"/>
<path d="M98.5498 105.731C98.5498 105.731 100.011 96.7068 100.168 95.242C99.7918 91.8594 98.3251 87.7242 98.3251 87.7242L95.2 84.3544C95.0996 82.5279 96.621 80.6266 98.305 80.2047L102.468 79.0485L108.992 79.0156L113.213 80.1973C113.487 80.2717 113.749 80.3868 113.989 80.5389C115.098 81.2604 115.567 82.1206 115.932 82.8512C116.214 83.4138 114.248 84.4475 114.106 84.8603L115.056 87.4649C115.286 88.0811 115.429 88.7268 115.481 89.3827C115.565 90.5407 115.313 91.4174 114.568 92.2174C114.203 92.6502 114.02 92.8292 113.872 93.6676C113.523 96.2539 113.689 98.3287 113.994 100.92L114.754 105.609C114.754 105.609 113.551 106.829 109.183 107.143C106.835 107.313 103.302 107.154 101.048 106.477L98.5498 105.731Z" fill="#2970FF"/>
<path opacity="0.2" d="M98.2891 87.7976L98.5776 87.4141L100.221 91.067L101.241 95.4177C101.281 95.9839 100.145 106.362 100.145 106.362L98.5302 105.997C98.5302 105.997 99.9749 96.488 100.156 95.2314L99.4251 91.0926L98.2891 87.7976Z" fill="black"/>
<path d="M96.3906 80.8373L96.7559 79.9241C96.7559 79.9241 98.9477 78.0976 100.774 79.5588L96.5039 81.2483L96.3906 80.8373Z" fill="#C46F69"/>
<path d="M92.1326 92.7253L99.3782 85.8687L96.7244 81.0742L88.6094 89.644L92.1326 92.7253Z" fill="#2970FF"/>
<path opacity="0.2" d="M104.687 92.8209C107.859 92.8209 108.586 90.1725 108.595 90.1415L108.413 90.0977C108.38 90.2273 107.531 93.2812 103.47 92.5214L103.438 92.704C103.849 92.7815 104.268 92.8207 104.687 92.8209Z" fill="black"/>
<path d="M108.095 78.1372C108.347 78.2815 108.644 78.3277 108.928 78.2669C110.25 78.0843 111.251 77.9363 111.394 76.6048C111.593 74.5099 111.273 69.8469 109.671 67.1602C108.517 67.7172 108.331 67.9784 108.331 67.9784C108.331 67.9784 106.656 67.4177 106.621 67.3994C106.619 67.3812 105.823 76.5628 108.095 78.1372Z" fill="black"/>
<path d="M103.98 76.6778L103.335 65.4633C102.769 65.3592 101.841 66.0825 101.567 66.3765C99.3756 68.7509 98.7163 73.7774 98.9282 77.1527C99.0012 78.4531 99.8414 78.6541 101.107 78.9372C102.373 79.2203 103.872 79.3847 104.44 78.7545C104.716 78.4239 103.98 76.6778 103.98 76.6778Z" fill="black"/>
<path d="M107.303 71.4648L107.99 78.2721C108.034 78.652 108.313 78.8054 108.693 78.9077L110.107 79.273C110.219 79.559 110.219 79.8767 110.107 80.1625C109.548 81.8392 107.763 83.2291 107.763 83.2291C107.763 83.2291 102.79 82.8639 101.473 79.441C101.394 79.2365 102.477 79.1305 102.492 78.7105L102.638 72.4073L107.303 71.4648Z" fill="#FC9D9D"/>
<path opacity="0.25" d="M108.403 76.8884L108.162 75.7578C107.899 76.0811 106.906 76.4884 105.991 76.3149C105.32 76.2382 104.979 75.9496 104.617 75.8163C104.745 76.2564 105.713 76.5158 106.473 76.6053C106.759 76.7803 107.077 76.8955 107.409 76.9441C107.741 76.9929 108.079 76.9739 108.403 76.8884Z" fill="black"/>
<path d="M102.514 73.8594C102.514 73.8594 102.966 76.8457 104.479 78.8968C104.479 78.8968 102.366 79.3388 100.756 78.9224C99.2715 78.5443 102.514 73.8594 102.514 73.8594Z" fill="black"/>
<path d="M106.414 76.336H106.18C104.448 76.3652 103.016 74.7451 103.047 72.8766L103.106 68.1479C103.124 67.5214 103.597 67.0082 104.163 67.0027L108.264 66.9223C109.014 66.9022 109.606 67.5506 109.601 68.3598L109.542 72.7652C109.519 74.6154 108.218 76.3579 106.414 76.336Z" fill="#FC9D9D"/>
<path d="M110.301 69.0303H110.496C109.134 64.0258 103.779 63.9162 101.56 66.3874C100.219 67.8815 99.6016 70.3582 99.6016 70.3582C100.003 71.2952 101.158 72.055 101.514 72.7052C101.667 72.9956 102.04 71.6696 102.277 71.4979C102.312 71.4815 102.59 71.7737 102.78 71.9746C102.804 72.0068 102.838 72.0309 102.876 72.044C102.914 72.057 102.956 72.0585 102.995 72.0482C103.034 72.0378 103.069 72.0161 103.095 71.9858C103.122 71.9554 103.139 71.9178 103.145 71.8778C103.244 71.2577 103.237 70.625 103.123 70.0075L103.013 69.4596C104.215 69.0943 107.846 67.7902 108.655 67.5454C108.853 67.4797 109.021 67.7865 109.07 67.9838L109.819 71.0596L110.117 69.4358L110.301 69.0303Z" fill="black"/>
<path opacity="0.15" d="M102.359 73.676L102.915 73.5664L102.619 74.6112L102.359 73.676Z" fill="black"/>
<path d="M109.037 67.9633C106.048 67.1706 106.428 71.6856 103.323 70.997C100.421 70.3504 103.141 66.8984 103.141 66.8984L105.733 66.5039L109.19 67.0244L109.037 67.9633Z" fill="black"/>
<path d="M102.804 73.8611C102.804 73.8611 101.16 73.9433 100.879 72.3196C100.597 70.6959 102.586 70.4639 102.837 72.0931L103.007 73.8648L102.804 73.8611Z" fill="#FC9D9D"/>
<path opacity="0.25" d="M101.413 71.4711C101.482 71.4174 101.563 71.3794 101.649 71.3597C101.734 71.3398 101.823 71.3385 101.909 71.356C101.995 71.3792 102.073 71.4214 102.14 71.4793C102.207 71.537 102.26 71.6092 102.295 71.6903C102.401 71.8873 102.458 72.1073 102.461 72.3314V72.4994C102.459 72.527 102.447 72.5527 102.427 72.5719C102.407 72.5911 102.38 72.6022 102.353 72.6035C102.325 72.6046 102.298 72.5955 102.277 72.5779C102.255 72.5606 102.241 72.5357 102.236 72.5085V72.3259C102.232 72.1452 102.189 71.9679 102.11 71.8053C102.085 71.7536 102.05 71.7074 102.006 71.6694C101.963 71.6315 101.913 71.6026 101.858 71.5843C101.738 71.5721 101.618 71.6033 101.519 71.672C101.496 71.6853 101.47 71.6905 101.444 71.6861C101.418 71.6817 101.395 71.6684 101.378 71.6483C101.361 71.6194 101.356 71.5856 101.362 71.5531C101.368 71.5204 101.386 71.4914 101.413 71.4711Z" fill="black"/>
<path d="M102.406 73.5963C102.582 73.5963 102.725 73.4533 102.725 73.2767C102.725 73.1002 102.582 72.957 102.406 72.957C102.229 72.957 102.086 73.1002 102.086 73.2767C102.086 73.4533 102.229 73.5963 102.406 73.5963Z" fill="#2970FF"/>
<path opacity="0.15" d="M102.49 73.5479C102.444 73.547 102.398 73.5368 102.355 73.5178C102.313 73.4988 102.274 73.4716 102.243 73.4374C102.211 73.4035 102.186 73.3633 102.17 73.3196C102.154 73.2758 102.147 73.2292 102.149 73.1826C102.151 73.118 102.17 73.055 102.204 73C102.161 73.0278 102.125 73.065 102.099 73.1092C102.073 73.1534 102.059 73.2029 102.056 73.2539C102.052 73.2968 102.058 73.3397 102.072 73.3803C102.086 73.4208 102.109 73.4579 102.138 73.4891C102.168 73.5204 102.203 73.545 102.243 73.5615C102.282 73.5779 102.325 73.5858 102.368 73.5845C102.434 73.5898 102.499 73.5695 102.551 73.5279C102.542 73.5644 102.523 73.5589 102.49 73.5479Z" fill="black"/>
<path d="M99.5073 81.1282L99.8726 79.6305C99.8923 79.5456 99.8841 79.4565 99.8489 79.3766C99.8246 79.325 99.7893 79.2791 99.7455 79.2426C99.7015 79.206 99.6501 79.1796 99.5948 79.165C99.5396 79.1505 99.4819 79.1485 99.4257 79.1587C99.3694 79.1692 99.3163 79.1918 99.2699 79.2251C99.178 79.2914 99.1017 79.3768 99.0463 79.4756C98.9908 79.5743 98.9574 79.6839 98.9484 79.7967L98.8133 81.4862C98.8098 81.5268 98.8184 81.5675 98.8379 81.6031C98.8574 81.6389 98.8869 81.6681 98.9228 81.6871C98.957 81.705 98.9953 81.7129 99.0339 81.71C99.0722 81.707 99.109 81.6935 99.1402 81.6707C99.323 81.5394 99.4532 81.347 99.5073 81.1282Z" fill="#C46F69"/>
<path d="M98.7589 81.5522L98.7772 79.8243C98.7852 79.7372 98.7648 79.6501 98.7188 79.5759C98.6875 79.5279 98.6462 79.4871 98.5975 79.457C98.5489 79.4269 98.4943 79.4077 98.4373 79.4011C98.3805 79.3944 98.3228 79.4004 98.2685 79.4187C98.2143 79.4369 98.1646 79.4669 98.1233 79.5065C98.0419 79.585 97.9785 79.68 97.9372 79.7854C97.8959 79.8906 97.8777 80.0035 97.8841 80.1166L98.1215 82.0015C98.1244 82.042 98.139 82.0809 98.1637 82.1133C98.1884 82.1458 98.222 82.1704 98.2603 82.1841C98.2963 82.1973 98.3354 82.2 98.3728 82.192C98.4103 82.1838 98.4448 82.1653 98.4722 82.1385C98.6342 81.983 98.7357 81.7754 98.7589 81.5522Z" fill="#C46F69"/>
<path d="M98.078 82.0608L97.8953 80.3421C97.895 80.2548 97.8646 80.1702 97.8095 80.1029C97.7733 80.0585 97.7278 80.0229 97.6761 79.9982C97.6245 79.9737 97.568 79.9609 97.5108 79.9609C97.4537 79.9609 97.3972 79.9737 97.3456 79.9982C97.2939 80.0229 97.2484 80.0585 97.2122 80.1029C97.1399 80.19 97.0875 80.2917 97.0581 80.4011C97.0288 80.5105 97.0234 80.6249 97.0424 80.7366L97.4898 82.5814C97.497 82.6214 97.5158 82.6586 97.5435 82.6886C97.5715 82.7184 97.6073 82.7394 97.6469 82.7494C97.6847 82.7576 97.724 82.7556 97.7605 82.7434C97.7972 82.7311 97.8299 82.7092 97.8551 82.68C98.0002 82.5063 98.0792 82.2869 98.078 82.0608Z" fill="#C46F69"/>
<path d="M97.2275 82.0811L97.0448 80.7588C97.0414 80.6916 97.0156 80.6273 96.9718 80.5761C96.9431 80.5427 96.9073 80.5162 96.8669 80.4983C96.8267 80.4804 96.7831 80.4717 96.7391 80.4727C96.6951 80.4738 96.6518 80.4846 96.6123 80.5044C96.5731 80.5241 96.5385 80.5524 96.5115 80.5871C96.4576 80.6561 96.4194 80.7358 96.3992 80.8209C96.3791 80.906 96.3774 80.9944 96.3946 81.0802L96.7855 82.4939C96.7917 82.525 96.807 82.5536 96.8293 82.5759C96.8518 82.5984 96.8804 82.6137 96.9115 82.62C96.9405 82.6254 96.9705 82.6229 96.9981 82.6125C97.0258 82.6022 97.0501 82.5845 97.0686 82.5615C97.1771 82.4254 97.2333 82.255 97.2275 82.0811Z" fill="#C46F69"/>
<path opacity="0.25" d="M97.8828 80.2383L98.1203 81.9972" stroke="black" stroke-width="0.126026" stroke-miterlimit="10" stroke-linecap="round"/>
<path opacity="0.25" d="M98.7812 79.8242L98.8123 81.4845" stroke="black" stroke-width="0.126026" stroke-miterlimit="10" stroke-linecap="round"/>
<path d="M102.594 69.148C102.594 69.148 105.441 65.2759 108.859 66.5727L108.418 66.2348C108.418 66.2348 104.459 63.6102 102.594 69.148Z" fill="#2970FF"/>
<path opacity="0.25" d="M97.2139 81.6632L97.0312 80.75" stroke="black" stroke-width="0.126026" stroke-miterlimit="10" stroke-linecap="round"/>
<path d="M82.8656 64.3719C82.7707 63.7582 82.2172 63.287 81.6145 63.139C81.0118 62.9911 80.3743 63.1153 79.788 63.3217C79.1232 63.5401 78.5208 63.916 78.0328 64.4176C77.7899 64.6682 77.5994 64.9644 77.4721 65.2893C77.3448 65.6141 77.2832 65.9609 77.2912 66.3098C77.3259 66.96 77.6565 67.6139 77.4739 68.2404C77.3369 68.7171 76.926 69.0641 76.5296 69.3509C76.1333 69.6376 75.6894 69.8988 75.4173 70.3207C75.1451 70.7426 75.1013 71.3508 75.4684 71.6851C75.7935 71.981 76.3817 72.0139 76.5187 72.4339C76.6027 72.6933 76.4584 72.9636 76.378 73.2248C76.3039 73.5052 76.2896 73.7981 76.3358 74.0843C76.382 74.3707 76.488 74.6442 76.6465 74.8869C76.9696 75.372 77.4092 75.7683 77.925 76.0394C78.8072 76.538 79.9086 76.77 80.8474 76.3718C81.3088 76.1667 81.7058 75.8405 81.9962 75.4275C82.5122 74.7435 82.8284 73.9298 82.9095 73.0769C82.9338 72.2414 82.8793 71.4055 82.7469 70.5801" fill="black"/>
<path d="M77.4302 157.019L77.4466 160.966C77.4287 161.654 77.2344 162.325 76.8822 162.917L76.8055 163.054C76.7071 163.225 76.565 163.368 76.3938 163.466C76.2225 163.567 76.0282 163.618 75.8302 163.618H74.7033C74.4516 163.62 74.2066 163.536 74.0081 163.38C73.8094 163.225 73.6684 163.01 73.6074 162.765C73.4572 162.182 73.4361 161.573 73.5453 160.981L74.506 156.743C74.5685 156.348 74.6866 155.964 74.8567 155.602H77.0832C77.0832 155.602 77.4649 156.544 77.4302 157.019Z" fill="#21252B"/>
<path d="M64.5823 84.6311L64.3138 83.853C64.3138 83.853 64.0179 82.1398 63.859 81.8658C63.7153 81.6285 63.5534 81.4026 63.375 81.19C63.0097 80.8466 62.4745 80.2768 62.4745 80.2768C62.4745 80.2768 61.196 77.4786 60.944 77.4001C60.2316 77.1845 60.4654 77.9864 60.4654 77.9864L61.4955 80.3608C61.4955 80.3608 61.2946 80.4996 61.1686 80.39C60.6207 79.906 59.081 77.8238 58.7504 77.895C58.1677 78.0211 58.891 78.8612 58.891 78.8612L60.2535 80.8704L60.2335 80.9617C60.1388 81.0837 60.0778 81.2284 60.0567 81.3812C60.0355 81.5341 60.055 81.6899 60.1129 81.8329L60.1549 81.9535C60.1549 81.9535 59.7494 82.569 60.0709 83.0073C60.1184 83.0713 60.1914 83.1626 60.2828 83.2703L61.196 84.4923L62.4526 85.6977L64.5823 84.6311Z" fill="#956363"/>
<path d="M95.4609 91.5365L97.1048 93.6972C97.2412 93.8957 97.418 94.0634 97.6235 94.1892C97.829 94.3151 98.0585 94.3963 98.2975 94.4278L100.202 94.6835L99.313 90.3346L98.692 89.1328L95.4609 91.5365Z" fill="#956363"/>
<path opacity="0.25" d="M98.8527 93.8916C98.6138 93.8604 98.3842 93.7791 98.1787 93.6533C97.9732 93.5274 97.7965 93.3598 97.66 93.1611L96.0765 91.0898L95.4609 91.5483L97.1048 93.709C97.2412 93.9077 97.418 94.0754 97.6235 94.2012C97.829 94.3271 98.0585 94.4084 98.2975 94.4396L100.202 94.6953L100.071 94.056L98.8527 93.8916Z" fill="black"/>
<path d="M62.125 85.4053C62.125 85.4053 66.441 91.6153 67.3962 92.8573C68.7003 94.5523 70.1889 95.6737 71.1478 95.5513C71.6957 95.4819 72.3642 95.06 72.9231 94.3386C73.1861 93.9988 76.5176 87.8692 76.5176 87.8692L73.9295 83.2227L70.5213 90.4354L64.0355 83.8601L62.125 85.4053Z" fill="#956363"/>
<path opacity="0.25" d="M70.8231 90.0428L70.6624 91.188L70.1875 90.0721L70.5236 90.4374L70.8121 89.8438L70.8231 90.0428Z" fill="black"/>
<path opacity="0.25" d="M63.5454 81.7283L62.5938 81.2388C62.5938 81.2388 62.0842 80.9356 61.6806 81.3191L60.8203 82.4552C60.8203 82.4552 60.8568 82.7566 61.2988 82.7712C61.4946 82.7741 61.6862 82.7153 61.8468 82.6031C61.9988 82.5029 62.1343 82.3796 62.2486 82.2378C62.2504 82.236 62.2526 82.2347 62.2552 82.2344C62.2577 82.2338 62.2603 82.234 62.2627 82.2351C62.2651 82.236 62.2671 82.2377 62.2685 82.2398C62.2698 82.242 62.2705 82.2444 62.2705 82.247C62.2011 82.4972 62.024 83.3721 62.7399 83.9072" stroke="black" stroke-width="0.122374" stroke-miterlimit="10" stroke-linecap="round"/>
<path opacity="0.25" d="M60.2578 82.0257C60.3714 82.004 60.4885 82.0076 60.6005 82.0365C60.7126 82.0651 60.8169 82.1181 60.9062 82.1919" stroke="black" stroke-width="0.122374" stroke-miterlimit="10" stroke-linecap="round"/>
<path opacity="0.25" d="M60.3828 81.1836C60.749 81.2148 61.0964 81.3598 61.3764 81.5982" stroke="black" stroke-width="0.122374" stroke-miterlimit="10" stroke-linecap="round"/>
<path opacity="0.25" d="M61.6422 82.7422C61.6785 82.7679 61.7118 82.7979 61.7408 82.8317C61.7888 82.8916 61.8159 82.9656 61.8179 83.0425C61.8197 83.1192 61.7965 83.1944 61.7514 83.2567C61.7065 83.319 61.6422 83.3647 61.5687 83.3869C61.4951 83.409 61.4164 83.4065 61.3445 83.3796H61.3317L60.3125 82.9869" stroke="black" stroke-width="0.122374" stroke-miterlimit="10" stroke-linecap="round"/>
<path d="M74.7765 151.929C74.7893 152.583 74.6468 155.724 74.6542 156.649C74.6542 156.904 74.2578 159.102 74.2578 159.102C74.2702 159.457 74.4206 159.794 74.6768 160.04C74.9332 160.287 75.2757 160.424 75.6313 160.422H75.8614C76.0574 160.422 76.2512 160.379 76.4295 160.298C76.6078 160.216 76.7665 160.098 76.8952 159.95C77.024 159.802 77.1195 159.628 77.1756 159.44C77.2317 159.252 77.2468 159.055 77.2203 158.86L77.1948 156.866C76.9939 155.856 77.7044 152.913 77.7592 151.891L74.7765 151.929Z" fill="#956363"/>
<path opacity="0.25" d="M74.7747 151.989C74.7857 152.613 74.6542 156.646 74.6542 156.646L74.2578 159.099C74.4679 160.854 76.0642 160.403 76.0642 160.403C75.151 160.374 74.8806 159.828 74.8021 159.424C74.7665 159.231 74.7665 159.033 74.8021 158.84L75.3299 155.917L75.4816 151.91L74.7747 151.989Z" fill="black"/>
<path d="M94.677 81.1211L98.8705 88.9548L95.4441 91.7037L93.3765 88.8142L91.2578 85.3275L94.677 81.1211Z" fill="#21252B"/>
<path opacity="0.3" d="M93.5582 84.6758L93.8541 84.7105C93.8541 84.7105 95.4779 88.1461 94.9299 89.4246L96.2085 91.0684L95.4486 91.7022L93.4688 89.021L93.5582 84.6758Z" fill="black"/>
<path d="M77.9501 104.418L77.7145 105.332C76.9302 108.361 76.3982 111.449 76.1236 114.566L76.0816 115.05C75.8369 117.803 75.6835 120.555 75.6068 123.324L74.4141 151.96H78.1328L84.8176 112.294C84.8401 112.152 84.9126 112.022 85.0222 111.929C85.1351 111.834 85.2785 111.784 85.4259 111.786C85.5731 111.789 85.7144 111.845 85.824 111.943C85.9323 112.05 85.9974 112.192 86.0067 112.343L89.5372 151.943L93.5774 151.912L94.3244 124.604C94.5071 115.204 93.329 105.244 93.3162 105.311L93.1098 104.367L77.9501 104.418Z" fill="#2970FF"/>
<path opacity="0.2" d="M85.4453 111.77C85.5969 111.771 85.743 111.826 85.8581 111.925C85.9147 111.976 85.9602 112.038 85.9914 112.107C86.0232 112.176 86.04 112.251 86.0407 112.327L89.5293 151.945H90.8608L88.2599 114.867C87.9878 112.115 87.1585 111.77 85.4453 111.77Z" fill="black"/>
<path opacity="0.2" d="M74.4219 151.979C75.0831 140.397 74.7452 116.363 77.7607 104.922C77.7735 105.011 79.6766 104.896 79.6584 104.969C79.6036 105.179 79.5543 105.393 79.5031 105.603L78.6648 109.585C76.4328 122.06 76.9844 133.006 75.9981 151.979H74.4219Z" fill="black"/>
<path d="M77.6082 103.853C77.811 101.731 79.0347 95.9406 79.168 94.6986C78.8027 91.4676 77.3251 86.4503 77.3251 86.4503L74.2 83.0805C74.0996 81.254 75.621 79.3526 77.305 78.9307L81.4675 77.7746L87.8091 77.7344L92.2127 78.7334C92.487 78.8078 92.7488 78.9229 92.9889 79.075C94.0976 79.7965 94.567 80.8394 94.9323 81.57C95.2136 82.1325 93.2483 83.1663 93.1058 83.5791L94.0556 86.1836C94.2861 86.7999 94.4293 87.4455 94.4812 88.1014C94.5652 89.2594 94.3131 90.1361 93.5679 90.9361C93.2026 91.369 93.02 91.548 92.872 92.3863C92.5232 94.9726 92.6894 97.0475 92.9944 99.6392L93.5003 103.904C93.5093 103.981 93.502 104.059 93.4784 104.133C93.455 104.207 93.4161 104.276 93.3643 104.333C93.3124 104.391 93.2488 104.438 93.178 104.469C93.1069 104.5 93.03 104.516 92.9524 104.516L78.158 104.445C78.082 104.445 78.0067 104.43 77.937 104.4C77.8672 104.37 77.8046 104.325 77.7529 104.27C77.7012 104.214 77.6615 104.148 77.6367 104.076C77.6119 104.005 77.602 103.929 77.6082 103.853Z" fill="#21252B"/>
<path opacity="0.3" d="M77.8381 86.7031L78.976 89.2876L80.2417 94.8711C80.2819 95.4373 79.1459 104.537 79.1459 104.537L77.5312 104.354C77.5312 104.354 78.976 95.7588 79.1568 94.5022L77.5787 86.8675L77.8381 86.7031Z" fill="black"/>
<path d="M75.3906 79.56L75.7559 78.6467C75.7559 78.6467 77.765 76.8202 79.5915 78.2814L75.5039 79.9709L75.3906 79.56Z" fill="#FC9D9D"/>
<path d="M75.4397 90.4407L78.7529 84.7074L74.8278 80.8828L71.3594 88.3257L75.4397 90.4407Z" fill="#21252B"/>
<path opacity="0.3" d="M83.679 91.5397C86.8516 91.5397 87.5785 88.8913 87.5876 88.8602L87.405 88.8164C87.3721 88.9461 86.5228 91.9999 82.4626 91.2401L82.4297 91.4228C82.8416 91.5002 83.2598 91.5395 83.679 91.5397Z" fill="black"/>
<path d="M86.6602 70.3672L87.3469 77.1744C87.3908 77.5543 87.6702 77.7078 88.0501 77.8101C88.0501 77.8101 87.809 79.9269 85.4346 80.1096C83.6081 80.2502 81.8072 79.5616 81.1954 77.9744C81.1168 77.7699 81.652 77.8466 81.6666 77.4265L81.8127 71.1233L86.6602 70.3672Z" fill="#956363"/>
<path d="M78.4995 79.847L78.8648 78.3493C78.8845 78.2643 78.8763 78.1752 78.841 78.0954C78.8168 78.0437 78.7815 77.9979 78.7377 77.9613C78.6937 77.9248 78.6423 77.8983 78.587 77.8837C78.5318 77.8693 78.4741 77.8673 78.4179 77.8775C78.3616 77.8879 78.3085 77.9106 78.2621 77.9438C78.1702 78.0101 78.0938 78.0956 78.0385 78.1944C77.983 78.293 77.9495 78.4026 77.9406 78.5155L77.8054 80.205C77.802 80.2455 77.8105 80.2862 77.8301 80.3219C77.8496 80.3577 77.879 80.3869 77.915 80.4059C77.9492 80.4238 77.9875 80.4316 78.0261 80.4287C78.0644 80.4258 78.1011 80.4123 78.1324 80.3894C78.3152 80.2581 78.4454 80.0658 78.4995 79.847Z" fill="#FC9D9D"/>
<path d="M77.7589 80.2709L77.7772 78.5431C77.7852 78.4559 77.7648 78.3688 77.7188 78.2947C77.6875 78.2466 77.6462 78.2059 77.5975 78.1758C77.5489 78.1456 77.4943 78.1265 77.4373 78.1199C77.3805 78.1131 77.3228 78.1191 77.2685 78.1374C77.2143 78.1557 77.1646 78.1856 77.1233 78.2253C77.0419 78.3038 76.9785 78.3988 76.9372 78.5042C76.8959 78.6094 76.8777 78.7222 76.8841 78.8353L77.1215 80.7202C77.1244 80.7608 77.139 80.7997 77.1637 80.832C77.1884 80.8645 77.222 80.8892 77.2603 80.9029C77.2963 80.916 77.3354 80.9188 77.3728 80.9107C77.4103 80.9025 77.4448 80.8841 77.4722 80.8572C77.6342 80.7018 77.7357 80.4941 77.7589 80.2709Z" fill="#FC9D9D"/>
<path d="M77.078 80.7835L76.8953 79.0648C76.895 78.9775 76.8646 78.8929 76.8095 78.8255C76.7733 78.7811 76.7278 78.7455 76.6761 78.7209C76.6245 78.6964 76.568 78.6836 76.5108 78.6836C76.4537 78.6836 76.3972 78.6964 76.3456 78.7209C76.2939 78.7455 76.2484 78.7811 76.2122 78.8255C76.1399 78.9126 76.0875 79.0144 76.0581 79.1238C76.0288 79.2332 76.0234 79.3475 76.0424 79.4593L76.4898 81.304C76.497 81.344 76.5158 81.3813 76.5435 81.4112C76.5715 81.441 76.6073 81.462 76.6469 81.4721C76.6847 81.4803 76.724 81.4783 76.7605 81.466C76.7972 81.4538 76.8299 81.4319 76.8551 81.4027C77.0002 81.229 77.0792 81.0096 77.078 80.7835Z" fill="#FC9D9D"/>
<path d="M76.2197 80.8038L76.037 79.4814C76.0335 79.4142 76.0078 79.3499 75.9639 79.2988C75.9353 79.2654 75.8995 79.2389 75.8591 79.221C75.8189 79.2031 75.7753 79.1943 75.7313 79.1954C75.6872 79.1965 75.644 79.2073 75.6045 79.227C75.5652 79.2467 75.5307 79.275 75.5037 79.3097C75.4498 79.3788 75.4116 79.4584 75.3913 79.5435C75.3713 79.6286 75.3696 79.7171 75.3868 79.8029L75.7777 81.2166C75.7839 81.2476 75.7992 81.2763 75.8215 81.2986C75.844 81.3211 75.8726 81.3364 75.9037 81.3426C75.9327 81.3481 75.9627 81.3455 75.9903 81.3351C76.018 81.3249 76.0423 81.3072 76.0608 81.2842C76.1692 81.1481 76.2255 80.9777 76.2197 80.8038Z" fill="#FC9D9D"/>
<path opacity="0.2" d="M76.8828 78.9648L77.1203 80.7237" stroke="black" stroke-width="0.126026" stroke-miterlimit="10" stroke-linecap="round"/>
<path opacity="0.2" d="M77.7812 78.5469L77.8123 80.2071" stroke="black" stroke-width="0.126026" stroke-miterlimit="10" stroke-linecap="round"/>
<path d="M93.0071 151.922L93.029 153.843C93.1105 154.324 93.2696 154.789 93.5002 155.219L96.8883 161.246L96.134 162.271L93.1989 160.809L90.4025 156.094C90.4172 155.286 89.8984 151.946 89.8984 151.946L93.0071 151.922Z" fill="#956363"/>
<path opacity="0.25" d="M90.4025 156.094L93.1989 160.808L94.5651 161.491L96.8883 161.251C95.6098 161.303 94.7532 160.269 94.7532 160.269L91.2774 155.728L90.6747 151.922L89.8984 151.946C89.8984 151.946 90.4172 155.286 90.4025 156.094Z" fill="black"/>
<path d="M99.6807 163.094C99.7021 163.147 99.7103 163.206 99.7043 163.262C99.6984 163.319 99.6787 163.374 99.6468 163.421C99.615 163.469 99.5721 163.509 99.5216 163.536C99.4712 163.564 99.4148 163.578 99.3574 163.578H95.6625C95.2084 163.58 94.7597 163.482 94.3489 163.288C93.9381 163.094 93.5758 162.811 93.2881 162.461L91.2552 159.969C91.2207 159.925 91.1734 159.893 91.1199 159.877C91.0662 159.861 91.009 159.862 90.9561 159.879C90.9029 159.897 90.8565 159.93 90.8231 159.975C90.7897 160.02 90.771 160.074 90.7694 160.13L90.6616 163.578H90.2854L89.7995 160.225C89.5866 158.817 89.797 157.378 90.4041 156.09L93.7447 160.13C94.0961 160.561 94.5551 160.891 95.0755 161.088C95.5958 161.284 96.1587 161.339 96.7072 161.248L98.7821 162.19C99.1772 162.378 99.4946 162.698 99.6807 163.094Z" fill="#21252B"/>
<path opacity="0.3" d="M87.0575 75.085C86.1662 75.6969 84.7232 75.4503 83.6785 74.9023C83.5178 75.2822 84.7452 75.6439 85.0484 75.7023C85.3384 75.9473 85.6823 76.1199 86.0518 76.2059C86.4215 76.2919 86.8062 76.289 87.1744 76.1973L87.0575 75.085Z" fill="black"/>
<path d="M89.2607 72.212L89.3612 67.8285C89.367 67.6384 89.3353 67.4492 89.2679 67.2713C89.2003 67.0935 89.0984 66.9308 88.9679 66.7925C88.8374 66.6543 88.6808 66.543 88.5073 66.4654C88.3338 66.3878 88.1466 66.3451 87.9566 66.3399L83.5987 66.2541C83.4522 66.2514 83.3066 66.2777 83.1704 66.3314C83.0339 66.3849 82.9095 66.4649 82.8042 66.5668C82.699 66.6685 82.6146 66.7902 82.5563 66.9244C82.498 67.0588 82.4668 67.2035 82.4644 67.35L82.353 72.0732C82.3401 72.5116 82.4138 72.9481 82.57 73.358C82.7262 73.7678 82.9616 74.1428 83.263 74.4615C83.5643 74.7801 83.9256 75.0361 84.3262 75.2149C84.7265 75.3938 85.1583 75.4917 85.5968 75.5034H85.8525C86.7393 75.5132 87.5943 75.1733 88.2321 74.5572C88.87 73.9412 89.2395 73.0986 89.2607 72.212Z" fill="#956363"/>
<path d="M80.1434 67.5205C80.1434 67.5205 79.7361 64.7808 82.7516 64.8009L80.1434 67.5205Z" fill="#2970FF"/>
<path d="M82.5915 71.4204C82.8052 71.15 82.3632 70.9692 82.3851 70.5966C82.2481 68.4049 83.6015 69.8989 84.1495 67.1519C84.3595 66.4852 85.8243 67.7108 86.7065 66.3756H86.7268C86.7067 68.1638 89.4866 69.4149 90.4144 68.487C90.6939 68.2076 91.006 67.9391 91.0334 67.4039C91.1156 65.8295 89.9796 64.5656 88.5805 65.0021C87.0335 64.9912 86.588 62.7391 84.8309 62.8944C83.7533 62.9236 82.9805 63.8588 82.8399 64.6496C82.807 64.8323 82.6318 64.8944 82.4565 64.9473C80.5131 65.5464 80.3979 66.6679 80.1458 67.5227C79.8006 68.1437 78.6847 67.9957 78.6719 69.3309C78.7961 70.9053 80.2372 71.1446 80.2573 72.3519C80.27 73.2359 80.9769 73.2834 80.9769 73.2834C81.1358 73.7436 82.5915 71.4204 82.5915 71.4204Z" fill="black"/>
<path d="M83.0337 72.7002L82.8766 70.9066C82.6574 69.2628 80.6994 69.4911 80.9807 71.1276C81.262 72.7641 82.8565 72.6783 82.8565 72.6783L83.0337 72.7002Z" fill="#956363"/>
<path opacity="0.3" d="M81.4419 70.4312C81.458 70.4537 81.4819 70.4692 81.5088 70.4752C81.5356 70.4814 81.5637 70.4774 81.588 70.4641C81.6308 70.4237 81.6832 70.3947 81.7402 70.3799C81.7972 70.3651 81.8571 70.3649 81.9141 70.3795C81.9712 70.3941 82.0237 70.423 82.0666 70.4633C82.1095 70.5037 82.1416 70.5541 82.1597 70.6102C82.241 70.7742 82.2823 70.955 82.2803 71.138V71.3207C82.2803 71.4778 82.494 71.4412 82.4921 71.3207V71.149C82.5009 70.9253 82.4478 70.7035 82.3387 70.5079C82.3046 70.4308 82.2543 70.3618 82.1913 70.3057C82.1283 70.2496 82.054 70.2078 81.9734 70.1828C81.89 70.1667 81.8039 70.1684 81.721 70.1879C81.6383 70.2074 81.5605 70.2443 81.4931 70.296C81.4713 70.3103 81.4545 70.3311 81.4454 70.3554C81.4363 70.3797 81.435 70.4062 81.4419 70.4312Z" fill="black"/>
<path opacity="0.2" d="M76.2133 80.5769L76.0781 79.5742" stroke="black" stroke-width="0.126026" stroke-miterlimit="10" stroke-linecap="round"/>
<path d="M84.7969 80.0481L85.7941 81.7266L85.9768 79.8398L84.7969 80.0481Z" fill="#956363"/>
<path opacity="0.6" d="M87.2656 91.4844L87.3569 92.3191L88.0729 91.7255L87.2656 91.4844Z" fill="white"/>
<path opacity="0.6" d="M85.6172 101.715L85.7085 102.55L86.4245 101.956L85.6172 101.715Z" fill="white"/>
<path opacity="0.6" d="M90.9141 98.4258L91.0054 99.2605L91.7214 98.6669L90.9141 98.4258Z" fill="white"/>
<path opacity="0.6" d="M96.3906 87.4648L96.4819 88.2995L97.1979 87.7059L96.3906 87.4648Z" fill="white"/>
<path opacity="0.6" d="M92.1875 89.4766L92.2788 90.3113L92.9948 89.7177L92.1875 89.4766Z" fill="white"/>
<path opacity="0.6" d="M80.4922 96.9609L80.5835 97.7956L81.2995 97.202L80.4922 96.9609Z" fill="white"/>
<path opacity="0.6" d="M86.8906 86.3711L86.9819 87.2058L87.6979 86.6122L86.8906 86.3711Z" fill="white"/>
<path opacity="0.6" d="M74.6641 85.6367L74.7554 86.4714L75.4714 85.8778L74.6641 85.6367Z" fill="white"/>
<path opacity="0.6" d="M80.8672 91.4844L80.9585 92.3191L81.6745 91.7255L80.8672 91.4844Z" fill="white"/>
<path opacity="0.6" d="M90.9141 80.8906L91.0054 81.7253L91.7214 81.1317L90.9141 80.8906Z" fill="white"/>
<path opacity="0.6" d="M80.4922 82.7188L80.5835 83.5534L81.2995 82.9598L80.4922 82.7188Z" fill="white"/>
<path opacity="0.6" d="M82.4224 87.4151C82.5736 87.4151 82.6964 87.2924 82.6964 87.1412C82.6964 86.9899 82.5736 86.8672 82.4224 86.8672C82.2712 86.8672 82.1484 86.9899 82.1484 87.1412C82.1484 87.2924 82.2712 87.4151 82.4224 87.4151Z" fill="#2970FF"/>
<path opacity="0.6" d="M95.2037 84.8604C95.3549 84.8604 95.4776 84.7377 95.4776 84.5865C95.4776 84.4352 95.3549 84.3125 95.2037 84.3125C95.0524 84.3125 94.9297 84.4352 94.9297 84.5865C94.9297 84.7377 95.0524 84.8604 95.2037 84.8604Z" fill="#2970FF"/>
<path opacity="0.6" d="M76.938 83.5792C77.0893 83.5792 77.212 83.4565 77.212 83.3052C77.212 83.154 77.0893 83.0312 76.938 83.0312C76.7868 83.0312 76.6641 83.154 76.6641 83.3052C76.6641 83.4565 76.7868 83.5792 76.938 83.5792Z" fill="#2970FF"/>
<path opacity="0.6" d="M83.6958 93.4425C83.8471 93.4425 83.9698 93.3197 83.9698 93.1685C83.9698 93.0173 83.8471 92.8945 83.6958 92.8945C83.5446 92.8945 83.4219 93.0173 83.4219 93.1685C83.4219 93.3197 83.5446 93.4425 83.6958 93.4425Z" fill="#2970FF"/>
<path opacity="0.6" d="M90.274 102.392C90.4252 102.392 90.5479 102.269 90.5479 102.118C90.5479 101.966 90.4252 101.844 90.274 101.844C90.1227 101.844 90 101.966 90 102.118C90 102.269 90.1227 102.392 90.274 102.392Z" fill="#2970FF"/>
<path opacity="0.6" d="M91.188 87.4151C91.3393 87.4151 91.462 87.2924 91.462 87.1412C91.462 86.9899 91.3393 86.8672 91.188 86.8672C91.0368 86.8672 90.9141 86.9899 90.9141 87.1412C90.9141 87.2924 91.0368 87.4151 91.188 87.4151Z" fill="#2970FF"/>
<path opacity="0.6" d="M88.4458 83.7589C88.5971 83.7589 88.7198 83.6361 88.7198 83.4849C88.7198 83.3337 88.5971 83.2109 88.4458 83.2109C88.2946 83.2109 88.1719 83.3337 88.1719 83.4849C88.1719 83.6361 88.2946 83.7589 88.4458 83.7589Z" fill="#2970FF"/>
<path opacity="0.6" d="M90.813 95.4503C90.9643 95.4503 91.087 95.3275 91.087 95.1763C91.087 95.0251 90.9643 94.9023 90.813 94.9023C90.6618 94.9023 90.5391 95.0251 90.5391 95.1763C90.5391 95.3275 90.6618 95.4503 90.813 95.4503Z" fill="#2970FF"/>
<path opacity="0.6" d="M80.2271 102.392C80.3783 102.392 80.5011 102.269 80.5011 102.118C80.5011 101.966 80.3783 101.844 80.2271 101.844C80.0759 101.844 79.9531 101.966 79.9531 102.118C79.9531 102.269 80.0759 102.392 80.2271 102.392Z" fill="#2970FF"/>
<path opacity="0.6" d="M86.6177 98.3722C86.769 98.3722 86.8917 98.2494 86.8917 98.0982C86.8917 97.947 86.769 97.8242 86.6177 97.8242C86.4665 97.8242 86.3438 97.947 86.3438 98.0982C86.3438 98.2494 86.4665 98.3722 86.6177 98.3722Z" fill="#2970FF"/>
<path d="M42.2188 106.293C47.5538 100.958 47.5538 92.3087 42.2188 86.9739C36.884 81.6389 28.2346 81.6389 22.8995 86.9739C17.5647 92.3087 17.5647 100.958 22.8995 106.293C28.2346 111.628 36.884 111.628 42.2188 106.293Z" fill="#2970FF"/>
<path opacity="0.2" d="M42.2188 106.293C47.5538 100.958 47.5538 92.3087 42.2188 86.9739C36.884 81.6389 28.2346 81.6389 22.8995 86.9739C17.5647 92.3087 17.5647 100.958 22.8995 106.293C28.2346 111.628 36.884 111.628 42.2188 106.293Z" fill="black"/>
<path d="M36.7444 109.467C43.5004 106.109 46.255 97.9097 42.8969 91.1537C39.5387 84.3974 31.3395 81.643 24.5833 85.0012C17.8273 88.3594 15.0727 96.5586 18.4309 103.315C21.789 110.071 29.9882 112.825 36.7444 109.467Z" fill="#2970FF"/>
<path d="M39.3507 103.888C43.0311 99.084 42.1209 92.2064 37.3173 88.5258C32.5137 84.8453 25.6361 85.7555 21.9555 90.5591C18.275 95.3627 19.1852 102.24 23.9888 105.921C28.7924 109.601 35.67 108.691 39.3507 103.888Z" fill="#2970FF"/>
<path opacity="0.5" d="M39.3585 103.888C43.0389 99.084 42.1288 92.2064 37.3251 88.5258C32.5215 84.8453 25.6439 85.7555 21.9633 90.5591C18.2828 95.3627 19.193 102.24 23.9966 105.921C28.8002 109.601 35.6778 108.691 39.3585 103.888Z" fill="black" fill-opacity="0.5"/>
<path d="M21.1689 100.84C20.5767 98.9431 20.5117 96.9207 20.9802 94.9896C21.4491 93.0583 22.4341 91.291 23.8299 89.8764C25.2257 88.462 26.9798 87.4536 28.9048 86.9594C30.8295 86.4652 32.8524 86.5035 34.7572 87.0703C33.4221 86.5343 31.9944 86.2662 30.5557 86.2819C29.1171 86.2975 27.6956 86.5963 26.3724 87.1612C25.0492 87.7262 23.8503 88.5464 22.8442 89.5747C21.8378 90.6031 21.044 91.8195 20.5078 93.1545C19.9716 94.4897 19.7037 95.9173 19.7194 97.3559C19.735 98.7946 20.0338 100.216 20.5987 101.539C21.1637 102.862 21.9839 104.061 23.0122 105.068C24.0404 106.074 25.257 106.868 26.592 107.404C24.0116 105.989 22.0703 103.641 21.1667 100.84H21.1689Z" fill="#2970FF"/>
<path opacity="0.5" d="M21.1689 100.84C20.5767 98.9431 20.5117 96.9207 20.9802 94.9896C21.4491 93.0583 22.4341 91.291 23.8299 89.8764C25.2257 88.462 26.9798 87.4536 28.9048 86.9594C30.8295 86.4652 32.8524 86.5035 34.7572 87.0703C33.4221 86.5343 31.9944 86.2662 30.5557 86.2819C29.1171 86.2975 27.6956 86.5963 26.3724 87.1612C25.0492 87.7262 23.8503 88.5464 22.8442 89.5747C21.8378 90.6031 21.044 91.8195 20.5078 93.1545C19.9716 94.4897 19.7037 95.9173 19.7194 97.3559C19.735 98.7946 20.0338 100.216 20.5987 101.539C21.1637 102.862 21.9839 104.061 23.0122 105.068C24.0404 106.074 25.257 106.868 26.592 107.404C24.0116 105.989 22.0703 103.641 21.1667 100.84H21.1689Z" fill="black"/>
<path d="M32.2969 104.674L31.8274 103.172C30.1082 103.626 29.0785 103.311 28.4412 101.269C28.3021 100.831 28.1976 100.383 28.1282 99.9289L30.2693 99.262C30.306 99.4675 30.3552 99.6705 30.4167 99.8699C30.6934 100.757 30.9089 101.231 31.7776 100.968C32.6462 100.705 32.6258 100.364 32.2697 99.228C32.0951 98.6701 32.0429 98.4773 31.6437 98.3049C30.8204 97.9057 29.1148 97.9942 28.194 97.6903C27.3752 97.4385 27.0168 96.8306 26.4566 95.0388C25.8124 92.9771 26.2139 92.0903 28.1486 91.3804L27.7744 90.1896L28.9878 89.8086L29.3598 91.0016C31.1947 90.514 32.0293 90.9517 32.6009 92.7798C32.7252 93.1726 32.8222 93.5734 32.8912 93.9796L30.7728 94.6419C30.722 94.419 30.6598 94.1987 30.5868 93.9819C30.3328 93.1722 30.0924 92.8048 29.2826 93.0565C28.5886 93.272 28.4684 93.5646 28.7701 94.5285C29.083 95.5288 29.1715 95.6081 29.9041 95.6921C30.7184 95.7964 31.4782 95.7919 32.1858 95.8894C33.186 96.0413 33.8234 96.0527 34.4539 98.0373C35.3271 100.832 35.1094 101.957 33.0364 102.773L33.5127 104.295L32.2969 104.674Z" fill="white"/>
<path d="M203.687 67.1833C215.85 64.9224 223.878 53.229 221.615 41.0655C219.356 28.902 207.663 20.8742 195.499 23.1351C183.335 25.3963 175.308 37.0894 177.569 49.2532C179.83 61.4167 191.523 69.4442 203.687 67.1833Z" fill="#2970FF"/>
<path opacity="0.2" d="M203.687 67.1833C215.85 64.9224 223.878 53.229 221.615 41.0655C219.356 28.902 207.663 20.8742 195.499 23.1351C183.335 25.3963 175.308 37.0894 177.569 49.2532C179.83 61.4167 191.523 69.4442 203.687 67.1833Z" fill="black"/>
<path d="M218.745 46.0195C219.638 33.6798 210.359 22.9524 198.02 22.0594C185.68 21.1662 174.952 30.4453 174.059 42.785C173.166 55.1245 182.445 65.8519 194.785 66.7451C207.124 67.6381 217.852 58.359 218.745 46.0195Z" fill="#2970FF"/>
<path d="M203.144 61.077C212.347 57.3661 216.799 46.8973 213.089 37.6945C209.378 28.4914 198.909 24.0389 189.706 27.7498C180.503 31.4605 176.051 41.9292 179.762 51.1324C183.472 60.3355 193.941 64.7877 203.144 61.077Z" fill="#2970FF"/>
<path opacity="0.5" d="M202.761 61.8817C211.964 58.1708 216.417 47.702 212.706 38.4992C208.995 29.2961 198.526 24.8436 189.323 28.5545C180.12 32.2652 175.668 42.7339 179.379 51.9371C183.089 61.1402 193.558 65.5924 202.761 61.8817Z" fill="black" fill-opacity="0.5"/>
<path d="M179.999 41.573C180.744 38.4004 182.338 35.4904 184.61 33.1541C186.882 30.8181 189.747 29.1441 192.897 28.3114C196.048 27.4783 199.366 27.5184 202.495 28.4268C205.625 29.335 208.449 31.0776 210.664 33.4677C209.226 31.5976 207.434 30.0289 205.39 28.8515C203.346 27.6739 201.09 26.9104 198.751 26.6047C196.413 26.2989 194.036 26.4568 191.758 27.0694C189.481 27.6821 187.346 28.7372 185.476 30.175C183.605 31.6128 182.037 33.4046 180.859 35.4486C179.682 37.4926 178.918 39.7482 178.612 42.0871C178.307 44.4263 178.465 46.8024 179.077 49.0805C179.69 51.3583 180.745 53.4933 182.183 55.3633C179.716 51.216 178.934 46.2798 179.999 41.573Z" fill="#2970FF"/>
<path opacity="0.5" d="M179.999 41.573C180.744 38.4004 182.338 35.4904 184.61 33.1541C186.882 30.8181 189.747 29.1441 192.897 28.3114C196.048 27.4783 199.366 27.5184 202.495 28.4268C205.625 29.335 208.449 31.0776 210.664 33.4677C209.226 31.5976 207.434 30.0289 205.39 28.8515C203.346 27.6739 201.09 26.9104 198.751 26.6047C196.413 26.2989 194.036 26.4568 191.758 27.0694C189.481 27.6821 187.346 28.7372 185.476 30.175C183.605 31.6128 182.037 33.4046 180.859 35.4486C179.682 37.4926 178.918 39.7482 178.612 42.0871C178.307 44.4263 178.465 46.8024 179.077 49.0805C179.69 51.3583 180.745 53.4933 182.183 55.3633C179.716 51.216 178.934 46.2798 179.999 41.573Z" fill="black"/>
<path d="M192.502 56.2692L193.086 53.7584C190.283 52.9633 189.091 51.6656 189.894 48.2487C190.062 47.5147 190.288 46.7954 190.57 46.0974L194.147 46.9363C194.029 47.2581 193.931 47.5869 193.855 47.9213C193.507 49.4032 193.408 50.2596 194.858 50.6045C196.307 50.9494 196.559 50.4584 197.006 48.5585C197.225 47.6231 197.298 47.3016 196.889 46.7287C196.062 45.4806 193.577 44.1829 192.534 42.9845C191.587 41.9468 191.587 40.7923 192.291 37.7963C193.101 34.3472 194.404 33.4294 197.731 34.0403L198.198 32.0469L200.227 32.5233L199.759 34.5197C202.758 35.3585 203.559 36.6709 202.852 39.7342C202.702 40.3918 202.506 41.0384 202.267 41.6692L198.722 40.8361C198.84 40.4786 198.938 40.1147 199.014 39.7459C199.333 38.3955 199.306 37.6706 197.947 37.3549C196.778 37.0802 196.375 37.3929 195.995 39.0034C195.6 40.6783 195.658 40.8624 196.641 41.6019C197.704 42.432 198.78 43.0634 199.698 43.7824C200.981 44.8318 201.873 45.3813 201.092 48.7017C199.996 53.3784 198.754 54.7785 195.141 54.2027L194.556 56.7456L192.502 56.2692Z" fill="white"/>
<path d="M88.3447 43.5752C91.5887 40.3312 91.5887 35.0715 88.3447 31.8275C85.1007 28.5835 79.8412 28.5835 76.5971 31.8275C73.3531 35.0715 73.3531 40.3312 76.5971 43.5752C79.8411 46.8192 85.1007 46.8192 88.3447 43.5752Z" fill="#2970FF"/>
<path opacity="0.2" d="M88.3447 43.5752C91.5887 40.3312 91.5887 35.0715 88.3447 31.8275C85.1007 28.5835 79.8412 28.5835 76.5971 31.8275C73.3531 35.0715 73.3531 40.3312 76.5971 43.5752C79.8411 46.8192 85.1007 46.8192 88.3447 43.5752Z" fill="black"/>
<path d="M85.0566 45.4913C89.153 43.4258 90.7992 38.4304 88.7336 34.334C86.6679 30.2378 81.6727 28.5914 77.5763 30.6571C73.4799 32.7227 71.8337 37.7181 73.8992 41.8145C75.965 45.9107 80.9602 47.5571 85.0566 45.4913Z" fill="#2970FF"/>
<path d="M86.624 42.0876C88.8452 39.1537 88.2674 34.9748 85.3338 32.7534C82.3999 30.5322 78.2208 31.11 75.9996 34.0438C73.7784 36.9775 74.3559 41.1567 77.2898 43.3778C80.2237 45.5992 84.4026 45.0215 86.624 42.0876Z" fill="#2970FF"/>
<path opacity="0.5" d="M86.6162 42.0798C88.8373 39.1459 88.2596 34.967 85.326 32.7456C82.3921 30.5244 78.2129 31.1022 75.9918 34.036C73.7706 36.9697 74.3481 41.1488 77.282 43.37C80.2159 45.5914 84.3948 45.0137 86.6162 42.0798Z" fill="black" fill-opacity="0.5"/>
<path d="M75.5521 40.2954C75.1852 39.1435 75.1386 37.9135 75.4172 36.7373C75.6957 35.5608 76.2889 34.4825 77.1333 33.6173C77.9777 32.7523 79.0414 32.1331 80.2107 31.8262C81.38 31.5194 82.6107 31.5364 83.7712 31.8754C82.9574 31.5541 82.0885 31.3965 81.2138 31.4111C80.3391 31.4257 79.4759 31.6125 78.6734 31.9609C77.8708 32.3092 77.145 32.812 76.5368 33.4408C75.9288 34.0699 75.4504 34.8123 75.1293 35.626C74.808 36.4397 74.6502 37.3088 74.665 38.1835C74.6796 39.058 74.8665 39.9213 75.2148 40.7237C75.5631 41.5263 76.0659 42.2523 76.6948 42.8603C77.3236 43.4685 78.0661 43.9467 78.88 44.268C77.3034 43.4179 76.1125 41.9964 75.5521 40.2954Z" fill="#2970FF"/>
<path opacity="0.5" d="M75.5521 40.2954C75.1852 39.1435 75.1386 37.9135 75.4172 36.7373C75.6957 35.5608 76.2889 34.4825 77.1333 33.6173C77.9777 32.7523 79.0414 32.1331 80.2107 31.8262C81.38 31.5194 82.6107 31.5364 83.7712 31.8754C82.9574 31.5541 82.0885 31.3965 81.2138 31.4111C80.3391 31.4257 79.4759 31.6125 78.6734 31.9609C77.8708 32.3092 77.145 32.812 76.5368 33.4408C75.9288 34.0699 75.4504 34.8123 75.1293 35.626C74.808 36.4397 74.6502 37.3088 74.665 38.1835C74.6796 39.058 74.8665 39.9213 75.2148 40.7237C75.5631 41.5263 76.0659 42.2523 76.6948 42.8603C77.3236 43.4685 78.0661 43.9467 78.88 44.268C77.3034 43.4179 76.1125 41.9964 75.5521 40.2954Z" fill="black"/>
<path d="M82.328 42.5879L82.0376 41.6747C80.9929 41.9559 80.3664 41.7696 79.9719 40.5295C79.8851 40.2635 79.8199 39.9912 79.7764 39.7149L81.0751 39.3021C81.0981 39.4256 81.1286 39.5476 81.1664 39.6674C81.3381 40.2062 81.4714 40.4984 81.9974 40.3304C82.5235 40.1623 82.5107 39.9651 82.2897 39.271C82.1819 38.9331 82.1454 38.8162 81.9061 38.7121C81.4038 38.471 80.3664 38.5295 79.8057 38.3468C79.307 38.1952 79.0879 37.8281 78.7408 36.7414C78.3427 35.4902 78.5819 34.9496 79.7564 34.5113L79.5262 33.7807L80.2568 33.5469L80.4869 34.2775C81.6011 33.9743 82.1107 34.2373 82.465 35.3478C82.5425 35.5869 82.6035 35.8311 82.6477 36.0784L81.3691 36.4875C81.3379 36.3522 81.2995 36.2186 81.2541 36.0875C81.0988 35.5962 80.949 35.3715 80.4577 35.5286C80.0376 35.6638 79.9646 35.8409 80.1527 36.4254C80.3408 37.0099 80.3993 37.0811 80.8522 37.1286C81.349 37.1907 81.8111 37.1852 82.2403 37.24C82.8486 37.3313 83.2376 37.335 83.6212 38.5404C84.1691 40.2354 84.0321 40.9149 82.7755 41.4244L83.0696 42.3377L82.328 42.5879Z" fill="white"/>
</svg>
