<svg width="240" height="180" viewBox="0 0 240 180" fill="none" xmlns="http://www.w3.org/2000/svg">
<path d="M210.804 157.715H32.6592C32.5936 157.719 32.5323 157.749 32.4876 157.797C32.4429 157.845 32.418 157.91 32.418 157.974C32.418 158.04 32.4429 158.105 32.4876 158.153C32.5323 158.201 32.5936 158.231 32.6592 158.235H210.804C210.87 158.231 210.931 158.201 210.975 158.153C211.02 158.105 211.045 158.04 211.045 157.974C211.045 157.91 211.02 157.845 210.975 157.797C210.931 157.749 210.87 157.719 210.804 157.715Z" fill="#B2B6BB"/>
<path d="M115.579 60.6562H152.947C154.494 60.6562 155.977 61.2705 157.07 62.364C158.163 63.4574 158.778 64.9404 158.778 66.4867V151.892C158.778 153.439 158.163 154.922 157.07 156.016C155.977 157.109 154.494 157.723 152.947 157.723H114.697C114.3 157.723 113.907 157.645 113.54 157.493C113.172 157.34 112.839 157.118 112.558 156.836C112.277 156.556 112.054 156.223 111.902 155.855C111.75 155.488 111.672 155.095 111.672 154.697V64.5682C111.672 63.5307 112.084 62.5358 112.818 61.8021C113.551 61.0685 114.546 60.6562 115.584 60.6562H115.579Z" fill="#3F4249"/>
<path opacity="0.3" d="M115.577 60.6562H152.945C154.491 60.6562 155.974 61.2705 157.067 62.364C158.16 63.4574 158.775 64.9404 158.775 66.4867V151.892C158.775 153.439 158.16 154.922 157.067 156.016C155.974 157.109 154.491 157.723 152.945 157.723H115.4C114.408 157.723 113.457 157.328 112.755 156.628C112.054 155.926 111.66 154.975 111.66 153.983V64.5682C111.66 64.0545 111.761 63.5459 111.958 63.0713C112.155 62.5967 112.443 62.1654 112.806 61.8021C113.169 61.4388 113.6 61.1506 114.075 60.954C114.55 60.7575 115.058 60.6562 115.572 60.6562H115.577Z" fill="#182230"/>
<path d="M155.028 62H110.82V155.327H155.028V62Z" fill="white"/>
<path d="M154.184 62.3711H111.371V73.2671H154.184V62.3711Z" fill="#155EEF"/>
<path d="M154.18 148.379H111.367V155.942H154.18V148.379Z" fill="#155EEF"/>
<path d="M150.867 154.929H114.687C112.864 154.929 111.387 153.522 111.387 151.779V66.3586C111.387 64.6231 112.864 63.2086 114.687 63.2086H121.204C121.585 63.2032 121.958 63.3176 122.27 63.536C122.582 63.7544 122.817 64.0654 122.943 64.4251L123.243 65.3326C123.368 65.6921 123.603 66.0031 123.915 66.2215C124.226 66.4399 124.599 66.5545 124.98 66.5491H140.586C140.966 66.5545 141.339 66.4399 141.651 66.2215C141.962 66.0031 142.197 65.6921 142.323 65.3326L142.623 64.4251C142.747 64.0652 142.982 63.754 143.294 63.5353C143.606 63.3166 143.979 63.2018 144.36 63.2071H150.873C152.695 63.2071 154.173 64.6141 154.173 66.3571V151.776C154.167 153.522 152.689 154.929 150.867 154.929ZM109.227 65.0566V153.213C109.227 153.798 109.342 154.377 109.566 154.919C109.79 155.459 110.118 155.949 110.531 156.363C110.945 156.777 111.436 157.106 111.977 157.329C112.517 157.553 113.097 157.668 113.682 157.668H151.879C153.061 157.668 154.194 157.199 155.03 156.363C155.866 155.528 156.336 154.394 156.336 153.212V65.0566C156.335 63.8752 155.866 62.7422 155.03 61.9069C154.195 61.0715 153.062 60.602 151.881 60.6016H113.683C112.501 60.6016 111.368 61.0709 110.532 61.9063C109.697 62.7418 109.227 63.8749 109.227 65.0566Z" fill="#101828"/>
<path d="M150.276 69.8207H147.336C147.317 69.8207 147.3 69.8133 147.286 69.8C147.273 69.7868 147.266 69.7689 147.266 69.7502C147.266 69.7314 147.273 69.7136 147.286 69.7004C147.3 69.6872 147.317 69.6797 147.336 69.6797H150.276C150.295 69.6797 150.313 69.6872 150.326 69.7004C150.339 69.7136 150.347 69.7314 150.347 69.7502C150.347 69.7689 150.339 69.7868 150.326 69.8C150.313 69.8133 150.295 69.8207 150.276 69.8207Z" fill="white"/>
<path d="M150.276 70.7894H147.336C147.317 70.7894 147.3 70.7821 147.286 70.7689C147.273 70.7557 147.266 70.7377 147.266 70.7189C147.266 70.7003 147.273 70.6823 147.286 70.6691C147.3 70.6559 147.317 70.6484 147.336 70.6484H150.276C150.295 70.6484 150.313 70.6559 150.326 70.6691C150.339 70.6823 150.347 70.7003 150.347 70.7189C150.347 70.7377 150.339 70.7557 150.326 70.7689C150.313 70.7821 150.295 70.7894 150.276 70.7894Z" fill="white"/>
<path d="M150.276 71.7543H147.336C147.317 71.7543 147.3 71.7468 147.286 71.7336C147.273 71.7204 147.266 71.7025 147.266 71.6838C147.266 71.665 147.273 71.6472 147.286 71.634C147.3 71.6206 147.317 71.6133 147.336 71.6133H150.276C150.295 71.6133 150.313 71.6206 150.326 71.634C150.339 71.6472 150.347 71.665 150.347 71.6838C150.347 71.7025 150.339 71.7204 150.326 71.7336C150.313 71.7468 150.295 71.7543 150.276 71.7543Z" fill="white"/>
<path d="M116.327 69.3139L115.216 70.2829C115.198 70.2979 115.184 70.3167 115.175 70.3377C115.165 70.3585 115.16 70.3813 115.16 70.4044V72.0544C115.16 72.0829 115.172 72.1105 115.192 72.1308C115.212 72.151 115.24 72.1624 115.268 72.1624H115.934C115.963 72.1624 115.99 72.151 116.01 72.1308C116.031 72.1105 116.042 72.0829 116.042 72.0544V71.1934C116.042 71.1648 116.054 71.1372 116.074 71.1169C116.094 71.0967 116.122 71.0854 116.15 71.0854H116.717C116.746 71.0854 116.774 71.0967 116.794 71.1169C116.815 71.1372 116.826 71.1646 116.827 71.1934V72.0544C116.827 72.0829 116.838 72.1105 116.858 72.1308C116.879 72.151 116.906 72.1624 116.935 72.1624H117.599C117.628 72.1624 117.655 72.151 117.676 72.1308C117.696 72.1105 117.707 72.0829 117.707 72.0544V70.4044C117.707 70.3813 117.702 70.3584 117.693 70.3374C117.683 70.3164 117.669 70.2978 117.652 70.2829L116.54 69.3139C116.511 69.2878 116.473 69.2734 116.434 69.2734C116.394 69.2734 116.357 69.2878 116.327 69.3139Z" stroke="white" stroke-width="0.2355" stroke-miterlimit="10"/>
<path d="M119.683 150.877H117.007C116.989 150.873 116.972 150.862 116.96 150.847C116.948 150.832 116.941 150.813 116.941 150.793C116.941 150.775 116.948 150.756 116.96 150.741C116.972 150.726 116.989 150.715 117.007 150.711H119.683C119.702 150.715 119.719 150.726 119.731 150.741C119.743 150.756 119.749 150.775 119.749 150.793C119.749 150.813 119.743 150.832 119.731 150.847C119.719 150.862 119.702 150.873 119.683 150.877Z" fill="white" stroke="white" stroke-width="0.057" stroke-miterlimit="10"/>
<path d="M119.683 151.78H117.007C116.989 151.775 116.972 151.765 116.96 151.75C116.948 151.735 116.941 151.715 116.941 151.696C116.941 151.678 116.948 151.658 116.96 151.643C116.972 151.628 116.989 151.618 117.007 151.613H119.683C119.702 151.618 119.719 151.628 119.731 151.643C119.743 151.658 119.749 151.678 119.749 151.696C119.749 151.715 119.743 151.735 119.731 151.75C119.719 151.765 119.702 151.775 119.683 151.78Z" fill="white" stroke="white" stroke-width="0.057" stroke-miterlimit="10"/>
<path d="M119.683 152.686H117.007C116.989 152.682 116.972 152.671 116.96 152.656C116.948 152.641 116.941 152.622 116.941 152.602C116.941 152.584 116.948 152.565 116.96 152.55C116.972 152.535 116.989 152.524 117.007 152.52H119.683C119.702 152.524 119.719 152.535 119.731 152.55C119.743 152.565 119.749 152.584 119.749 152.602C119.749 152.622 119.743 152.641 119.731 152.656C119.719 152.671 119.702 152.682 119.683 152.686Z" fill="white" stroke="white" stroke-width="0.057" stroke-miterlimit="10"/>
<path d="M147.164 150.605L148.607 151.586L147.164 152.797" stroke="white" stroke-width="0.231" stroke-miterlimit="10" stroke-linecap="round"/>
<path d="M133.811 151.238V152.968H131.504V151.238" stroke="white" stroke-width="0.231" stroke-miterlimit="10" stroke-linecap="round"/>
<path d="M131.16 151.468L132.659 150.43L134.159 151.468" stroke="white" stroke-width="0.231" stroke-miterlimit="10" stroke-linecap="round"/>
<path d="M146.257 65.0255L146.169 65.1125L146.119 65.162C145.894 64.9372 145.589 64.8109 145.271 64.8109C144.953 64.8109 144.648 64.9372 144.423 65.162L144.376 65.1125C144.348 65.0825 144.318 65.054 144.289 65.0255C144.327 64.9925 144.363 64.958 144.402 64.9265C144.576 64.7863 144.782 64.6905 145.002 64.6475L145.173 64.625C145.192 64.625 145.323 64.625 145.323 64.625L145.44 64.634C145.546 64.6454 145.651 64.6702 145.752 64.7075C145.903 64.7621 146.043 64.844 146.166 64.949L146.259 65.0315L146.257 65.0255Z" fill="white"/>
<path d="M144.702 65.4416L144.562 65.3036C144.714 65.1482 144.913 65.048 145.128 65.0186C145.282 64.9957 145.439 65.0095 145.587 65.0587C145.735 65.1079 145.869 65.1913 145.979 65.3021L145.839 65.4401C145.764 65.3653 145.676 65.3059 145.578 65.2654C145.481 65.2249 145.376 65.204 145.271 65.204C145.165 65.204 145.06 65.2249 144.963 65.2654C144.865 65.3059 144.777 65.3653 144.702 65.4401V65.4416Z" fill="white"/>
<path d="M145.702 65.5783C145.657 65.6248 145.61 65.6698 145.564 65.7163C145.525 65.678 145.48 65.6477 145.43 65.6272C145.38 65.6066 145.327 65.596 145.273 65.5963C145.219 65.5957 145.165 65.6062 145.115 65.627C145.065 65.6479 145.019 65.6788 144.982 65.7178L144.844 65.5798C144.9 65.5225 144.966 65.477 145.04 65.4458C145.113 65.4148 145.192 65.3986 145.272 65.3984C145.352 65.3983 145.431 65.4142 145.505 65.4451C145.579 65.4758 145.646 65.5211 145.702 65.5783Z" fill="white"/>
<path d="M145.397 65.8511C145.397 65.8757 145.39 65.8998 145.376 65.9202C145.363 65.9408 145.343 65.9567 145.321 65.9661C145.298 65.9756 145.273 65.978 145.249 65.9732C145.224 65.9684 145.202 65.9565 145.185 65.9391C145.167 65.9217 145.156 65.8995 145.151 65.8754C145.146 65.8512 145.148 65.8262 145.158 65.8034C145.167 65.7807 145.183 65.7612 145.204 65.7476C145.224 65.7339 145.248 65.7266 145.273 65.7266C145.306 65.7266 145.338 65.7396 145.361 65.763C145.384 65.7864 145.397 65.8181 145.397 65.8511Z" fill="white"/>
<path d="M114.605 65.2903C114.605 65.2183 114.626 65.1479 114.666 65.0881C114.706 65.0281 114.763 64.9813 114.829 64.9537C114.895 64.9261 114.968 64.9187 115.039 64.9327C115.109 64.9466 115.174 64.9813 115.225 65.0321C115.276 65.083 115.311 65.1478 115.325 65.2183C115.339 65.2889 115.331 65.362 115.304 65.4284C115.276 65.4947 115.229 65.5514 115.169 65.5912C115.109 65.6309 115.039 65.6521 114.967 65.6518C114.871 65.6513 114.779 65.6131 114.712 65.5454C114.644 65.4778 114.606 65.386 114.605 65.2903Z" fill="white"/>
<path d="M115.746 65.2927C115.746 65.2207 115.767 65.1505 115.807 65.0908C115.847 65.0311 115.904 64.9846 115.97 64.9572C116.037 64.9297 116.11 64.9227 116.18 64.9368C116.251 64.9509 116.316 64.9855 116.366 65.0365C116.417 65.0874 116.451 65.1523 116.465 65.2228C116.479 65.2933 116.472 65.3664 116.444 65.4327C116.416 65.499 116.369 65.5555 116.31 65.5953C116.25 65.6349 116.179 65.656 116.108 65.6557C116.012 65.6553 115.92 65.6169 115.852 65.5488C115.784 65.4808 115.746 65.3887 115.746 65.2927Z" fill="white"/>
<path d="M116.887 65.2927C116.887 65.2209 116.908 65.1507 116.948 65.091C116.988 65.0313 117.045 64.9848 117.111 64.9573C117.177 64.9299 117.25 64.9227 117.321 64.9366C117.391 64.9506 117.456 64.9852 117.506 65.0359C117.557 65.0868 117.592 65.1514 117.606 65.2218C117.62 65.2923 117.613 65.3652 117.585 65.4316C117.558 65.4979 117.511 65.5546 117.451 65.5945C117.392 65.6344 117.322 65.6557 117.25 65.6557C117.154 65.6553 117.061 65.6169 116.994 65.5489C116.925 65.481 116.887 65.3889 116.887 65.2927Z" fill="white"/>
<path d="M118.027 65.2927C118.027 65.2209 118.049 65.1507 118.089 65.091C118.128 65.0313 118.185 64.9848 118.251 64.9573C118.318 64.9299 118.391 64.9227 118.461 64.9366C118.532 64.9506 118.596 64.9852 118.647 65.0359C118.698 65.0868 118.732 65.1514 118.746 65.2218C118.76 65.2923 118.753 65.3652 118.726 65.4316C118.698 65.4979 118.652 65.5546 118.592 65.5945C118.532 65.6344 118.462 65.6557 118.39 65.6557C118.343 65.6559 118.295 65.6466 118.251 65.6284C118.207 65.6103 118.167 65.5836 118.133 65.5498C118.099 65.5161 118.073 65.4759 118.055 65.4318C118.036 65.3877 118.027 65.3404 118.027 65.2927Z" fill="white"/>
<path d="M151.868 65.9532H149.562V64.8867H151.868V65.9532ZM149.678 65.8377H151.752V65.0022H149.678V65.8377Z" fill="white"/>
<path d="M151.242 65.0664H149.754V65.7729H151.242V65.0664Z" fill="white"/>
<path d="M152.073 65.1367H151.867V65.7082H152.073V65.1367Z" fill="white"/>
<path d="M140.515 70.2227H125.041C124.783 70.2227 124.574 70.4315 124.574 70.6892V70.7492C124.574 71.0067 124.783 71.2157 125.041 71.2157H140.515C140.772 71.2157 140.981 71.0067 140.981 70.7492V70.6892C140.981 70.4315 140.772 70.2227 140.515 70.2227Z" fill="white"/>
<path d="M124.18 120.602H151.091C151.261 120.602 151.424 120.669 151.544 120.789C151.664 120.909 151.732 121.072 151.732 121.242V127.01C151.732 127.179 151.664 127.342 151.544 127.462C151.424 127.583 151.261 127.65 151.091 127.65H149.791L149.75 130.247L147.917 127.652H124.18C124.01 127.652 123.847 127.584 123.727 127.464C123.607 127.344 123.539 127.181 123.539 127.011V121.242C123.539 121.072 123.607 120.909 123.727 120.789C123.847 120.669 124.01 120.602 124.18 120.602Z" fill="#B2B6BB"/>
<path d="M126.102 123.559H149.173V122.996H126.102V123.559Z" fill="white"/>
<path d="M145.07 125.246H149.168V124.684H145.07V125.246Z" fill="white"/>
<path d="M134.145 125.246H144.175V124.684H134.145V125.246Z" fill="white"/>
<path d="M141.193 107.699H114.281C114.111 107.699 113.948 107.767 113.828 107.887C113.708 108.007 113.641 108.17 113.641 108.34V114.107C113.641 114.277 113.708 114.44 113.828 114.56C113.948 114.68 114.111 114.748 114.281 114.748H115.582L115.619 117.344L117.457 114.749H141.193C141.362 114.749 141.525 114.682 141.645 114.562C141.766 114.442 141.833 114.279 141.833 114.109V108.34C141.833 108.17 141.766 108.007 141.645 107.887C141.525 107.767 141.362 107.699 141.193 107.699Z" fill="#B2B6BB"/>
<path d="M139.271 110.098H116.199V110.66H139.271V110.098Z" fill="white"/>
<path d="M120.297 111.789H116.199V112.352H120.297V111.789Z" fill="white"/>
<path d="M131.226 111.789H121.195V112.352H131.226V111.789Z" fill="white"/>
<path d="M182.492 77.5703H122.602C122.195 77.5708 121.806 77.7325 121.519 78.0199C121.232 78.3074 121.07 78.6971 121.07 79.1033V97.7033C121.071 98.1094 121.232 98.4988 121.519 98.7859C121.807 99.073 122.196 99.2345 122.602 99.2348H125.713L125.803 102.448L128.698 99.2348H182.494C182.9 99.2345 183.29 99.0728 183.577 98.7854C183.865 98.498 184.027 98.1083 184.027 97.7018V79.1018C184.025 78.6955 183.863 78.3059 183.577 78.0188C183.289 77.7316 182.899 77.5703 182.492 77.5703Z" fill="#B2B6BB"/>
<path d="M152.493 82.1992H125.297V82.8622H152.493V82.1992Z" fill="white"/>
<path d="M130.127 87.875H125.297V88.538H130.127V87.875Z" fill="white"/>
<path d="M152.493 87.875H144.258V88.538H152.493V87.875Z" fill="white"/>
<path d="M143.012 87.875H131.188V88.538H143.012V87.875Z" fill="white"/>
<path d="M138.791 85.0391H125.297V85.7021H138.791V85.0391Z" fill="white"/>
<path d="M152.572 85.0391H139.906V85.7021H152.572V85.0391Z" fill="white"/>
<path d="M152.493 90.7148H125.297V91.3778H152.493V90.7148Z" fill="white"/>
<path d="M138.791 93.5508H125.297V94.2138H138.791V93.5508Z" fill="white"/>
<path d="M169.626 98.1812C175.051 98.1812 179.451 93.7823 179.451 88.3562C179.451 82.93 175.051 78.5312 169.626 78.5312C164.2 78.5312 159.801 82.93 159.801 88.3562C159.801 93.7823 164.2 98.1812 169.626 98.1812Z" fill="white"/>
<path d="M178.361 92.8555L178.828 95.047L177.617 94.072L178.361 92.8555Z" fill="#21252B"/>
<path d="M170.131 77.4377C170.365 77.6826 170.637 77.8883 170.937 78.0467C171.237 78.1967 171.586 78.5927 171.921 78.5402C172.089 78.5174 172.249 78.4572 172.392 78.3641C172.533 78.2709 172.653 78.147 172.74 78.0017C172.903 77.7017 172.89 76.9937 172.674 76.7342C172.564 76.6049 172.411 76.5197 172.243 76.4943C172.075 76.469 171.904 76.5051 171.762 76.5962C171.75 76.4372 171.699 76.2837 171.613 76.1495C171.526 76.0152 171.409 75.9044 171.27 75.8268C171.13 75.7494 170.974 75.7077 170.814 75.7056C170.655 75.7035 170.497 75.7409 170.356 75.8147C170.239 75.5955 170.059 75.4163 169.84 75.2994C169.621 75.1826 169.372 75.1337 169.125 75.1587C168.877 75.1838 168.643 75.2819 168.453 75.4403C168.261 75.5987 168.121 75.8105 168.051 76.0487C167.929 76.023 167.803 76.0229 167.682 76.0482C167.56 76.0736 167.445 76.124 167.343 76.1961C167.242 76.2683 167.157 76.3607 167.092 76.4675C167.029 76.5743 166.987 76.6932 166.972 76.8167C166.98 76.9631 166.965 77.1099 166.927 77.2517C166.849 77.4332 166.654 77.4092 166.57 77.7197C166.519 77.8706 166.513 78.0332 166.554 78.1874C166.594 78.3416 166.68 78.4803 166.798 78.5867C167.005 78.7862 167.227 79.1312 167.209 79.3817C167.209 79.3817 167.043 80.5592 167.659 80.8112L170.131 77.4377Z" fill="#101828"/>
<path d="M178.359 92.8508L177.049 86.8508C176.749 85.5008 175.813 84.5513 175.014 84.3668L171.049 83.5508L169.185 83.8373L167.749 83.5508L163.99 84.3338C163.855 84.3606 163.725 84.4019 163.599 84.4568C162.565 84.9233 162.019 86.0723 161.899 86.8568L161.149 90.9068L160.867 92.8163C161.494 94.0466 162.372 95.1315 163.444 96.0008L164.067 95.7968V96.4718C165.708 97.5959 167.653 98.1947 169.642 98.1891C171.633 98.1834 173.574 97.5737 175.209 96.4403L175.248 94.4573L177.048 94.7828C177.561 94.1936 178 93.5448 178.359 92.8508Z" fill="#21252B"/>
<path opacity="0.4" d="M166.93 83.6836L166.551 83.7631C166.551 83.7631 166.809 85.4971 169.401 85.6501C169.401 85.6501 171.684 85.9501 172.443 83.7811L172.011 83.6986L166.93 83.6836Z" fill="white"/>
<path d="M171.304 83.3555L171.109 81.5C171.154 81.3062 171.176 81.1079 171.175 80.909C171.208 79.8965 171.298 78.9845 171.298 78.9845C171.298 78.9845 167.942 76.8845 167.81 79.4525L167.762 80.1185L167.546 83.339C167.54 83.402 167.515 83.4615 167.474 83.5092C167.432 83.5569 167.377 83.5902 167.315 83.6045L166.93 83.684C167.569 85.3505 169.706 85.2005 169.706 85.2005C171.524 85.2005 172.004 83.7005 172.004 83.7005L171.538 83.6105C171.476 83.5989 171.421 83.5679 171.379 83.5218C171.337 83.4759 171.31 83.4176 171.304 83.3555Z" fill="#FFC3BD"/>
<path d="M171.985 77.4128C171.985 77.4128 172.747 82.6778 170.071 82.7858C167.755 82.8833 167.821 79.2923 167.821 79.2923L168.14 76.9883L171.985 77.4128Z" fill="#FFC3BD"/>
<path opacity="0.15" d="M167.699 80.4593C167.817 80.4697 167.936 80.443 168.039 80.3828L167.664 80.9618L167.699 80.4593Z" fill="#101828"/>
<path opacity="0.2" d="M171.331 83.175L171.245 82.341C171.031 82.5273 170.776 82.6599 170.501 82.728C170.225 82.7961 169.937 82.7976 169.661 82.7325C169.298 82.6428 168.974 82.44 168.734 82.1535C168.73 82.1478 168.724 82.143 168.718 82.1395C168.712 82.1359 168.704 82.1338 168.698 82.1331C168.691 82.1323 168.683 82.1332 168.676 82.1353C168.67 82.1376 168.664 82.1412 168.658 82.146C168.652 82.1505 168.647 82.1559 168.644 82.1622C168.64 82.1683 168.638 82.1752 168.637 82.1824C168.637 82.1895 168.637 82.1967 168.638 82.2036C168.641 82.2105 168.644 82.2169 168.649 82.2225C169.43 82.7943 170.363 83.1253 171.331 83.175Z" fill="#101828"/>
<path d="M160.869 92.8086L160.701 94.4991C160.701 94.4991 160.482 96.9216 162.766 96.2346L162.651 95.0991L160.869 92.8086Z" fill="#21252B"/>
<path opacity="0.3" d="M175.294 91.5114V88.3899C175.327 88.3845 175.361 88.386 175.394 88.3941C175.427 88.4024 175.459 88.4169 175.486 88.4372C175.513 88.4574 175.535 88.4829 175.552 88.5122C175.57 88.5414 175.58 88.5738 175.585 88.6074L175.993 91.6599C176.105 92.2376 176.435 92.7501 176.914 93.0924L178.7 94.3494L178.577 94.8789L175.814 94.0494L175.277 91.4994" fill="#101828"/>
<path d="M176.302 92.1451C176.302 92.1451 176.525 91.8451 176.602 92.1451L176.528 93.4846L176.156 92.5846L176.302 92.1451Z" fill="#FFC3BD"/>
<path opacity="0.15" d="M176.302 92.1451C176.302 92.1451 176.525 91.8451 176.602 92.1451L176.528 93.4846L176.156 92.5846L176.302 92.1451Z" fill="#101828"/>
<path opacity="0.3" d="M164.58 88.5687L164.206 92.4447L164.094 96.4752C164.467 96.7305 164.859 96.9596 165.264 97.1607L165.252 95.1912L164.716 93.2292L164.845 88.5642C164.752 88.3497 164.58 88.4997 164.58 88.5687Z" fill="#101828"/>
<path d="M178.486 94.5977C178.591 94.6499 178.68 94.7297 178.743 94.8285C178.804 94.9275 178.839 95.0415 178.842 95.1587C178.888 95.8172 178.531 97.3337 176.781 96.9422C176.673 96.9182 176.391 96.7922 176.449 96.6167L178.486 94.5977Z" fill="#21252B"/>
<g opacity="0.4">
<path opacity="0.4" d="M178.49 94.5938C178.595 94.646 178.684 94.7258 178.747 94.8246C178.808 94.9236 178.843 95.0376 178.846 95.1547C178.892 95.8132 178.535 97.3298 176.785 96.9383C176.677 96.9143 176.395 96.7883 176.453 96.6128L178.49 94.5938Z" fill="white"/>
</g>
<path d="M176.523 93.4844L178.345 94.4609C178.42 94.5099 178.483 94.5764 178.528 94.6547C178.573 94.733 178.599 94.8209 178.602 94.9109C178.677 95.4704 178.302 97.1999 176.638 96.7409C176.518 96.7053 176.413 96.6323 176.338 96.5324L175.188 95.0444L176.523 93.4844Z" fill="#FFC3BD"/>
<path opacity="0.15" d="M175.848 94.8766C176.247 94.5325 176.503 94.0506 176.563 93.5266L176.413 93.4531L175 94.8661L175.186 95.0521L176.337 96.5401C176.412 96.6405 176.517 96.7138 176.637 96.7486C177.846 97.0816 178.373 96.2611 178.541 95.5726C177.733 97.0621 176.308 95.7466 175.815 95.2156C175.792 95.1922 175.775 95.1642 175.765 95.1337C175.754 95.1031 175.752 95.0707 175.755 95.0386C175.758 95.0065 175.766 94.9755 175.783 94.9476C175.799 94.9197 175.822 94.8955 175.848 94.8766Z" fill="#101828"/>
<path d="M176.988 90.8438H175.309C175.279 90.8436 175.248 90.8511 175.223 90.8655C175.196 90.8799 175.175 90.9009 175.159 90.9263L173.198 94.0133C173.192 94.0238 173.188 94.0358 173.188 94.0482C173.188 94.0605 173.189 94.0728 173.195 94.0838C173.201 94.0947 173.21 94.1039 173.22 94.1105C173.231 94.1171 173.243 94.1208 173.255 94.1213L175.082 94.1918L177.047 90.9518C177.053 90.9413 177.058 90.9291 177.058 90.9165C177.058 90.9041 177.056 90.8916 177.05 90.8807C177.044 90.8697 177.035 90.8606 177.024 90.854C177.012 90.8475 177 90.8441 176.988 90.8438Z" fill="#155EEF"/>
<path opacity="0.15" d="M176.988 90.8438H175.248C175.236 90.8438 175.225 90.8468 175.214 90.8525C175.204 90.8583 175.194 90.8666 175.188 90.8768L173.198 94.0133C173.192 94.0238 173.188 94.0358 173.188 94.0482C173.188 94.0605 173.189 94.0728 173.195 94.0838C173.201 94.0947 173.21 94.1039 173.22 94.1105C173.231 94.1171 173.243 94.1208 173.255 94.1213L175.082 94.1918L177.047 90.9518C177.053 90.9413 177.058 90.929 177.058 90.9165C177.058 90.9041 177.056 90.8916 177.05 90.8807C177.044 90.8697 177.035 90.8606 177.024 90.854C177.012 90.8475 177 90.844 176.988 90.8438Z" fill="#101828"/>
<path d="M177.041 90.9531H175.366C175.343 90.9534 175.321 90.9594 175.301 90.9704C175.282 90.9813 175.265 90.9971 175.253 91.0161L173.285 94.1151L175.33 94.2276L177.041 90.9531Z" fill="#155EEF"/>
<path d="M175.786 93.302C175.804 93.2912 175.816 93.2744 175.822 93.2549C175.828 93.2354 175.827 93.2142 175.819 93.1955L175.699 92.6675L175.249 91.7945C175.231 91.7483 175.233 91.6973 175.251 91.6512C175.269 91.6052 175.303 91.5675 175.347 91.5455C175.384 91.5267 175.428 91.5224 175.468 91.533C175.509 91.5438 175.543 91.569 175.567 91.604L176.226 92.519L176.526 93.4865C176.226 94.379 175.186 95.048 175.186 95.048H174.921C174.754 95.0468 174.592 94.9944 174.457 94.898L173.881 94.5005C173.761 94.4177 173.667 94.3041 173.605 94.172L173.305 93.5165C173.29 93.4844 173.286 93.4484 173.292 93.4136C173.298 93.3788 173.314 93.3467 173.34 93.3215C173.358 93.3042 173.379 93.2909 173.401 93.2822C173.424 93.2736 173.449 93.2699 173.473 93.2715C173.497 93.273 173.521 93.2798 173.544 93.2913C173.565 93.3027 173.584 93.3186 173.599 93.338L174 93.854L174.477 94.2635C174.49 94.274 174.505 94.2804 174.522 94.2824C174.538 94.2842 174.555 94.2813 174.57 94.274H174.579C174.589 94.2684 174.6 94.2606 174.607 94.251C174.615 94.2414 174.621 94.2302 174.624 94.2182C174.627 94.2063 174.627 94.1937 174.625 94.1817C174.622 94.1696 174.618 94.158 174.61 94.148L174.073 93.4115L173.758 92.591C173.743 92.5509 173.743 92.5067 173.758 92.4668C173.775 92.4269 173.803 92.3942 173.842 92.375L173.86 92.3645C173.899 92.3457 173.943 92.3418 173.983 92.3534C174.024 92.3651 174.06 92.3915 174.082 92.4275L174.52 93.1145L175.072 93.5975C175.086 93.6084 175.101 93.6155 175.117 93.6176C175.134 93.6197 175.152 93.6168 175.167 93.6095L175.185 93.6005C175.195 93.5954 175.204 93.5883 175.212 93.5796C175.219 93.5709 175.225 93.5607 175.228 93.5498C175.231 93.5388 175.233 93.5273 175.231 93.5159C175.23 93.5045 175.227 93.4935 175.221 93.4835L174.892 92.8835L174.397 92.2025C174.37 92.1659 174.36 92.12 174.366 92.0751C174.373 92.0301 174.397 91.9896 174.433 91.9625C174.478 91.9286 174.535 91.9116 174.591 91.9143C174.648 91.917 174.702 91.9394 174.744 91.9775L175.344 92.5775L175.681 93.2525C175.687 93.2631 175.695 93.2726 175.704 93.2801C175.713 93.2877 175.723 93.2933 175.734 93.2966C175.746 93.2997 175.758 93.3006 175.77 93.299C175.782 93.2973 175.792 93.2933 175.803 93.287L175.786 93.302Z" fill="#FFC3BD"/>
<path d="M164.098 92.4482L169.72 90.9917L172.153 90.0182C172.264 89.975 172.386 89.9687 172.501 90.0002L173.644 90.3227C173.73 90.3472 173.808 90.3931 173.871 90.4562L174.582 91.1672C174.603 91.1872 174.618 91.2115 174.628 91.2382C174.639 91.2649 174.643 91.2935 174.642 91.3222C174.639 91.3508 174.631 91.3786 174.616 91.4036C174.603 91.4287 174.583 91.4504 174.561 91.4672C174.526 91.4921 174.486 91.5056 174.444 91.5056C174.402 91.5056 174.361 91.4921 174.327 91.4672L173.551 90.8852L172.887 90.6857C172.864 90.6791 172.842 90.6803 172.819 90.6895C172.798 90.6985 172.782 90.7148 172.771 90.7352C172.761 90.7562 172.758 90.7802 172.762 90.8032C172.768 90.826 172.782 90.8462 172.801 90.8597L173.644 91.4597C173.682 91.487 173.71 91.5256 173.724 91.5698C173.739 91.6141 173.739 91.6616 173.724 91.7057C173.709 91.7518 173.679 91.7912 173.638 91.8182L173.572 91.8617C173.542 91.8812 173.509 91.8934 173.475 91.8971C173.439 91.9007 173.404 91.8958 173.371 91.8827L173.104 91.7762L173.209 91.8467C173.244 91.8691 173.269 91.9021 173.283 91.9406C173.296 91.9792 173.296 92.0212 173.283 92.0597C173.274 92.0872 173.259 92.1122 173.238 92.1328C173.218 92.1533 173.193 92.1689 173.166 92.1782L173.085 92.2037C173.049 92.2151 173.011 92.2151 172.975 92.2037L172.51 92.0702L172.914 92.2442C172.929 92.2507 172.942 92.2601 172.953 92.272C172.965 92.2838 172.974 92.2978 172.978 92.3131C172.984 92.3284 172.987 92.3447 172.986 92.3609C172.986 92.3773 172.981 92.3932 172.974 92.4077C172.962 92.4302 172.944 92.4485 172.921 92.4602L172.804 92.5187C172.711 92.5649 172.608 92.5841 172.504 92.5742L171.997 92.5172C171.432 92.6168 170.857 92.6416 170.286 92.5907L164.409 95.5667L163.293 94.3022L164.098 92.4482Z" fill="#FFC3BD"/>
<path d="M162.693 92.5891C162.693 92.5891 163.51 92.2891 164.106 92.2891C164.106 92.2891 163.956 95.3386 164.406 95.5621C164.406 95.5621 163.585 96.2611 162.768 96.2461C162.765 96.2491 162.469 95.5651 162.693 92.5891Z" fill="#21252B"/>
<path opacity="0.4" d="M162.927 92.512C163.286 92.3944 163.656 92.3209 164.033 92.293C164.042 92.2927 164.051 92.2945 164.06 92.2979C164.069 92.3014 164.076 92.3066 164.082 92.3132C164.09 92.3198 164.094 92.3278 164.097 92.3364C164.1 92.3451 164.102 92.3542 164.102 92.3635C164.082 92.824 163.997 95.3635 164.402 95.5645C164.402 95.5645 163.581 96.2635 162.764 96.2485C162.764 96.2485 162.173 95.224 162.642 92.8285C162.657 92.7548 162.69 92.6864 162.741 92.6308C162.791 92.575 162.855 92.5339 162.927 92.512Z" fill="white"/>
<path opacity="0.15" d="M172.922 92.329C172.922 92.629 171.954 92.329 171.954 92.329C171.504 92.329 170.169 92.1055 170.169 92.1055L164.121 94.5325L164.208 95.344L164.403 95.5645L170.28 92.5885C170.852 92.6392 171.426 92.6146 171.992 92.515L172.499 92.572C172.602 92.5817 172.706 92.5625 172.799 92.5165L172.916 92.458C172.938 92.4461 172.956 92.4278 172.968 92.4055L172.922 92.329Z" fill="#101828"/>
<path opacity="0.3" d="M164.149 94.563C160.726 96.1245 160.699 94.5 160.699 94.5C160.699 94.5 160.69 94.884 160.699 94.95C160.849 96 161.449 96.45 162.235 96.3765L162.765 96.2355L164.067 95.7855L164.439 95.592C164.149 95.4555 164.149 94.563 164.149 94.563Z" fill="#101828"/>
<path opacity="0.15" d="M173.165 91.7967L172.547 91.5117" stroke="#101828" stroke-width="0.075" stroke-miterlimit="10" stroke-linecap="round"/>
<path opacity="0.15" d="M172.736 92.1694L172.25 91.9609" stroke="#101828" stroke-width="0.075" stroke-miterlimit="10" stroke-linecap="round"/>
<path d="M172.223 77.9831C171.668 78.1235 171.082 78.0568 170.573 77.7956C169.993 77.5061 169.316 77.3636 169.166 77.4806C169.016 77.5976 168.986 78.1961 168.416 78.3701C168.416 78.3701 168.455 79.5101 168.001 79.4696C167.546 79.4291 167.83 77.6696 167.83 77.6696V76.4156L170.033 76.2656L171.293 76.5806L172.396 76.8956L172.223 77.9831Z" fill="#101828"/>
<path d="M167.823 79.0807C167.801 79.0149 167.765 78.9547 167.715 78.9045C167.667 78.8542 167.609 78.8152 167.544 78.79C167.48 78.765 167.409 78.7543 167.34 78.7588C167.271 78.7635 167.204 78.7833 167.142 78.8167C166.563 79.0717 166.683 80.3827 167.661 80.4592C168.173 80.5027 168.069 80.2042 167.985 79.8037L167.823 79.0807Z" fill="#FFC3BD"/>
<path opacity="0.2" d="M167.119 79.1617C167.158 79.1311 167.203 79.1086 167.251 79.0954C167.3 79.0823 167.35 79.0787 167.399 79.0852C167.447 79.0972 167.491 79.1192 167.53 79.1501C167.569 79.1809 167.599 79.2197 167.621 79.2637C167.683 79.3729 167.716 79.4966 167.714 79.6222L167.723 79.7317C167.723 79.7396 167.722 79.7474 167.719 79.7546C167.716 79.762 167.711 79.7686 167.705 79.7741C167.701 79.7797 167.693 79.784 167.686 79.7872C167.678 79.7902 167.671 79.7917 167.663 79.7917C167.656 79.7917 167.648 79.7902 167.641 79.7872C167.633 79.784 167.626 79.7797 167.621 79.7741C167.615 79.7686 167.611 79.762 167.608 79.7546C167.605 79.7474 167.603 79.7396 167.603 79.7317V79.6222C167.599 79.5179 167.573 79.4156 167.527 79.3222C167.492 79.264 167.44 79.2191 167.377 79.1947C167.311 79.1887 167.243 79.2068 167.189 79.2457C167.176 79.2536 167.159 79.2565 167.144 79.2533C167.129 79.2503 167.114 79.2418 167.105 79.2292C167.084 79.2217 167.093 79.1872 167.119 79.1617Z" fill="#101828"/>
<path d="M141.193 133.199H114.281C114.111 133.199 113.948 133.267 113.828 133.387C113.708 133.507 113.641 133.67 113.641 133.84V139.607C113.641 139.777 113.708 139.94 113.828 140.06C113.948 140.18 114.111 140.248 114.281 140.248H115.582L115.619 142.844L117.457 140.249H141.193C141.362 140.249 141.525 140.182 141.645 140.062C141.766 139.942 141.833 139.779 141.833 139.609V133.84C141.833 133.67 141.766 133.507 141.645 133.387C141.525 133.267 141.362 133.199 141.193 133.199Z" fill="#B2B6BB"/>
<path d="M139.271 135.598H116.199V136.16H139.271V135.598Z" fill="white"/>
<path d="M120.297 137.289H116.199V137.852H120.297V137.289Z" fill="white"/>
<path d="M131.226 137.289H121.195V137.852H131.226V137.289Z" fill="white"/>
<path d="M89.1484 133.199H88.3984V157.649H89.1484V133.199Z" fill="#61656D"/>
<path d="M104.449 133.199H103.699V157.649H104.449V133.199Z" fill="#61656D"/>
<path d="M96.9492 133.199H96.1992V157.649H96.9492V133.199Z" fill="#61656D"/>
<path opacity="0.2" d="M89.1516 133.199H88.8516V157.649H89.1516V133.199Z" fill="#101828"/>
<path opacity="0.2" d="M96.9484 133.199H96.6484V157.649H96.9484V133.199Z" fill="#101828"/>
<path opacity="0.2" d="M104.448 133.199H104.148V157.649H104.448V133.199Z" fill="#101828"/>
<path d="M104.448 152.102H88.3984V152.852H104.448V152.102Z" fill="#61656D"/>
<path d="M105.499 130.352H87.6492C86.9865 130.352 86.4492 130.889 86.4492 131.552V133.202C86.4492 133.864 86.9865 134.402 87.6492 134.402H105.499C106.162 134.402 106.699 133.864 106.699 133.202V131.552C106.699 130.889 106.162 130.352 105.499 130.352Z" fill="#868A91"/>
<path opacity="0.15" d="M102.199 130.352H105.499C105.818 130.352 106.123 130.478 106.348 130.703C106.573 130.928 106.699 131.233 106.699 131.552V133.202C106.699 133.52 106.573 133.825 106.348 134.05C106.123 134.275 105.818 134.402 105.499 134.402H102.199V130.352Z" fill="#101828"/>
<path opacity="0.2" d="M89.1484 134.398H88.3984V134.772H89.1484V134.398Z" fill="#101828"/>
<path opacity="0.2" d="M96.9492 134.398H96.1992V134.772H96.9492V134.398Z" fill="#101828"/>
<path opacity="0.2" d="M104.449 134.398H103.699V134.772H104.449V134.398Z" fill="#101828"/>
<path d="M99.1744 102.213C98.9529 102.33 98.6958 102.361 98.4529 102.299C97.4599 102.138 96.4714 102.134 95.6569 101.412C95.481 101.26 95.3574 101.056 95.3035 100.83C95.2497 100.603 95.2684 100.366 95.3569 100.151C95.5594 99.6843 95.9224 99.2268 95.6884 98.2608C95.4274 97.1808 96.3394 96.5283 96.1879 95.5008C96.0364 94.4733 96.8119 93.5508 97.2904 92.8008C98.2639 93.3033 98.4154 93.5313 98.4154 93.5313C98.4154 93.5313 99.8599 93.0903 99.8899 93.0813C99.8959 93.0618 101.153 100.922 99.1744 102.213Z" fill="#101828"/>
<path d="M101.932 100.592L102.739 91.4985C103.225 91.422 104.001 92.061 104.229 92.319C104.887 93.069 105.664 94.0035 105.696 95.1345C105.735 96.537 106.596 96.954 106.257 98.1015C105.865 99.4065 106.267 99.4515 106.476 100.501C106.507 100.656 106.507 100.815 106.476 100.969C106.281 101.907 105.336 102.391 104.331 102.586C103.236 102.799 101.959 102.906 101.481 102.358C101.265 102.066 101.932 100.592 101.932 100.592Z" fill="#101828"/>
<path d="M63.1884 157.25H57.6384C57.5469 157.083 57.2889 156.582 57.6084 156.476L61.3884 154.851C62.0559 154.623 62.5119 154.472 62.9064 153.971C62.9862 153.863 63.0522 153.746 63.1029 153.621L66.0489 146.941L69.3999 148.687L66.5949 154.032C66.3219 154.427 66.2604 154.943 66.2454 155.414L66.2304 156.173C66.2203 156.447 66.1065 156.71 65.9116 156.903C65.7169 157.098 65.4556 157.212 65.1804 157.223H65.1654L63.1914 157.253L63.1884 157.25Z" fill="#FFC3BD"/>
<path opacity="0.15" d="M57.5234 157.005C57.5699 157.112 57.6149 157.203 57.6449 157.263H63.1949L65.1839 157.233H65.1989C65.4751 157.226 65.7377 157.113 65.933 156.917C66.1283 156.722 66.2414 156.459 66.2489 156.183L66.2654 155.424C66.2804 154.953 66.3554 154.422 66.6134 154.043L67.7219 152.13L67.6619 151.598L66.2339 152.919L64.9139 155.393C64.9139 155.393 63.8969 156.774 60.8639 156.893L57.8279 156.999L57.5234 157.005Z" fill="#101828"/>
<path d="M65.082 149.435L68.4495 151.049L71.928 144.059C74.049 140.27 77.5905 134.667 77.9445 130.311H95.112C96.2984 130.31 97.437 129.844 98.283 129.012C99.129 128.18 99.6149 127.05 99.636 125.863L99.6825 123.039H76.668C75.9533 123.04 75.2549 123.253 74.6607 123.65C74.0666 124.047 73.6032 124.611 73.329 125.271L65.082 149.435Z" fill="#3F4249"/>
<path opacity="0.2" d="M70.5505 144.608C74.467 137.869 76.351 130.798 77.053 125.42C77.1745 125.041 77.767 123.02 80.029 123.02H88.8505C91.1875 122.96 92.494 126.557 94.4365 125.27L99.2035 123.02H99.6745L99.622 125.849C99.6031 127.036 99.118 128.168 98.2716 129C97.425 129.832 96.2851 130.298 95.098 130.297H78.073C77.182 136.325 73.873 140.468 70.423 147.097L68.5855 151.155L67.75 150.806C67.7575 150.836 69.8395 145.823 70.5505 144.608Z" fill="#101828"/>
<path d="M91.822 116.003L93.652 109.199L91.402 106.949L88 116.417L91.822 116.003Z" fill="#FFC3BD"/>
<path opacity="0.15" d="M92.752 109.801L92.125 111.671L92.992 111.673L93.4435 109.973L92.752 109.801Z" fill="#101828"/>
<path d="M75.8319 157.25H70.2819C70.1919 157.083 69.9339 156.582 70.2519 156.476L74.0319 154.851C74.7009 154.623 75.1554 154.472 75.5499 153.971C75.6301 153.863 75.6967 153.746 75.7479 153.621L76.7589 146.941L80.3874 148.687L79.7874 151.491C79.5654 152.529 79.2744 153.551 78.9999 154.577C78.9325 154.851 78.8968 155.132 78.8934 155.414L78.8784 156.173C78.868 156.447 78.754 156.708 78.5593 156.903C78.3646 157.098 78.1035 157.212 77.8284 157.223H77.8134L75.8409 157.253L75.8319 157.25Z" fill="#FFC3BD"/>
<path opacity="0.15" d="M70.1719 157.005C70.2169 157.112 70.2619 157.203 70.2934 157.263H75.8434L77.8309 157.233H77.8474C78.1235 157.226 78.3862 157.113 78.5815 156.917C78.7768 156.722 78.8899 156.459 78.8974 156.183L78.9124 155.424C78.9175 155.099 78.968 154.776 79.0624 154.464C79.2394 153.948 79.3895 153.423 79.5124 152.892L79.6789 152.13L79.6189 151.598L78.2089 151.985L77.5639 155.399C77.5639 155.399 76.5469 156.78 73.5139 156.899L70.4779 157.005H70.1719Z" fill="#101828"/>
<path d="M94.082 103.84L100.193 108.465L107.093 104.004L103.766 102.87C103.735 102.856 103.705 102.858 103.673 102.844C103.483 102.768 103.323 102.633 103.217 102.458C103.111 102.283 103.065 102.079 103.085 101.875L103.268 98.1254L99.05 97.6484L98.846 100.287L98.744 100.887L98.627 102.268C98.6 102.748 97.9205 102.898 97.9205 102.898L97.3475 103.048L94.082 103.84Z" fill="#FFC3BD"/>
<path d="M79.5777 152.849L75.9297 152.204L79.0662 125.291C79.3405 124.63 79.8042 124.066 80.3986 123.669C80.9931 123.272 81.6918 123.059 82.4067 123.059H105.42L105.375 125.883C105.352 127.068 104.865 128.197 104.019 129.027C103.172 129.857 102.034 130.323 100.849 130.323H84.7992C84.7992 130.323 84.2457 136.173 81.9177 143.732C81.6256 144.681 81.3661 145.64 81.1392 146.609L79.5777 152.849Z" fill="#3F4249"/>
<path opacity="0.2" d="M80.5184 142.994C82.0709 136.709 82.3184 135.096 82.6184 129.081C83.1044 127.533 84.2129 127.199 85.0019 127.199L93.2264 127.245C95.5634 127.184 99.6164 127.427 101.545 126.122L104.916 123.039H105.385L105.34 125.864C105.322 127.051 104.836 128.182 103.99 129.014C103.143 129.847 102.004 130.312 100.816 130.311H84.8999C84.3629 135.911 82.2914 142.815 80.4959 149.169L79.5479 152.829L78.1484 152.621C78.1619 152.634 78.9149 148.805 79.6634 146.208C79.9709 145.143 80.2514 144.069 80.5184 142.994Z" fill="#101828"/>
<path d="M94.0229 113.606C94.0229 113.606 93.8609 118.106 93.8009 118.502C93.5009 120.452 92.7509 121.502 92.3309 122.411L92.0009 123.002H94.0919C95.0945 123.014 96.0934 123.125 97.0739 123.335C102.201 124.352 105.051 126.752 105.051 126.752C106.101 127.202 105.651 125.552 105.651 125.552C105.201 123.602 105.558 119.361 105.838 116.88L106.138 111.297L110.038 111.621L110.367 108.752C110.859 106.76 109.869 104.675 107.862 104.154L104.335 103.023L103.48 103.742C101.191 105.692 98.0369 105.773 96.5159 103.185L96.5009 103.16C96.4559 103.08 94.6454 103.554 93.4514 103.853C93.0689 103.949 92.4674 104.205 92.2619 104.534C92.1968 104.644 92.1464 104.763 92.1119 104.886L90.5234 109.172L93.6209 110.102L94.2284 108.03L94.5794 107.294L93.4619 109.488C93.3632 109.661 93.2962 109.849 93.2639 110.045C92.9834 111.174 93.1949 112.647 93.9524 113.531L94.0229 113.606Z" fill="#155EEF"/>
<path d="M99.7724 122.37L99.7109 122.31C99.7838 122.235 99.8245 122.134 99.8245 122.029C99.8245 121.924 99.7838 121.823 99.7109 121.748L99.7724 121.688C99.8477 121.76 99.9482 121.801 100.053 121.801C100.158 121.801 100.258 121.76 100.333 121.688L100.395 121.748C100.321 121.823 100.28 121.924 100.28 122.029C100.28 122.134 100.321 122.235 100.395 122.31L100.333 122.37C100.298 122.331 100.255 122.299 100.206 122.278C100.158 122.256 100.106 122.245 100.053 122.245C100 122.245 99.9478 122.256 99.8995 122.278C99.8512 122.299 99.8078 122.331 99.7724 122.37Z" fill="#155EEF"/>
<path opacity="0.2" d="M94.5785 107.287C94.4897 107.273 94.3988 107.286 94.3183 107.326C94.2377 107.366 94.1714 107.43 94.1285 107.509L92.75 109.801L93.3365 109.973L93.437 109.687C93.7235 108.845 94.1066 108.04 94.5785 107.287Z" fill="#101828"/>
<path opacity="0.2" d="M106.174 108.936C106.143 108.932 106.113 108.933 106.083 108.941C106.053 108.948 106.026 108.962 106.001 108.98C105.977 108.998 105.956 109.022 105.941 109.048C105.926 109.075 105.916 109.104 105.913 109.134L105.094 113.319C104.992 113.919 104.644 114.114 104.132 114.464C103.252 115.05 101.917 114.731 101.917 114.731C101.873 114.716 101.827 114.713 101.782 114.722C101.737 114.731 101.696 114.752 101.662 114.783C101.628 114.813 101.603 114.853 101.59 114.896C101.576 114.94 101.574 114.986 101.585 115.031L102.395 117.335C103.822 120.657 103.846 124.017 102.373 125.076L104.602 126.45C105.857 127.329 105.746 126.315 105.677 125.963C105.649 125.813 105.625 125.663 105.607 125.522C105.359 123.431 105.58 119.255 105.845 116.906L106.373 109.214C106.381 109.182 106.382 109.149 106.376 109.117C106.37 109.085 106.357 109.055 106.338 109.029C106.319 109.002 106.294 108.98 106.266 108.964C106.237 108.948 106.206 108.939 106.174 108.936Z" fill="#101828"/>
<path d="M93.4272 122.37L93.3672 122.31C93.4401 122.235 93.4807 122.134 93.4807 122.029C93.4807 121.924 93.4401 121.823 93.3672 121.748L93.4272 121.688C93.5026 121.76 93.6036 121.801 93.7084 121.801C93.8134 121.801 93.9142 121.76 93.9897 121.688L94.0497 121.748C93.9768 121.823 93.9361 121.924 93.9361 122.029C93.9361 122.134 93.9768 122.235 94.0497 122.31L93.9897 122.37C93.9541 122.331 93.9106 122.299 93.8623 122.278C93.8139 122.256 93.7614 122.245 93.7084 122.245C93.6555 122.245 93.603 122.256 93.5545 122.278C93.5062 122.299 93.4627 122.331 93.4272 122.37Z" fill="#155EEF"/>
<path opacity="0.2" d="M93.1992 112.332L93.8982 113.279C94.3317 113.922 95.0517 114.014 95.8227 113.954L94.0422 114.438V113.603C94.0422 113.603 93.3492 112.581 93.1992 112.332Z" fill="#101828"/>
<path d="M106.16 111.164L105.769 116.473L100.144 113.837L97.5473 112.187C97.429 112.112 97.2893 112.079 97.1498 112.091L95.6123 112.217C95.5085 112.226 95.4089 112.262 95.3228 112.321L94.1978 112.988C94.1512 113.021 94.1186 113.071 94.1066 113.127C94.0946 113.183 94.1041 113.241 94.133 113.291C94.162 113.34 94.2083 113.377 94.2631 113.394C94.3178 113.411 94.3769 113.407 94.4288 113.383L95.5988 112.88L96.5588 112.793C96.5858 112.79 96.613 112.796 96.6356 112.812C96.6581 112.827 96.6745 112.849 96.6818 112.876C96.6892 112.902 96.6871 112.93 96.6758 112.955C96.6646 112.98 96.6449 113 96.6203 113.012L95.5178 113.524C95.4677 113.546 95.4262 113.584 95.3992 113.632C95.3723 113.68 95.3612 113.736 95.3678 113.791C95.3758 113.847 95.402 113.9 95.4428 113.941L95.5103 114.007C95.5397 114.035 95.5757 114.057 95.6152 114.069C95.6546 114.08 95.6965 114.082 95.7368 114.074L96.0668 114.008L95.9303 114.067C95.8925 114.082 95.8601 114.109 95.8366 114.142C95.8132 114.176 95.7995 114.215 95.7976 114.256C95.7955 114.297 95.8051 114.338 95.825 114.373C95.8451 114.409 95.8748 114.438 95.9108 114.458L95.9978 114.506C96.0361 114.528 96.08 114.537 96.1238 114.533L96.6893 114.481L96.1853 114.593C96.1667 114.597 96.1492 114.605 96.1337 114.616C96.1183 114.627 96.1052 114.641 96.0956 114.657C96.0859 114.674 96.0796 114.692 96.0773 114.711C96.0749 114.73 96.0764 114.749 96.0818 114.767C96.0893 114.796 96.1069 114.822 96.1313 114.841L96.2528 114.934C96.3521 115.008 96.4708 115.053 96.5948 115.063L97.1948 115.108C97.8248 115.342 98.483 115.494 99.1523 115.558L105.602 120.508C106.078 120.881 106.638 121.132 107.233 121.238C107.503 121.306 107.787 121.293 108.049 121.199C108.377 121.026 108.656 120.773 108.862 120.464C109.143 120.044 109.307 119.557 109.337 119.053L109.883 111.619L106.16 111.164Z" fill="#FFC3BD"/>
<path opacity="0.5" d="M93.3279 109.962L93.4509 109.566L90.6684 108.742L90.5469 109.138L93.3279 109.962Z" fill="#101828"/>
<path opacity="0.15" d="M105.758 116.501L106.443 116.757C106.459 116.756 106.474 116.749 106.486 116.739C106.497 116.728 106.505 116.714 106.508 116.699C106.511 116.683 106.509 116.667 106.502 116.653C106.494 116.639 106.483 116.627 106.469 116.621L105.801 116.102L105.758 116.501Z" fill="#101828"/>
<path opacity="0.5" d="M106.18 110.73L106.133 111.142L110.041 111.595L110.089 111.183L106.18 110.73Z" fill="#101828"/>
<path opacity="0.5" d="M104.332 103.023L103.477 103.742C101.188 105.692 98.0331 105.773 96.5121 103.185L96.4971 103.16C96.4836 103.134 96.2991 103.16 96.0156 103.224C97.3971 105.579 99.6156 105.543 99.9471 105.525H99.9876H100.034C102.734 105.366 104.432 103.481 104.708 103.149L104.332 103.023Z" fill="#101828"/>
<path d="M71.8723 157.184C71.5555 156.834 71.3407 156.405 71.2513 155.943C71.2477 155.922 71.2518 155.9 71.2627 155.882C71.2738 155.864 71.2909 155.849 71.3113 155.843L73.7578 154.965C73.7874 154.955 73.8186 154.952 73.8496 154.953C73.8807 154.956 73.9111 154.964 73.9389 154.977C73.9668 154.992 73.9917 155.012 74.0121 155.034C74.0325 155.058 74.0479 155.085 74.0578 155.115C74.1898 155.555 74.5183 156.495 75.1633 157.164L78.8818 157.152C78.9424 157.157 78.999 157.184 79.0402 157.229C79.0815 157.274 79.1043 157.332 79.1043 157.392C79.1043 157.454 79.0815 157.512 79.0402 157.557C78.999 157.601 78.9424 157.629 78.8818 157.634L69.6868 157.646C69.6232 157.646 69.5622 157.62 69.517 157.575C69.4719 157.53 69.4461 157.469 69.4453 157.406V157.181L71.8723 157.184Z" fill="#155EEF"/>
<path d="M59.1677 157.184C58.8512 156.834 58.6368 156.405 58.5482 155.943C58.5441 155.922 58.5479 155.9 58.5585 155.882C58.5693 155.864 58.5864 155.849 58.6067 155.843L61.0532 154.965C61.0827 154.955 61.1139 154.952 61.145 154.953C61.176 154.956 61.2065 154.964 61.2342 154.977C61.2621 154.992 61.287 155.012 61.3074 155.034C61.3278 155.058 61.3433 155.085 61.3532 155.115C61.4852 155.555 61.8137 156.495 62.4602 157.164L66.1772 157.152C66.2378 157.157 66.2943 157.184 66.3356 157.229C66.3768 157.274 66.3996 157.332 66.3996 157.392C66.3996 157.454 66.3768 157.512 66.3356 157.557C66.2943 157.601 66.2378 157.629 66.1772 157.634L56.9822 157.646C56.9187 157.644 56.8581 157.619 56.8133 157.574C56.7684 157.53 56.7429 157.469 56.7422 157.406V157.181L59.1677 157.184Z" fill="#155EEF"/>
<path opacity="0.15" d="M88.3992 115.498L91.2492 114.148L91.4277 115.15L88.1367 115.978L88.3992 115.498Z" fill="#101828"/>
<path d="M91.6428 113.101C91.6428 113.101 91.4268 112.701 91.2828 113.047L91.1328 114.682L91.7433 113.668L91.6428 113.101Z" fill="#FFC3BD"/>
<path opacity="0.15" d="M91.6428 113.101C91.6428 113.101 91.4268 112.701 91.2828 113.047L91.1328 114.682L91.7433 113.668L91.6428 113.101Z" fill="#101828"/>
<path d="M92.4737 116.811L91.1342 114.68L88.8167 115.511C88.5422 115.587 88.2437 115.677 88.0217 116.288C87.7457 117.048 87.8627 118.959 90.0527 118.8C90.2734 118.762 90.4802 118.667 90.6527 118.524C90.7132 118.493 90.7687 118.453 90.8177 118.406L92.4737 116.811Z" fill="#FFC3BD"/>
<path opacity="0.15" d="M91.7007 116.487C91.2767 115.996 91.0542 115.363 91.0782 114.715L91.2717 114.652L92.7297 116.617L92.4702 116.809L90.8112 118.404C90.5988 118.563 90.3587 118.681 90.1032 118.753C88.5777 118.938 88.0302 118.162 87.9492 117.298C88.6617 119.248 90.9792 117.448 91.6722 116.893C91.7022 116.87 91.727 116.84 91.7448 116.806C91.7628 116.772 91.7733 116.735 91.776 116.696C91.7787 116.658 91.7735 116.62 91.7604 116.584C91.7475 116.548 91.7271 116.515 91.7007 116.487Z" fill="#101828"/>
<path d="M90.5638 111.075L92.9473 111.429C92.9869 111.435 93.0246 111.45 93.0565 111.475C93.0885 111.499 93.1138 111.531 93.1303 111.567L95.1268 116.067C95.1339 116.082 95.1367 116.099 95.1351 116.116C95.1334 116.132 95.1274 116.148 95.1177 116.162C95.1079 116.175 95.0947 116.186 95.0796 116.193C95.0643 116.2 95.0475 116.202 95.0308 116.201L92.7568 115.799L90.4633 111.203C90.4575 111.187 90.4557 111.171 90.4581 111.155C90.4606 111.138 90.4672 111.123 90.4774 111.11C90.4875 111.097 90.5008 111.087 90.516 111.081C90.5311 111.075 90.5476 111.073 90.5638 111.075Z" fill="#3F4249"/>
<path opacity="0.25" d="M90.5638 111.075L93.0253 111.44C93.0411 111.443 93.0558 111.449 93.0685 111.459C93.0813 111.468 93.0916 111.481 93.0988 111.495L95.1268 116.063C95.1339 116.078 95.1367 116.094 95.1351 116.111C95.1334 116.128 95.1274 116.144 95.1177 116.157C95.1079 116.171 95.0947 116.182 95.0796 116.188C95.0643 116.195 95.0475 116.198 95.0308 116.196L92.7568 115.799L90.4633 111.203C90.4575 111.187 90.4557 111.171 90.4581 111.155C90.4606 111.138 90.4672 111.123 90.4774 111.11C90.4875 111.097 90.5008 111.087 90.516 111.081C90.5311 111.075 90.5476 111.073 90.5638 111.075Z" fill="#101828"/>
<path d="M90.4766 111.215L92.8541 111.567C92.8839 111.572 92.9121 111.584 92.9361 111.603C92.9603 111.621 92.9795 111.645 92.9921 111.672L95.0021 116.186L92.7251 115.848L90.4766 111.215Z" fill="#3F4249"/>
<path opacity="0.4" d="M91.0392 111.716C91.0422 111.765 91.0587 111.811 91.0867 111.851C91.1148 111.89 91.1535 111.921 91.1982 111.94C91.2162 111.948 91.2361 111.952 91.2559 111.949C91.2757 111.947 91.2945 111.939 91.3101 111.927C91.3257 111.915 91.3375 111.898 91.3443 111.88C91.351 111.861 91.3524 111.841 91.3482 111.821C91.3458 111.773 91.3294 111.726 91.3012 111.686C91.2732 111.647 91.2342 111.616 91.1892 111.598C91.0977 111.569 91.0362 111.622 91.0392 111.716Z" fill="#101828"/>
<path d="M91.0098 111.722C91.0131 111.771 91.0299 111.817 91.0582 111.857C91.0866 111.896 91.1254 111.927 91.1703 111.946C91.2543 111.974 91.3203 111.922 91.3203 111.827C91.3174 111.779 91.3011 111.732 91.2729 111.693C91.2448 111.653 91.2061 111.622 91.1613 111.604C91.1433 111.595 91.1232 111.592 91.1035 111.595C91.0837 111.597 91.065 111.604 91.0492 111.617C91.0336 111.629 91.0216 111.645 91.0147 111.664C91.0077 111.683 91.006 111.703 91.0098 111.722Z" fill="#3F4249"/>
<path opacity="0.5" d="M91.0635 111.74C91.0654 111.772 91.0765 111.804 91.0953 111.83C91.114 111.857 91.14 111.877 91.17 111.89C91.1818 111.895 91.1949 111.897 91.2076 111.895C91.2204 111.893 91.2324 111.888 91.2424 111.88C91.2526 111.872 91.2604 111.862 91.2651 111.85C91.2697 111.838 91.2711 111.825 91.269 111.812C91.2675 111.779 91.2567 111.748 91.2378 111.721C91.2189 111.695 91.1928 111.674 91.1625 111.662C91.1506 111.657 91.1376 111.655 91.1248 111.657C91.1121 111.659 91.1001 111.664 91.09 111.672C91.0798 111.68 91.072 111.69 91.0674 111.702C91.0627 111.714 91.0614 111.727 91.0635 111.74Z" fill="#101828"/>
<path opacity="0.4" d="M91.1234 111.819C91.1358 111.84 91.1553 111.856 91.1783 111.864C91.2012 111.872 91.2264 111.872 91.2494 111.864L91.2374 111.876C91.2059 111.912 91.1414 111.898 91.0994 111.846C91.0796 111.824 91.067 111.797 91.0635 111.768C91.0599 111.739 91.0658 111.71 91.0799 111.684L91.0919 111.672C91.0818 111.697 91.0793 111.724 91.085 111.75C91.0905 111.776 91.104 111.8 91.1234 111.819Z" fill="#101828"/>
<path opacity="0.4" d="M91.0392 111.716C91.0422 111.765 91.0587 111.811 91.0867 111.851C91.1148 111.89 91.1535 111.921 91.1982 111.94C91.2162 111.948 91.2361 111.952 91.2559 111.949C91.2757 111.947 91.2945 111.939 91.3101 111.927C91.3257 111.915 91.3375 111.898 91.3443 111.88C91.351 111.861 91.3524 111.841 91.3482 111.821C91.3458 111.773 91.3294 111.726 91.3012 111.686C91.2732 111.647 91.2342 111.616 91.1892 111.598C91.0977 111.569 91.0362 111.622 91.0392 111.716Z" fill="#101828"/>
<path d="M91.0098 111.722C91.0131 111.771 91.0299 111.817 91.0582 111.857C91.0866 111.896 91.1254 111.927 91.1703 111.946C91.2543 111.974 91.3203 111.922 91.3203 111.827C91.3174 111.779 91.3011 111.732 91.2729 111.693C91.2448 111.653 91.2061 111.622 91.1613 111.604C91.1433 111.595 91.1232 111.592 91.1035 111.595C91.0837 111.597 91.065 111.604 91.0492 111.617C91.0336 111.629 91.0216 111.645 91.0147 111.664C91.0077 111.683 91.006 111.703 91.0098 111.722Z" fill="#61656D"/>
<path opacity="0.5" d="M91.0635 111.74C91.0654 111.772 91.0765 111.804 91.0953 111.83C91.114 111.857 91.14 111.877 91.17 111.89C91.1818 111.895 91.1949 111.897 91.2076 111.895C91.2204 111.893 91.2324 111.888 91.2424 111.88C91.2526 111.872 91.2604 111.862 91.2651 111.85C91.2697 111.838 91.2711 111.825 91.269 111.812C91.2675 111.779 91.2567 111.748 91.2378 111.721C91.2189 111.695 91.1928 111.674 91.1625 111.662C91.1506 111.657 91.1376 111.655 91.1248 111.657C91.1121 111.659 91.1001 111.664 91.09 111.672C91.0798 111.68 91.072 111.69 91.0674 111.702C91.0627 111.714 91.0614 111.727 91.0635 111.74Z" fill="#101828"/>
<path opacity="0.4" d="M91.1234 111.819C91.1358 111.84 91.1553 111.856 91.1783 111.864C91.2012 111.872 91.2264 111.872 91.2494 111.864L91.2374 111.876C91.2059 111.912 91.1414 111.898 91.0994 111.846C91.0796 111.824 91.067 111.797 91.0635 111.768C91.0599 111.739 91.0658 111.71 91.0799 111.684L91.0919 111.672C91.0818 111.697 91.0793 111.724 91.085 111.75C91.0905 111.776 91.104 111.8 91.1234 111.819Z" fill="#101828"/>
<path d="M92.0508 114.589C92.0318 114.572 92.0193 114.55 92.0157 114.525C92.0121 114.5 92.0177 114.475 92.0313 114.454L92.2698 113.836L92.9793 112.861C93.009 112.808 93.018 112.746 93.0047 112.687C92.9915 112.628 92.9567 112.576 92.9073 112.541C92.865 112.512 92.8137 112.499 92.7627 112.505C92.7117 112.511 92.6645 112.535 92.6298 112.573L91.6668 113.563L91.1328 114.68C91.3323 115.814 92.4723 116.812 92.4723 116.812L92.7948 116.86C92.9955 116.89 93.2007 116.858 93.3828 116.768L94.1508 116.389C94.3136 116.312 94.452 116.191 94.5513 116.041L95.0358 115.301C95.0603 115.266 95.0733 115.224 95.0733 115.181C95.0733 115.137 95.0603 115.095 95.0358 115.06C95.018 115.036 94.9952 115.016 94.9691 115.001C94.943 114.987 94.9142 114.978 94.8843 114.976C94.8546 114.973 94.8246 114.977 94.7964 114.987C94.7682 114.996 94.7426 115.012 94.7208 115.033L94.1433 115.585L93.4908 115.996C93.4736 116.007 93.4535 116.013 93.4331 116.013C93.4127 116.013 93.3926 116.007 93.3753 115.996H93.3663C93.3539 115.987 93.3435 115.976 93.336 115.963C93.3284 115.95 93.3237 115.935 93.3222 115.92C93.3209 115.905 93.3227 115.89 93.3276 115.876C93.3327 115.862 93.3408 115.849 93.3513 115.838L94.1328 115.042L94.6623 114.104C94.6884 114.059 94.6965 114.005 94.6851 113.954C94.6737 113.902 94.6437 113.857 94.6008 113.827L94.5798 113.813C94.5372 113.783 94.4849 113.769 94.4328 113.776C94.3809 113.782 94.3332 113.808 94.2993 113.848L93.6468 114.598L92.8968 115.084C92.8797 115.095 92.8596 115.101 92.8391 115.101C92.8185 115.101 92.7984 115.095 92.7813 115.084L92.7603 115.069C92.7486 115.061 92.7386 115.05 92.7311 115.038C92.7234 115.026 92.7185 115.013 92.7164 114.999C92.7143 114.985 92.715 114.97 92.7188 114.957C92.7225 114.943 92.729 114.93 92.7378 114.919L93.2418 114.26L93.9633 113.525C93.9833 113.506 93.9992 113.482 94.01 113.457C94.0208 113.431 94.0263 113.403 94.0263 113.375C94.0263 113.347 94.0208 113.32 94.01 113.294C93.9992 113.268 93.9833 113.245 93.9633 113.225C93.9144 113.176 93.8498 113.145 93.7806 113.138C93.7113 113.131 93.6417 113.148 93.5838 113.186L92.7543 113.816L92.2248 114.566C92.2166 114.578 92.2061 114.588 92.1938 114.595C92.1816 114.602 92.1681 114.607 92.154 114.609C92.1399 114.61 92.1257 114.609 92.112 114.605C92.0984 114.602 92.0858 114.595 92.0748 114.586L92.0508 114.589Z" fill="#FFC3BD"/>
<path opacity="0.15" d="M98.7646 100.381C99.2488 100.671 99.8178 100.788 100.377 100.711C100.95 100.661 101.249 100.429 101.561 100.316C101.442 100.69 100.616 100.889 99.9586 100.948C99.5772 101.163 99.1398 101.259 98.7031 101.224L98.7646 100.381Z" fill="#101828"/>
<path d="M103.314 97.6719C103.314 97.6719 103.326 99.6414 102.661 100.408C102.192 100.951 102.543 101.882 101.656 102.584C101.656 102.584 103.473 102.898 104.835 102.493C106.09 102.124 103.314 97.6719 103.314 97.6719Z" fill="#101828"/>
<path d="M99.8673 100.715L100.067 100.724C101.546 100.788 102.806 99.437 102.821 97.841L102.879 93.8015C102.879 93.266 102.485 92.8175 102.003 92.7995L98.5023 92.6344C97.8603 92.5999 97.3398 93.1399 97.3263 93.8344L97.2738 97.598C97.2513 99.176 98.3253 100.694 99.8673 100.715Z" fill="#FFC3BD"/>
<path d="M96.7134 94.3865H96.5469C97.8234 90.1445 102.397 90.1745 104.239 92.333C104.895 93.092 105.361 93.9957 105.599 94.97C105.235 95.762 104.452 97.1824 104.132 97.7299C103.996 97.9729 103.706 96.8299 103.51 96.6799C103.478 96.6649 103.235 96.908 103.069 97.076C103.046 97.0995 103.018 97.1163 102.986 97.1245C102.955 97.1328 102.922 97.1322 102.891 97.1226C102.859 97.1131 102.832 97.0952 102.81 97.0709C102.789 97.0464 102.774 97.0166 102.769 96.9845C102.698 96.4524 102.718 95.9121 102.829 95.387L102.935 94.9159C101.917 94.5814 98.8464 93.3814 98.1624 93.1534C97.9944 93.0919 97.8819 93.3665 97.7979 93.518C97.4496 94.1561 97.2529 94.866 97.2234 95.5924L96.8694 94.7345L96.7134 94.3865Z" fill="#101828"/>
<path opacity="0.2" d="M103.385 98.5323L102.914 98.4258L103.144 99.3258L103.385 98.5323Z" fill="#101828"/>
<path d="M97.809 93.5035C100.378 92.8945 99.9525 96.742 102.609 96.2245C105.102 95.7385 102.852 92.728 102.852 92.728L100.647 92.332L97.6875 92.6995L97.809 93.5035Z" fill="#101828"/>
<path d="M102.737 98.6835C102.737 98.6835 104.132 98.7885 104.415 97.41C104.699 96.0315 102.999 95.7854 102.748 97.1714L102.562 98.6819L102.737 98.6835Z" fill="#FFC3BD"/>
<path opacity="0.15" d="M103.987 96.6723C103.929 96.6247 103.861 96.5904 103.788 96.5715C103.715 96.5526 103.639 96.5496 103.565 96.5628C103.492 96.5814 103.424 96.6159 103.366 96.6639C103.308 96.7117 103.261 96.772 103.229 96.8403C103.136 97.0066 103.085 97.1928 103.079 97.3833L103.07 97.5333C103.07 97.6443 103.249 97.6758 103.261 97.5468V97.3878C103.27 97.2343 103.311 97.0845 103.382 96.9483C103.404 96.9043 103.435 96.8652 103.473 96.8335C103.511 96.8017 103.554 96.778 103.601 96.7638C103.704 96.7557 103.806 96.7851 103.889 96.8463C103.927 96.8673 103.99 96.8673 104.011 96.8298C104.027 96.8052 104.034 96.7755 104.029 96.7464C104.025 96.7173 104.01 96.6909 103.987 96.6723Z" fill="#101828"/>
<path opacity="0.15" d="M105.65 119.702L99.3893 115.331C99.3893 115.331 97.7978 115 97.2893 114.904C97.2893 114.904 96.1103 115.039 96.1748 114.695L96.0938 114.764C96.1012 114.794 96.1188 114.82 96.1433 114.838L96.2648 114.931C96.3641 115.006 96.4827 115.051 96.6068 115.06L97.2068 115.105C97.8368 115.34 98.495 115.491 99.1643 115.555L105.301 120.253C105.301 120.253 107.564 122.105 108.635 120.748C109.043 120.323 109.289 119.769 109.333 119.182C109.333 119.182 108.35 121.352 105.65 119.702Z" fill="#101828"/>
<path d="M102.602 96.3361C102.59 96.336 102.579 96.3331 102.568 96.3276C102.557 96.3222 102.548 96.3144 102.541 96.3046C102.535 96.2965 102.531 96.2874 102.529 96.2776C102.527 96.2679 102.527 96.2578 102.529 96.2481C102.531 96.2383 102.534 96.229 102.54 96.2208C102.545 96.2124 102.552 96.2053 102.56 96.1996L103.61 95.4736C103.627 95.4627 103.647 95.4586 103.666 95.4622C103.686 95.4658 103.703 95.4769 103.714 95.4931C103.725 95.5096 103.729 95.5297 103.726 95.5494C103.723 95.5689 103.712 95.5864 103.696 95.5981L102.646 96.3226C102.633 96.3315 102.618 96.3361 102.602 96.3361Z" fill="white"/>
<path d="M74.7457 82.7456C77.8901 79.6011 77.8901 74.5029 74.7457 71.3583C71.6011 68.2139 66.5029 68.2139 63.3585 71.3583C60.2138 74.5029 60.2138 79.6011 63.3585 82.7456C66.5029 85.8902 71.6011 85.8902 74.7457 82.7456Z" fill="#155EEF"/>
<path opacity="0.4" d="M74.7457 82.7456C77.8901 79.6011 77.8901 74.5029 74.7457 71.3583C71.6011 68.2139 66.5029 68.2139 63.3585 71.3583C60.2138 74.5029 60.2138 79.6011 63.3585 82.7456C66.5029 85.8902 71.6011 85.8902 74.7457 82.7456Z" fill="white"/>
<g opacity="0.2">
<path opacity="0.2" d="M62.095 77.9002C62.0955 76.3393 62.5845 74.8175 63.4936 73.5485C64.4028 72.2795 65.6862 71.3269 67.1641 70.8244C68.6421 70.3217 70.2402 70.2944 71.7345 70.7462C73.2288 71.1979 74.5441 72.1061 75.496 73.3432C74.9857 72.4558 74.2986 71.6823 73.477 71.0714C72.6556 70.4603 71.7174 70.0246 70.7206 69.7909C69.7239 69.5573 68.6898 69.5311 67.6824 69.7135C66.675 69.896 65.7157 70.2835 64.8643 70.852C64.0128 71.4203 63.2871 72.1575 62.7322 73.0179C62.1774 73.8783 61.8051 74.8436 61.6386 75.8537C61.4721 76.8638 61.5148 77.8975 61.7641 78.8905C62.0134 79.8835 62.464 80.8145 63.088 81.6261C62.4354 80.493 62.0929 79.2079 62.095 77.9002Z" fill="white"/>
</g>
<path d="M66.6769 75.0982C66.6769 75.6502 66.4114 76.0972 66.0844 76.0972C65.7574 76.0972 65.4844 75.6472 65.4844 75.0982C65.4844 74.5492 65.7499 74.0977 66.0844 74.0977C66.4189 74.0977 66.6769 74.5447 66.6769 75.0982Z" fill="#101828"/>
<path d="M72.6144 75.0982C72.6144 75.6502 72.3489 76.0972 72.0219 76.0972C71.6949 76.0972 71.4219 75.6472 71.4219 75.0982C71.4219 74.5492 71.6874 74.0977 72.0219 74.0977C72.3564 74.0977 72.6144 74.5447 72.6144 75.0982Z" fill="#101828"/>
<path d="M63.6406 77.8125C63.7911 79.1422 64.4257 80.3699 65.4237 81.2613C66.4218 82.1528 67.713 82.6455 69.0511 82.6455C70.3893 82.6455 71.6805 82.1528 72.6786 81.2613C73.6765 80.3699 74.3112 79.1422 74.4616 77.8125H63.6406Z" fill="#101828"/>
<path d="M65.3164 81.1549C66.3046 82.0906 67.6077 82.6219 68.9683 82.6438C70.3291 82.6657 71.6485 82.1768 72.6664 81.2734L72.6154 81.1564C68.9794 79.3849 65.3659 81.1309 65.3164 81.1549Z" fill="white"/>
<path d="M81.1642 103.051H87.6577C87.7862 103.051 87.9094 103.102 88.0003 103.193C88.0912 103.284 88.1422 103.407 88.1422 103.535V106.676C88.1422 106.805 88.0912 106.928 88.0003 107.019C87.9094 107.11 87.7862 107.161 87.6577 107.161H86.9512L86.9377 108.458L86.7097 108.478L85.6402 107.161H81.1642C81.0356 107.161 80.9125 107.11 80.8216 107.019C80.7307 106.928 80.6797 106.805 80.6797 106.676V103.535C80.6797 103.407 80.7307 103.284 80.8216 103.193C80.9125 103.102 81.0356 103.051 81.1642 103.051Z" fill="#155EEF"/>
<path opacity="0.15" d="M81.1642 103.051H87.6577C87.7862 103.051 87.9094 103.102 88.0003 103.193C88.0912 103.284 88.1422 103.407 88.1422 103.535V106.676C88.1422 106.805 88.0912 106.928 88.0003 107.019C87.9094 107.11 87.7862 107.161 87.6577 107.161H86.9512L86.9377 108.458H86.6917L85.6417 107.158H81.1642C81.0356 107.158 80.9125 107.107 80.8216 107.016C80.7307 106.925 80.6797 106.802 80.6797 106.673V103.535C80.6797 103.407 80.7307 103.284 80.8216 103.193C80.9125 103.102 81.0356 103.051 81.1642 103.051Z" fill="#101828"/>
<path d="M80.7946 103.051H87.2881C87.4166 103.051 87.5398 103.102 87.6307 103.193C87.7216 103.284 87.7726 103.407 87.7726 103.535V106.676C87.7726 106.805 87.7216 106.928 87.6307 107.019C87.5398 107.11 87.4166 107.161 87.2881 107.161H86.7031L86.6911 108.458L85.3996 107.161H80.7946C80.6659 107.161 80.5426 107.11 80.4515 107.019C80.3603 106.928 80.309 106.805 80.3086 106.676V103.535C80.309 103.407 80.3603 103.283 80.4515 103.193C80.5426 103.102 80.6659 103.051 80.7946 103.051Z" fill="#155EEF"/>
<path opacity="0.3" d="M85.9727 105.648C86.2725 105.648 86.5157 105.405 86.5157 105.105C86.5157 104.806 86.2725 104.562 85.9727 104.562C85.6728 104.562 85.4297 104.806 85.4297 105.105C85.4297 105.405 85.6728 105.648 85.9727 105.648Z" fill="#101828"/>
<path opacity="0.3" d="M84.043 105.648C84.3428 105.648 84.586 105.405 84.586 105.105C84.586 104.806 84.3428 104.562 84.043 104.562C83.7431 104.562 83.5 104.806 83.5 105.105C83.5 105.405 83.7431 105.648 84.043 105.648Z" fill="#101828"/>
<path opacity="0.3" d="M82.1133 105.648C82.4132 105.648 82.6563 105.405 82.6563 105.105C82.6563 104.806 82.4132 104.562 82.1133 104.562C81.8135 104.562 81.5703 104.806 81.5703 105.105C81.5703 105.405 81.8135 105.648 82.1133 105.648Z" fill="#101828"/>
<path d="M180.953 82.3516H176.972C176.892 82.3516 176.816 82.3832 176.76 82.4395C176.703 82.4957 176.672 82.5721 176.672 82.6516V84.5776C176.672 84.6571 176.703 84.7334 176.76 84.7897C176.816 84.8459 176.892 84.8776 176.972 84.8776H177.405L177.413 85.6726L177.554 85.6846L178.209 84.8776H180.953C181.032 84.8776 181.109 84.8459 181.164 84.7897C181.221 84.7334 181.253 84.6571 181.253 84.5776V82.6516C181.253 82.5721 181.221 82.4957 181.164 82.4395C181.109 82.3832 181.032 82.3516 180.953 82.3516Z" fill="#155EEF"/>
<path opacity="0.15" d="M180.953 82.3516H176.972C176.892 82.3516 176.816 82.3832 176.76 82.4395C176.703 82.4957 176.672 82.5721 176.672 82.6516V84.5776C176.672 84.6571 176.703 84.7334 176.76 84.7897C176.816 84.8459 176.892 84.8776 176.972 84.8776H177.405L177.413 85.6726H177.563L178.209 84.8761H180.953C181.032 84.8761 181.109 84.8444 181.164 84.7882C181.221 84.7319 181.253 84.6556 181.253 84.5761V82.6516C181.253 82.5721 181.221 82.4957 181.164 82.4395C181.109 82.3832 181.032 82.3516 180.953 82.3516Z" fill="#101828"/>
<path d="M181.179 82.3516H177.198C177.119 82.3516 177.042 82.3832 176.987 82.4395C176.93 82.4957 176.898 82.5721 176.898 82.6516V84.5776C176.898 84.6571 176.93 84.7334 176.987 84.7897C177.042 84.8459 177.119 84.8776 177.198 84.8776H177.557V85.6726L178.353 84.8776H181.173C181.253 84.8776 181.329 84.8459 181.385 84.7897C181.442 84.7334 181.473 84.6571 181.473 84.5776V82.6516C181.473 82.573 181.442 82.4977 181.388 82.4416C181.332 82.3855 181.257 82.3531 181.179 82.3516Z" fill="#155EEF"/>
<path opacity="0.3" d="M178.005 83.9433C178.189 83.9433 178.338 83.7942 178.338 83.6103C178.338 83.4264 178.189 83.2773 178.005 83.2773C177.82 83.2773 177.672 83.4264 177.672 83.6103C177.672 83.7942 177.82 83.9433 178.005 83.9433Z" fill="#101828"/>
<path opacity="0.3" d="M179.192 83.9433C179.377 83.9433 179.525 83.7942 179.525 83.6103C179.525 83.4264 179.377 83.2773 179.192 83.2773C179.008 83.2773 178.859 83.4264 178.859 83.6103C178.859 83.7942 179.008 83.9433 179.192 83.9433Z" fill="#101828"/>
<path opacity="0.3" d="M180.372 83.9433C180.557 83.9433 180.705 83.7942 180.705 83.6103C180.705 83.4264 180.557 83.2773 180.372 83.2773C180.188 83.2773 180.039 83.4264 180.039 83.6103C180.039 83.7942 180.188 83.9433 180.372 83.9433Z" fill="#101828"/>
<path d="M149.595 51.2985C152.203 48.6906 152.203 44.4623 149.595 41.8544C146.987 39.2465 142.759 39.2465 140.151 41.8544C137.543 44.4623 137.543 48.6906 140.151 51.2985C142.759 53.9064 146.987 53.9064 149.595 51.2985Z" fill="#155EEF"/>
<g opacity="0.4">
<path opacity="0.4" d="M149.595 51.2985C152.203 48.6906 152.203 44.4623 149.595 41.8544C146.987 39.2465 142.759 39.2465 140.151 41.8544C137.543 44.4623 137.543 48.6906 140.151 51.2985C142.759 53.9064 146.987 53.9064 149.595 51.2985Z" fill="white"/>
</g>
<path opacity="0.2" d="M139.1 47.2839C139.1 45.9888 139.505 44.7261 140.259 43.673C141.013 42.62 142.078 41.8293 143.304 41.4123C144.53 40.9955 145.856 40.9728 147.095 41.348C148.335 41.7231 149.426 42.477 150.215 43.5039C149.792 42.7673 149.222 42.1253 148.541 41.618C147.86 41.1107 147.081 40.7487 146.254 40.5546C145.427 40.3605 144.569 40.3385 143.733 40.4898C142.897 40.641 142.101 40.9625 141.395 41.4342C140.688 41.9058 140.086 42.5177 139.626 43.2315C139.166 43.9455 138.857 44.7465 138.719 45.5847C138.581 46.4231 138.617 47.2806 138.824 48.1046C139.031 48.9284 139.406 49.7009 139.924 50.3739C139.383 49.4342 139.099 48.3684 139.1 47.2839Z" fill="white"/>
<path d="M148.514 45.9008C148.514 45.9008 148.514 45.8903 148.514 45.8843C148.514 44.7968 147.726 43.8008 146.544 43.8008C145.604 43.8008 145.059 44.4758 144.873 45.1088C144.687 44.4758 144.143 43.8008 143.202 43.8008C142.02 43.8008 141.234 44.7968 141.234 45.8843V45.9008C141.234 46.1378 141.234 48.5453 144.872 50.5088C148.515 48.5453 148.521 46.1378 148.514 45.9008Z" fill="white"/>
<path d="M180.199 119.254C182.602 116.851 182.602 112.955 180.199 110.552C177.796 108.149 173.901 108.149 171.498 110.552C169.095 112.955 169.095 116.851 171.498 119.254C173.901 121.657 177.796 121.657 180.199 119.254Z" fill="#155EEF"/>
<g opacity="0.4">
<path opacity="0.4" d="M180.199 119.254C182.602 116.851 182.602 112.955 180.199 110.552C177.796 108.149 173.901 108.149 171.498 110.552C169.095 112.955 169.095 116.851 171.498 119.254C173.901 121.657 177.796 121.657 180.199 119.254Z" fill="white"/>
</g>
<path opacity="0.2" d="M170.532 115.551C170.532 114.358 170.905 113.195 171.6 112.224C172.294 111.254 173.275 110.526 174.405 110.142C175.534 109.758 176.755 109.737 177.898 110.082C179.04 110.428 180.045 111.122 180.772 112.068C180.382 111.389 179.857 110.797 179.23 110.328C178.602 109.86 177.885 109.526 177.123 109.347C176.361 109.168 175.569 109.147 174.798 109.286C174.028 109.426 173.293 109.722 172.642 110.157C171.991 110.592 171.436 111.156 171.012 111.814C170.587 112.473 170.304 113.211 170.176 113.984C170.05 114.757 170.083 115.548 170.275 116.307C170.467 117.066 170.812 117.778 171.291 118.398C170.791 117.532 170.53 116.55 170.532 115.551Z" fill="white"/>
<path d="M178.724 114.046H176.837C176.825 114.046 176.815 114.044 176.804 114.039C176.795 114.034 176.786 114.027 176.779 114.018C176.771 114.009 176.767 113.999 176.765 113.988C176.762 113.977 176.762 113.966 176.765 113.955C176.831 113.678 176.86 113.393 176.849 113.109C176.849 112.959 176.849 112.779 176.84 112.611C176.831 112.443 176.774 112.28 176.678 112.143C176.626 112.068 176.555 112.006 176.476 111.963C176.395 111.919 176.305 111.894 176.213 111.891C175.783 111.891 175.715 112.312 175.675 112.654C175.628 113.053 175.609 113.467 175.433 113.835C175.325 114.097 175.12 114.308 174.859 114.421C174.67 114.505 174.473 114.569 174.271 114.613C174.254 114.616 174.239 114.625 174.227 114.638C174.217 114.652 174.211 114.668 174.211 114.685V117.475C174.211 117.495 174.218 117.513 174.232 117.527C174.247 117.541 174.265 117.549 174.284 117.549H175.055C175.067 117.549 175.078 117.551 175.088 117.556C175.099 117.562 175.108 117.569 175.115 117.579C175.193 117.683 175.294 117.768 175.409 117.826C175.526 117.885 175.654 117.915 175.784 117.915H178.202C178.373 117.915 178.535 117.847 178.657 117.727C178.777 117.606 178.844 117.443 178.844 117.273C178.844 117.185 178.823 117.098 178.784 117.019C178.777 117.005 178.774 116.988 178.778 116.972C178.781 116.956 178.79 116.941 178.802 116.931C178.871 116.862 178.925 116.781 178.963 116.691C179 116.602 179.018 116.506 179.018 116.409V116.335C179.018 116.246 178.997 116.159 178.957 116.08C178.949 116.065 178.948 116.049 178.951 116.032C178.954 116.016 178.963 116.002 178.976 115.992C179.044 115.939 179.098 115.872 179.135 115.795C179.173 115.719 179.192 115.634 179.192 115.549V115.476C179.192 115.387 179.171 115.3 179.131 115.221C179.123 115.206 179.122 115.189 179.125 115.173C179.128 115.157 179.137 115.142 179.15 115.132C179.218 115.078 179.272 115.01 179.309 114.932C179.347 114.854 179.366 114.769 179.365 114.682C179.363 114.513 179.294 114.352 179.174 114.233C179.054 114.114 178.894 114.047 178.724 114.046Z" fill="white"/>
<path d="M173.539 114.297H172.606C172.453 114.297 172.328 114.421 172.328 114.574V117.555C172.328 117.708 172.453 117.832 172.606 117.832H173.539C173.692 117.832 173.816 117.708 173.816 117.555V114.574C173.816 114.421 173.692 114.297 173.539 114.297Z" fill="#155EEF"/>
</svg>
